<svg xmlns="http://www.w3.org/2000/svg" width="54" height="60" viewBox="0 0 54 60">
  <g id="_3586375_clock_hour_timer_watch_icon" data-name="3586375_clock_hour_timer_watch_icon" transform="translate(-7.35 -1.9)">
    <path id="Path_30" data-name="Path 30" d="M38.4,11V8.255h2.585a.964.964,0,0,0,.946-.935V2.835a.964.964,0,0,0-.946-.935H29.952a.964.964,0,0,0-.946.935V7.321a.964.964,0,0,0,.946.935h2.585V11A26.155,26.155,0,0,0,16.9,18.6L15.83,17.539,17.6,15.794a.9.9,0,0,0,0-1.308l-3.657-3.614a.922.922,0,0,0-1.324,0l-4.981,4.8a.9.9,0,0,0,0,1.308l3.657,3.614a1.09,1.09,0,0,0,1.387,0l1.828-1.807,1.2,1.184A25.142,25.142,0,0,0,9.651,36.355a25.851,25.851,0,0,0,51.7,0A25.773,25.773,0,0,0,38.4,11ZM11.984,18.66,9.651,16.293,13.182,12.8l2.333,2.305-1.387,1.371-.694.685Zm21.5-12.274H30.9V3.769H40.04V6.386H37.455a.964.964,0,0,0-.946.935v3.551H34.492V7.321A1.019,1.019,0,0,0,33.483,6.386Zm1.954,53.645a23.678,23.678,0,1,1,0-47.352,12.292,12.292,0,0,1,1.513.062c.252,0,.5.062.757.062a23.656,23.656,0,0,1-2.27,47.227Z"/>
    <path id="Path_31" data-name="Path 31" d="M53.472,29.547l-.189-.187A20.406,20.406,0,1,0,60.47,44.936,20.11,20.11,0,0,0,53.472,29.547ZM39.853,63.441A18.5,18.5,0,1,1,51.328,30.357L41.114,41.945a4.112,4.112,0,0,0-1.2-.249,3.178,3.178,0,1,0,0,6.355,3.156,3.156,0,0,0,3.152-3.178,3.32,3.32,0,0,0-.5-1.745L52.841,31.478a18.229,18.229,0,0,1,5.8,13.4A18.725,18.725,0,0,1,39.853,63.441Zm1.324-18.567a1.324,1.324,0,0,1-2.648,0,1.324,1.324,0,0,1,2.648,0Z" transform="translate(-4.416 -8.519)"/>
  </g>
</svg>
