<svg xmlns="http://www.w3.org/2000/svg" width="34" height="34" viewBox="0 0 34 34">
  <g id="Instagram" transform="translate(-232 -13283)">
    <circle id="Ellipse_3" data-name="Ellipse 3" cx="17" cy="17" r="17" transform="translate(232 13283)" fill="#6e7684"/>
    <g id="Icon_feather-instagram" data-name="Icon feather-instagram" transform="translate(238 13289)">
      <path id="Path_22" data-name="Path 22" d="M7,3h8a4,4,0,0,1,4,4v8a4,4,0,0,1-4,4H7a4,4,0,0,1-4-4V7A4,4,0,0,1,7,3Z" fill="none" stroke="#171c25" stroke-linecap="round" stroke-linejoin="round" stroke-width="2"/>
      <path id="Path_23" data-name="Path 23" d="M18.43,14.666a3.2,3.2,0,1,1-2.7-2.7,3.2,3.2,0,0,1,2.7,2.7Z" transform="translate(-4.23 -4.17)" fill="none" stroke="#171c25" stroke-linecap="round" stroke-linejoin="round" stroke-width="2"/>
      <path id="Path_24" data-name="Path 24" d="M26.25,9.75h0" transform="translate(-10.85 -3.15)" fill="none" stroke="#171c25" stroke-linecap="round" stroke-linejoin="round" stroke-width="2"/>
    </g>
  </g>
</svg>
