<svg xmlns="http://www.w3.org/2000/svg" width="280" height="56" viewBox="0 0 280 56">
  <g id="Logo" transform="translate(496.708 -3500.993)">
    <path id="Icon_simple-minutemailer" data-name="Icon simple-minutemailer" d="M-227.836,3500.993l-6.9,7.2,4.868,9.248-10.28-1.775-4.68,10.884-19.88-25.126Zm1.272,15.591-1.914-1.517,2.468.751.252-.346-1.02-.954,1.338.521a13.19,13.19,0,0,1,8.732,12.261,12.882,12.882,0,0,1-4.266,9.537,12.68,12.68,0,0,0,1.77-6.472,13.469,13.469,0,0,0-8.63-12.376l-.63-1.477,1.5.639.422-.55-.022-.021Zm-8.728-3.8-3.2-5.439-18.792-4.243Z" fill="#24e096"/>
    <g id="Group_4" data-name="Group 4">
      <g id="Group_10" data-name="Group 10">
        <path id="Path_5" data-name="Path 5" d="M-382.747,3542.764l-6.191-12.15h-.144v18.135h-4.9V3521.87h6.3l7.019,14.478h.144l7.2-14.478h6.011v26.879h-4.9v-18.135h-.144l-6.155,12.15Z" fill="#e4ffff"/>
        <path id="Path_6" data-name="Path 6" d="M-355.018,3529.611c2.844,0,5.039,1.218,6.011,2.939h.144a12.115,12.115,0,0,1-.072-1.649v-.716h4.607v18.564h-4.607v-.859c0-.825.036-1.326.072-1.721h-.144a6.877,6.877,0,0,1-6.227,3.154c-5.328,0-9.071-4.051-9.071-9.856S-360.345,3529.611-355.018,3529.611Zm5.9,9.785c0-3.191-2.124-5.412-5.075-5.412-2.916,0-5.04,2.221-5.04,5.412,0,3.225,2.124,5.483,5.04,5.483C-351.239,3544.879-349.115,3542.621-349.115,3539.4Z" fill="#e4ffff"/>
        <path id="Path_7" data-name="Path 7" d="M-332.329,3530.185v4.407h-3.959v14.157h-5.04v-18.564Z" fill="#e4ffff"/>
        <path id="Path_8" data-name="Path 8" d="M-329.329,3521.87h5.04v15.482a6.775,6.775,0,0,0,.864.037,4.809,4.809,0,0,0,5.04-5.162c0-.573,0-1.075-.073-2.042h4.824a17.926,17.926,0,0,1,.108,2.114c0,3.011-1.08,6.128-3.96,7.884l5.039,8.566h-5.65l-4-7.168c-.36.036-.756.036-1.152.036-.324,0-.684,0-1.044-.036v7.168h-5.04Z" fill="#e4ffff"/>
        <path id="Path_9" data-name="Path 9" d="M-301.507,3549.323c-5.9,0-10.006-4.158-10.006-9.856a9.515,9.515,0,0,1,9.934-9.856c5.472,0,9.144,4.122,9.144,9.856a7.561,7.561,0,0,1-.145,1.577h-13.714a4.572,4.572,0,0,0,4.824,3.835,5.376,5.376,0,0,0,4.679-2.186l2.915,3.046A9.059,9.059,0,0,1-301.507,3549.323Zm-4.787-11.469h8.927a4.241,4.241,0,0,0-4.319-3.87A4.486,4.486,0,0,0-306.294,3537.854Z" fill="#e4ffff"/>
        <path id="Path_10" data-name="Path 10" d="M-288.672,3534.485h-1.763v-4.3h1.763v-4.731h5.04v4.731h4.32v4.3h-4.32v9.892h3.78v4.372h-8.82Z" fill="#e4ffff"/>
        <path id="Path_11" data-name="Path 11" d="M-276.816,3524.809a2.943,2.943,0,0,1,2.988-2.939,2.943,2.943,0,0,1,2.987,2.939,2.943,2.943,0,0,1-2.987,2.938A2.943,2.943,0,0,1-276.816,3524.809Zm.5,23.94v-18.564h5.04v18.564Z" fill="#e4ffff"/>
        <path id="Path_12" data-name="Path 12" d="M-252.434,3530.185v18.564h-5.04v-14.264h-5.758v14.264h-5.04v-18.564Z" fill="#e4ffff"/>
        <path id="Path_13" data-name="Path 13" d="M-240.543,3529.611a6.929,6.929,0,0,1,6.155,3.011h.145a13.553,13.553,0,0,1-.073-1.577v-.86h4.608v26.808h-13.859v-4.373h8.856V3547.6a8.12,8.12,0,0,1,.107-1.612h-.143c-.828,1.541-2.952,2.652-5.58,2.652-5.183,0-9.107-3.906-9.107-9.5C-249.434,3533.518-245.691,3529.611-240.543,3529.611Zm-3.816,9.5a4.831,4.831,0,0,0,4.932,5.125,4.851,4.851,0,0,0,4.932-5.125,4.831,4.831,0,0,0-4.932-5.125A4.831,4.831,0,0,0-244.359,3539.109Z" fill="#e4ffff"/>
      </g>
      <g id="Group_9" data-name="Group 9">
        <path id="Path_1" data-name="Path 1" d="M-496.708,3521.87h15.946v4.444H-491.6v6.7h9.935v4.337H-491.6v6.917h10.835v4.48h-15.946Z" fill="#e4ffff"/>
        <path id="Path_2" data-name="Path 2" d="M-439.635,3529.611c2.843,0,5.039,1.218,6.01,2.939h.145a12.115,12.115,0,0,1-.072-1.649v-.716h4.607v18.564h-4.607v-.859c0-.825.036-1.326.072-1.721h-.145a6.877,6.877,0,0,1-6.226,3.154c-5.328,0-9.071-4.051-9.071-9.856S-444.963,3529.611-439.635,3529.611Zm5.9,9.785c0-3.191-2.124-5.412-5.075-5.412-2.916,0-5.04,2.221-5.04,5.412,0,3.225,2.124,5.483,5.04,5.483C-435.856,3544.879-433.732,3542.621-433.732,3539.4Z" fill="#e4ffff"/>
        <path id="Path_3" data-name="Path 3" d="M-426.449,3524.809a2.943,2.943,0,0,1,2.988-2.939,2.943,2.943,0,0,1,2.988,2.939,2.943,2.943,0,0,1-2.988,2.938A2.943,2.943,0,0,1-426.449,3524.809Zm.5,23.94v-18.564h5.04v18.564Z" fill="#e4ffff"/>
        <path id="Path_4" data-name="Path 4" d="M-417.9,3521.87h5.04v22.507h3.888v4.372H-417.9Z" fill="#e4ffff"/>
        <path id="Path_14" data-name="Path 14" d="M-451.923,3530.31v18.65h-5.01v-14.329h-5.34v14.329h-5.15v-12.15a1.545,1.545,0,0,0-.01-.22v-1.959h-5.32v14.329h-5.01v-18.65Z" fill="#e4ffff"/>
      </g>
    </g>
  </g>
</svg>
