<svg id="Group_51" data-name="Group 51" xmlns="http://www.w3.org/2000/svg" width="1340.887" height="850" viewBox="0 0 1340.887 850">
  <path id="Path_36" data-name="Path 36" d="M544.763,214.788l19.884-2.24a4.436,4.436,0,0,1,4.175,2q1.725,2.68,3.7,5.253a74.581,74.581,0,0,0,7.874,8.791,4.375,4.375,0,0,1,1.079,4.814l-7.625,19.473a4.3,4.3,0,0,0,2.117,5.448L593.1,266.81a4.249,4.249,0,0,0,5.447-1.509L608.9,249.069a4.264,4.264,0,0,1,4.775-1.847,77.292,77.292,0,0,0,24.254,2.415,4.4,4.4,0,0,1,4.409,3.057l3.511,11.175a4.448,4.448,0,0,0,5.055,3l18.606-3.763a3.908,3.908,0,0,0,1.075-.357,4.268,4.268,0,0,0,2.38-4.358l-1.656-14.856-.412-3.619a76.5,76.5,0,0,0,9.023-5.96,77.609,77.609,0,0,0,10.587-9.8,4.266,4.266,0,0,1,4.761-1.148l15.679,6.16a4.42,4.42,0,0,0,5.579-2.161l6.49-13.1,1.849-3.758a4.478,4.478,0,0,0-1.591-5.769l-13.559-8.668a4.258,4.258,0,0,1-1.91-4.643,76.821,76.821,0,0,0,2.066-16.281,13.332,13.332,0,0,0,.041-1.38,2.39,2.39,0,0,1,.03-.464,4.364,4.364,0,0,1,3.077-3.736l18.134-5.741a3.173,3.173,0,0,0,.591-.233,4.437,4.437,0,0,0,2.393-4.808l-3.723-18.554a4.416,4.416,0,0,0-4.816-3.515L704.863,138.7a4.266,4.266,0,0,1-4.282-2.245,78.146,78.146,0,0,0-6.493-9.934q-1.955-2.545-4.076-4.881a4.5,4.5,0,0,1-.85-4.659l7.323-18.718a4.293,4.293,0,0,0-2.09-5.414l-16.961-8.369a4.487,4.487,0,0,0-5.786,1.6l-8.2,12.841a4.406,4.406,0,0,1-5.129,1.816,77.13,77.13,0,0,0-23.4-4.2,4.378,4.378,0,0,1-4.125-3.082l-5.167-16.345a4.529,4.529,0,0,0-5.186-3.065l-18.488,3.7A4.33,4.33,0,0,0,598.5,82.5l.088.869,1.932,17.258a4.428,4.428,0,0,1-2.393,4.45l-.017.013a76.686,76.686,0,0,0-11.471,7.288c-1.957,1.5-3.8,3.081-5.59,4.729a4.34,4.34,0,0,1-4.571.893l-15.916-6.253a4.492,4.492,0,0,0-5.675,2.18l-8.344,16.886a4.857,4.857,0,0,0-.429,1.485,4.474,4.474,0,0,0,2,4.188l10.849,6.9a4.469,4.469,0,0,1,2.026,3.895,4.782,4.782,0,0,1-.223,1.216,76.839,76.839,0,0,0-3.906,30.131,4.324,4.324,0,0,1-2.321,4.148,4.4,4.4,0,0,1-.691.282l-14.688,4.637a4.4,4.4,0,0,0-2.984,5.042l.083.431,3.613,18.088a4.477,4.477,0,0,0,4.891,3.54m127.214-56.465a51.44,51.44,0,0,1,2.7,9.184c1.217,6.249-.051,16.111-2.875,21.827-.3.615-.611,1.212-.923,1.81-19.456,36.118-70.458,28.934-78.856-11.818-1.089-5.329-.41-13.087,1.494-19.034a27.365,27.365,0,0,1,1.522-3.755,47.5,47.5,0,0,1,9.491-13.061c20.946-20.116,55.94-13.53,67.448,14.847" fill="#e9e9e9"/>
  <path id="Path_37" data-name="Path 37" d="M1073.183,218.048V720.513c0,8.79-6.346,15.921-14.17,15.921H334.065c-7.823,0-14.17-7.131-14.17-15.921V218.048c0-8.8,6.347-15.921,14.17-15.921h724.948c7.824,0,14.17,7.123,14.17,15.921" fill="#f5f9fb"/>
  <path id="Path_38" data-name="Path 38" d="M1037.347,189.363V230.11H228.306V189.363a15.219,15.219,0,0,1,15.219-15.219h778.6a15.218,15.218,0,0,1,15.218,15.219" fill="#1d2579"/>
  <path id="Path_39" data-name="Path 39" d="M253.055,202.127a7.085,7.085,0,1,1,7.085,7.085,7.085,7.085,0,0,1-7.085-7.085" fill="#e9e9e9"/>
  <path id="Path_40" data-name="Path 40" d="M280.974,202.127a7.085,7.085,0,1,1,7.085,7.085,7.085,7.085,0,0,1-7.085-7.085" fill="#e9e9e9"/>
  <path id="Path_41" data-name="Path 41" d="M309.6,202.127a7.085,7.085,0,1,1,7.085,7.085,7.085,7.085,0,0,1-7.085-7.085" fill="#e9e9e9"/>
  <path id="Path_42" data-name="Path 42" d="M752.44,130.253l9.684-1.091a2.16,2.16,0,0,1,2.033.973q.842,1.305,1.8,2.558a36.281,36.281,0,0,0,3.835,4.282,2.132,2.132,0,0,1,.526,2.344l-3.714,9.483a2.092,2.092,0,0,0,1.031,2.654l8.344,4.132a2.069,2.069,0,0,0,2.652-.735l5.045-7.9a2.076,2.076,0,0,1,2.325-.9,37.652,37.652,0,0,0,11.812,1.177,2.145,2.145,0,0,1,2.148,1.488l1.709,5.443a2.167,2.167,0,0,0,2.462,1.462l9.061-1.833a1.872,1.872,0,0,0,.523-.174,2.078,2.078,0,0,0,1.16-2.122l-.807-7.235-.2-1.763a37.248,37.248,0,0,0,4.394-2.9,37.8,37.8,0,0,0,5.156-4.774,2.078,2.078,0,0,1,2.318-.559l7.636,3a2.152,2.152,0,0,0,2.717-1.053l3.161-6.378.9-1.83a2.182,2.182,0,0,0-.775-2.81l-6.6-4.221a2.076,2.076,0,0,1-.931-2.262,37.385,37.385,0,0,0,1.007-7.928,6.588,6.588,0,0,0,.019-.673,1.129,1.129,0,0,1,.015-.225,2.124,2.124,0,0,1,1.5-1.82l8.831-2.8a1.556,1.556,0,0,0,.288-.113,2.162,2.162,0,0,0,1.165-2.342l-1.813-9.036a2.151,2.151,0,0,0-2.345-1.712L830.41,93.2a2.077,2.077,0,0,1-2.085-1.093,37.987,37.987,0,0,0-3.162-4.838q-.953-1.239-1.985-2.377a2.19,2.19,0,0,1-.414-2.269l3.566-9.116a2.089,2.089,0,0,0-1.017-2.636l-8.26-4.076a2.184,2.184,0,0,0-2.818.782l-3.994,6.253a2.145,2.145,0,0,1-2.5.885,37.569,37.569,0,0,0-11.4-2.047,2.134,2.134,0,0,1-2.009-1.5l-2.516-7.96a2.206,2.206,0,0,0-2.525-1.493l-9.005,1.8a2.109,2.109,0,0,0-1.684,2.311l.043.423.94,8.4a2.156,2.156,0,0,1-1.165,2.168l-.008.006a37.363,37.363,0,0,0-5.587,3.549c-.953.731-1.85,1.5-2.722,2.3a2.114,2.114,0,0,1-2.226.435l-7.751-3.045a2.187,2.187,0,0,0-2.764,1.061l-4.063,8.224a2.361,2.361,0,0,0-.21.723,2.182,2.182,0,0,0,.976,2.04l5.283,3.357a2.177,2.177,0,0,1,.986,1.9,2.339,2.339,0,0,1-.107.593,37.4,37.4,0,0,0-1.9,14.674,2.092,2.092,0,0,1-1.467,2.157l-7.153,2.259a2.141,2.141,0,0,0-1.453,2.455l.04.21,1.76,8.809a2.179,2.179,0,0,0,2.381,1.724m61.955-27.5a25.048,25.048,0,0,1,1.314,4.473,19.667,19.667,0,0,1-1.4,10.63c-.145.3-.3.59-.449.881-9.476,17.59-34.314,14.091-38.4-5.755a20.416,20.416,0,0,1,.728-9.27,13.253,13.253,0,0,1,.741-1.829,23.146,23.146,0,0,1,4.622-6.36,20.186,20.186,0,0,1,32.848,7.23" fill="#e9e9e9"/>
  <path id="Path_43" data-name="Path 43" d="M188.846,584.871s1.078-11.759-12.06-11.759c0,0,3.98,1.08,6.04,3.24,0,0-8.379-4.92-17.5,2.64s-3.453,26.517-6.225,30.117-13.573,4.319-12.252,15.958,34.272,26.217,32.157,35.846c0,0,12.914-18.983,3.679-27.646,0,0,4.5,4.239,4.959,9.278,0,0,1.222-9.838-5.04-12.985-5.54-2.786-10.078-12.971-9.6-14.791s15.839-29.9,15.839-29.9" fill="#151f2c"/>
  <path id="Path_44" data-name="Path 44" d="M175.911,641.328s9.815,40.606,19.45,48.724c5.792,4.879,23.011,16.076,23.011,16.076l-7.162,2.6s-23.884-8.066-29.231-14.352-19.988-37.79-19.988-37.79Z" fill="#ee805f"/>
  <path id="Path_45" data-name="Path 45" d="M83.663,712.667c.086.155.178.316.27.477,2.148,3.733,7.075,12.881,12.5,22.891,2.567,4.749,5.255,9.694,7.805,14.345,4.393,8.029,8.39,15.178,10.722,18.957,2.371,3.842,4.117,6.542,4.824,7.621l0,.006a1.781,1.781,0,0,1,.23,1.114,58.257,58.257,0,0,0,.155,10.067c3.273,32.568,25.234,50.02,25.234,50.02l6.53.965S142.7,804.9,139.977,785.544a37.212,37.212,0,0,1-.5-7.673c.482-5.042-.414-12.445-2.108-20.944-3.015-15.1-8.545-33.642-13.352-48.481-.3-.948-9.487-34.164-9.487-34.164-7.707,6.736-35.818,9.516-35.818,9.516s-4.767,11.589,4.95,28.869" fill="#384152"/>
  <path id="Path_46" data-name="Path 46" d="M165.643,847.391H138.391a14.966,14.966,0,0,1,.77-7.3c1.364-3.024,3.308-3.12.249-7.86,1.731,1.783,7.3,2.521,11.238,1.991.483.782,3.112,6.033,4.724,7.192,1.781,1.279,9.723.823,10.271,5.981" fill="#151f2c"/>
  <path id="Path_47" data-name="Path 47" d="M83.663,712.667c.086.155.178.316.27.477,2.148,3.733,13.764,25.188,19.19,35.2-6.288-25.872-1.914-51.744-1.914-51.744Z" fill="#151f2c"/>
  <path id="Path_48" data-name="Path 48" d="M185.129,583.217c.178-.716-15.565,7.115-16.363,8-7.383,8.189-5.278,18.877-1.053,18.98,2.709.065,2.184,4.57,2.184,4.57L200.082,602s-3.634-21.193-14.953-18.782" fill="#151f2c"/>
  <path id="Path_49" data-name="Path 49" d="M174.985,635.23s4.594,9.176,4.02,16.624c0,0-5.538,8.743-19.9,10.957,0,0,12.35-27.587,15.883-27.581" fill="#ffd500"/>
  <path id="Path_50" data-name="Path 50" d="M104.907,685.827l.092-5.1c-10.155,1.28-35.014-12.135-35.014-12.135s-10.624,7.066-12.079,27.245c-.71,9.85-5.2,51.5-5.7,63.943-.181,4.508-.241,7.726-.262,9.011a.02.02,0,0,1,0,.013,1.774,1.774,0,0,1-.431,1.049,58.25,58.25,0,0,0-5.5,8.434c-15.5,28.831-7.392,68.006-7.392,68.006l3.6-.914s13.1-40.612,21.666-58.179a36.825,36.825,0,0,1,3.878-6.638c3.22-3.911,6.615-10.552,9.962-18.544,6.326-15.112,27.181-76.194,27.181-76.194" fill="#384152"/>
  <path id="Path_51" data-name="Path 51" d="M60.293,847.391H33.041a14.966,14.966,0,0,1,.77-7.3c1.364-3.024,3.5-4.4,2.989-8.057a9.812,9.812,0,0,0,8.494,3.25c.482.783,3.116,4.971,4.728,6.13,1.781,1.279,9.723.823,10.271,5.981" fill="#151f2c"/>
  <path id="Path_52" data-name="Path 52" d="M157.262,668.662c-3.661.624.6,3.534-4.437,4.081-7.166.782-14.564,1.318-18.44,2.863-1.413.564-2.359,1.26-2.654,2.15-1.68,5.052-12.319,13.732-12.319,13.732-47.453-2.16-50.51-23.31-50.51-23.31,30.8-29.911,57-46.215,78.653-48.232,5.27-.492,12.374.168,15.706,1.652,7.574,3.371,11.724,13.632,11.724,13.632s-3.814,31.059-17.723,33.432" fill="#ffd500"/>
  <path id="Path_53" data-name="Path 53" d="M152.825,672.743c-7.166.782-14.564,1.318-18.44,2.863a75.565,75.565,0,0,1,9.585-41.468s7.286,29.649,8.855,38.6" fill="#dbb928"/>
  <path id="Path_54" data-name="Path 54" d="M162.856,623.55c1.354,4.243,5.87,16.333,12.129,11.68-.212-.9,1.1-3.526,2.653-6.19,1.982-3.406,4.342-6.886,4.342-6.886l-10.2-8.936-.609-.534a25.965,25.965,0,0,1-7.587,8.613,2.037,2.037,0,0,0-.729,2.253" fill="#ee805f"/>
  <path id="Path_55" data-name="Path 55" d="M181.979,622.157s-2.357,3.473-4.34,6.883c-6.339-3.909-6.346-11.757-5.857-15.822Z" fill="#de6b4d"/>
  <path id="Path_56" data-name="Path 56" d="M182.262,626.635s-15.393-8.565-9.911-18.069,7.186-17.009,17.246-11.943,9.86,9.785,8.8,13.4-11.992,18.593-16.137,16.61" fill="#ee805f"/>
  <path id="Path_57" data-name="Path 57" d="M201,604.483c-.7-4.219-2.849-4.622-4.343-4.341a12.312,12.312,0,0,0-14.972-5.732,20.956,20.956,0,0,1-12.132,7.287s1.787,3.324,9.146,5.381a12.581,12.581,0,0,0,7.26-.58,41.076,41.076,0,0,1-10.445,3.937c9.7.888,18.926-7.979,19.883-8.927.447,1.374,1.232,4.251.762,6.354-.638,2.858-3.175,8.034-1.626,8.7,0,0,7.524-5.755,6.467-12.083" fill="#151f2c"/>
  <rect id="Rectangle_54" data-name="Rectangle 54" width="33.51" height="127.774" transform="translate(224.822 756.627) rotate(-64.01)" fill="#1d2579"/>
  <path id="Path_58" data-name="Path 58" d="M188.9,762.926A37.972,37.972,0,0,1,168.346,736.8a8.629,8.629,0,0,1,16.856-3.7,20.9,20.9,0,1,0,14.507-24.514,8.629,8.629,0,1,1-4.889-16.552,38.159,38.159,0,1,1-5.921,70.9" fill="#1d2579"/>
  <path id="Path_59" data-name="Path 59" d="M351.377,842.138A38.16,38.16,0,1,1,403.585,793.8a8.629,8.629,0,0,1-16.051,6.343,20.9,20.9,0,1,0-10.377,26.527,8.629,8.629,0,0,1,7.464,15.561,37.972,37.972,0,0,1-33.244-.1" fill="#1d2579"/>
  <path id="Path_60" data-name="Path 60" d="M313.023,785.923l-60.505-29.5a3.52,3.52,0,0,1-1.617-4.693l1.538-3.154a3.52,3.52,0,0,1,4.693-1.617l60.505,29.5a3.52,3.52,0,0,1,1.617,4.693l-1.537,3.155a3.522,3.522,0,0,1-4.694,1.617" fill="#0d1245"/>
  <path id="Path_61" data-name="Path 61" d="M173.449,732.329a10.191,10.191,0,0,0,1.545,4.35c1.212,1.48,4.739,5.065,4.8,7.162,0,0-.178.932-.934.762s-3.383-2.771-4.731-2.585c0,0,.719,4.206,1.433,5.389s2.024,5.646,1.6,6.667-7.564-4.925-9.726-7.832-.034-14.7-.034-14.7Z" fill="#ee805f"/>
  <path id="Path_62" data-name="Path 62" d="M159.007,630.132s-18.02-.984-21.222,10.329,6.007,56.474,7.992,61.134c3.613,8.486,21.2,32.7,21.2,32.7l6.469-1.97s-11.729-37-14.347-40.659c-4.111-5.747,5.3-56.616-.1-61.538" fill="#ee805f"/>
  <path id="Path_63" data-name="Path 63" d="M134.231,655.591c.047.265,17.053,3.129,27.689-2.271,0,0,8.886-27.836-3.812-26.505s-20.218,5.332-20.538,11.411-3.339,17.365-3.339,17.365" fill="#ffd500"/>
  <path id="Path_64" data-name="Path 64" d="M209.521,688.025a7.08,7.08,0,0,0-2.987.754c-.982.757-2.087,2.076.115,3.173,3.3,1.645,9.907.915,9.649-.076-.813-3.122-2.005-4.071-6.777-3.851" fill="#ee805f"/>
  <path id="Path_65" data-name="Path 65" d="M419.522,244.877a3.083,3.083,0,0,0-.55,3.3.029.029,0,0,0,.009.016c.8,2.2,3.423,4.652,6.474,7.1.39.315.737.6,1.039.866.08.069.159.139.234.209.061.054.12.11.179.162,2.846,2.624,1.775,3.225,6.888,8.548,5.83,6.066,9.844,6.175,10.985,5.622.966-.471-1-3.688-3.171-7.3-.106-.174-.209-.35-.317-.527-.29-.481-.577-.969-.865-1.452-2.548-4.352-1.894-6.394-1.29-12.87.491-5.263,8.188-29.4,8.188-29.4l-11.172-1.924s-3.365,19.222-7.072,22.182c-1.982,1.578-4.2,1.6-6.106,2.767-.134.081-.267.165-.4.251a14.634,14.634,0,0,0-3.057,2.456" fill="#ee805f"/>
  <path id="Path_66" data-name="Path 66" d="M419.522,244.877a3.083,3.083,0,0,0-.55,3.3.029.029,0,0,0,.009.016c.974,2.2,3.535,4.638,6.485,7.08.385.32.726.614,1.028.889.08.069.159.139.234.209.061.054.12.11.179.162,2.846,2.624,1.775,3.225,6.888,8.548,5.83,6.066,9.844,6.175,10.985,5.622.966-.471-1-3.688-3.171-7.3a24.832,24.832,0,0,1-10.392-7.657c-3.51-4.479-5.852-10.235-8.242-13.569-.134.081-.267.165-.4.251a14.634,14.634,0,0,0-3.057,2.456" fill="#151f2c"/>
  <path id="Path_67" data-name="Path 67" d="M509.607,237.9c.69,3.449,5.6,2.873,11.1,1.531s4.186.253,12-.612,10.184-3.779,10.423-4.941c.213-1.032-3.649-1.4-7.792-1.872-.521-.059-1.044-.123-1.567-.188-4.677-.587-8.1-3.6-12.351-6.083-4.024-2.348-10.029-11.914-10.029-11.914l-10.719.849s5.625,8.544,7.8,12.259c1.28,2.184,1.212,5.073,1.053,7.3a13.739,13.739,0,0,0,.082,3.667" fill="#ee805f"/>
  <path id="Path_68" data-name="Path 68" d="M520.705,239.431c5.492-1.342,4.186.253,12-.612s10.184-3.78,10.422-4.942c.213-1.031-3.649-1.4-7.791-1.872l-.039.08a22.036,22.036,0,0,1-11.194,3.479c-5.3.129-10.919-1.39-14.581-1.331a13.781,13.781,0,0,0,.082,3.667c.69,3.448,5.606,2.873,11.1,1.531" fill="#151f2c"/>
  <path id="Path_69" data-name="Path 69" d="M468.529,169.359l-10.022,26.964L445.425,231.53a21.187,21.187,0,0,1-6.95-.635,30.151,30.151,0,0,1-6.722-3.272s3.634-37.8,10.409-59.5c1.737-5.571,3.683-10.076,5.831-12.612,10.5-12.415,20.536,13.85,20.536,13.85" fill="#151f2c"/>
  <path id="Path_70" data-name="Path 70" d="M458.34,126.536c-6.565-2.118-25.288.6-44.1,4.283l-3.938-6.5-40.626-3.173s-13.406,29.729-6.067,48.672a6.869,6.869,0,0,0,6.876,4.628h.594s24.179-.014,32.031-.014c20.2,0,42.758-13.888,45.676-14.471,4.775-.956,6.686,8.6,11.461,18.625S505.141,223,505.141,223s6.166.062,8.713-.893a8.575,8.575,0,0,0,3.741-2.362s-44.45-88.437-59.255-93.213" fill="#384152"/>
  <path id="Path_71" data-name="Path 71" d="M396.845.648C391.151-.817,383.359.642,382.068.77c-15.459,1.522-20.651,18.766-18.313,32.143,2.159,12.347-4.1,15.763-11.36,25.514-14.551,19.554-5.042,36.041,6.441,40.291,6.889,2.55,16.456-3.883,16.456-3.883.173.069,30.054-19.578,42.306-30.653C438,56.2,411.352,4.38,396.845.648" fill="#151f2c"/>
  <path id="Path_72" data-name="Path 72" d="M399.128,57.2c.4,1.431-6.356,4.061-11.518,3.094-4.855-.905-10.3-6.591-9.176-7.125,1.858-.883,3.109-3.079,2.092-14.952l.925.1L396.986,40.1s.047,4.839.409,9.372a30.6,30.6,0,0,0,1.733,7.732" fill="#ee805f"/>
  <path id="Path_73" data-name="Path 73" d="M396.986,40.1s.047,4.84.408,9.373c-8.574.46-13.736-6.973-15.944-11.147Z" fill="#de6b4d"/>
  <path id="Path_74" data-name="Path 74" d="M400.2,44.156s-20.213,1.993-21.261-10.613-4.362-20.84,8.5-22.646,15.772,2.8,17.145,6.919.848,25.5-4.383,26.34" fill="#ee805f"/>
  <path id="Path_75" data-name="Path 75" d="M398.03,8.906s-2.546,15.4-14.058,19.055c-8.4,2.666-12.2.909-12.2.909a34.233,34.233,0,0,0,5.479-12.814,6.165,6.165,0,0,1,4.111-4.7c5.968-1.963,13.2-7.331,16.669-2.447" fill="#151f2c"/>
  <path id="Path_76" data-name="Path 76" d="M394.221,12.192s3.809.849,7.185,5.764c1.845,2.686,3.981,9.458,3.617,12.456,0,0,3.538-14.255-1.621-19.557-5.47-5.623-9.181,1.337-9.181,1.337" fill="#151f2c"/>
  <path id="Path_77" data-name="Path 77" d="M362.73,98.616c.36,1.531.669,2.94.92,4.239.411,2.1.7,3.9.894,5.5.617,4.972.431,7.918.849,11.14a27.762,27.762,0,0,0,1.511,6.065c.836,2.31,22.8,4.368,35.3,3.538,3.968-.257,6.991-.817,8.065-1.743,4.458-3.872,4.014,4.644,4.625-36.1.3-19.875-16.864-37.576-16.864-37.576s-1.371,8.49-18.389-1.614c-.605-.354-7.307,9.571-13.758,21.791-7.108,13.5-5.159,16.357-3.152,24.763" fill="#24e096"/>
  <path id="Path_78" data-name="Path 78" d="M458.508,196.323,445.426,231.53a21.186,21.186,0,0,1-6.95-.635,30.151,30.151,0,0,1-6.722-3.272s3.633-37.8,10.409-59.5Z" fill="#384152"/>
  <path id="Path_79" data-name="Path 79" d="M398.03,53.673s17.511,2.969,19.567,10.508,16.263,49.706,16.263,49.706-11.008,3.756-15.12-.356-14.31-38.155-14.31-38.155Z" fill="#24e096"/>
  <path id="Path_80" data-name="Path 80" d="M395.53,36.721a3.475,3.475,0,0,0,3.085,2.073c2.238,0,2.843-.335,3.267-.809a7.008,7.008,0,0,0,.843-1.387,19.009,19.009,0,0,0-7.2.123" fill="#fff"/>
  <path id="Path_81" data-name="Path 81" d="M364.544,108.354c.617,4.972.431,7.918.849,11.14,15.9.052,37.157-12.278,37.157-12.278Z" fill="#1baf75"/>
  <path id="Path_82" data-name="Path 82" d="M402.55,96.788s-24.769-.738-28.945-14.817c-4.586-15.467-9.724,6.361-9.724,6.361l2.734,13.931H393.79Z" fill="#1baf75"/>
  <path id="Path_83" data-name="Path 83" d="M445.731,58.586l-1.339-3.315a9.4,9.4,0,0,0-8.717-5.881H410.982v82.559H513.126V65.058h-57.8a10.347,10.347,0,0,1-9.594-6.472" fill="#b8c0c7"/>
  <path id="Path_84" data-name="Path 84" d="M426.389,99.594V93.643L447.262,84.5v6.081l-14.577,5.994,14.577,5.995v6.167Z" fill="#fff"/>
  <path id="Path_85" data-name="Path 85" d="M468.954,77.384h5.563l-19.105,39.935h-5.563Z" fill="#fff"/>
  <path id="Path_86" data-name="Path 86" d="M497.719,93.643v5.951l-20.873,9.143v-6.081l14.576-5.994-14.576-5.995V84.5Z" fill="#fff"/>
  <path id="Path_87" data-name="Path 87" d="M402.547,100.052l1.792-2.813a14.426,14.426,0,0,0,3.408-1.859c2.366-1.661,2.054-4.15,3.235-3.886L411,96.963l-.128.019c5.076,1.355,11.012-.118,11.131,1.145.327,3.477-2.362,5.042-4.615,6.131-1.725.834-3.684,2.084-6.8,1.114-2.277-.708-5.861-1.429-5.861-1.429Z" fill="#ee805f"/>
  <path id="Path_88" data-name="Path 88" d="M379.638,52.065s-16.078,1.052-20.1,7.323-9.005,38.109-6.915,49.044,53.581-2.09,53.581-2.09l-1.643-9.488s-29.716.172-31.409-3.7c-2.251-5.146,6.484-41.091,6.484-41.091" fill="#24e096"/>
  <path id="Path_89" data-name="Path 89" d="M457.253,65.022c-.138.417,2.418,4.629,6.069,3.9,2.276-.457,5.236-5.358,2.635-6.439-4.339-1.8-8.335,1.428-8.7,2.542" fill="#ee805f"/>
  <rect id="Rectangle_55" data-name="Rectangle 55" width="126.811" height="0.612" transform="translate(613.935 285.89) rotate(-61.932)" fill="#151f2c"/>
  <rect id="Rectangle_56" data-name="Rectangle 56" width="0.612" height="98.748" transform="matrix(0.733, -0.68, 0.68, 0.733, 825.182, 174.352)" fill="#151f2c"/>
  <path id="Path_90" data-name="Path 90" d="M934.254,267.706a26.86,26.86,0,0,1-5.009,19.671,25.613,25.613,0,0,1-17.127,10.247L611.994,338.861c-15.318,2.105-29.482-8.043-31.475-22.549a25.841,25.841,0,0,1,5.622-19.752,28.807,28.807,0,0,1,18.6-10.449L904.87,244.872c14.169-1.946,27.39,8.328,29.384,22.834" fill="#e9e9e9"/>
  <path id="Path_91" data-name="Path 91" d="M934.254,267.706a26.86,26.86,0,0,1-5.009,19.671,25.613,25.613,0,0,1-17.127,10.247l-54.31,7.462-7.248-52.751,54.31-7.463c14.169-1.946,27.39,8.328,29.384,22.834" fill="#24e096"/>
  <path id="Path_92" data-name="Path 92" d="M901.2,282.018a13.717,13.717,0,0,1-2.033.126,13.506,13.506,0,1,1,2.033-.126m-9.8-21.548a11.334,11.334,0,1,0,16.027.186,11.346,11.346,0,0,0-16.027-.186" fill="#fff"/>
  <rect id="Rectangle_57" data-name="Rectangle 57" width="18.517" height="2.235" transform="matrix(0.715, -0.699, 0.699, 0.715, 876.393, 289.422)" fill="#fff"/>
  <path id="Path_93" data-name="Path 93" d="M872.57,294.717h0a2,2,0,0,1,.032-2.822l7.8-7.621a2,2,0,0,1,2.789,2.854l-7.8,7.621a2,2,0,0,1-2.822-.032" fill="#fff"/>
  <path id="Path_94" data-name="Path 94" d="M430.155,554.338H367.661a2.468,2.468,0,0,1-2.468-2.468v-.786a2.467,2.467,0,0,1,2.468-2.467h62.494a2.467,2.467,0,0,1,2.468,2.467v.786a2.468,2.468,0,0,1-2.468,2.468" fill="#24e096"/>
  <path id="Path_95" data-name="Path 95" d="M398.084,574.009H367.146a1.952,1.952,0,1,1,0-3.9h30.938a1.952,1.952,0,1,1,0,3.9" fill="#151f2c"/>
  <path id="Path_96" data-name="Path 96" d="M421.907,565.821h-55.03a1.684,1.684,0,0,1-1.684-1.684V563.6a1.684,1.684,0,0,1,1.684-1.684h55.03a1.684,1.684,0,0,1,1.684,1.684v.536a1.684,1.684,0,0,1-1.684,1.684" fill="#151f2c"/>
  <path id="Path_97" data-name="Path 97" d="M481.76,565.821H430.6a1.684,1.684,0,0,1-1.683-1.684V563.6a1.684,1.684,0,0,1,1.683-1.684H481.76a1.684,1.684,0,0,1,1.684,1.684v.536a1.684,1.684,0,0,1-1.684,1.684" fill="#151f2c"/>
  <path id="Path_98" data-name="Path 98" d="M436.672,574.009H405.734a1.952,1.952,0,1,1,0-3.9h30.938a1.952,1.952,0,1,1,0,3.9" fill="#151f2c"/>
  <path id="Path_99" data-name="Path 99" d="M506.508,554.338H444.014a2.467,2.467,0,0,1-2.467-2.468v-.786a2.466,2.466,0,0,1,2.467-2.467h62.494a2.467,2.467,0,0,1,2.468,2.467v.786a2.468,2.468,0,0,1-2.468,2.468" fill="#24e096"/>
  <path id="Path_100" data-name="Path 100" d="M430.156,597.411H367.661a2.468,2.468,0,0,1-2.468-2.467v-.787a2.468,2.468,0,0,1,2.468-2.467h62.495a2.468,2.468,0,0,1,2.467,2.467v.787a2.467,2.467,0,0,1-2.467,2.467" fill="#24e096"/>
  <path id="Path_101" data-name="Path 101" d="M398.084,617.083H367.146a1.952,1.952,0,1,1,0-3.9h30.938a1.952,1.952,0,1,1,0,3.9" fill="#151f2c"/>
  <path id="Path_102" data-name="Path 102" d="M421.906,608.9H366.877a1.684,1.684,0,0,1-1.684-1.684v-.537a1.683,1.683,0,0,1,1.683-1.683h55.03a1.684,1.684,0,0,1,1.684,1.683v.537a1.684,1.684,0,0,1-1.684,1.684" fill="#151f2c"/>
  <path id="Path_103" data-name="Path 103" d="M481.759,608.9H430.6a1.684,1.684,0,0,1-1.684-1.684v-.537a1.683,1.683,0,0,1,1.684-1.683h51.163a1.684,1.684,0,0,1,1.684,1.683v.537a1.684,1.684,0,0,1-1.684,1.684" fill="#151f2c"/>
  <path id="Path_104" data-name="Path 104" d="M436.672,617.083H405.734a1.952,1.952,0,1,1,0-3.9h30.938a1.952,1.952,0,1,1,0,3.9" fill="#151f2c"/>
  <path id="Path_105" data-name="Path 105" d="M506.509,597.411H444.014a2.467,2.467,0,0,1-2.467-2.467v-.786a2.468,2.468,0,0,1,2.467-2.468h62.495a2.468,2.468,0,0,1,2.467,2.467v.787a2.468,2.468,0,0,1-2.467,2.467" fill="#24e096"/>
  <path id="Path_106" data-name="Path 106" d="M756.177,335.613l-35.811,8.333-17.708,32.223-13.521-73.434Z" fill="#384152"/>
  <rect id="Rectangle_58" data-name="Rectangle 58" width="6.547" height="37.874" transform="matrix(0.797, -0.604, 0.604, 0.797, 713.193, 340.826)" fill="#384152"/>
  <path id="Path_107" data-name="Path 107" d="M731.087,487.4H646.322a8.1,8.1,0,0,1-8.1-8.1V394.54a8.1,8.1,0,0,1,8.1-8.1h84.765a8.1,8.1,0,0,1,8.1,8.1V479.3a8.1,8.1,0,0,1-8.1,8.1" fill="#e9e9e9"/>
  <path id="Path_108" data-name="Path 108" d="M651.122,466.286l19.619-35.369a6.452,6.452,0,0,1,10.847-.685L692.9,445.666a6.454,6.454,0,0,0,9.966.541,6.452,6.452,0,0,1,10.177.847l12.212,18.854a6.454,6.454,0,0,1-5.417,9.962H656.765a6.454,6.454,0,0,1-5.643-9.584" fill="#1d2579"/>
  <path id="Path_109" data-name="Path 109" d="M689.839,414.387a7.717,7.717,0,1,1,7.717,7.717,7.717,7.717,0,0,1-7.717-7.717" fill="#1d2579"/>
  <path id="Path_110" data-name="Path 110" d="M861.9,490.124l-87.249,11.9a6.453,6.453,0,0,1-7.266-5.522l-11.9-87.249A6.453,6.453,0,0,1,761,401.988l87.249-11.9a6.454,6.454,0,0,1,7.267,5.522l11.9,87.249a6.454,6.454,0,0,1-5.522,7.266" fill="#e9e9e9"/>
  <path id="Path_111" data-name="Path 111" d="M778.179,480.23l14.659-37.7a6.453,6.453,0,0,1,10.655-2.144l13.3,13.763a6.454,6.454,0,0,0,9.948-.811,6.452,6.452,0,0,1,10.2-.536l14.647,17.031a6.452,6.452,0,0,1-4.02,10.6l-62.5,8.525a6.453,6.453,0,0,1-6.887-8.732" fill="#1d2579"/>
  <path id="Path_112" data-name="Path 112" d="M809.526,423.574a7.717,7.717,0,1,1,8.69,6.6,7.718,7.718,0,0,1-8.69-6.6" fill="#1d2579"/>
  <rect id="Rectangle_59" data-name="Rectangle 59" width="50.881" height="43.627" transform="translate(554.472 802.029)" fill="#24e096"/>
  <rect id="Rectangle_60" data-name="Rectangle 60" width="54.658" height="3.371" transform="translate(552.418 800.162)" fill="#384152"/>
  <rect id="Rectangle_61" data-name="Rectangle 61" width="50.881" height="13.858" transform="translate(554.472 813.832)" fill="#384152"/>
  <path id="Path_113" data-name="Path 113" d="M667.259,845.687H619.215a3.184,3.184,0,0,1-3.185-3.185v-5.328a3.185,3.185,0,0,1,3.535-3.166l48.045,5.329a3.185,3.185,0,0,1-.351,6.35" fill="#24e096"/>
  <path id="Path_114" data-name="Path 114" d="M1339.256,850,1.63,849.539A1.636,1.636,0,0,1,0,847.908v-.835a1.636,1.636,0,0,1,1.631-1.63l1337.626.461a1.636,1.636,0,0,1,1.63,1.631v.835a1.636,1.636,0,0,1-1.631,1.63" fill="#dbdee5"/>
  <path id="Path_115" data-name="Path 115" d="M583.332,491.372H577.8a.911.911,0,1,1,0-1.821h5.5a.927.927,0,0,1,.929.91.9.9,0,0,1-.892.911m-11.036,0h-5.5a.911.911,0,0,1,0-1.821h5.5a.911.911,0,1,1,0,1.821m-11,0h-5.5a.911.911,0,0,1,0-1.821h5.5a.911.911,0,0,1,0,1.821m-11,0h-5.5a.911.911,0,0,1,0-1.821h5.5a.911.911,0,1,1,0,1.821m-11,0h-5.5a.911.911,0,0,1,0-1.821h5.5a.911.911,0,0,1,0,1.821m-11,0h-5.5a.911.911,0,0,1,0-1.821h5.5a.911.911,0,0,1,0,1.821m-11,0h-5.5a.911.911,0,1,1,0-1.821h5.5a.911.911,0,1,1,0,1.821m-11,0h-5.5a.911.911,0,0,1,0-1.821h5.5a.911.911,0,0,1,0,1.821m-11,0h-5.5a.911.911,0,0,1,0-1.821h5.5a.911.911,0,0,1,0,1.821m-11,0h-5.5a.911.911,0,1,1,0-1.821h5.5a.911.911,0,0,1,0,1.821m-11,0h-5.5a.911.911,0,0,1,0-1.821h5.5a.911.911,0,0,1,0,1.821m-11,0h-5.5a.911.911,0,1,1,0-1.821h5.5a.911.911,0,0,1,0,1.821m-11,0h-5.5a.911.911,0,0,1,0-1.821h5.5a.911.911,0,0,1,0,1.821m-11,0h-5.5a.911.911,0,0,1,0-1.821h5.5a.911.911,0,1,1,0,1.821m-11,0h-5.5a.911.911,0,1,1,0-1.821h5.5a.911.911,0,0,1,0,1.821m-11,0h-5.5a.911.911,0,0,1,0-1.821h5.5a.911.911,0,1,1,0,1.821m-11,0h-5.5a.911.911,0,1,1,0-1.821h5.5a.911.911,0,0,1,0,1.821m-11,0h-4.9c-.219,0-.438-.007-.654-.021a.91.91,0,1,1,.116-1.817c.178.011.357.017.538.017h4.9a.911.911,0,1,1,0,1.821m192.188-1.6a.91.91,0,0,1-.513-1.663,8.365,8.365,0,0,0,3.071-3.8.91.91,0,0,1,1.689.68,10.192,10.192,0,0,1-3.737,4.629.9.9,0,0,1-.51.158m-202.756-.328a.9.9,0,0,1-.555-.19,10.167,10.167,0,0,1-3.452-4.845.91.91,0,1,1,1.727-.577,8.358,8.358,0,0,0,2.836,3.981.91.91,0,0,1-.556,1.631m206.829-9.3a.909.909,0,0,1-.91-.91v-5.5a.91.91,0,1,1,1.82,0v5.5a.909.909,0,0,1-.91.91m-210.45-.559a.911.911,0,0,1-.91-.91v-5.5a.911.911,0,0,1,1.821,0v5.5a.911.911,0,0,1-.911.91m210.45-10.44a.909.909,0,0,1-.91-.91v-5.5a.91.91,0,0,1,1.82,0v5.5a.909.909,0,0,1-.91.91m-210.45-.559a.911.911,0,0,1-.91-.91v-5.5a.911.911,0,1,1,1.821,0v5.5a.911.911,0,0,1-.911.91m210.45-10.439a.91.91,0,0,1-.91-.91v-5.5a.91.91,0,1,1,1.82,0v5.5a.91.91,0,0,1-.91.91m-210.45-.559a.911.911,0,0,1-.91-.911v-5.5a.911.911,0,0,1,1.821,0v5.5a.911.911,0,0,1-.911.911m210.45-10.439a.91.91,0,0,1-.91-.911v-5.5a.91.91,0,1,1,1.82,0v5.5a.91.91,0,0,1-.91.911m-210.45-.56a.91.91,0,0,1-.91-.91v-5.5a.911.911,0,0,1,1.821,0v5.5a.91.91,0,0,1-.911.91m210.45-10.439a.909.909,0,0,1-.91-.91v-5.5a.91.91,0,1,1,1.82,0v5.5a.909.909,0,0,1-.91.91m-210.45-.559a.911.911,0,0,1-.91-.91v-5.5a.911.911,0,1,1,1.821,0v5.5a.911.911,0,0,1-.911.91m210.45-10.439a.91.91,0,0,1-.91-.91v-5.5a.91.91,0,1,1,1.82,0v5.5a.91.91,0,0,1-.91.91m-210.45-.559a.911.911,0,0,1-.91-.911v-5.5a.911.911,0,1,1,1.821,0v5.5a.911.911,0,0,1-.911.911m210.45-10.439a.91.91,0,0,1-.91-.911v-5.5a.91.91,0,1,1,1.82,0v5.5a.91.91,0,0,1-.91.911m-210.45-.56a.911.911,0,0,1-.91-.91v-5.5a.911.911,0,0,1,1.821,0v5.5a.911.911,0,0,1-.911.91m210.45-10.439a.91.91,0,0,1-.91-.91v-5.5a.91.91,0,0,1,1.82,0v5.5a.91.91,0,0,1-.91.91m-210.45-.559a.911.911,0,0,1-.91-.911v-5.5a.911.911,0,0,1,1.821,0v5.5a.911.911,0,0,1-.911.911m210.45-10.439a.91.91,0,0,1-.91-.911v-5.5a.91.91,0,1,1,1.82,0v5.5a.91.91,0,0,1-.91.911m-210.45-.56a.911.911,0,0,1-.91-.91v-5.5a.911.911,0,0,1,1.821,0v5.5a.911.911,0,0,1-.911.91m210.45-10.439a.91.91,0,0,1-.91-.91v-2.482a8.371,8.371,0,0,0-.436-2.674.91.91,0,1,1,1.726-.58,10.181,10.181,0,0,1,.53,3.254v2.482a.91.91,0,0,1-.91.91m-210.45-.559a.911.911,0,0,1-.91-.911v-1.922a10.144,10.144,0,0,1,.744-3.831.91.91,0,0,1,1.687.684,8.344,8.344,0,0,0-.61,3.147v1.922a.911.911,0,0,1-.911.911M588.945,371.3a.909.909,0,0,1-.554-.188,8.315,8.315,0,0,0-4.574-1.712.91.91,0,1,1,.111-1.817,10.127,10.127,0,0,1,5.572,2.085.91.91,0,0,1-.555,1.632m-202.722-.327a.91.91,0,0,1-.511-1.664,10.148,10.148,0,0,1,5.687-1.746h0a.911.911,0,0,1,0,1.821,8.333,8.333,0,0,0-4.67,1.433.9.9,0,0,1-.509.156m192.151-1.589h-5.5a.911.911,0,1,1,0-1.821h5.5a.911.911,0,0,1,0,1.821m-11,0h-5.5a.911.911,0,0,1,0-1.821h5.5a.911.911,0,0,1,0,1.821m-11,0h-5.5a.911.911,0,0,1,0-1.821h5.5a.911.911,0,0,1,0,1.821m-11,0h-5.5a.911.911,0,0,1,0-1.821h5.5a.911.911,0,0,1,0,1.821m-11,0h-5.5a.911.911,0,0,1,0-1.821h5.5a.911.911,0,0,1,0,1.821m-11,0h-5.5a.911.911,0,1,1,0-1.821h5.5a.911.911,0,0,1,0,1.821m-11,0h-5.5a.911.911,0,0,1,0-1.821h5.5a.911.911,0,1,1,0,1.821m-11,0h-5.5a.911.911,0,1,1,0-1.821h5.5a.911.911,0,0,1,0,1.821m-11,0h-5.5a.911.911,0,0,1,0-1.821h5.5a.911.911,0,1,1,0,1.821m-11,0h-5.5a.911.911,0,1,1,0-1.821h5.5a.911.911,0,0,1,0,1.821m-11,0h-5.5a.911.911,0,0,1,0-1.821h5.5a.911.911,0,0,1,0,1.821m-11,0h-5.5a.911.911,0,0,1,0-1.821h5.5a.911.911,0,0,1,0,1.821m-11,0h-5.5a.911.911,0,1,1,0-1.821h5.5a.911.911,0,0,1,0,1.821m-11,0h-5.5a.911.911,0,0,1,0-1.821h5.5a.911.911,0,1,1,0,1.821m-11,0h-5.5a.911.911,0,1,1,0-1.821h5.5a.911.911,0,0,1,0,1.821m-11,0h-5.5a.911.911,0,0,1,0-1.821h5.5a.911.911,0,0,1,0,1.821m-11,0h-5.5a.911.911,0,1,1,0-1.821h5.5a.911.911,0,0,1,0,1.821" fill="#151f2c"/>
  <path id="Path_116" data-name="Path 116" d="M895.938,643.991h-4.909a.807.807,0,0,1,0-1.613H895.9a.822.822,0,0,1,.824.807.79.79,0,0,1-.787.806m-9.781,0h-4.872a.807.807,0,0,1,0-1.613h4.872a.807.807,0,1,1,0,1.613m-9.743,0h-4.871a.807.807,0,0,1,0-1.613h4.871a.807.807,0,0,1,0,1.613m-9.742,0H861.8a.807.807,0,1,1,0-1.613h4.872a.807.807,0,0,1,0,1.613m-9.744,0h-4.872a.807.807,0,0,1,0-1.613h4.872a.807.807,0,0,1,0,1.613m-9.743,0h-4.872a.807.807,0,0,1,0-1.613h4.872a.807.807,0,0,1,0,1.613m-9.742,0H832.57a.807.807,0,0,1,0-1.613h4.873a.807.807,0,0,1,0,1.613m-9.744,0h-4.872a.807.807,0,0,1,0-1.613H827.7a.807.807,0,0,1,0,1.613m-9.743,0h-4.872a.807.807,0,0,1,0-1.613h4.872a.807.807,0,0,1,0,1.613m-9.742,0h-4.706c-.07,0-.138,0-.207-.005a.807.807,0,1,1,.08-1.612c.042,0,.085,0,.127,0h4.706a.807.807,0,0,1,0,1.613m90.875-3.087h-.028a.807.807,0,0,1-.78-.832l0-.077v-4.769a.806.806,0,1,1,1.612,0l0,4.9a.807.807,0,0,1-.8.78m-98.77-.13a.806.806,0,0,1-.806-.806V635.1a.806.806,0,0,1,1.613,0v4.872a.806.806,0,0,1-.807.806m98.77-9.613a.805.805,0,0,1-.8-.806v-4.871a.806.806,0,1,1,1.612,0v4.871a.807.807,0,0,1-.807.806m-98.77-.13a.806.806,0,0,1-.806-.806v-4.872a.806.806,0,1,1,1.613,0v4.872a.806.806,0,0,1-.807.806m98.77-9.613a.805.805,0,0,1-.8-.806V615.74a.806.806,0,0,1,1.612,0v4.872a.807.807,0,0,1-.807.806m-98.77-.13a.806.806,0,0,1-.806-.807v-4.75c0-.051,0-.1,0-.154a.793.793,0,0,1,.838-.773.808.808,0,0,1,.774.839l0,.088v4.75a.806.806,0,0,1-.807.807m95.731-7.937h-.036l-.113,0h-4.723a.807.807,0,1,1,0-1.613H895.9c.061,0,.122,0,.185,0a.806.806,0,0,1-.036,1.612m-9.744,0h-4.871a.807.807,0,1,1,0-1.613h4.871a.807.807,0,0,1,0,1.613m-9.743,0h-4.872a.807.807,0,0,1,0-1.613h4.872a.807.807,0,1,1,0,1.613m-9.743,0h-4.871a.807.807,0,1,1,0-1.613h4.871a.807.807,0,0,1,0,1.613m-9.743,0h-4.871a.807.807,0,1,1,0-1.613h4.871a.807.807,0,0,1,0,1.613m-9.743,0h-4.872a.807.807,0,0,1,0-1.613h4.872a.807.807,0,1,1,0,1.613m-9.743,0h-4.872a.807.807,0,1,1,0-1.613h4.872a.807.807,0,0,1,0,1.613m-9.744,0h-4.87a.807.807,0,1,1,0-1.613h4.87a.807.807,0,1,1,0,1.613m-9.743,0h-4.871a.807.807,0,0,1,0-1.613H818.1a.807.807,0,1,1,0,1.613m-9.742,0h-4.854a.814.814,0,0,1-.815-.806.8.8,0,0,1,.8-.807h4.872a.807.807,0,0,1,0,1.613" fill="#151f2c"/>
  <path id="Path_117" data-name="Path 117" d="M547.973,353.266h-5.424a.91.91,0,1,1,0-1.82h5.39a.924.924,0,0,1,.927.91.9.9,0,0,1-.893.91m-10.815,0h-5.391a.91.91,0,1,1,0-1.82h5.391a.91.91,0,0,1,0,1.82m-10.782,0h-5.39a.91.91,0,1,1,0-1.82h5.39a.91.91,0,1,1,0,1.82m-10.781,0H510.2a.91.91,0,1,1,0-1.82h5.391a.91.91,0,1,1,0,1.82m-10.781,0h-5.391a.91.91,0,1,1,0-1.82h5.391a.91.91,0,1,1,0,1.82m-10.782,0h-5.391a.91.91,0,1,1,0-1.82h5.391a.91.91,0,1,1,0,1.82m-10.781,0H477.86a.91.91,0,1,1,0-1.82h5.391a.91.91,0,1,1,0,1.82m-10.682-.58a.91.91,0,0,1-.448-.118,5.4,5.4,0,0,1-2.733-4.69v-.661a.91.91,0,1,1,1.82,0v.661a3.578,3.578,0,0,0,1.811,3.106.91.91,0,0,1-.45,1.7m79.562-2.32a.911.911,0,0,1-.851-1.231,3.554,3.554,0,0,0,.227-1.257V344.1a.91.91,0,0,1,1.821,0v3.779a5.378,5.378,0,0,1-.344,1.9.912.912,0,0,1-.853.59m-81.833-7.63a.909.909,0,0,1-.91-.91v-5.391a.91.91,0,0,1,1.82,0v5.391a.909.909,0,0,1-.91.91m82.119-3.117a.911.911,0,0,1-.91-.911v-5.39a.91.91,0,1,1,1.821,0v5.39a.911.911,0,0,1-.911.911M470.3,331.955a.91.91,0,0,1-.91-.91v-5.391a.91.91,0,1,1,1.82,0v5.391a.91.91,0,0,1-.91.91m82.119-3.118a.91.91,0,0,1-.91-.91v-5.391a.91.91,0,0,1,1.821,0v5.391a.91.91,0,0,1-.911.91M470.3,321.173a.909.909,0,0,1-.91-.91v-5.391a.91.91,0,0,1,1.82,0v5.391a.909.909,0,0,1-.91.91m82.119-3.117a.911.911,0,0,1-.91-.911v-5.39a.91.91,0,1,1,1.821,0v5.39a.911.911,0,0,1-.911.911M470.3,310.392a.91.91,0,0,1-.91-.91v-5.391a.91.91,0,1,1,1.82,0v5.391a.91.91,0,0,1-.91.91m82.119-3.118a.91.91,0,0,1-.91-.91v-5.391a.91.91,0,0,1,1.821,0v5.391a.91.91,0,0,1-.911.91M470.3,299.611a.91.91,0,0,1-.91-.911v-5.391a.91.91,0,0,1,1.82,0V298.7a.91.91,0,0,1-.91.911m82.119-3.118a.911.911,0,0,1-.91-.911v-5.39a.91.91,0,1,1,1.821,0v5.39a.911.911,0,0,1-.911.911M470.3,288.829a.91.91,0,0,1-.91-.91v-3.762a5.368,5.368,0,0,1,.351-1.917.91.91,0,1,1,1.7.647,3.559,3.559,0,0,0-.232,1.27v3.762a.91.91,0,0,1-.91.91m82.119-3.118a.91.91,0,0,1-.91-.91v-.644a3.575,3.575,0,0,0-1.823-3.113.911.911,0,1,1,.893-1.587,5.4,5.4,0,0,1,2.751,4.7v.644a.91.91,0,0,1-.911.91m-7.578-5.122h-5.391a.91.91,0,0,1,0-1.821h5.391a.91.91,0,0,1,0,1.821m-10.782,0h-5.39a.91.91,0,1,1,0-1.821h5.39a.91.91,0,1,1,0,1.821m-10.781,0h-5.391a.91.91,0,0,1,0-1.821h5.391a.91.91,0,0,1,0,1.821m-10.782,0H507.1a.91.91,0,1,1,0-1.821h5.39a.91.91,0,1,1,0,1.821m-10.781,0h-5.391a.91.91,0,0,1,0-1.821h5.391a.91.91,0,0,1,0,1.821m-10.782,0h-5.39a.91.91,0,1,1,0-1.821h5.39a.91.91,0,1,1,0,1.821m-10.781,0h-5.374a.918.918,0,0,1-.919-.91.9.9,0,0,1,.9-.911h5.391a.91.91,0,0,1,0,1.821" fill="#151f2c"/>
  <path id="Path_118" data-name="Path 118" d="M895.938,688.951h-4.909a.806.806,0,0,1,0-1.613H895.9a.822.822,0,0,1,.824.806.79.79,0,0,1-.787.807m-9.781,0h-4.872a.806.806,0,0,1,0-1.613h4.872a.806.806,0,1,1,0,1.613m-9.743,0h-4.871a.806.806,0,0,1,0-1.613h4.871a.806.806,0,0,1,0,1.613m-9.742,0H861.8a.806.806,0,1,1,0-1.613h4.872a.806.806,0,0,1,0,1.613m-9.744,0h-4.872a.806.806,0,0,1,0-1.613h4.872a.806.806,0,0,1,0,1.613m-9.743,0h-4.872a.806.806,0,0,1,0-1.613h4.872a.806.806,0,0,1,0,1.613m-9.742,0H832.57a.806.806,0,0,1,0-1.613h4.873a.806.806,0,0,1,0,1.613m-9.744,0h-4.872a.806.806,0,0,1,0-1.613H827.7a.806.806,0,0,1,0,1.613m-9.743,0h-4.872a.806.806,0,0,1,0-1.613h4.872a.806.806,0,0,1,0,1.613m-9.742,0h-4.706c-.07,0-.138,0-.207-.005a.809.809,0,0,1-.766-.846.8.8,0,0,1,.846-.766c.042,0,.085,0,.127,0h4.706a.806.806,0,0,1,0,1.613m90.875-3.087h-.028a.807.807,0,0,1-.78-.832l0-.077v-4.769a.806.806,0,0,1,1.612,0l0,4.9a.807.807,0,0,1-.8.78m-98.77-.13a.806.806,0,0,1-.806-.806v-4.872a.806.806,0,0,1,1.613,0v4.872a.806.806,0,0,1-.807.806m98.77-9.613a.805.805,0,0,1-.8-.806v-4.872a.806.806,0,0,1,1.612,0v4.872a.807.807,0,0,1-.807.806m-98.77-.13a.806.806,0,0,1-.806-.806v-4.872a.806.806,0,1,1,1.613,0v4.872a.806.806,0,0,1-.807.806m98.77-9.613a.805.805,0,0,1-.8-.806V660.7a.806.806,0,1,1,1.612,0v4.872a.807.807,0,0,1-.807.806m-98.77-.13a.806.806,0,0,1-.806-.807v-4.75c0-.051,0-.1,0-.154a.794.794,0,0,1,.838-.773.808.808,0,0,1,.774.839l0,.088v4.75a.806.806,0,0,1-.807.807m95.731-7.937h-.036l-.113,0h-4.723a.806.806,0,1,1,0-1.613H895.9c.061,0,.122,0,.185,0a.806.806,0,0,1-.036,1.612m-9.744,0h-4.871a.806.806,0,1,1,0-1.613h4.871a.806.806,0,0,1,0,1.613m-9.743,0h-4.872a.806.806,0,0,1,0-1.613h4.872a.806.806,0,1,1,0,1.613m-9.743,0h-4.871a.806.806,0,1,1,0-1.613h4.871a.806.806,0,0,1,0,1.613m-9.743,0h-4.871a.806.806,0,1,1,0-1.613h4.871a.806.806,0,0,1,0,1.613m-9.743,0h-4.872a.806.806,0,0,1,0-1.613h4.872a.806.806,0,1,1,0,1.613m-9.743,0h-4.872a.806.806,0,1,1,0-1.613h4.872a.806.806,0,0,1,0,1.613m-9.744,0h-4.87a.806.806,0,1,1,0-1.613h4.87a.806.806,0,1,1,0,1.613m-9.743,0h-4.871a.806.806,0,0,1,0-1.613H818.1a.806.806,0,1,1,0,1.613m-9.742,0h-4.854a.814.814,0,0,1-.815-.806.8.8,0,0,1,.8-.807h4.872a.806.806,0,0,1,0,1.613" fill="#151f2c"/>
  <path id="Path_119" data-name="Path 119" d="M511.488,655.079h-4.862a.806.806,0,1,1,0-1.613h4.829a.821.821,0,0,1,.823.806.792.792,0,0,1-.79.807m-9.692,0h-4.829a.806.806,0,1,1,0-1.613H501.8a.806.806,0,1,1,0,1.613m-9.659,0h-4.829a.806.806,0,1,1,0-1.613h4.829a.806.806,0,1,1,0,1.613m-9.659,0h-4.829a.806.806,0,1,1,0-1.613h4.829a.806.806,0,1,1,0,1.613m-9.659,0H467.99a.806.806,0,1,1,0-1.613h4.829a.806.806,0,1,1,0,1.613m-9.659,0h-4.829a.806.806,0,1,1,0-1.613h4.829a.806.806,0,1,1,0,1.613m-9.659,0h-4.829a.806.806,0,1,1,0-1.613H453.5a.806.806,0,1,1,0,1.613m-9.659,0h-4.829a.806.806,0,1,1,0-1.613h4.829a.806.806,0,1,1,0,1.613m-9.659,0h-4.829a.806.806,0,1,1,0-1.613h4.829a.806.806,0,1,1,0,1.613m-9.659,0H419.7a.806.806,0,1,1,0-1.613h4.829a.806.806,0,1,1,0,1.613m-9.659,0h-4.829a.806.806,0,1,1,0-1.613h4.829a.806.806,0,1,1,0,1.613m-9.659,0h-4.829a.806.806,0,1,1,0-1.613h4.829a.806.806,0,1,1,0,1.613m-9.659,0h-4.829a.806.806,0,1,1,0-1.613h4.829a.806.806,0,1,1,0,1.613m-9.659,0h-4.829a.806.806,0,1,1,0-1.613h4.829a.806.806,0,1,1,0,1.613m-9.659,0H371.4a.806.806,0,1,1,0-1.613h4.829a.806.806,0,1,1,0,1.613m-9.659,0h-3.855a8.975,8.975,0,0,1-1.066-.063.806.806,0,1,1,.189-1.6,7.483,7.483,0,0,0,.877.051h3.855a.806.806,0,1,1,0,1.613m149.469-1.393a.807.807,0,0,1-.451-1.477,7.413,7.413,0,0,0,2.724-3.32.807.807,0,0,1,1.49.619,9.017,9.017,0,0,1-3.314,4.04.8.8,0,0,1-.449.138m-158.657-.569a.805.805,0,0,1-.523-.192,9.012,9.012,0,0,1-2.832-4.392.807.807,0,0,1,1.551-.444A7.4,7.4,0,0,0,357.9,651.7a.806.806,0,0,1-.523,1.42m162.3-7.858a.806.806,0,0,1-.807-.806v-4.83a.806.806,0,0,1,1.613,0v4.83a.806.806,0,0,1-.806.806m-165.2-.942a.806.806,0,0,1-.807-.806v-4.829a.807.807,0,1,1,1.613,0v4.829a.806.806,0,0,1-.806.806m165.2-8.717a.806.806,0,0,1-.807-.806v-4.83a.806.806,0,0,1,1.613,0v4.83a.806.806,0,0,1-.806.806m-165.2-.942a.806.806,0,0,1-.807-.806v-4.829a.807.807,0,1,1,1.613,0v4.829a.806.806,0,0,1-.806.806m165.2-8.717a.806.806,0,0,1-.807-.806V620.3a.806.806,0,0,1,1.613,0v4.83a.806.806,0,0,1-.806.806M354.487,625a.806.806,0,0,1-.807-.806v-4.829a.807.807,0,1,1,1.613,0v4.829a.806.806,0,0,1-.806.806m165.2-8.717a.806.806,0,0,1-.807-.806v-4.83a.806.806,0,1,1,1.613,0v4.83a.806.806,0,0,1-.806.806m-165.2-.941a.807.807,0,0,1-.807-.807v-4.829a.807.807,0,1,1,1.613,0v4.829a.806.806,0,0,1-.806.807m165.2-8.719a.806.806,0,0,1-.807-.806v-4.829a.806.806,0,1,1,1.613,0v4.829a.806.806,0,0,1-.806.806m-165.2-.94a.807.807,0,0,1-.807-.807v-4.829a.807.807,0,0,1,1.613,0v4.829a.806.806,0,0,1-.806.807m165.2-8.719a.806.806,0,0,1-.807-.806v-4.829a.806.806,0,0,1,1.613,0v4.829a.806.806,0,0,1-.806.806m-165.2-.94a.807.807,0,0,1-.807-.807v-4.829a.807.807,0,0,1,1.613,0v4.829a.806.806,0,0,1-.806.807m165.2-8.718a.807.807,0,0,1-.807-.807v-4.829a.806.806,0,0,1,1.613,0V586.5a.806.806,0,0,1-.806.807m-165.2-.941a.807.807,0,0,1-.807-.807v-4.829a.807.807,0,0,1,1.613,0v4.829a.806.806,0,0,1-.806.807m165.2-8.718a.807.807,0,0,1-.807-.807V572.01a.806.806,0,0,1,1.613,0v4.829a.806.806,0,0,1-.806.807m-165.2-.941a.807.807,0,0,1-.807-.807v-4.829a.807.807,0,0,1,1.613,0V575.9a.806.806,0,0,1-.806.807m165.2-8.718a.807.807,0,0,1-.807-.807v-4.829a.806.806,0,0,1,1.613,0v4.829a.806.806,0,0,1-.806.807m-165.2-.941a.806.806,0,0,1-.807-.806v-4.83a.807.807,0,0,1,1.613,0v4.83a.806.806,0,0,1-.806.806m165.2-8.718a.806.806,0,0,1-.807-.806v-4.83a.806.806,0,0,1,1.613,0v4.83a.806.806,0,0,1-.806.806m-165.2-.942a.806.806,0,0,1-.807-.806v-4.829a.807.807,0,1,1,1.613,0v4.829a.806.806,0,0,1-.806.806m165.2-8.717a.806.806,0,0,1-.807-.806v-4.83a.806.806,0,0,1,1.613,0v4.83a.806.806,0,0,1-.806.806m-165.2-.942a.806.806,0,0,1-.807-.806v-4.829a.807.807,0,1,1,1.613,0v4.829a.806.806,0,0,1-.806.806m164.876-8.687a.808.808,0,0,1-.775-.583,7.4,7.4,0,0,0-2.334-3.6.806.806,0,0,1,1.043-1.23,9,9,0,0,1,2.841,4.386.805.805,0,0,1-.551,1,.791.791,0,0,1-.224.032m-164.244-.887a.806.806,0,0,1-.744-1.117A9.034,9.034,0,0,1,357.7,533a.806.806,0,1,1,.9,1.341,7.417,7.417,0,0,0-2.73,3.314.807.807,0,0,1-.745.5m157.292-5c-.031,0-.062,0-.093-.005a7.522,7.522,0,0,0-.863-.05h-3.872a.806.806,0,1,1,0-1.612h3.872a9.368,9.368,0,0,1,1.047.059.807.807,0,0,1-.091,1.608m-9.657-.055h-4.83a.806.806,0,1,1,0-1.612h4.83a.806.806,0,1,1,0,1.612m-9.659,0h-4.83a.806.806,0,1,1,0-1.612h4.83a.806.806,0,1,1,0,1.612m-9.659,0h-4.83a.806.806,0,1,1,0-1.612h4.83a.806.806,0,1,1,0,1.612m-9.659,0h-4.83a.806.806,0,1,1,0-1.612h4.83a.806.806,0,1,1,0,1.612m-9.659,0h-4.83a.806.806,0,1,1,0-1.612h4.83a.806.806,0,1,1,0,1.612m-9.659,0h-4.83a.806.806,0,1,1,0-1.612h4.83a.806.806,0,1,1,0,1.612m-9.659,0h-4.83a.806.806,0,1,1,0-1.612h4.83a.806.806,0,1,1,0,1.612m-9.659,0h-4.83a.806.806,0,1,1,0-1.612h4.83a.806.806,0,1,1,0,1.612m-9.659,0h-4.83a.806.806,0,1,1,0-1.612h4.83a.806.806,0,1,1,0,1.612m-9.659,0h-4.83a.806.806,0,1,1,0-1.612h4.83a.806.806,0,1,1,0,1.612m-9.659,0h-4.83a.806.806,0,1,1,0-1.612h4.83a.806.806,0,1,1,0,1.612m-9.659,0h-4.83a.806.806,0,1,1,0-1.612h4.83a.806.806,0,1,1,0,1.612m-9.659,0h-4.83a.806.806,0,1,1,0-1.612h4.83a.806.806,0,1,1,0,1.612m-9.659,0h-4.83a.806.806,0,1,1,0-1.612h4.83a.806.806,0,1,1,0,1.612m-9.659,0h-4.813a.813.813,0,0,1-.815-.806.8.8,0,0,1,.8-.806h4.83a.806.806,0,1,1,0,1.612" fill="#151f2c"/>
  <path id="Path_120" data-name="Path 120" d="M556.485,507.048h-191.3a9.572,9.572,0,0,1-9.573-9.573V394.637a9.573,9.573,0,0,1,9.573-9.573h191.3a9.572,9.572,0,0,1,9.572,9.573V497.475a9.573,9.573,0,0,1-9.573,9.573" fill="#e9e9e9"/>
  <path id="Path_121" data-name="Path 121" d="M437.085,421.86v48.392a3.8,3.8,0,0,0,5.892,3.177l36.777-24.2a3.8,3.8,0,0,0,0-6.352l-36.777-24.2a3.8,3.8,0,0,0-5.892,3.177" fill="#24e096"/>
  <path id="Path_122" data-name="Path 122" d="M366.548,496.044a3.777,3.777,0,1,1,3.777,3.777,3.777,3.777,0,0,1-3.777-3.777" fill="#aec3ff"/>
  <path id="Path_123" data-name="Path 123" d="M542.172,497.061H371.342a1.017,1.017,0,1,1,0-2.034h170.83a1.017,1.017,0,1,1,0,2.034" fill="#aec3ff"/>
  <rect id="Rectangle_62" data-name="Rectangle 62" width="108.877" height="162.527" transform="translate(552.417 532.289)" fill="#e9e9e9"/>
  <path id="Path_124" data-name="Path 124" d="M617.308,584.506h-1.489v-6.7a4.359,4.359,0,0,1,4.355-4.355h18.421a2.869,2.869,0,0,0,2.773-2.139l2.913-11.075a2.866,2.866,0,0,0-2.772-3.6H617.474v-1.489h24.035a4.357,4.357,0,0,1,4.213,5.465l-2.914,11.075a4.359,4.359,0,0,1-4.213,3.248H620.174a2.869,2.869,0,0,0-2.866,2.866Z" fill="#384152"/>
  <path id="Path_125" data-name="Path 125" d="M634.041,562.182H603.552a5.42,5.42,0,0,1-5.42-5.42v-1.727a5.42,5.42,0,0,1,5.42-5.42h30.489a5.42,5.42,0,0,1,5.42,5.42v1.727a5.42,5.42,0,0,1-5.42,5.42" fill="#24e096"/>
  <path id="Path_126" data-name="Path 126" d="M616.563,612.307h0a4.1,4.1,0,0,1-4.1-4.1V583.39a4.1,4.1,0,0,1,8.192,0v24.822a4.1,4.1,0,0,1-4.1,4.1" fill="#384152"/>
  <path id="Path_127" data-name="Path 127" d="M773.3,666.132s2.818,8.678,2.576,10.663-2.011,8.766-3.275,10.5-1.887-7.07-2.887-8.394-.205,3.315-.91,3.745-2.176-3.414-2.807-4.77,1.545-6.355,1.551-9.839,5.752-1.907,5.752-1.907" fill="#ee805f"/>
  <path id="Path_128" data-name="Path 128" d="M707.029,597.2c-.781-9.951,10.029-16.774,18.564-11.6q.262.159.521.325c12.778,8.225,40.35,46.6,42.247,50.448s7.5,34.432,7.5,34.432-6.921,2.532-10.157-.095c0,0-11.225-29.008-12.885-30.458s-44.9-25.71-45.266-34.806c-.1-2.4-.29-5.3-.522-8.248" fill="#141950"/>
  <path id="Path_129" data-name="Path 129" d="M784.187,821.839s5.152,4.7,4.146,8.043-5.654,5.567-6.282,9.651-3.142,6.31-5.4,6.31H765.864s-1.666-2.873,2.356-3.739,5.537-5.665,5.285-10.119a78.479,78.479,0,0,1,.378-10.393l8.544-1.98Z" fill="#2a4a7c"/>
  <path id="Path_130" data-name="Path 130" d="M720.979,834s.925,10.7-1.338,11.814l-28.948-.059s0-3.341,4.651-4.083,12.816-3.465,14.2-9.528S720.979,834,720.979,834" fill="#2a4a7c"/>
  <path id="Path_131" data-name="Path 131" d="M696.539,682.846s1.527,18.757,3.322,41.3c2.439,30.627,5.371,68.248,5.662,75.376.5,12.374,2.514,32.172,2.514,32.172s4.773,4.7,14.326,2.721c0,0,8.512-28.26,10.944-58.16.037-.49.075-.984.113-1.477,2.262-30.439,5.779-94.534,5.779-94.534Z" fill="#384152"/>
  <path id="Path_132" data-name="Path 132" d="M696.539,682.846s1.527,18.757,3.322,41.3l33.446,52.109c.037-.49.075-.984.113-1.477,2.262-30.439,5.779-94.534,5.779-94.534Z" fill="#151f2c"/>
  <path id="Path_133" data-name="Path 133" d="M703.511,685.073s27.52,67.93,45.615,99.853,23.751,40.832,23.751,40.832,10.367-4.083,11.309-6.867c0,0-6.92-61.629-19.038-76.653-6.847-8.489-14.891-33.965-15.268-42.873s-2.45-26.542-2.45-26.542Z" fill="#384152"/>
  <path id="Path_134" data-name="Path 134" d="M727.241,583.175S708.8,592.526,698,589.407a25.323,25.323,0,0,1,7.149-5.957c-.414-2.147-.739-4.01-.936-5.592a51.782,51.782,0,0,1-.568-5.723l7.07-5.791,6.7-5.542c-.235,15.212,9.818,22.373,9.818,22.373" fill="#ee805f"/>
  <path id="Path_135" data-name="Path 135" d="M745.555,678.2c-7.444,4.506-14.492,7.893-22.74,9.8-9.729,2.307-21.686,1.627-25.687,2.236a1.658,1.658,0,0,1-1.166-.3c-.314-.161-2.079-12.028-3.848-27.007-.078-.6-.16-1.211-.194-1.82l-.026-.2c-.688-5.856-1.29-12.006-1.813-18.172-.427-4.8-.778-9.541-1.021-14-.307-5.575-.434-10.7-.307-14.911.056-1.926.168-3.657.34-5.16,1.055-8.749,5.227-15,9.157-19.655l3.26-3.71a17.862,17.862,0,0,0,11.28-2.879c3.983-2.621,8.279-5.44,9.09-4.969,6.1,3.339,11.071,11.991,14.62,23.417a130.573,130.573,0,0,1,4.595,21.944c.321,2.453.594,4.969.8,7.474.042.464.075.927.112,1.384.479,6.849,1.261,13.269,2.128,19,1.167,7.732,2.494,14.208,3.432,18.77.471,2.322.831,4.116,1.043,5.4.191,1.122-2.056,2.73-3.058,3.354" fill="#1d2579"/>
  <path id="Path_136" data-name="Path 136" d="M717.662,566.612s-4.536,8.669-13.446,11.245a52.065,52.065,0,0,1-.568-5.722l7.071-5.792Z" fill="#de6b4d"/>
  <path id="Path_137" data-name="Path 137" d="M700.369,571.953s17.817,2.553,19.268-8.4,4.727-18-6.588-20.09-14.083,1.8-15.47,5.343-1.808,22.2,2.79,23.145" fill="#ee805f"/>
  <path id="Path_138" data-name="Path 138" d="M725.665,541.907c.158-.188.527-.345,1.353-.406a3.362,3.362,0,0,0-1.554-.4c-.2-1.147-.849-3.172-2.839-3.628a2.487,2.487,0,0,1,1.239,1.767c-2.341-2.31-7.29-3.927-20.879-2.583-17.91,1.772-11.771,13.139-9.421,14.462s8.12-2.546,12.454-2.288,5.28,6.493,6.765,7.321.877-.676,2.845-1.613,2.223,2.35,1.691,4.5,2.254,4.919,2.254,4.919l2.7-3.025c2.7-3.024,5.049-15.654,3.742-18.311-.116-.235-.23-.472-.348-.711" fill="#151f2c"/>
  <path id="Path_139" data-name="Path 139" d="M720.008,614.8s-15.023,11.43-30.948,13.935c-.306-5.575-.433-10.7-.306-14.911Z" fill="#141950"/>
  <path id="Path_140" data-name="Path 140" d="M627.75,600.052c-.237-.254-3.3-10.495-8.6-9.748-3.457.488-9.106,2.488-7.606,7.042.59,1.791,11.121,7.957,11.121,7.957Z" fill="#ee805f"/>
  <path id="Path_141" data-name="Path 141" d="M721.865,592.716c8.566,5.124,7.871,17.888-1.29,21.851-.188.081-.377.161-.566.236-14.1,5.658-61.36,5.922-65.593,5.242S622,606.226,622,606.226s1.942-7.109,5.958-8.227c0,0,30.151,7.64,32.293,7.126s46.957-21.723,54.586-16.758c2.018,1.313,4.487,2.829,7.028,4.349" fill="#1d2579"/>
  <path id="Path_142" data-name="Path 142" d="M1039.767,256.515H1002.15a2.875,2.875,0,1,1,0-5.749h37.617a2.875,2.875,0,1,1,0,5.749" fill="#ebf3fa"/>
  <path id="Path_143" data-name="Path 143" d="M1039.767,267.747H1002.15a2.875,2.875,0,0,1,0-5.75h37.617a2.875,2.875,0,0,1,0,5.75" fill="#ebf3fa"/>
  <path id="Path_144" data-name="Path 144" d="M1039.767,279.268H1002.15a2.874,2.874,0,1,1,0-5.749h37.617a2.874,2.874,0,1,1,0,5.749" fill="#ebf3fa"/>
  <path id="Path_145" data-name="Path 145" d="M892.458,550.5H802.9a3.812,3.812,0,0,1,0-7.624h89.554a3.812,3.812,0,0,1,0,7.624" fill="#ebf3fa"/>
  <path id="Path_146" data-name="Path 146" d="M454.7,288.852H365.145a3.811,3.811,0,1,1,0-7.623H454.7a3.811,3.811,0,1,1,0,7.623" fill="#ebf3fa"/>
  <path id="Path_147" data-name="Path 147" d="M892.458,588.318H802.9a3.812,3.812,0,0,1,0-7.624h89.554a3.812,3.812,0,0,1,0,7.624" fill="#ebf3fa"/>
  <path id="Path_148" data-name="Path 148" d="M892.458,569.409H785.35a3.812,3.812,0,0,1,0-7.624H892.458a3.812,3.812,0,0,1,0,7.624" fill="#ebf3fa"/>
  <path id="Path_149" data-name="Path 149" d="M427.731,312.823H377.972a3.3,3.3,0,0,1-3.288-3.288v-1.048a3.3,3.3,0,0,1,3.288-3.288h49.759a3.3,3.3,0,0,1,3.288,3.288v1.048a3.3,3.3,0,0,1-3.288,3.288" fill="#ebf3fa"/>
  <path id="Path_150" data-name="Path 150" d="M357.95,309.011a3.812,3.812,0,1,1,3.812,3.812,3.812,3.812,0,0,1-3.812-3.812" fill="#ebf3fa"/>
  <path id="Path_151" data-name="Path 151" d="M437.566,327.994H377.972a3.3,3.3,0,0,1-3.288-3.288v-1.048a3.3,3.3,0,0,1,3.288-3.288h59.594a3.3,3.3,0,0,1,3.288,3.288v1.048a3.3,3.3,0,0,1-3.288,3.288" fill="#ebf3fa"/>
  <path id="Path_152" data-name="Path 152" d="M357.95,324.182a3.812,3.812,0,1,1,3.812,3.812,3.812,3.812,0,0,1-3.812-3.812" fill="#ebf3fa"/>
  <path id="Path_153" data-name="Path 153" d="M427.731,344.462H377.972a3.3,3.3,0,0,1-3.288-3.288v-1.048a3.3,3.3,0,0,1,3.288-3.288h49.759a3.3,3.3,0,0,1,3.288,3.288v1.048a3.3,3.3,0,0,1-3.288,3.288" fill="#ebf3fa"/>
  <path id="Path_154" data-name="Path 154" d="M357.95,340.65a3.812,3.812,0,1,1,3.812,3.812,3.812,3.812,0,0,1-3.812-3.812" fill="#ebf3fa"/>
  <path id="Path_155" data-name="Path 155" d="M520.036,321.361a13.606,13.606,0,0,1-2.015.125,13.449,13.449,0,0,1-9.243-23.067h0a13.449,13.449,0,1,1,11.258,22.943M510.326,300a11.234,11.234,0,1,0,15.886.184A11.246,11.246,0,0,0,510.326,300" fill="#151f2c"/>
  <rect id="Rectangle_63" data-name="Rectangle 63" width="18.354" height="2.215" transform="matrix(0.715, -0.699, 0.699, 0.715, 495.448, 328.698)" fill="#151f2c"/>
  <path id="Path_156" data-name="Path 156" d="M491.659,333.948h0a1.978,1.978,0,0,1,.032-2.8l7.732-7.554a1.978,1.978,0,1,1,2.764,2.829l-7.731,7.554a1.978,1.978,0,0,1-2.8-.032" fill="#151f2c"/>
  <path id="Path_157" data-name="Path 157" d="M1147.03,846.095h0a4.416,4.416,0,0,1-4.021-2.769L1039.676,528.7a2.073,2.073,0,0,1,2.191-2.806,4.418,4.418,0,0,1,4.021,2.77L1149.22,843.29a2.072,2.072,0,0,1-2.19,2.8" fill="#151f2c"/>
  <path id="Path_158" data-name="Path 158" d="M1230.31,845.613h0a4.416,4.416,0,0,1-4.021-2.769L1122.956,528.219a2.073,2.073,0,0,1,2.191-2.806,4.418,4.418,0,0,1,4.021,2.77L1232.5,842.808a2.072,2.072,0,0,1-2.19,2.8" fill="#151f2c"/>
  <path id="Path_159" data-name="Path 159" d="M1140.64,572.058l-83.628.484a4.186,4.186,0,0,1-3.8-2.614,1.961,1.961,0,0,1,2.067-2.649l83.628-.484a4.183,4.183,0,0,1,3.8,2.615,1.96,1.96,0,0,1-2.067,2.648" fill="#151f2c"/>
  <path id="Path_160" data-name="Path 160" d="M1158.682,626.991l-83.628.484a4.187,4.187,0,0,1-3.8-2.614,1.961,1.961,0,0,1,2.067-2.649l83.628-.484a4.182,4.182,0,0,1,3.8,2.614,1.961,1.961,0,0,1-2.067,2.649" fill="#151f2c"/>
  <path id="Path_161" data-name="Path 161" d="M1176.058,679.9l-83.628.484a4.186,4.186,0,0,1-3.8-2.614,1.961,1.961,0,0,1,2.067-2.649l83.628-.484a4.183,4.183,0,0,1,3.8,2.615,1.96,1.96,0,0,1-2.067,2.648" fill="#151f2c"/>
  <path id="Path_162" data-name="Path 162" d="M1195.62,739.459l-83.627.484a4.183,4.183,0,0,1-3.8-2.614,1.96,1.96,0,0,1,2.067-2.649l83.627-.484a4.183,4.183,0,0,1,3.8,2.615,1.96,1.96,0,0,1-2.067,2.648" fill="#151f2c"/>
  <path id="Path_163" data-name="Path 163" d="M1216.094,801.8l-83.628.484a4.186,4.186,0,0,1-3.8-2.614,1.961,1.961,0,0,1,2.068-2.649l83.627-.484a4.183,4.183,0,0,1,3.8,2.615,1.96,1.96,0,0,1-2.067,2.648" fill="#151f2c"/>
  <path id="Path_164" data-name="Path 164" d="M1036.068,384.6h0a1.217,1.217,0,0,1-1.422-.961l-1.339-6.913a1.214,1.214,0,1,1,2.384-.462l1.338,6.914a1.217,1.217,0,0,1-.961,1.422" fill="#151f2c"/>
  <rect id="Rectangle_64" data-name="Rectangle 64" width="0.835" height="10.178" transform="translate(1031.599 363.724) rotate(-10.987)" fill="#151f2c"/>
  <path id="Path_165" data-name="Path 165" d="M1032.425,307.325s-.79-6.882-2.458-9.513-7.972-4.32-8.371-3.933c-1.234,1.2,3.647,5.422,3.837,6.98s-2.477.481-1.195,3.517c1.081,2.565,4.649,5.891,4.649,5.891Z" fill="#ee805f"/>
  <path id="Path_166" data-name="Path 166" d="M1029.385,306.558c2.3-1.8,2.787-1.77,2.787-1.77s21.265,18.423,23.335,20.063,34.009,10.9,34.009,10.9l5.075,25.963s-43.216-20.873-48.38-25.133c-8.534-7.039-19.3-26.739-19.3-26.739a8.141,8.141,0,0,1,2.474-3.286" fill="#dbb90a"/>
  <path id="Path_167" data-name="Path 167" d="M1090.2,556.08s-.366,8.874-2.07,11.031l-23.7.137c.166-.915.265-3.031,3.543-3.6a15.9,15.9,0,0,0,11.512-9.084c2.64-5.759,10.719,1.52,10.719,1.52" fill="#151f2c"/>
  <path id="Path_168" data-name="Path 168" d="M1136.718,554.8s1.652,11.788-.591,11.994c-.3.028-9.553.177-13.559.243-4.713.079-12.456-.087-12.456-.087A1.232,1.232,0,0,1,1109,565.1a4.967,4.967,0,0,1,3.561-2.284c4.128-.8,11.007-3.827,13.419-9.344,2.538-5.8,10.742,1.331,10.742,1.331" fill="#151f2c"/>
  <path id="Path_169" data-name="Path 169" d="M1077.876,434s6.591,23.063,25.481,63.113,19.707,59.351,19.707,59.351a16.583,16.583,0,0,0,6.653.607,17.893,17.893,0,0,0,7-2.269s-1.224-47.67-10.147-67.881S1115.83,411.4,1115.83,411.4Z" fill="#151f2c"/>
  <path id="Path_170" data-name="Path 170" d="M1067.3,414.155a575.139,575.139,0,0,0,5.654,79.56c6.179,43.849,3.29,64.24,3.29,64.24s1.637,1.193,6.675,1.173c5.9-.023,8.918-2.46,8.918-2.46s8.843-43.864,6.308-65.811,12.11-75.31,12.11-75.31Z" fill="#384152"/>
  <path id="Path_171" data-name="Path 171" d="M1096.495,330.584l-6.979,5.17-10.088-2.124c.14-.92.805-4.732,1.411-8.186.037-.2.074-.407.108-.606.52-2.939.968-5.463.968-5.463l9.422-4.7,3.513-1.75c-.01.061-.273,3.261-.309,3.728a30.168,30.168,0,0,0,1.954,13.927" fill="#ee805f"/>
  <path id="Path_172" data-name="Path 172" d="M1116.488,418.566c-2.281,10.438-51.128,5.856-50.491-.516.025-.212.154-3.162.328-7.136.372-8.6.935-22.035,1.008-23.085,0-.018.006-.036.006-.054.88-8.872,1.724-17.55,1.778-23.218a80.491,80.491,0,0,1,1.627-14.5c.83-4.211,1.85-8.034,2.736-11.014a12.185,12.185,0,0,1,7.137-7.822,10.656,10.656,0,0,1,1.184-.413c5.746-1.668,13.7-3.732,15.856-3.1,5.838,1.718,10.177,12,13.248,25.1,5.746,24.523,7.075,58.961,5.583,65.764" fill="#ffd500"/>
  <path id="Path_173" data-name="Path 173" d="M1093.834,316.8c-2.069,3.959-9.778,7.383-12.994,8.641.037-.2.073-.407.108-.606.519-2.939.968-5.463.968-5.463l9.421-4.7c2.083-.031,3.351.5,2.5,2.124" fill="#de6b4d"/>
  <path id="Path_174" data-name="Path 174" d="M1077.337,318.824s17,5.3,20.137-5.334,7.447-17.115-3.273-20.95-14.036-.4-15.947,2.894-5.258,21.737-.917,23.39" fill="#ee805f"/>
  <path id="Path_175" data-name="Path 175" d="M1078.922,294.409s1.084,12.377,3.643,11.839,4.882-.935,4.506,2.8-3.924,8.039,3.965,8.7,19.228-19.683,17.061-23.535c-6.253-11.114-38.212-13.357-29.175.2" fill="#151f2c"/>
  <path id="Path_176" data-name="Path 176" d="M1066.326,410.913c.371-8.6.935-22.034,1.007-23.084,0-.019.006-.037.006-.055l28.856-17.253s1.117,40.277-29.869,40.392" fill="#dbb90a"/>
  <path id="Path_177" data-name="Path 177" d="M1043.389,374.81s-5.864-3.967-6.977-4.313-4.758-.72-4.928-.433-.669,1.167-.032,1.465,1.431.194,1.193.4-2.636-.933-3.188.289-1.04,5.411,1.773,6.681,9.756.122,10.256.268c4.247,1.234,1.9-4.359,1.9-4.359" fill="#ee805f"/>
  <path id="Path_178" data-name="Path 178" d="M1043.335,373.738s28.622,4.866,31.158,3.631c4.048-1.971-1.571-31.011-1.571-31.011s-.241-6.581,7.446-8.133c6.681-1.349,13.127,3.655,13.127,3.655s5.861,5.245,5.112,11.062c-1.66,12.9-4.242,39.125-12.868,43.145-11.124,5.186-43.316-14.38-43.316-14.38a5.627,5.627,0,0,1-.92-3.75,8.746,8.746,0,0,1,1.832-4.219" fill="#ffd500"/>
  <path id="Path_179" data-name="Path 179" d="M1024.1,304.03s-1.832-3.641-2.125-4.325.42-.536,1.125-.154,1.667,2.494,2.754,2.239c.863-.2-1.754,2.24-1.754,2.24" fill="#ee805f"/>
</svg>
