<svg xmlns="http://www.w3.org/2000/svg" xmlns:xlink="http://www.w3.org/1999/xlink" width="650" height="650" viewBox="0 0 650 650">
  <defs>
    <clipPath id="clip-path">
      <rect id="Rectangle_1832" data-name="Rectangle 1832" width="41.941" height="23.404" fill="none"/>
    </clipPath>
    <clipPath id="clip-path-2">
      <rect id="Rectangle_1833" data-name="Rectangle 1833" width="46.24" height="3.762" fill="none"/>
    </clipPath>
    <clipPath id="clip-path-3">
      <rect id="Rectangle_1837" data-name="Rectangle 1837" width="74.487" height="68.481" fill="none"/>
    </clipPath>
  </defs>
  <g id="Group_455" data-name="Group 455" transform="translate(0 90)">
    <rect id="Rectangle_52" data-name="Rectangle 52" width="650" height="650" rx="325" transform="translate(0 -90)" fill="#f2f5f5"/>
    <rect id="Rectangle_1824" data-name="Rectangle 1824" width="107.57" height="100.184" transform="matrix(0.992, -0.126, 0.126, 0.992, 517.501, 44.196)" fill="#f2f5f5"/>
    <g id="Group_453" data-name="Group 453">
      <path id="Path_746" data-name="Path 746" d="M584.906,58.14a7.462,7.462,0,1,0,8.617,6.418,7.614,7.614,0,0,0-8.617-6.418" transform="translate(0 0.239)" fill="#e8ebeb"/>
      <path id="Path_747" data-name="Path 747" d="M616.969,39.3l-90.2,11.424c.085-.121-.854,1.057-.455.57l0,.022.006.044.011.089.022.177.045.355.09.709.18,1.417.357,2.825q.355,2.82.71,5.614.708,5.589,1.4,11.072,1.392,10.962,2.722,21.428c1.776,13.925,3.457,27.091,5,39.2l.055.429.442-.058,65.476-8.563,18.281-2.443,4.787-.661,1.214-.18a2.394,2.394,0,0,0,.391-.073,3.073,3.073,0,0,0-.448.032l-1.267.137-4.886.572L602.5,125.674l-20.161,2.5,45.117-5.749a2.1,2.1,0,0,0,.054.275,1.76,1.76,0,0,0-.021-.364c-.03-.287-.068-.653-.116-1.118q-.18-1.56-.505-4.4c-.469-3.924-1.147-9.6-2.009-16.809-1.79-14.6-4.339-35.384-7.4-60.343l-.051-.42ZM601.108,89.37l-12.482,19.24-28.29-29.631L537.618,133.09c-1.48-11.828-3.082-24.636-4.776-38.169l-2.7-21.431q-.691-5.481-1.4-11.073-.354-2.8-.709-5.614l-.357-2.825-.179-1.417-.09-.709-.027-.213c32.728-4.2,63.352-8.121,89.251-11.443,3.207,24.635,5.879,45.162,7.759,59.6.963,7.236,1.722,12.934,2.247,16.875q.4,2.881.616,4.468c.071.481.128.859.171,1.156l.016.1Z" transform="translate(0 0.162)" fill="#e8ebeb"/>
      <rect id="Rectangle_1825" data-name="Rectangle 1825" width="71.246" height="76.505" transform="translate(0 372.638) rotate(-80.717)" fill="#f5f5f5"/>
      <path id="Path_748" data-name="Path 748" d="M54.564,324.288a5.307,5.307,0,1,0,4.584,6.126,5.4,5.4,0,0,0-4.584-6.126" transform="translate(0 1.337)" fill="#e8ebeb"/>
      <path id="Path_749" data-name="Path 749" d="M80.239,317.966,16.426,307.443c.083-.065-.8.548-.424.3l0,.016,0,.031-.01.063-.021.126-.041.251-.081.5-.163,1-.325,2q-.326,1.994-.646,3.972-.643,3.955-1.274,7.835Q12.176,331.3,10.974,338.7c-1.592,9.857-3.1,19.177-4.481,27.75l-.05.3.314.05,46.375,7.454L66.09,376.3l3.4.522.864.124a1.523,1.523,0,0,0,.281.029,2.188,2.188,0,0,0-.311-.068l-.892-.165-3.447-.6-13-2.215-14.252-2.388,31.925,5.24a1.7,1.7,0,0,0-.019.2,1.161,1.161,0,0,0,.059-.252c.038-.2.086-.459.147-.786q.191-1.1.541-3.1c.47-2.771,1.151-6.781,2.015-11.871,1.719-10.318,4.166-25.011,7.105-42.652l.05-.3Zm-20.9,30.924L46.954,359.477,33.629,333.526,7.241,365.815c1.372-8.366,2.859-17.426,4.429-27q1.208-7.394,2.477-15.162.633-3.878,1.278-7.835.321-1.978.647-3.972l.325-2,.163-1,.082-.5.025-.151L79.835,318.51c-2.774,17.452-5.086,31.992-6.711,42.218-.8,5.129-1.43,9.17-1.865,11.964q-.309,2.045-.479,3.172c-.049.342-.086.612-.117.823,0,.03-.005.043-.008.069Z" transform="translate(0 1.268)" fill="#e8ebeb"/>
      <path id="Path_750" data-name="Path 750" d="M642.133,261.057H491.181a7.884,7.884,0,0,1-7.867-7.9V165.221a7.884,7.884,0,0,1,7.867-7.9H642.133a7.883,7.883,0,0,1,7.867,7.9v87.936a7.883,7.883,0,0,1-7.867,7.9" transform="translate(0 0.649)" fill="#e8ebeb"/>
      <path id="Path_751" data-name="Path 751" d="M579.355,210.434a12.7,12.7,0,1,1-12.7-12.749,12.723,12.723,0,0,1,12.7,12.749" transform="translate(0 0.815)" fill="#fff"/>
      <path id="Path_752" data-name="Path 752" d="M563.6,214.129v-7.523a.477.477,0,0,1,.711-.417l6.7,3.79a.48.48,0,0,1,0,.836l-6.7,3.732a.477.477,0,0,1-.708-.419" transform="translate(0 0.85)" fill="#e8ebeb"/>
      <path id="Path_753" data-name="Path 753" d="M492.844,248.769v.269h-1.256v-.213l.677-.645c.165-.16.195-.26.195-.354,0-.157-.108-.247-.317-.247a.477.477,0,0,0-.4.179l-.222-.171a.786.786,0,0,1,.647-.284c.371,0,.609.188.609.491a.686.686,0,0,1-.282.54l-.456.435Z" transform="translate(0 1.02)" fill="#fff"/>
      <path id="Path_754" data-name="Path 754" d="M493.013,247.92a.2.2,0,1,1,.2.2.2.2,0,0,1-.2-.2m0,.931a.2.2,0,1,1,.4,0,.2.2,0,1,1-.4,0" transform="translate(0 1.021)" fill="#fff"/>
      <path id="Path_755" data-name="Path 755" d="M494.2,247.328v1.71h-.316v-1.444h-.36v-.266Z" transform="translate(0 1.02)" fill="#fff"/>
      <path id="Path_756" data-name="Path 756" d="M496.059,248.649h-.3v.389h-.307v-.389h-.934v-.22l.839-1.1h.338l-.79,1.052h.557v-.343h.3v.343h.3Z" transform="translate(0 1.02)" fill="#fff"/>
      <rect id="Rectangle_1826" data-name="Rectangle 1826" width="129.094" height="0.686" transform="translate(498.838 248.939)" fill="#fff"/>
      <rect id="Rectangle_1827" data-name="Rectangle 1827" width="40.343" height="1.831" transform="translate(498.74 248.223)" fill="#ebebeb"/>
      <path id="Path_757" data-name="Path 757" d="M540.385,248.267a1.964,1.964,0,1,1-1.964-1.972,1.968,1.968,0,0,1,1.964,1.972" transform="translate(0 1.016)" fill="#ebebeb"/>
      <path id="Path_772" data-name="Path 772" d="M498.285,170.759a3.018,3.018,0,1,1-3.017-3.029,3.024,3.024,0,0,1,3.017,3.029" transform="translate(0 0.691)" fill="#fff"/>
      <rect id="Rectangle_1828" data-name="Rectangle 1828" width="491.441" height="355.216" transform="translate(63.12 0.251)" fill="#fff"/>
      <rect id="Rectangle_1829" data-name="Rectangle 1829" width="491.441" height="26.255" transform="translate(62.515 0.25)" fill="#e8ebeb"/>
      <path id="Path_773" data-name="Path 773" d="M79.91,13.8a3.213,3.213,0,1,1-6.413,0,3.213,3.213,0,1,1,6.413,0" transform="translate(0 0.043)" fill="#263238"/>
      <path id="Path_774" data-name="Path 774" d="M91.84,13.8a3.213,3.213,0,1,1-6.413,0,3.213,3.213,0,1,1,6.413,0" transform="translate(0 0.043)" fill="#263238"/>
      <path id="Path_775" data-name="Path 775" d="M103.77,13.8a3.213,3.213,0,1,1-6.414,0,3.213,3.213,0,1,1,6.414,0" transform="translate(0 0.043)" fill="#263238"/>
      <path id="Path_776" data-name="Path 776" d="M274.4,54.548c0,.187-10.733.337-23.97.337s-23.972-.151-23.972-.337,10.731-.337,23.972-.337,23.97.151,23.97.337" transform="translate(0 0.224)" fill="#263238"/>
      <path id="Path_777" data-name="Path 777" d="M338.166,54.548c0,.187-10.733.337-23.97.337s-23.972-.151-23.972-.337,10.731-.337,23.972-.337,23.97.151,23.97.337" transform="translate(0 0.224)" fill="#263238"/>
      <path id="Path_778" data-name="Path 778" d="M401.935,54.548c0,.187-10.733.337-23.97.337s-23.972-.151-23.972-.337,10.731-.337,23.972-.337,23.97.151,23.97.337" transform="translate(0 0.224)" fill="#263238"/>
      <path id="Path_779" data-name="Path 779" d="M466.269,54.548c0,.187-10.733.337-23.97.337s-23.972-.151-23.972-.337,10.731-.337,23.972-.337,23.97.151,23.97.337" transform="translate(0 0.224)" fill="#263238"/>
      <path id="Path_780" data-name="Path 780" d="M522.155,62.688c0-.04.407-.021,1.144-.2a5.291,5.291,0,0,0,2.757-1.8,5.561,5.561,0,0,0,1.1-2.193,11.649,11.649,0,0,0,.17-3c-.13-2.137.477-4.917-1.343-6.947a5,5,0,0,0-3.412-1.789c-1.378-.038-2.883,0-4.4,0l-9.758.031-22.361.027a5.037,5.037,0,0,0-4.48,2.918,5.891,5.891,0,0,0-.554,2.807q0,1.517,0,3.009a11.44,11.44,0,0,0,.176,2.854,5.437,5.437,0,0,0,1.256,2.351,5.115,5.115,0,0,0,2.126,1.385,7.675,7.675,0,0,0,2.5.241l18.263.072,12.312.107,3.348.063.87.034a.978.978,0,0,1,.3.034.978.978,0,0,1-.3.034l-.87.034-3.348.063-12.312.107L487.065,63a8.169,8.169,0,0,1-2.673-.256,5.711,5.711,0,0,1-2.386-1.541,6.1,6.1,0,0,1-1.416-2.631,6.486,6.486,0,0,1-.2-1.537q0-.74,0-1.487,0-1.491,0-3.009a6.606,6.606,0,0,1,.62-3.113,5.666,5.666,0,0,1,5.042-3.287l22.361.026,9.758.031c1.537.017,2.985-.011,4.442.044a5.452,5.452,0,0,1,3.708,1.991,6.063,6.063,0,0,1,1.379,3.739q-.008,1.868-.016,3.524a11.815,11.815,0,0,1-.233,3.085,5.787,5.787,0,0,1-1.2,2.281,5.241,5.241,0,0,1-2.914,1.757,3.619,3.619,0,0,1-1.172.071" transform="translate(0 0.19)" fill="#263238"/>
      <path id="Path_781" data-name="Path 781" d="M240.618,177.72H109a8.625,8.625,0,0,1-8.607-8.642V155.712A8.625,8.625,0,0,1,109,147.07H240.618a8.625,8.625,0,0,1,8.607,8.642v13.365a8.625,8.625,0,0,1-8.607,8.642" transform="translate(0 0.606)" fill="#e8ebeb"/>
      <path id="Path_782" data-name="Path 782" d="M62.515.25,553.956,0h.25V.25c.007,107.181.016,227.91.025,355.175v.316h-.275l-491.441-.051h-.224v-.225C62.427,139.873,62.514,2.1,62.515.25c0,1.849.088,139.623.224,355.216l-.224-.224,491.441-.052-.275.276v-.04c.009-127.266.017-247.994.025-355.175l.25.251L62.515.25" fill="#171c25"/>
      <path id="Path_783" data-name="Path 783" d="M512.044,210.869s-.014-.62-.021-1.807-.012-2.953-.021-5.257c-.011-4.615-.028-11.4-.049-20.112-.025-17.413-.06-42.53-.1-73.39l.194.2-176.135.058H335.9l.253-.254c-.006,35.577-.012,69.588-.017,100.566l-.236-.237,126.706.115,36.384.064,9.7.029,2.5.014c.564,0,.858.014.858.014s-.275.009-.83.014l-2.477.014-9.648.029-36.331.064-126.862.115h-.236v-.237c-.005-30.978-.011-64.989-.017-100.566v-.254h.266l176.135.059h.2v.195c-.043,30.911-.078,56.07-.1,73.511-.021,8.695-.038,15.464-.049,20.067-.009,2.287-.016,4.036-.021,5.22s-.021,1.767-.021,1.767" transform="translate(0 0.454)" fill="#24e096"/>
      <path id="Path_784" data-name="Path 784" d="M508.228,110.172s-.138.105-.421.289l-1.264.807-4.886,3.061c-4.246,2.653-10.415,6.449-18.063,11.1-15.291,9.31-36.535,21.976-60.218,35.581s-45.334,25.581-61.067,34.117c-7.867,4.267-14.249,7.692-18.674,10.028l-5.1,2.686-1.332.687c-.3.153-.462.219-.462.219s.144-.1.438-.265l1.308-.731,5.054-2.769,18.6-10.171c15.688-8.614,37.3-20.634,60.987-34.242s44.948-26.218,60.285-35.449l18.144-10.963,4.935-2.979,1.29-.764c.293-.169.449-.245.449-.245" transform="translate(0 0.454)" fill="#24e096"/>
      <path id="Path_785" data-name="Path 785" d="M510.009,210.864c-.07.122-38.716-22.1-86.307-49.627-47.608-27.536-86.133-49.949-86.063-50.072s38.707,22.1,86.315,49.632c47.592,27.526,86.125,49.945,86.055,50.067" transform="translate(0 0.458)" fill="#24e096"/>
      <path id="Path_786" data-name="Path 786" d="M508.455,260.256c0,.2-38.493.355-85.966.355-47.489,0-85.974-.16-85.974-.355S375,259.9,422.489,259.9c47.473,0,85.966.16,85.966.355" transform="translate(0 1.072)" fill="#171c25"/>
      <path id="Path_787" data-name="Path 787" d="M508.455,270.68c0,.2-38.493.355-85.966.355-47.489,0-85.974-.16-85.974-.355s38.485-.355,85.974-.355c47.473,0,85.966.16,85.966.355" transform="translate(0 1.115)" fill="#171c25"/>
      <path id="Path_788" data-name="Path 788" d="M413.206,296.627c0,.18-16.874.326-37.685.326s-37.688-.147-37.688-.326,16.87-.326,37.688-.326,37.685.147,37.685.326" transform="translate(0 1.222)" fill="#171c25"/>
      <path id="Path_789" data-name="Path 789" d="M486.665,284.061c0,.181-33.32.326-74.412.326s-74.42-.146-74.42-.326,33.313-.326,74.42-.326,74.412.147,74.412.326" transform="translate(0 1.17)" fill="#171c25"/>
      <path id="Path_790" data-name="Path 790" d="M531.1,316.23s-.012-.483-.018-1.411-.01-2.308-.018-4.113c-.01-3.618-.024-8.949-.043-15.837-.022-13.766-.054-33.746-.094-58.644l.173.174-213.995.08h-.014l.253-.254c0,27.926-.007,54.944-.01,80l-.243-.244,153.331.113,44.587.069,11.942.03,3.09.016c.7.005,1.059.015,1.059.015s-.342.01-1.029.015l-3.061.015-11.89.032-44.532.067-153.5.115h-.244v-.245c0-25.061-.006-52.079-.009-80v-.254h.267l213.995.081h.173v.173c-.04,24.942-.072,44.959-.094,58.748-.019,6.871-.033,12.189-.043,15.8-.008,1.79-.014,3.155-.018,4.082s-.018,1.376-.018,1.376" transform="translate(0 0.973)" fill="#171c25"/>
      <path id="Path_791" data-name="Path 791" d="M119.082,55.451a10.9,10.9,0,1,1-10.889-10.446,10.675,10.675,0,0,1,10.889,10.446" transform="translate(0 0.186)" fill="#24e096"/>
      <rect id="Rectangle_1830" data-name="Rectangle 1830" width="76.961" height="53.764" transform="translate(27.451 182.203)" fill="#1d2579"/>
      <path id="Path_792" data-name="Path 792" d="M104.412,181.455c.08.114-17.057,12.35-38.272,27.324s-38.485,27.026-38.566,26.91,17.053-12.347,38.275-27.326,38.483-27.023,38.563-26.908" transform="translate(0 0.748)" fill="#fff"/>
      <path id="Path_793" data-name="Path 793" d="M104.412,235.22a.867.867,0,0,1-.21-.118c-.158-.1-.351-.231-.588-.389l-2.234-1.533c-1.962-1.377-4.741-3.325-8.159-5.72l-26.809-19.03L39.685,189.275l-8.066-5.851-2.177-1.612-.559-.43c-.124-.1-.185-.154-.18-.161a.868.868,0,0,1,.21.118l.589.389,2.233,1.535,8.159,5.719,26.812,19.032,26.721,19.149c3.38,2.452,6.126,4.445,8.067,5.852l2.178,1.613.559.43c.125.1.186.154.181.161" transform="translate(0 0.747)" fill="#fff"/>
      <rect id="Rectangle_1831" data-name="Rectangle 1831" width="204.894" height="116.911" transform="translate(91.245 341.387)" fill="#f2f5f5"/>
      <path id="Path_794" data-name="Path 794" d="M296.139,456.9s-.014-.718-.021-2.1-.012-3.43-.021-6.108c-.011-5.361-.028-13.246-.049-23.376-.025-20.242-.06-49.447-.1-85.329l.194.2L91.26,340.24h-.015l.253-.254c-.006,41.359-.012,80.9-.018,116.911l-.235-.237,147.395.115,42.318.064,11.274.029,2.911.014c.655.005,1,.014,1,.014s-.322.01-.968.014l-2.884.014-11.226.029-42.264.064-147.552.115h-.236V456.9C91,420.883,91,381.345,90.992,339.986v-.254h.268l204.879.059h.2v.195c-.043,35.933-.078,65.179-.1,85.45-.021,10.111-.038,17.981-.049,23.332-.009,2.662-.016,4.7-.021,6.072s-.021,2.057-.021,2.057" transform="translate(0 1.401)" fill="#171c25"/>
      <path id="Path_795" data-name="Path 795" d="M174.376,358.981c0,.141-13.922.254-31.092.254s-31.1-.113-31.1-.254,13.92-.254,31.1-.254,31.092.113,31.092.254" transform="translate(0 1.479)" fill="#ebebeb"/>
      <path id="Path_796" data-name="Path 796" d="M206.924,370.141c0,.141-13.922.254-31.092.254s-31.1-.113-31.1-.254,13.92-.254,31.1-.254,31.092.113,31.092.254" transform="translate(0 1.525)" fill="#ebebeb"/>
      <path id="Path_797" data-name="Path 797" d="M274.654,358.981c0,.141-13.922.254-31.092.254s-31.1-.113-31.1-.254,13.92-.254,31.1-.254,31.092.113,31.092.254" transform="translate(0 1.479)" fill="#ebebeb"/>
      <path id="Path_798" data-name="Path 798" d="M200.8,358.973a69.516,69.516,0,0,1-8.4.254,69.5,69.5,0,0,1-8.4-.254,69.514,69.514,0,0,1,8.4-.254,69.528,69.528,0,0,1,8.4.254" transform="translate(0 1.479)" fill="#ebebeb"/>
      <path id="Path_799" data-name="Path 799" d="M130.8,370.141a69.54,69.54,0,0,1-8.4.254,69.526,69.526,0,0,1-8.395-.254,69.491,69.491,0,0,1,8.395-.254,69.5,69.5,0,0,1,8.4.254" transform="translate(0 1.525)" fill="#ebebeb"/>
      <path id="Path_800" data-name="Path 800" d="M231.126,369.669a64.4,64.4,0,0,1-8.079.254,64.4,64.4,0,0,1-8.079-.254,64.4,64.4,0,0,1,8.079-.254,64.4,64.4,0,0,1,8.079.254" transform="translate(0 1.523)" fill="#ebebeb"/>
      <path id="Path_801" data-name="Path 801" d="M174.376,384.534c0,.141-13.922.254-31.092.254s-31.1-.113-31.1-.254,13.92-.254,31.1-.254,31.092.113,31.092.254" transform="translate(0 1.584)" fill="#ebebeb"/>
      <path id="Path_802" data-name="Path 802" d="M206.924,395.693c0,.141-13.922.254-31.092.254s-31.1-.113-31.1-.254,13.92-.254,31.1-.254,31.092.113,31.092.254" transform="translate(0 1.63)" fill="#ebebeb"/>
      <path id="Path_803" data-name="Path 803" d="M274.654,384.534c0,.141-13.922.254-31.092.254s-31.1-.113-31.1-.254,13.92-.254,31.1-.254,31.092.113,31.092.254" transform="translate(0 1.584)" fill="#ebebeb"/>
      <path id="Path_804" data-name="Path 804" d="M200.8,384.525a69.532,69.532,0,0,1-8.4.254,69.518,69.518,0,0,1-8.4-.254,69.5,69.5,0,0,1,8.4-.254,69.509,69.509,0,0,1,8.4.254" transform="translate(0 1.584)" fill="#ebebeb"/>
      <path id="Path_805" data-name="Path 805" d="M130.8,395.693a69.516,69.516,0,0,1-8.4.254,69.5,69.5,0,0,1-8.395-.254,69.5,69.5,0,0,1,8.395-.254,69.516,69.516,0,0,1,8.4.254" transform="translate(0 1.63)" fill="#ebebeb"/>
      <path id="Path_806" data-name="Path 806" d="M231.126,395.222a64.4,64.4,0,0,1-8.079.254,64.4,64.4,0,0,1-8.079-.254,64.384,64.384,0,0,1,8.079-.254,64.384,64.384,0,0,1,8.079.254" transform="translate(0 1.628)" fill="#ebebeb"/>
      <path id="Path_807" data-name="Path 807" d="M174.954,428.837c0,.141-13.922.254-31.092.254s-31.1-.113-31.1-.254,13.92-.254,31.1-.254,31.092.113,31.092.254" transform="translate(0 1.767)" fill="#ebebeb"/>
      <path id="Path_808" data-name="Path 808" d="M207.5,440c0,.141-13.922.254-31.092.254s-31.1-.113-31.1-.254,13.919-.254,31.1-.254,31.092.113,31.092.254" transform="translate(0 1.813)" fill="#ebebeb"/>
      <path id="Path_809" data-name="Path 809" d="M275.232,428.837c0,.141-13.922.254-31.092.254s-31.1-.113-31.1-.254,13.92-.254,31.1-.254,31.092.113,31.092.254" transform="translate(0 1.767)" fill="#ebebeb"/>
      <path id="Path_810" data-name="Path 810" d="M201.374,428.829a69.532,69.532,0,0,1-8.395.254,69.518,69.518,0,0,1-8.4-.254,69.487,69.487,0,0,1,8.4-.254,69.5,69.5,0,0,1,8.395.254" transform="translate(0 1.767)" fill="#ebebeb"/>
      <path id="Path_811" data-name="Path 811" d="M131.38,440a69.52,69.52,0,0,1-8.4.254,69.507,69.507,0,0,1-8.4-.254,69.507,69.507,0,0,1,8.4-.254,69.52,69.52,0,0,1,8.4.254" transform="translate(0 1.813)" fill="#ebebeb"/>
      <path id="Path_812" data-name="Path 812" d="M231.7,439.525a64.391,64.391,0,0,1-8.079.254,64.391,64.391,0,0,1-8.079-.254,64.4,64.4,0,0,1,8.079-.254,64.4,64.4,0,0,1,8.079.254" transform="translate(0 1.811)" fill="#ebebeb"/>
      <path id="Path_813" data-name="Path 813" d="M174.376,408.561c0,.141-13.922.254-31.092.254s-31.1-.113-31.1-.254,13.92-.254,31.1-.254,31.092.113,31.092.254" transform="translate(0 1.684)" fill="#ebebeb"/>
      <path id="Path_814" data-name="Path 814" d="M206.924,419.72c0,.141-13.922.254-31.092.254s-31.1-.113-31.1-.254,13.92-.254,31.1-.254,31.092.113,31.092.254" transform="translate(0 1.729)" fill="#ebebeb"/>
      <path id="Path_815" data-name="Path 815" d="M274.654,408.561c0,.141-13.922.254-31.092.254s-31.1-.113-31.1-.254,13.92-.254,31.1-.254,31.092.113,31.092.254" transform="translate(0 1.684)" fill="#ebebeb"/>
      <path id="Path_816" data-name="Path 816" d="M200.8,408.552a69.509,69.509,0,0,1-8.4.254,69.5,69.5,0,0,1-8.4-.254,69.514,69.514,0,0,1,8.4-.254,69.528,69.528,0,0,1,8.4.254" transform="translate(0 1.684)" fill="#ebebeb"/>
      <path id="Path_817" data-name="Path 817" d="M130.8,419.72a69.513,69.513,0,0,1-8.4.254,69.5,69.5,0,0,1-8.395-.254,69.5,69.5,0,0,1,8.395-.254,69.516,69.516,0,0,1,8.4.254" transform="translate(0 1.729)" fill="#ebebeb"/>
      <path id="Path_818" data-name="Path 818" d="M231.126,419.248a64.406,64.406,0,0,1-8.079.254,64.406,64.406,0,0,1-8.079-.254,64.373,64.373,0,0,1,8.079-.254,64.373,64.373,0,0,1,8.079.254" transform="translate(0 1.728)" fill="#ebebeb"/>
      <path id="Path_819" data-name="Path 819" d="M163.111,385.415v21.322h-3.943V397.6H148.187v9.139h-3.944V385.415h3.944v8.8h10.981v-8.8Z" transform="translate(0 1.589)" fill="#171c25"/>
      <path id="Path_820" data-name="Path 820" d="M173.116,388.765h-7.037v-3.35H184.1v3.35h-7.038v17.972h-3.943Z" transform="translate(0 1.589)" fill="#171c25"/>
      <path id="Path_821" data-name="Path 821" d="M206.57,406.737l-.03-14.133-6.977,11.7H197.8l-6.977-11.513v13.95h-3.761V385.415h3.246l8.433,14.133,8.281-14.133h3.246l.03,21.322Z" transform="translate(0 1.589)" fill="#171c25"/>
      <path id="Path_822" data-name="Path 822" d="M216.027,385.415h3.944v17.971h11.1v3.351H216.027Z" transform="translate(0 1.589)" fill="#171c25"/>
      <path id="Path_823" data-name="Path 823" d="M157.245,108.352l-10.881-5.562a28.61,28.61,0,1,0-1.507,10.123v.016Z" transform="translate(0 0.31)" fill="#fff"/>
      <path id="Path_824" data-name="Path 824" d="M157.245,108.353l-12.346,4.7a.124.124,0,0,1-.161-.073.128.128,0,0,1-.008-.054V112.9l.245.05a28.517,28.517,0,0,1-8.209,12.389,25.555,25.555,0,0,1-3.633,2.689c-.671.393-1.34.814-2.041,1.2l-2.207,1.028a28.616,28.616,0,0,1-21.147.287A28.389,28.389,0,0,1,97.655,124a29.168,29.168,0,0,1-6.707-10.8A28.328,28.328,0,0,1,89.585,100a28.785,28.785,0,0,1,4.84-12.642A29.106,29.106,0,0,1,104,78.643a28.025,28.025,0,0,1,11.69-3.581,28.8,28.8,0,0,1,20.444,6.465,30.812,30.812,0,0,1,6.131,7.078,28.512,28.512,0,0,1,4.221,14.182l-.066-.1,10.825,5.67L146.309,102.9a.124.124,0,0,1-.066-.1,28.432,28.432,0,0,0-4.275-14,30.612,30.612,0,0,0-6.084-6.958,28.441,28.441,0,0,0-20.157-6.306,27.574,27.574,0,0,0-11.489,3.543,28.664,28.664,0,0,0-9.4,8.57,28.343,28.343,0,0,0-4.751,12.421,27.855,27.855,0,0,0,1.336,12.965A28.732,28.732,0,0,0,98,123.651a27.97,27.97,0,0,0,9.9,6.461,28.25,28.25,0,0,0,20.827-.221l2.181-1.005c.693-.377,1.355-.79,2.019-1.175a25.248,25.248,0,0,0,3.6-2.636,28.416,28.416,0,0,0,8.2-12.2.126.126,0,0,1,.245.05v.016l-.169-.128,12.433-4.458" transform="translate(0 0.309)" fill="#263238"/>
      <path id="Path_825" data-name="Path 825" d="M124.408,109.863a2.882,2.882,0,0,1,.438-.5l1.269-1.28c1.081-1.072,2.587-2.538,4.264-4.144l.038-.037,0,.217c-1.69-1.575-3.206-3.012-4.293-4.063L124.849,98.8a2.891,2.891,0,0,1-.441-.489,2.765,2.765,0,0,1,.518.4l1.341,1.186c1.123,1.01,2.662,2.423,4.352,4l.115.107-.114.109-.038.036c-1.677,1.606-3.206,3.048-4.324,4.081l-1.333,1.213a2.858,2.858,0,0,1-.517.415" transform="translate(0 0.405)" fill="#263238"/>
      <path id="Path_826" data-name="Path 826" d="M124.4,109.993a.113.113,0,0,1-.083-.044l0,0c-.091-.1-.062-.144.44-.667L126.029,108c1.1-1.087,2.546-2.5,4.1-3.984-1.531-1.43-2.975-2.8-4.085-3.868l-1.277-1.256c-.484-.49-.542-.556-.445-.661s.158-.055.686.4l1.342,1.188c1.143,1.028,2.618,2.383,4.171,3.83l.019-.019v.037l.164.153.21.2-.246.235-.123.118v.039l-.021-.019c-1.582,1.514-3.063,2.91-4.18,3.943l-1.335,1.214c-.382.336-.519.454-.6.454m5.9-5.813c-1.189,1.139-2.318,2.234-3.275,3.173.969-.906,2.111-1.987,3.314-3.138l-.007-.006-.032-.029m.235-.185v.032l.017-.017Zm-3.483-3.213c.958.915,2.077,1.971,3.246,3.063l.038-.035c-1.177-1.1-2.309-2.14-3.284-3.027" transform="translate(0 0.405)" fill="#263238"/>
      <path id="Path_827" data-name="Path 827" d="M111.368,98.312a2.825,2.825,0,0,1-.438.5l-1.269,1.28c-1.081,1.072-2.587,2.538-4.264,4.144l-.038.036,0-.216c1.69,1.575,3.206,3.012,4.294,4.063l1.276,1.255a2.844,2.844,0,0,1,.441.489,2.766,2.766,0,0,1-.518-.4l-1.34-1.186c-1.124-1.01-2.663-2.423-4.353-4l-.115-.107.114-.109.038-.036c1.677-1.606,3.206-3.048,4.324-4.081l1.333-1.213a2.858,2.858,0,0,1,.517-.415" transform="translate(0 0.405)" fill="#263238"/>
      <path id="Path_828" data-name="Path 828" d="M111.375,109.993c-.081,0-.218-.11-.6-.442l-1.341-1.187c-1.125-1.012-2.6-2.366-4.169-3.827l-.021.019v-.039c-.054-.051-.109-.1-.164-.154l-.21-.2.244-.234.125-.118v-.041l.022.02c1.582-1.513,3.062-2.909,4.18-3.943l1.335-1.214c.527-.463.588-.511.686-.408s.04.17-.438.667l-1.271,1.283c-1.088,1.079-2.537,2.487-4.1,3.984,1.549,1.446,2.993,2.814,4.085,3.869l1.277,1.255c.49.5.541.553.446.659a.112.112,0,0,1-.083.047m-5.939-5.626c1.186,1.1,2.316,2.147,3.282,3.024-.948-.906-2.066-1.96-3.244-3.06Zm-.217-.2.018.016v-.033Zm.214-.207.007.007.031.03c1.195-1.146,2.326-2.241,3.279-3.176-.97.906-2.113,1.988-3.317,3.139" transform="translate(0 0.405)" fill="#263238"/>
      <path id="Path_829" data-name="Path 829" d="M114.715,112.6c-.076-.029,1.293-3.892,3.057-8.627s3.256-8.554,3.333-8.525-1.293,3.892-3.058,8.628-3.256,8.553-3.332,8.524" transform="translate(0 0.394)" fill="#263238"/>
      <path id="Path_830" data-name="Path 830" d="M114.726,112.723a.157.157,0,0,1-.054-.013h0c-.146-.055-.168-.063.767-2.7.577-1.63,1.366-3.79,2.219-6.081s1.67-4.439,2.3-6.052c1.019-2.6,1.042-2.6,1.189-2.544s.169.064-.766,2.7c-.578,1.631-1.366,3.791-2.22,6.082s-1.669,4.436-2.3,6.05c-.887,2.27-1.02,2.559-1.135,2.559m5-13.585c-.512,1.329-1.137,2.979-1.842,4.872s-1.312,3.551-1.795,4.89c.512-1.329,1.138-2.978,1.843-4.871s1.312-3.551,1.794-4.891" transform="translate(0 0.393)" fill="#263238"/>
      <path id="Path_831" data-name="Path 831" d="M666.226,416.587c0,.277-145.519.5-324.984.5-179.528,0-325.016-.223-325.016-.5s145.488-.5,325.016-.5c179.465,0,324.984.223,324.984.5" transform="translate(-16.226 0.913)" fill="#dbdee5"/>
      <path id="Path_832" data-name="Path 832" d="M190.243,120.381a11.9,11.9,0,0,1,10.462-10,15.372,15.372,0,0,0,4.051-.459,22.981,22.981,0,0,0,2.907-1.668,7.913,7.913,0,0,1,9.694,2.033c2.081,2.669,2.927-1.045,7.836,1.885,4.066,2.428,1.945,5.8,1.945,5.8a9.116,9.116,0,0,1,9.034,7.234c.483,2.634-.052,5.84,1.993,7.559.991.833,2.372,1.063,3.4,1.857,1.9,1.475,1.968,4.321,1.539,6.694s-1.166,4.88-.289,7.126c1.44,3.681,6.66,5.143,7.3,9.045.305,1.843-.467,4.052.811,5.408a6.3,6.3,0,0,0,1.922,1.131,8.356,8.356,0,0,1,.311,14.814c-.743.406-1.625.779-1.909,1.578-.317.891.272,1.815.694,2.662a8.276,8.276,0,0,1-1.763,9.511,8.192,8.192,0,0,1-9.595.885,12.5,12.5,0,0,1-7.337,5.853,7.546,7.546,0,0,1-4.361.115,8.689,8.689,0,0,1-3-1.856c-4.248-3.716-10.205-9.4-10.6-15.045" transform="translate(0 0.443)" fill="#151f2c"/>
      <path id="Path_833" data-name="Path 833" d="M288.288,186.577l-25.454,23.4c-3.161-.732-41.918-24-41.918-24l-6.126,29.935s39.666,18.311,50.582,16.09c1.782-.363,4.714-.591,6.552-2.963,8.731-11.268,27.258-39.148,27.258-39.148Z" transform="translate(0 0.767)" fill="#ee805f"/>
      <path id="Path_834" data-name="Path 834" d="M300.588,160.917c-1.68.69-7.683,10.852-7.683,10.852l-1.505.081a4.8,4.8,0,0,0-4.489,5.372c.5,4.238,1.377,9.46,1.377,9.46l8.4,3.846,2.493-.528c2.315-.122,4.567-4.844,5.992-8.18s-.911-3.99-.911-3.99c.025-3.311-2.788-2.651-2.788-2.651a2.875,2.875,0,0,0-3.005-2.869s3.729-6.848,4.456-9.258-.657-2.825-2.337-2.135" transform="translate(0 0.662)" fill="#ee805f"/>
      <path id="Path_835" data-name="Path 835" d="M301.31,175.131a15.936,15.936,0,0,1-.875,2.13,8.314,8.314,0,0,1-.523,1.058,4.407,4.407,0,0,1-.918,1.019,3.156,3.156,0,0,1-1.365.7,2.046,2.046,0,0,1-1.623-.39,1.492,1.492,0,0,1-.481-.749,2.028,2.028,0,0,1-.026-.843,8.755,8.755,0,0,1,.432-1.44,17.5,17.5,0,0,1,1.034-2.289,14.691,14.691,0,0,1,.884-1.44,2.036,2.036,0,0,1,.392-.482c.046.031-.444.763-1.066,2.031a20.883,20.883,0,0,0-.954,2.285,9,9,0,0,0-.4,1.385,1.32,1.32,0,0,0,.4,1.284,1.743,1.743,0,0,0,1.356.322,2.927,2.927,0,0,0,1.227-.619,4.29,4.29,0,0,0,.879-.933,8.768,8.768,0,0,0,.54-1.005,15.671,15.671,0,0,1,1.089-2.028" transform="translate(0 0.711)" fill="#eb996e"/>
      <path id="Path_836" data-name="Path 836" d="M304.169,177.307a2.079,2.079,0,0,1-.136.583,14.851,14.851,0,0,1-.552,1.534,7.552,7.552,0,0,1-1.272,2.079,3.318,3.318,0,0,1-1.169.9,1.612,1.612,0,0,1-1.61-.157,1.637,1.637,0,0,1-.488-1.543,7.055,7.055,0,0,1,.383-1.4c.3-.86.617-1.617.907-2.24s.552-1.115.745-1.447a1.98,1.98,0,0,1,.333-.5c.046.025-.34.779-.862,2.039-.259.631-.551,1.389-.831,2.244a7.135,7.135,0,0,0-.35,1.34,1.325,1.325,0,0,0,.371,1.241,1.3,1.3,0,0,0,1.279.114,3.066,3.066,0,0,0,1.064-.805,7.9,7.9,0,0,0,1.285-1.969c.573-1.231.848-2.039.9-2.018" transform="translate(0 0.722)" fill="#eb996e"/>
      <path id="Path_837" data-name="Path 837" d="M305.656,179.735a4.031,4.031,0,0,1-.33,1.575,8.026,8.026,0,0,1-.771,1.578,4.43,4.43,0,0,1-.645.84,1.3,1.3,0,0,1-1.145.381,1.11,1.11,0,0,1-.8-.922,2.84,2.84,0,0,1,.062-1.077,7.087,7.087,0,0,1,.623-1.648,13.247,13.247,0,0,1,.749-1.411,5.365,5.365,0,0,1-.534,1.51,7.967,7.967,0,0,0-.536,1.61,2.647,2.647,0,0,0-.042.954.789.789,0,0,0,.547.656.986.986,0,0,0,.85-.294,4.436,4.436,0,0,0,.609-.767,9.276,9.276,0,0,0,.809-1.5c.38-.9.5-1.5.55-1.489" transform="translate(0 0.738)" fill="#eb996e"/>
      <path id="Path_838" data-name="Path 838" d="M291.4,171.8c2.156-.086,5.345-.092,7.421.066a2.725,2.725,0,0,1-1.474,3.217,7.536,7.536,0,0,1-3.791.548,4.881,4.881,0,0,1-.1,7.226" transform="translate(0 0.708)" fill="#ffbe9d"/>
      <path id="Path_839" data-name="Path 839" d="M293.454,182.862a6.409,6.409,0,0,0,1.209-1.9,4.8,4.8,0,0,0,.25-2.469,4.862,4.862,0,0,0-1.465-2.74l-.308-.287.422.01a8.26,8.26,0,0,0,3.4-.395,2.636,2.636,0,0,0,1.715-3.151l.132.1c-2.159-.16-4.018-.163-5.327-.179l-1.532-.012a2.314,2.314,0,0,1-.55-.032,2.272,2.272,0,0,1,.547-.07c.356-.027.876-.055,1.532-.077,1.314-.038,3.172-.078,5.354.058l.093.006.039.09a2.408,2.408,0,0,1-.191,2.1,3.355,3.355,0,0,1-1.683,1.483,8.372,8.372,0,0,1-3.539.4l.113-.277a5.066,5.066,0,0,1,1.516,2.932,4.877,4.877,0,0,1-.333,2.586,4.723,4.723,0,0,1-.928,1.431,1.764,1.764,0,0,1-.466.394" transform="translate(0 0.708)" fill="#eb996e"/>
      <path id="Path_842" data-name="Path 842" d="M255.354,408.509,243.5,434.31l-19.132-8.874L236.629,393.5Z" transform="translate(0 1.623)" fill="#ee805f"/>
      <path id="Path_843" data-name="Path 843" d="M245.738,432.473l-6.927,13.263s17.731,18.41,16.066,22.526l-41.683-20.068,11.451-26.605Z" transform="translate(0 1.738)" fill="#455a64"/>
      <g id="Group_439" data-name="Group 439" transform="translate(213.194 446.596)" opacity="0.6">
        <g id="Group_438" data-name="Group 438">
          <g id="Group_437" data-name="Group 437" clip-path="url(#clip-path)">
            <path id="Path_845" data-name="Path 845" d="M213.194,448.1l1.734-3.336,39.317,20.488s1.469,1.7.632,2.916Z" transform="translate(-213.194 -444.762)" fill="#fff"/>
          </g>
        </g>
      </g>
      <path id="Path_850" data-name="Path 850" d="M255.622,417.78l30.2-75.461s-.7-13.4-3.161-17.631-76.906-28.915-76.906-28.915-18.964-4.584-31.606,0-22.124,20.452-20.367,29.268,9.165,15.291,9.165,15.291l54.747,1.635,29.84,10.931-20.1,57.83s10.272,11.283,28.182,7.052" transform="translate(0 1.211)" fill="#384152"/>
      <path id="Path_851" data-name="Path 851" d="M282.368,366.908l.7,28.407L262,395.832l-3.035-34.089Z" transform="translate(0 1.492)" fill="#ee805f"/>
      <path id="Path_852" data-name="Path 852" d="M284.327,392.651l-.384,14.972s24,8.659,24.319,13.089l-46.225.471-1.421-28.949Z" transform="translate(0 1.617)" fill="#455a64"/>
      <g id="Group_442" data-name="Group 442" transform="translate(262.037 419.038)" opacity="0.6">
        <g id="Group_441" data-name="Group 441">
          <g id="Group_440" data-name="Group 440" clip-path="url(#clip-path-2)">
            <path id="Path_854" data-name="Path 854" d="M262.037,421.079l.09-3.762,44.285.956s2.067.878,1.85,2.336Z" transform="translate(-262.037 -417.317)" fill="#fff"/>
          </g>
        </g>
      </g>
      <path id="Path_859" data-name="Path 859" d="M270.065,288.346s12.623-1.013,14.028,12.739,2.784,77.93,2.784,77.93l-29.5,2.468L252.813,315.9l-47.057-20.1s55.881-9.214,64.309-7.451" transform="translate(0 1.188)" fill="#384152"/>
      <path id="Path_860" data-name="Path 860" d="M218.035,269.863s7.661,21.568,6.2,23.971-21.16,12.294-21.16,12.294l-49.295,19.01s-5.063-8.087-5.063-20.508,17.147-34.768,17.147-34.768Z" transform="translate(0 1.113)" fill="#384152"/>
      <path id="Path_861" data-name="Path 861" d="M203.424,294.669a1.133,1.133,0,0,0,.232.124l.7.325,2.73,1.22,10.246,4.482,35.377,15.292-.159-.226c.447,6.479.931,13.475,1.431,20.715,1.2,16.923,2.3,32.525,3.179,44.869l.016.224.221-.02,21.49-1.894,5.917-.555,1.546-.162a3.121,3.121,0,0,0,.527-.077,3.276,3.276,0,0,0-.532.011l-1.552.1-5.927.436-21.506,1.7.237.2c-.844-12.347-1.91-27.952-3.067-44.877-.508-7.238-1-14.235-1.453-20.713l-.011-.162-.149-.063-35.453-15.112-10.308-4.34-2.764-1.139-.718-.283a1.11,1.11,0,0,0-.25-.082" transform="translate(0 1.215)" fill="#2c3341"/>
      <path id="Path_862" data-name="Path 862" d="M164.219,296.842a7.154,7.154,0,0,0,1.384-.38l3.712-1.2a80.671,80.671,0,0,1,12.421-3.151,36.27,36.27,0,0,1,12.716.164,50.931,50.931,0,0,1,5.1,1.483,6.066,6.066,0,0,0-1.282-.652,22.728,22.728,0,0,0-3.73-1.213,34.049,34.049,0,0,0-12.882-.329,68.848,68.848,0,0,0-12.464,3.329c-1.554.553-2.8,1.028-3.659,1.369a7.084,7.084,0,0,0-1.312.582" transform="translate(0 1.2)" fill="#2c3341"/>
      <path id="Path_863" data-name="Path 863" d="M171.188,285.5a35.858,35.858,0,0,1,4.31-.024c1.327.092,2.907.3,4.666.5s3.684.448,5.679.827a26.344,26.344,0,0,1,9.66,3.6,29.89,29.89,0,0,1,3.349,2.709,3.79,3.79,0,0,0-.716-.931,14.76,14.76,0,0,0-2.416-2.1,24.665,24.665,0,0,0-9.774-3.817c-2.021-.385-3.964-.607-5.727-.79s-3.352-.341-4.7-.386a17.542,17.542,0,0,0-3.19.143,3.7,3.7,0,0,0-1.14.272" transform="translate(0 1.175)" fill="#2c3341"/>
      <path id="Path_864" data-name="Path 864" d="M219.253,185.237a15.99,15.99,0,0,1,8.187,7.144c3.074,5.466,2.254,8.167,1.45,11.395s-2.221,9.642-2.3,9.229-7.337-27.768-7.337-27.768" transform="translate(0 0.764)" fill="#ffbe9d"/>
      <path id="Path_865" data-name="Path 865" d="M218.909,185.257l-6.464-3.853-36.432-.965,12.265,40.417,22.194,14.032,13.152-6.606,1.315-14.688Z" transform="translate(0 0.744)" fill="#ee805f"/>
      <path id="Path_866" data-name="Path 866" d="M219.253,185.258s8.378,26.991,8.187,34.719-3.384,29.675-3.018,34-1.134,16.255-6.387,16.255H165.866s-11.782-3.271-12.293-10.382,9.062-67.915,9.062-67.915,6.655-10.092,10.964-11.019,12.315-2.707,15.2,6.257,3.829,13.563,9.985,19.744,14.921,13.127,14.921,13.127,7.08-5.941,7.388-13.978S218.416,185,218.416,185Z" transform="translate(0 0.743)" fill="#24e096"/>
      <path id="Path_872" data-name="Path 872" d="M148.72,221.513l26.29,12.377s10.717-23.807,11.638-27.06,3.813-8.407.849-15.193-10.428-10.566-15.388-8.818c-11.592,4.086-23.389,38.695-23.389,38.695" transform="translate(0 0.752)" fill="#24e096"/>
      <path id="Path_873" data-name="Path 873" d="M224.939,221.423c1.227,0,15.322,7.4,15.322,7.4l8.026-26.694c-11.985-8.019-24.228-16.356-31.242-18.248l6.094,21.236Z" transform="translate(0 0.758)" fill="#24e096"/>
      <path id="Path_874" data-name="Path 874" d="M172.431,232.043c-4.978,8.214-8.452,12.939-8.452,12.939l44.648,27.3-5.2,12.135-57.908-23.933s-5.707-5.9-3.693-12.472l9.233-25.588Z" transform="translate(0 0.917)" fill="#ee805f"/>
      <path id="Path_875" data-name="Path 875" d="M153.117,249.063a39.123,39.123,0,0,1,5.344-2.787,39.116,39.116,0,0,1,5.861-1.388,14.412,14.412,0,0,0-11.205,4.175" transform="translate(0 1.009)" fill="#de6b4d"/>
      <path id="Path_876" data-name="Path 876" d="M148.72,221.394a2.271,2.271,0,0,1,.522.185l1.455.621,5.313,2.369,17.449,7.987,2.128.986-.332.118c3.033-6.278,5.692-11.895,7.575-15.949l2.2-4.794c.239-.524.435-.953.592-1.3a1.98,1.98,0,0,1,.235-.44,1.982,1.982,0,0,1-.145.477c-.113.306-.277.759-.51,1.334-.459,1.155-1.159,2.815-2.058,4.863-1.8,4.1-4.408,9.741-7.434,16.029l-.107.223-.225-.1-2.129-.983-17.387-8.122-5.245-2.515-1.416-.707a2.277,2.277,0,0,1-.479-.278" transform="translate(0 0.871)" fill="#1baf75"/>
      <path id="Path_877" data-name="Path 877" d="M223.318,197.224a7.216,7.216,0,0,1,.615,1.254,27.153,27.153,0,0,1,1.187,3.62,66.253,66.253,0,0,1,1.805,12.418,87.82,87.82,0,0,1-.122,12.55c-.137,1.6-.321,2.891-.474,3.777a7.436,7.436,0,0,1-.308,1.363,7.475,7.475,0,0,1,.113-1.391c.093-.89.221-2.178.312-3.774a107.92,107.92,0,0,0-.026-12.492,76.814,76.814,0,0,0-1.647-12.363,36.633,36.633,0,0,0-1.023-3.636,7.311,7.311,0,0,1-.432-1.324" transform="translate(0 0.813)" fill="#1baf75"/>
      <path id="Path_878" data-name="Path 878" d="M243.268,280.4l-11.136-5.349L210.4,273.316l-1.772-1.235-5.2,12.135s5.7,2.735,8.681,2.979l18.272-.556,9.553,1.008Z" transform="translate(0 1.122)" fill="#ee805f"/>
      <path id="Path_882" data-name="Path 882" d="M189.521,129.015,189.6,125l24.175-3.6c7.429-.484,15.127,7.286,15.294,14.76.185,8.3.085,18.447-1.142,24.586-2.467,12.346-12.015,13.541-12.015,13.541l-.551,12.333-27.38-.77Z" transform="translate(0 0.5)" fill="#ee805f"/>
      <path id="Path_888" data-name="Path 888" d="M215.909,174.118a32.684,32.684,0,0,1-16.814-5.156s3.828,8.869,16.681,8.254Z" transform="translate(0 0.697)" fill="#de6b4d"/>
      <path id="Path_893" data-name="Path 893" d="M232.253,121.116c-1.99,4.348-6.457,10.817-11.2,11.285A13.973,13.973,0,0,1,208.6,126.77c-.8,3.524-4.753,5.316-8.317,5.819a14.093,14.093,0,0,1-7.511-.683,7.518,7.518,0,0,1-4.641-5.651c-.324-2.535,3.4-8.659,5.908-9.071" transform="translate(0 0.483)" fill="#151f2c"/>
      <path id="Path_894" data-name="Path 894" d="M193.64,184.624a9.781,9.781,0,0,1-7.141,8.692,6.907,6.907,0,0,1-13.377,2.7,8.353,8.353,0,0,0-.99-2.352c-1.212-1.54-3.576-1.236-5.436-1.841-3.351-1.089-4.8-5.213-4.424-8.73a8.245,8.245,0,0,0,.1-2.084c-.209-1.412-1.307-2.489-2.127-3.655-3.371-4.8-1.965-11.763,1.772-16.278,1.246-1.505,2.817-3.078,2.7-5.032a10.523,10.523,0,0,0-1.058-3.086,8.9,8.9,0,0,1,2.383-9.681,2.8,2.8,0,0,0,1.021-1.235,2.736,2.736,0,0,0-.007-1.028,10.365,10.365,0,0,1,8.735-11.08,2.577,2.577,0,0,0,.913-.206c.8-.417.82-1.516.924-2.411.276-2.364,2.1-6.778,3.9-8.323,4.994-4.284,9.836-.8,11.562.832,0,0,3.42,17.022,2.758,20.191s-2.981,11.075-2.062,14.665,2.425,10.943.98,14.179-1.126,15.76-1.126,15.76" transform="translate(0 0.482)" fill="#151f2c"/>
      <path id="Path_898" data-name="Path 898" d="M305.915,237.467l-62.65.511c-2.032,0-3.974.98-4.279,3l-6.846,45.85H199.87a1.889,1.889,0,0,0,0,3.778H302.935l7.044-48.391a4.122,4.122,0,0,0-4.064-4.746" transform="translate(0 0.979)" fill="#1d2579"/>
      <path id="Path_900" data-name="Path 900" d="M268.011,263.362a3.923,3.923,0,1,0,3.922-3.938,3.93,3.93,0,0,0-3.922,3.938" transform="translate(0 1.07)" fill="#fff"/>
      <path id="Path_902" data-name="Path 902" d="M404.6,166.306s-.016-.585-.024-1.7-.014-2.764-.025-4.905c-.012-4.3-.031-10.581-.055-18.587-.027-16-.065-38.868-.111-66.39l.215.216-102.111.038h-.009l.253-.254c-.011,33.315-.022,64.666-.031,91.58l-.222-.224,73.864.113,20.832.058,5.513.027,1.422.012c.32,0,.489.013.489.013s-.152.008-.464.013l-1.4.012-5.47.027-20.781.058-74.008.113h-.223v-.224c-.009-26.915-.019-58.265-.03-91.58v-.254h.262L404.6,74.51h.215v.215c-.046,27.579-.084,50.493-.111,66.526-.024,7.985-.042,14.253-.055,18.539-.011,2.123-.019,3.751-.025,4.864-.008,1.1-.024,1.651-.024,1.651" transform="translate(0 0.307)" fill="#263238"/>
      <rect id="Rectangle_1836" data-name="Rectangle 1836" width="87.134" height="81.168" transform="translate(309.14 80.239)" fill="#ffd500"/>
      <g id="Group_451" data-name="Group 451" transform="translate(315.389 86.554)" opacity="0.3">
        <g id="Group_450" data-name="Group 450">
          <g id="Group_449" data-name="Group 449" clip-path="url(#clip-path-3)">
            <path id="Path_903" data-name="Path 903" d="M361.843,98.126a6.042,6.042,0,1,0,6.271,6.038,6.157,6.157,0,0,0-6.271-6.038" transform="translate(-315.389 -86.15)"/>
            <path id="Path_904" data-name="Path 904" d="M389.518,86.262,315.9,86.206c.082-.089-.792.762-.422.411v4.6q0,2.3,0,4.582,0,4.562,0,9.037.006,8.948.011,17.491c.014,11.367.027,22.115.04,32v.35l.361,0,53.463-.177,14.932-.091,3.912-.04.993-.02a1.842,1.842,0,0,0,.322-.019,2.729,2.729,0,0,0-.363-.02l-1.032-.02-3.983-.04-15.013-.091-16.448-.054H389.5a1.665,1.665,0,0,0,.015.226,1.322,1.322,0,0,0,.02-.3c.005-.233.012-.53.021-.909q.014-1.273.041-3.588c.021-3.2.053-7.829.092-13.707.044-11.909.107-28.867.183-49.227v-.342ZM371.7,124.857l-11.98,14.177L340,112.337l-23.741,41.14c.012-9.653.025-20.1.038-31.148q.006-8.528.01-17.491,0-4.473,0-9.037,0-2.282,0-4.582V87.005l72.852-.056c.075,20.116.137,36.878.182,48.666.039,5.91.07,10.566.092,13.785q.027,2.356.041,3.653c.008.394.016.7.02.946,0,.035,0,.05,0,.079Z" transform="translate(-315.389 -86.199)"/>
          </g>
        </g>
      </g>
      <rect id="Rectangle_1838" data-name="Rectangle 1838" width="5.35" height="5.372" transform="translate(299.803 71.658)" fill="#263238"/>
      <rect id="Rectangle_1839" data-name="Rectangle 1839" width="5.35" height="5.372" transform="translate(401.061 71.658)" fill="#263238"/>
      <rect id="Rectangle_1840" data-name="Rectangle 1840" width="5.35" height="5.372" transform="translate(401.061 163.044)" fill="#263238"/>
      <rect id="Rectangle_1841" data-name="Rectangle 1841" width="5.35" height="5.372" transform="translate(300.557 163.044)" fill="#263238"/>
      <rect id="Rectangle_1842" data-name="Rectangle 1842" width="5.35" height="5.372" transform="translate(300.557 117.885)" fill="#263238"/>
      <rect id="Rectangle_1843" data-name="Rectangle 1843" width="5.35" height="5.372" transform="translate(350.205 163.927)" fill="#263238"/>
      <rect id="Rectangle_1844" data-name="Rectangle 1844" width="5.35" height="5.372" transform="translate(401.923 115.199)" fill="#263238"/>
      <rect id="Rectangle_1845" data-name="Rectangle 1845" width="5.35" height="5.372" transform="translate(350.223 72.144)" fill="#263238"/>
    </g>
  </g>
</svg>
