<svg xmlns="http://www.w3.org/2000/svg" xmlns:xlink="http://www.w3.org/1999/xlink" width="786" height="598.624" viewBox="0 0 786 598.624">
  <defs>
    <clipPath id="clip-path">
      <path id="Path_500" data-name="Path 500" d="M1688.7,718.358a18.663,18.663,0,0,0-18.761,18.563v25.313h706.1V736.921a18.664,18.664,0,0,0-18.761-18.563Z" transform="translate(-1669.94 -718.358)" fill="none"/>
    </clipPath>
    <clipPath id="clip-path-2">
      <rect id="Rectangle_1556" data-name="Rectangle 1556" width="83.115" height="79.179" fill="#24e096"/>
    </clipPath>
    <clipPath id="clip-path-3">
      <path id="Path_502" data-name="Path 502" d="M2740.029,890.3a15.512,15.512,0,1,0,15.512-15.512,15.512,15.512,0,0,0-15.512,15.512" transform="translate(-2740.029 -874.784)" fill="none"/>
    </clipPath>
    <clipPath id="clip-path-4">
      <path id="Path_503" data-name="Path 503" d="M2547.217,1070.159a15.511,15.511,0,1,0,15.512-15.511,15.511,15.511,0,0,0-15.512,15.511" transform="translate(-2547.217 -1054.648)" fill="#fed530"/>
    </clipPath>
    <clipPath id="clip-path-5">
      <rect id="Rectangle_1564" data-name="Rectangle 1564" width="47.924" height="4.167" fill="#fed530"/>
    </clipPath>
    <clipPath id="clip-path-6">
      <rect id="Rectangle_1566" data-name="Rectangle 1566" width="83.115" height="79.179" fill="#1d2579"/>
    </clipPath>
    <clipPath id="clip-path-8">
      <path id="Path_506" data-name="Path 506" d="M2740.029,1252.181a15.512,15.512,0,1,0,15.512-15.512,15.512,15.512,0,0,0-15.512,15.512" transform="translate(-2740.029 -1236.669)" fill="#24e096"/>
    </clipPath>
    <clipPath id="clip-path-9">
      <rect id="Rectangle_1576" data-name="Rectangle 1576" width="47.924" height="4.167" fill="#24e096"/>
    </clipPath>
    <clipPath id="clip-path-10">
      <rect id="Rectangle_1582" data-name="Rectangle 1582" width="156.695" height="71.622" fill="none"/>
    </clipPath>
    <clipPath id="clip-path-11">
      <path id="Path_526" data-name="Path 526" d="M1582.668,1053.46c-4.078,7.947,6.485,14.228,13.283,18.472,1.79,1.117,4.82,3.06,8.494,5.277l6.736-16.421c-.566-.344-1.074-.662-1.554-.936-4.155-2.419-14.825-9.207-21.681-9.207-2.341,0-4.236.79-5.277,2.815" transform="translate(-1581.758 -1050.645)" fill="none"/>
    </clipPath>
    <clipPath id="clip-path-12">
      <rect id="Rectangle_1587" data-name="Rectangle 1587" width="352.536" height="90.945" fill="none"/>
    </clipPath>
    <clipPath id="clip-path-13">
      <rect id="Rectangle_1590" data-name="Rectangle 1590" width="13.601" height="9.164" fill="none"/>
    </clipPath>
    <clipPath id="clip-path-14">
      <path id="Path_542" data-name="Path 542" d="M1581.906,1534.485l22.847,2.948s8.277,1.918,8.706-1.806-11.7-7-11.7-7c-8.715,5.515-18.537-5.454-18.537-5.454a20.3,20.3,0,0,0-1.321,11.311" transform="translate(-1581.62 -1523.174)" fill="none"/>
    </clipPath>
    <linearGradient id="linear-gradient" x1="-44.725" y1="10.22" x2="-44.697" y2="10.22" gradientUnits="objectBoundingBox">
      <stop offset="0" stop-color="#374492"/>
      <stop offset="0.088" stop-color="#374492"/>
      <stop offset="1" stop-color="#014dae"/>
    </linearGradient>
    <clipPath id="clip-path-15">
      <path id="Path_544" data-name="Path 544" d="M1477.8,1516.656l21.729,7.65s7.694,3.6,8.89.051-9.977-9.286-9.977-9.286c-9.673,3.576-16.99-9.2-16.99-9.2a20.294,20.294,0,0,0-3.652,10.786" transform="translate(-1477.795 -1505.87)" fill="none"/>
    </clipPath>
    <linearGradient id="linear-gradient-2" x1="-26.561" y1="9.763" x2="-26.543" y2="9.763" xlink:href="#linear-gradient"/>
    <clipPath id="clip-path-16">
      <path id="Path_549" data-name="Path 549" d="M1532.413,983.854c-4.1,1.481-5.824,5.468-6.24,9.541a54.8,54.8,0,0,0,.071,7.526,34.6,34.6,0,0,1-.79,7.349c-.7,3.841-2.354,7.965-1.329,11.885a9.025,9.025,0,0,0,8.557,6.38c4.31.055,6.814-3.779,7.515-7.638a19.192,19.192,0,0,0-.405-7.818c-.614-2.468-1.638-4.764-1.65-7.357a13.409,13.409,0,0,1,2.775-8.731l3.582-8.942c-.5-.279-.982-.52-1.457-.737a17.882,17.882,0,0,0-7.319-2.037,9.632,9.632,0,0,0-3.311.581" transform="translate(-1523.8 -983.273)" fill="none"/>
    </clipPath>
    <clipPath id="clip-path-17">
      <path id="Path_553" data-name="Path 553" d="M1542.614,1059.633c-7.418,4.824,2.526,21.286,7.472,29.035l15.459-9.256c-1.4-2.491-12.091-20.592-20.188-20.593a4.942,4.942,0,0,0-2.743.814" transform="translate(-1539.955 -1058.819)" fill="none"/>
    </clipPath>
    <clipPath id="clip-path-18">
      <path id="Path_554" data-name="Path 554" d="M1517.151,1269.6l-30.5,79.48a1.609,1.609,0,0,0,.832,2.039l17.426,7.981a1.6,1.6,0,0,0,2.132-.793c4.7-10.453,32.984-73.488,36.027-82.619,3.321-9.961,2.809-53.875,2.809-53.875l3.464,52.768-9.214,85.236a1.527,1.527,0,0,0,1.2,1.659l16.371,3.434a2.061,2.061,0,0,0,2.457-1.625c2.255-11.739,13.464-70.485,16.115-92.024,2.952-23.982-9.782-93.194-9.782-93.194l-45.366-1.169c-10.876,20.75-3.975,92.7-3.975,92.7" transform="translate(-1486.546 -1176.897)" fill="none"/>
    </clipPath>
    <clipPath id="clip-path-19">
      <rect id="Rectangle_1605" data-name="Rectangle 1605" width="168.319" height="128.893" fill="#fff"/>
    </clipPath>
    <clipPath id="clip-path-20">
      <path id="Path_563" data-name="Path 563" d="M2969.2,939.489c-2.294,2-7.028,15.019-3.4,17.313s8.459,1.944,7.769,5.623a20.215,20.215,0,0,0-.18,9.336c.521,3.332.914,4.541,4.214,5,4.6.638,8.026-.35,12.022-8.637s6.064-18.142-4.739-21.545c-9.252-2.916-12.478-7.5-14.654-7.5a1.518,1.518,0,0,0-1.028.415" transform="translate(-2964.471 -939.074)" fill="none"/>
    </clipPath>
    <linearGradient id="linear-gradient-3" x1="-49.299" y1="17.548" x2="-49.282" y2="17.548" xlink:href="#linear-gradient"/>
    <clipPath id="clip-path-21">
      <path id="Path_568" data-name="Path 568" d="M2977.211,1023.747a20.769,20.769,0,0,0-3.079,8.859c-.405,2.83-.971,7.129-1.573,11.668-.006.049-.041.117-.047.165-1.3,9.6-2.5,21.4-2.744,21.73s-5.4,2.141-11.739,4.39l.379,1.792,1.445,5.811,1.54,6.168c.305-.079.608-.134.909-.189,7.579-1.656,14.588-2.928,17.159-4.47,7.436-4.588,10.489-20.964,10.891-23.6a2.284,2.284,0,0,0,.106-.4c.171-1.027.316-2.035.477-2.991,2.2-14.026,3.389-22.642,3.363-28.275a6.793,6.793,0,0,0-6.751-6.864h-.066c-3.191,0-7.086,1.29-10.269,6.206" transform="translate(-2958.029 -1017.541)" fill="none"/>
    </clipPath>
    <linearGradient id="linear-gradient-4" x1="-22.922" y1="13.615" x2="-22.914" y2="13.615" gradientUnits="objectBoundingBox">
      <stop offset="0" stop-color="#9972ff"/>
      <stop offset="1" stop-color="#7f85ff"/>
    </linearGradient>
    <clipPath id="clip-path-22">
      <rect id="Rectangle_1611" data-name="Rectangle 1611" width="31.996" height="31.649" fill="none"/>
    </clipPath>
    <clipPath id="clip-path-23">
      <path id="Path_577" data-name="Path 577" d="M2887.9,1270.631c-.882,20.876.881,86.568.881,86.568h16.207l5.771-80.557,17.99-54.393s2.886,49.064,3.546,56.376c.32,3.526,1.623,21.938,2.885,40.109,1.343,19.593,2.664,38.906,2.664,38.906h14.645l3.326-83.662.441-4.909,6.672-74.788-56.176-6.631-1.984-.241s-15.987,62.366-16.868,83.222" transform="translate(-2887.651 -1187.409)" fill="none"/>
    </clipPath>
    <clipPath id="clip-path-24">
      <path id="Path_580" data-name="Path 580" d="M2922.345,1033.081v.2c-.6,21.056-.681,59.2-7.473,77.192,0,0,19.273,11.28,40.749,11.721a50.461,50.461,0,0,0,21.7-4.027s-.6-34.319.3-52.669c.882-18.352,2.868-43.169-4.638-48.048-3.159-2.054-9.245-2.539-13.091-2.639a9.671,9.671,0,0,0-1.891.381,14.268,14.268,0,0,1-3.438.381,28.339,28.339,0,0,1-7.913-1.082c-7.553.06-23.841,1.923-24.3,18.591" transform="translate(-2914.872 -1014.49)" fill="#24e096"/>
    </clipPath>
    <clipPath id="clip-path-25">
      <rect id="Rectangle_1618" data-name="Rectangle 1618" width="23.384" height="76.812" fill="none"/>
    </clipPath>
    <clipPath id="clip-path-26">
      <rect id="Rectangle_1619" data-name="Rectangle 1619" width="0.218" height="0.421" fill="none"/>
    </clipPath>
    <clipPath id="clip-path-27">
      <path id="Path_587" data-name="Path 587" d="M2851.531,1019.759c3.906,6.592,7.733,12.461,9.977,14.4,6.672,5.67,23.18,3.546,25.824,3.125.241-.02.381-.02.381-.02,11-.621,24.18-2.384,29.911-4.247,3.585-1.162,6.651-6.691,5.489-10.278-.962-3.066-1.663-10.1-7.533-9.657a102.687,102.687,0,0,0-10.919,1.522c-8.715,1.583-31.714,5.75-32.295,5.55-.38-.14-4.025-4.143-8.435-8.9Z" transform="translate(-2851.531 -1011.264)" fill="#24e096"/>
    </clipPath>
    <clipPath id="clip-path-28">
      <path id="Path_589" data-name="Path 589" d="M2863.2,1510c-5.727.559-8.721,3.074-8.8,6.425-.139,6.005,33.8,3.771,33.8,3.771v-16.48s-5.139,2.024-13.268-.556c0,0-6,6.283-11.731,6.841" transform="translate(-2854.4 -1503.155)" fill="none"/>
    </clipPath>
    <linearGradient id="linear-gradient-5" x1="-46.936" y1="18.56" x2="-46.92" y2="18.56" gradientUnits="objectBoundingBox">
      <stop offset="0" stop-color="#294698"/>
      <stop offset="1" stop-color="#0e4ba6"/>
    </linearGradient>
    <clipPath id="clip-path-29">
      <path id="Path_590" data-name="Path 590" d="M2967.847,1511.115c-.783,1.83-1.329,3.08-4.7,3.983-3.788,1.015-4.523,5.881-1.017,6.221s21.173,0,21.173,0l-.024-16.4s-9.827.791-13.107-.679c0,0-1.542,5.058-2.32,6.874" transform="translate(-2959.859 -1504.241)" fill="none"/>
    </clipPath>
    <linearGradient id="linear-gradient-6" x1="-66.885" y1="20.501" x2="-66.862" y2="20.501" xlink:href="#linear-gradient-5"/>
  </defs>
  <g id="Group_426" data-name="Group 426" transform="translate(-1523.496 -588.115)">
    <g id="Group_308" data-name="Group 308" transform="translate(1543.602 630.623)">
      <path id="Path_499" data-name="Path 499" d="M2357.274,1163.873H1688.7a18.663,18.663,0,0,1-18.761-18.563V736.922a18.662,18.662,0,0,1,18.761-18.563h668.573a18.663,18.663,0,0,1,18.761,18.563V1145.31a18.663,18.663,0,0,1-18.761,18.563" transform="translate(-1669.94 -718.359)" fill="#fff"/>
    </g>
    <g id="Group_310" data-name="Group 310" transform="translate(1543.602 630.622)">
      <g id="Group_309" data-name="Group 309" clip-path="url(#clip-path)">
        <rect id="Rectangle_1544" data-name="Rectangle 1544" width="706.094" height="43.877" transform="translate(0 0)" fill="#1d2579"/>
      </g>
    </g>
    <g id="Group_312" data-name="Group 312" transform="translate(1566.489 692.232)">
      <rect id="Rectangle_1545" data-name="Rectangle 1545" width="390.881" height="366.188" transform="translate(0 0)" fill="#edf0f4"/>
    </g>
    <g id="Group_314" data-name="Group 314" transform="translate(1993.125 692.232)">
      <rect id="Rectangle_1547" data-name="Rectangle 1547" width="233.685" height="366.188" transform="translate(0 0)" fill="#edf0f4"/>
    </g>
    <g id="Group_316" data-name="Group 316" transform="translate(1584.557 709.52)">
      <rect id="Rectangle_1549" data-name="Rectangle 1549" width="60.83" height="12.648" transform="translate(0 0)" fill="#fff"/>
      <rect id="Rectangle_1550" data-name="Rectangle 1550" width="102.99" height="74.884" transform="translate(0 161.01)" fill="#fff"/>
      <rect id="Rectangle_1551" data-name="Rectangle 1551" width="102.99" height="74.884" transform="translate(124.772 161.01)" fill="#fff"/>
      <rect id="Rectangle_1552" data-name="Rectangle 1552" width="102.99" height="74.884" transform="translate(249.545 161.01)" fill="#fff"/>
      <rect id="Rectangle_1553" data-name="Rectangle 1553" width="174.06" height="12.648" transform="translate(180.082 0)" fill="#fff"/>
    </g>
    <g id="Group_318" data-name="Group 318" transform="translate(2012.338 710.248)">
      <g id="Group_317" data-name="Group 317" transform="translate(0.158 0)" clip-path="url(#clip-path-2)">
        <rect id="Rectangle_1555" data-name="Rectangle 1555" width="83.115" height="79.179" fill="#24e096"/>
      </g>
    </g>
    <g id="Group_320" data-name="Group 320" transform="translate(2040.652 710.248)">
      <path id="Path_501" data-name="Path 501" d="M2578.24,890.3a15.511,15.511,0,1,1-15.511-15.512A15.511,15.511,0,0,1,2578.24,890.3" transform="translate(-2547.217 -865.292)" fill="#fff"/>
      <rect id="Rectangle_1557" data-name="Rectangle 1557" width="83.115" height="79.179" transform="translate(81.844 0)" fill="#fff"/>
    </g>
    <g id="Group_322" data-name="Group 322" transform="translate(2146.962 719.69)">
      <g id="Group_321" data-name="Group 321" clip-path="url(#clip-path-3)">
        <rect id="Rectangle_1559" data-name="Rectangle 1559" width="31.024" height="31.023" transform="translate(0 0)" fill="#24e096"/>
      </g>
    </g>
    <g id="Group_324" data-name="Group 324" transform="translate(2012.338 811.691)">
      <rect id="Rectangle_1560" data-name="Rectangle 1560" width="83.115" height="79.179" transform="translate(0)" fill="#fff"/>
    </g>
    <g id="Group_326" data-name="Group 326" transform="translate(2038.283 821.05)">
      <g id="Group_325" data-name="Group 325" transform="translate(0)" clip-path="url(#clip-path-4)">
        <rect id="Rectangle_1562" data-name="Rectangle 1562" width="31.023" height="31.023" transform="translate(0 0)" fill="#fed530"/>
      </g>
    </g>
    <g id="Group_328" data-name="Group 328" transform="translate(2029.863 867.729)">
      <g id="Group_327" data-name="Group 327" transform="translate(0 0)" clip-path="url(#clip-path-5)">
        <rect id="Rectangle_1563" data-name="Rectangle 1563" width="47.924" height="4.167" transform="translate(0 0)" fill="#fed530"/>
      </g>
    </g>
    <g id="Group_330" data-name="Group 330" transform="translate(2122.214 811.691)">
      <g id="Group_329" data-name="Group 329" transform="translate(0 0)" clip-path="url(#clip-path-6)">
        <rect id="Rectangle_1565" data-name="Rectangle 1565" width="83.115" height="79.179" transform="translate(0 0)" fill="#1d2579"/>
      </g>
    </g>
    <g id="Group_332" data-name="Group 332" transform="translate(2138.568 821.139)">
      <path id="Path_504" data-name="Path 504" d="M2771.053,1070.159a15.511,15.511,0,1,1-15.511-15.512,15.511,15.511,0,0,1,15.511,15.512" transform="translate(-2731.58 -1054.647)" fill="#fff"/>
      <rect id="Rectangle_1567" data-name="Rectangle 1567" width="47.924" height="4.167" transform="translate(0 46.362)" fill="#fff"/>
    </g>
    <g id="Group_334" data-name="Group 334" transform="translate(2012.338 914.351)">
      <g id="Group_333" data-name="Group 333" transform="translate(0)" clip-path="url(#clip-path-6)">
        <rect id="Rectangle_1569" data-name="Rectangle 1569" width="83.115" height="79.179" fill="#1d2579"/>
      </g>
    </g>
    <g id="Group_336" data-name="Group 336" transform="translate(2032.202 914.352)">
      <path id="Path_505" data-name="Path 505" d="M2578.24,1252.181a15.511,15.511,0,1,1-15.511-15.512,15.511,15.511,0,0,1,15.511,15.512" transform="translate(-2538.767 -1227.177)" fill="#fff"/>
      <rect id="Rectangle_1571" data-name="Rectangle 1571" width="47.924" height="4.167" transform="translate(0 55.853)" fill="#fff"/>
      <rect id="Rectangle_1572" data-name="Rectangle 1572" width="83.115" height="79.179" transform="translate(90.012 0)" fill="#fff"/>
    </g>
    <g id="Group_338" data-name="Group 338" transform="translate(2146.962 923.625)">
      <g id="Group_337" data-name="Group 337" transform="translate(0 0)" clip-path="url(#clip-path-8)">
        <rect id="Rectangle_1574" data-name="Rectangle 1574" width="31.024" height="31.023" transform="translate(0 0)" fill="#24e096"/>
      </g>
    </g>
    <g id="Group_340" data-name="Group 340" transform="translate(2138.568 970.263)">
      <g id="Group_339" data-name="Group 339" clip-path="url(#clip-path-9)">
        <rect id="Rectangle_1575" data-name="Rectangle 1575" width="47.924" height="4.167" transform="translate(0 0)" fill="#24e096"/>
      </g>
    </g>
    <g id="Group_433" data-name="Group 433" transform="translate(5.002)">
      <rect id="Rectangle_1577" data-name="Rectangle 1577" width="1.079" height="5.813" transform="translate(2034.494 767.08)" fill="#fff"/>
      <path id="Path_507" data-name="Path 507" d="M2563,963.01v2.541h-1.037v-2.408c0-.789-.365-1.17-1-1.17-.68,0-1.154.448-1.154,1.328v2.25h-1.037v-2.408c0-.789-.365-1.17-1-1.17-.688,0-1.154.448-1.154,1.328v2.25h-1.036v-4.434h.988v.564a1.836,1.836,0,0,1,1.452-.615,1.659,1.659,0,0,1,1.495.74,2.071,2.071,0,0,1,1.661-.74A1.705,1.705,0,0,1,2563,963.01" transform="translate(-517.713 -192.658)" fill="#fff"/>
      <path id="Path_508" data-name="Path 508" d="M2576.226,962.953v2.6h-.979v-.539a1.574,1.574,0,0,1-1.395.6c-1.014,0-1.654-.557-1.654-1.328,0-.74.5-1.32,1.844-1.32h1.146v-.066c0-.607-.365-.963-1.105-.963a2.2,2.2,0,0,0-1.345.44l-.406-.755a3.109,3.109,0,0,1,1.876-.549c1.278,0,2.017.606,2.017,1.886m-1.038,1.211v-.513h-1.072c-.705,0-.9.266-.9.588,0,.374.315.615.846.615a1.129,1.129,0,0,0,1.122-.689" transform="translate(-525.052 -192.658)" fill="#fff"/>
      <path id="Path_509" data-name="Path 509" d="M2587.481,961.117v3.761a2.088,2.088,0,0,1-2.392,2.342,3.528,3.528,0,0,1-2.158-.631l.464-.781a2.679,2.679,0,0,0,1.636.531c.98,0,1.412-.448,1.412-1.345v-.233a1.951,1.951,0,0,1-1.487.59,2.145,2.145,0,1,1,0-4.285,1.921,1.921,0,0,1,1.536.64v-.59Zm-1.021,2.083a1.352,1.352,0,1,0-1.345,1.271,1.247,1.247,0,0,0,1.345-1.271" transform="translate(-529.7 -192.658)" fill="#fff"/>
      <path id="Path_510" data-name="Path 510" d="M2599.059,963.667h-3.48a1.343,1.343,0,0,0,1.436,1.063,1.588,1.588,0,0,0,1.2-.483l.556.639a2.488,2.488,0,0,1-4.233-1.552,2.205,2.205,0,0,1,2.291-2.267,2.163,2.163,0,0,1,2.243,2.292c0,.083-.008.208-.016.308m-3.488-.689h2.517a1.208,1.208,0,0,0-1.255-1.079,1.226,1.226,0,0,0-1.262,1.079" transform="translate(-534.926 -192.658)" fill="#fff"/>
    </g>
    <g id="Group_432" data-name="Group 432" transform="translate(8.48)">
      <path id="Path_511" data-name="Path 511" d="M2740.4,963.818l.375-.838a3.223,3.223,0,0,0,1.917.639c.905,0,1.288-.324,1.288-.756,0-1.254-3.454-.432-3.454-2.59,0-.939.746-1.736,2.341-1.736a3.685,3.685,0,0,1,1.934.515l-.341.839a3.219,3.219,0,0,0-1.6-.456c-.9,0-1.262.349-1.262.787,0,1.237,3.447.432,3.447,2.566,0,.931-.757,1.728-2.351,1.728a3.744,3.744,0,0,1-2.292-.7" transform="translate(-599.38 -191.541)" fill="#6e7684"/>
      <rect id="Rectangle_1578" data-name="Rectangle 1578" width="1.037" height="6.161" transform="translate(2147.467 766.731)" fill="#6e7684"/>
      <path id="Path_512" data-name="Path 512" d="M2757.5,958.24a.632.632,0,0,1,.666-.623.617.617,0,0,1,.663.6.665.665,0,0,1-1.328.026m.142,1.353h1.037v4.434h-1.037Z" transform="translate(-606.936 -191.134)" fill="#6e7684"/>
      <path id="Path_513" data-name="Path 513" d="M2767.6,958.061v6.161h-1v-.572a1.827,1.827,0,0,1-1.469.631,2.271,2.271,0,0,1,0-4.542,1.819,1.819,0,0,1,1.428.6v-2.275Zm-1.021,3.945a1.322,1.322,0,1,0-1.321,1.387,1.3,1.3,0,0,0,1.321-1.387" transform="translate(-609.32 -191.33)" fill="#6e7684"/>
      <path id="Path_514" data-name="Path 514" d="M2779.129,963.667h-3.479a1.343,1.343,0,0,0,1.437,1.063,1.587,1.587,0,0,0,1.2-.483l.556.639a2.488,2.488,0,0,1-4.233-1.552,2.205,2.205,0,0,1,2.291-2.267,2.163,2.163,0,0,1,2.242,2.292c0,.083-.008.208-.017.308m-3.488-.689h2.517a1.208,1.208,0,0,0-1.254-1.079,1.226,1.226,0,0,0-1.262,1.079" transform="translate(-614.501 -192.658)" fill="#6e7684"/>
      <path id="Path_515" data-name="Path 515" d="M2788.587,961.067v.989a1.267,1.267,0,0,0-.241-.026,1.21,1.21,0,0,0-1.288,1.371v2.15h-1.037v-4.434h.988v.648a1.743,1.743,0,0,1,1.578-.7" transform="translate(-619.542 -192.658)" fill="#6e7684"/>
    </g>
    <rect id="Rectangle_1579" data-name="Rectangle 1579" width="352.535" height="90.945" transform="translate(1584.557 755.131)" fill="#fff"/>
    <path id="Path_516" data-name="Path 516" d="M2096.18,1028.539h-4.618a1.539,1.539,0,1,1,0-3.079h2.043a1.539,1.539,0,0,1,2.575,1.139Zm-13.853,0h-3.078a1.539,1.539,0,1,1,0-3.079h3.078a1.539,1.539,0,0,1,0,3.079m-12.313,0h-3.078a1.539,1.539,0,1,1,0-3.079h3.078a1.539,1.539,0,1,1,0,3.079m-12.313,0h-3.079a1.539,1.539,0,1,1,0-3.079h3.079a1.539,1.539,0,1,1,0,3.079m-12.313,0h-3.079a1.539,1.539,0,1,1,0-3.079h3.079a1.539,1.539,0,1,1,0,3.079m-12.313,0H2030a1.539,1.539,0,1,1,0-3.079h3.079a1.539,1.539,0,1,1,0,3.079m-12.314,0h-3.078a1.539,1.539,0,1,1,0-3.079h3.078a1.539,1.539,0,1,1,0,3.079m-12.313,0h-3.078a1.539,1.539,0,1,1,0-3.079h3.078a1.539,1.539,0,1,1,0,3.079m-12.313,0h-3.079a1.539,1.539,0,0,1,0-3.079h3.079a1.539,1.539,0,1,1,0,3.079m-12.313,0h-3.078a1.539,1.539,0,0,1,0-3.079h3.078a1.539,1.539,0,1,1,0,3.079m-12.313,0h-3.078a1.539,1.539,0,1,1,0-3.079h3.078a1.539,1.539,0,1,1,0,3.079m-12.313,0h-3.078a1.539,1.539,0,1,1,0-3.079h3.078a1.539,1.539,0,0,1,0,3.079m-12.313,0H1943.8a1.539,1.539,0,1,1,0-3.079h3.078a1.539,1.539,0,1,1,0,3.079m-12.313,0h-3.078a1.539,1.539,0,1,1,0-3.079h3.078a1.539,1.539,0,1,1,0,3.079m-12.313,0h-3.079a1.539,1.539,0,1,1,0-3.079h3.079a1.539,1.539,0,0,1,0,3.079m-12.313,0h-3.08a1.539,1.539,0,1,1,0-3.079h3.08a1.539,1.539,0,1,1,0,3.079m-12.313,0h-3.079a1.539,1.539,0,1,1,0-3.079h3.079a1.539,1.539,0,1,1,0,3.079m-12.315,0h-3.078a1.539,1.539,0,0,1,0-3.079h3.078a1.539,1.539,0,1,1,0,3.079m-12.313,0h-3.078a1.539,1.539,0,1,1,0-3.079H1873a1.539,1.539,0,1,1,0,3.079m-12.313,0h-3.078a1.539,1.539,0,1,1,0-3.079h3.078a1.539,1.539,0,1,1,0,3.079m-12.313,0H1845.3a1.539,1.539,0,1,1,0-3.079h3.078a1.539,1.539,0,0,1,0,3.079m-12.313,0h-3.078a1.539,1.539,0,0,1,0-3.079h3.078a1.539,1.539,0,1,1,0,3.079m-12.314,0h-3.078a1.539,1.539,0,1,1,0-3.079h3.078a1.539,1.539,0,1,1,0,3.079m-12.313,0h-3.078a1.539,1.539,0,1,1,0-3.079h3.078a1.539,1.539,0,1,1,0,3.079m-12.313,0h-3.078a1.539,1.539,0,1,1,0-3.079h3.078a1.539,1.539,0,1,1,0,3.079m-12.313,0h-3.079a1.539,1.539,0,1,1,0-3.079h3.079a1.539,1.539,0,1,1,0,3.079m-12.313,0h-3.079a1.539,1.539,0,1,1,0-3.079h3.079a1.539,1.539,0,1,1,0,3.079m-12.313,0h-3.08a1.539,1.539,0,1,1,0-3.079h3.08a1.539,1.539,0,0,1,0,3.079m-12.315,0h-3.078a1.539,1.539,0,1,1,0-3.079h3.078a1.539,1.539,0,1,1,0,3.079m-7.762-4.551a1.54,1.54,0,0,1-1.539-1.54v-3.077a1.539,1.539,0,0,1,3.079,0v3.077a1.54,1.54,0,0,1-1.54,1.54m352.536-5.085a1.54,1.54,0,0,1-1.54-1.539v-3.077a1.54,1.54,0,1,1,3.08,0v3.077a1.539,1.539,0,0,1-1.54,1.539m-352.536-7.228a1.54,1.54,0,0,1-1.539-1.54v-3.078a1.539,1.539,0,1,1,3.079,0v3.078a1.539,1.539,0,0,1-1.54,1.54m352.536-5.084a1.54,1.54,0,0,1-1.54-1.54v-3.079a1.54,1.54,0,1,1,3.08,0v3.079a1.54,1.54,0,0,1-1.54,1.54M1742.1,999.362a1.54,1.54,0,0,1-1.539-1.54v-3.078a1.539,1.539,0,1,1,3.079,0v3.078a1.54,1.54,0,0,1-1.54,1.54m352.536-5.085a1.54,1.54,0,0,1-1.54-1.54V989.66a1.54,1.54,0,1,1,3.08,0v3.078a1.54,1.54,0,0,1-1.54,1.54M1742.1,987.049a1.54,1.54,0,0,1-1.539-1.54v-3.078a1.539,1.539,0,1,1,3.079,0v3.078a1.54,1.54,0,0,1-1.54,1.54m352.536-5.085a1.54,1.54,0,0,1-1.54-1.54v-3.078a1.54,1.54,0,1,1,3.08,0v3.078a1.54,1.54,0,0,1-1.54,1.54M1742.1,974.736a1.54,1.54,0,0,1-1.539-1.54v-3.078a1.539,1.539,0,1,1,3.079,0V973.2a1.539,1.539,0,0,1-1.54,1.54m352.536-5.085a1.54,1.54,0,0,1-1.54-1.54v-3.078a1.54,1.54,0,1,1,3.08,0v3.078a1.54,1.54,0,0,1-1.54,1.54M1742.1,962.422a1.54,1.54,0,0,1-1.539-1.54V957.8a1.539,1.539,0,1,1,3.079,0v3.078a1.539,1.539,0,0,1-1.54,1.54m352.536-5.085a1.54,1.54,0,0,1-1.54-1.54V952.72a1.54,1.54,0,0,1,3.08,0V955.8a1.54,1.54,0,0,1-1.54,1.54M1742.1,950.109a1.54,1.54,0,0,1-1.539-1.54v-3.078a1.539,1.539,0,1,1,3.079,0v3.078a1.539,1.539,0,0,1-1.54,1.54m352.536-5.085a1.54,1.54,0,0,1-1.54-1.54v-3.078a1.54,1.54,0,1,1,3.08,0v3.078a1.54,1.54,0,0,1-1.54,1.54M1742.1,937.7a1.457,1.457,0,0,1-1.539-1.439v-1.74h4.417a1.54,1.54,0,0,1,0,3.08h-2.363a1.382,1.382,0,0,1-.515.1m347.652-.1h-3.078a1.54,1.54,0,0,1,0-3.08h3.078a1.54,1.54,0,0,1,0,3.08m-12.313,0h-3.078a1.54,1.54,0,0,1,0-3.08h3.078a1.54,1.54,0,0,1,0,3.08m-12.313,0h-3.078a1.54,1.54,0,0,1,0-3.08h3.078a1.54,1.54,0,0,1,0,3.08m-12.313,0h-3.08a1.54,1.54,0,1,1,0-3.08h3.08a1.54,1.54,0,0,1,0,3.08m-12.314,0h-3.079a1.54,1.54,0,0,1,0-3.08h3.079a1.54,1.54,0,1,1,0,3.08m-12.313,0h-3.079a1.54,1.54,0,1,1,0-3.08h3.079a1.54,1.54,0,0,1,0,3.08m-12.315,0H2012.8a1.54,1.54,0,0,1,0-3.08h3.078a1.54,1.54,0,0,1,0,3.08m-12.313,0h-3.078a1.54,1.54,0,0,1,0-3.08h3.078a1.54,1.54,0,0,1,0,3.08m-12.313,0h-3.078a1.54,1.54,0,0,1,0-3.08h3.078a1.54,1.54,0,1,1,0,3.08m-12.313,0h-3.078a1.54,1.54,0,0,1,0-3.08h3.078a1.54,1.54,0,1,1,0,3.08m-12.313,0h-3.078a1.54,1.54,0,0,1,0-3.08h3.078a1.54,1.54,0,0,1,0,3.08m-12.313,0h-3.078a1.54,1.54,0,1,1,0-3.08h3.078a1.54,1.54,0,0,1,0,3.08m-12.313,0h-3.078a1.54,1.54,0,0,1,0-3.08H1942a1.54,1.54,0,1,1,0,3.08m-12.313,0H1926.6a1.54,1.54,0,0,1,0-3.08h3.078a1.54,1.54,0,0,1,0,3.08m-12.313,0h-3.079a1.54,1.54,0,0,1,0-3.08h3.079a1.54,1.54,0,1,1,0,3.08m-12.313,0h-3.079a1.54,1.54,0,0,1,0-3.08h3.079a1.54,1.54,0,0,1,0,3.08m-12.313,0h-3.079a1.54,1.54,0,0,1,0-3.08h3.079a1.54,1.54,0,1,1,0,3.08m-12.314,0h-3.078a1.54,1.54,0,0,1,0-3.08h3.078a1.54,1.54,0,0,1,0,3.08m-12.313,0h-3.078a1.54,1.54,0,0,1,0-3.08h3.078a1.54,1.54,0,0,1,0,3.08m-12.313,0h-3.078a1.54,1.54,0,0,1,0-3.08h3.078a1.54,1.54,0,1,1,0,3.08m-12.313,0h-3.078a1.54,1.54,0,0,1,0-3.08h3.078a1.54,1.54,0,0,1,0,3.08m-12.313,0H1828.1a1.54,1.54,0,0,1,0-3.08h3.078a1.54,1.54,0,0,1,0,3.08m-12.313,0h-3.078a1.54,1.54,0,1,1,0-3.08h3.078a1.54,1.54,0,0,1,0,3.08m-12.313,0h-3.078a1.54,1.54,0,1,1,0-3.08h3.078a1.54,1.54,0,0,1,0,3.08m-12.313,0h-3.078a1.54,1.54,0,0,1,0-3.08h3.078a1.54,1.54,0,0,1,0,3.08m-12.313,0h-3.08a1.54,1.54,0,0,1,0-3.08h3.08a1.54,1.54,0,1,1,0,3.08m-12.313,0h-3.08a1.54,1.54,0,0,1,0-3.08h3.08a1.54,1.54,0,0,1,0,3.08m-12.313,0h-3.08a1.54,1.54,0,0,1,0-3.08h3.08a1.54,1.54,0,0,1,0,3.08" transform="translate(-157.547 -180.925)" fill="#bdc4d1"/>
    <path id="Path_517" data-name="Path 517" d="M2061.3,1010.646a10.239,10.239,0,1,1-10.239-10.239,10.239,10.239,0,0,1,10.239,10.239" transform="translate(-290.232 -210.043)" fill="#bdc4d1"/>
    <path id="Path_518" data-name="Path 518" d="M2058.51,1020.068a.826.826,0,0,1-.825-.825v-10.978a.825.825,0,1,1,1.65,0v10.978a.826.826,0,0,1-.825.825" transform="translate(-297.685 -213.151)" fill="#fff"/>
    <path id="Path_519" data-name="Path 519" d="M2059.653,1018.924h-10.98a.826.826,0,0,1,0-1.651h10.98a.826.826,0,0,1,0,1.651" transform="translate(-293.338 -217.496)" fill="#fff"/>
    <g id="Group_344" data-name="Group 344" transform="translate(1684.382 972.569)">
      <g id="Group_343" data-name="Group 343" clip-path="url(#clip-path-10)">
        <rect id="Rectangle_1581" data-name="Rectangle 1581" width="156.695" height="71.622" transform="translate(0 0)" fill="#bdc4d1"/>
      </g>
    </g>
    <path id="Path_520" data-name="Path 520" d="M2075.634,1394.768h-3.181a.755.755,0,1,1,0-1.51h1.668v-.114a.756.756,0,0,1,1.512,0Zm-10.454,0h-2.423a.755.755,0,1,1,0-1.51h2.423a.755.755,0,1,1,0,1.51m-9.7,0h-2.423a.755.755,0,1,1,0-1.51h2.423a.755.755,0,1,1,0,1.51m-9.7,0h-2.424a.755.755,0,1,1,0-1.51h2.424a.755.755,0,1,1,0,1.51m-9.7,0h-2.424a.755.755,0,1,1,0-1.51h2.424a.755.755,0,1,1,0,1.51m-9.7,0h-2.424a.755.755,0,1,1,0-1.51h2.424a.755.755,0,1,1,0,1.51m-9.7,0h-2.425a.755.755,0,1,1,0-1.51h2.425a.755.755,0,1,1,0,1.51m-9.7,0h-2.424a.755.755,0,1,1,0-1.51H2007a.755.755,0,1,1,0,1.51m-9.7,0h-2.425a.755.755,0,1,1,0-1.51h2.425a.755.755,0,1,1,0,1.51m-9.7,0h-2.426a.755.755,0,1,1,0-1.51h2.426a.755.755,0,1,1,0,1.51m-9.7,0h-2.426a.755.755,0,1,1,0-1.51h2.426a.755.755,0,1,1,0,1.51m-9.7,0h-2.425a.755.755,0,1,1,0-1.51h2.425a.755.755,0,1,1,0,1.51m-9.7,0h-2.425a.755.755,0,1,1,0-1.51h2.425a.755.755,0,1,1,0,1.51m-9.7,0h-2.424a.755.755,0,1,1,0-1.51h2.424a.755.755,0,1,1,0,1.51m-9.7,0h-2.425a.755.755,0,1,1,0-1.51h2.425a.755.755,0,1,1,0,1.51m-9.7,0h-2.424a.755.755,0,1,1,0-1.51h2.424a.755.755,0,1,1,0,1.51m-9.7,0h-2.295v-1.638a.756.756,0,0,1,1.512,0v.128h.783a.755.755,0,1,1,0,1.51m155.157-8.142a.755.755,0,0,1-.756-.755v-2.423a.756.756,0,0,1,1.512,0v2.423a.756.756,0,0,1-.756.755m-156.7-.013a.756.756,0,0,1-.756-.755v-2.425a.756.756,0,0,1,1.512,0v2.425a.756.756,0,0,1-.756.755m156.7-9.682a.755.755,0,0,1-.756-.755v-2.425a.756.756,0,0,1,1.512,0v2.425a.756.756,0,0,1-.756.755m-156.7-.016a.756.756,0,0,1-.756-.755v-2.423a.756.756,0,0,1,1.512,0v2.423a.756.756,0,0,1-.756.755m156.7-9.682a.755.755,0,0,1-.756-.755v-2.423a.756.756,0,0,1,1.512,0v2.423a.756.756,0,0,1-.756.755m-156.7-.013a.756.756,0,0,1-.756-.755v-2.425a.756.756,0,0,1,1.512,0v2.425a.756.756,0,0,1-.756.755m156.7-9.682a.755.755,0,0,1-.756-.754v-2.426a.756.756,0,0,1,1.512,0v2.426a.756.756,0,0,1-.756.754m-156.7-.016a.756.756,0,0,1-.756-.755v-2.423a.756.756,0,0,1,1.512,0v2.423a.756.756,0,0,1-.756.755m156.7-9.682a.755.755,0,0,1-.756-.755v-2.423a.756.756,0,0,1,1.512,0v2.423a.756.756,0,0,1-.756.755m-156.7-.013a.756.756,0,0,1-.756-.755v-2.425a.756.756,0,0,1,1.512,0v2.425a.756.756,0,0,1-.756.755m156.7-9.682a.755.755,0,0,1-.756-.755v-2.425a.756.756,0,0,1,1.512,0v2.425a.756.756,0,0,1-.756.755m-156.7-.016a.756.756,0,0,1-.756-.755v-2.425a.756.756,0,0,1,1.512,0v2.425a.756.756,0,0,1-.756.755m156.7-9.682a.755.755,0,0,1-.756-.755v-2.423a.756.756,0,0,1,1.512,0v2.423a.756.756,0,0,1-.756.755m-156.7-.013a.756.756,0,0,1-.756-.755v-2.425a.756.756,0,0,1,1.512,0v2.425a.756.756,0,0,1-.756.755m152.3-5.284h-2.425a.755.755,0,1,1,0-1.51h2.425a.755.755,0,1,1,0,1.51m-9.7,0h-2.425a.755.755,0,1,1,0-1.51h2.425a.755.755,0,1,1,0,1.51m-9.7,0h-2.425a.755.755,0,1,1,0-1.51h2.425a.755.755,0,1,1,0,1.51m-9.7,0h-2.424a.755.755,0,1,1,0-1.51h2.424a.755.755,0,1,1,0,1.51m-9.7,0h-2.424a.755.755,0,1,1,0-1.51h2.424a.755.755,0,1,1,0,1.51m-9.7,0h-2.424a.755.755,0,1,1,0-1.51h2.424a.755.755,0,1,1,0,1.51m-9.7,0h-2.425a.755.755,0,1,1,0-1.51h2.425a.755.755,0,1,1,0,1.51m-9.7,0h-2.424a.755.755,0,1,1,0-1.51h2.424a.755.755,0,1,1,0,1.51m-9.7,0h-2.425a.755.755,0,1,1,0-1.51h2.425a.755.755,0,1,1,0,1.51m-9.7,0h-2.424a.755.755,0,1,1,0-1.51h2.424a.755.755,0,1,1,0,1.51m-9.7,0h-2.424a.755.755,0,1,1,0-1.51h2.424a.755.755,0,1,1,0,1.51m-9.7,0h-2.424a.755.755,0,1,1,0-1.51h2.424a.755.755,0,1,1,0,1.51m-9.7,0h-2.424a.755.755,0,1,1,0-1.51h2.424a.755.755,0,1,1,0,1.51m-9.7,0h-2.424a.755.755,0,1,1,0-1.51h2.424a.755.755,0,1,1,0,1.51m-9.7,0h-2.424a.755.755,0,1,1,0-1.51h2.424a.755.755,0,1,1,0,1.51m-9.7,0H1922.6a.755.755,0,1,1,0-1.51h2.424a.755.755,0,1,1,0,1.51" transform="translate(-233.804 -349.819)" fill="#a3a7af"/>
    <path id="Path_521" data-name="Path 521" d="M2060.843,1380.773a8.063,8.063,0,1,1-8.063-8.063,8.063,8.063,0,0,1,8.063,8.063" transform="translate(-289.714 -372.526)" fill="#fff"/>
    <line id="Line_8" data-name="Line 8" y2="8.647" transform="translate(1763.096 1003.907)" fill="none" stroke="#1d2579" stroke-linecap="round" stroke-width="1"/>
    <line id="Line_9" data-name="Line 9" x1="8.647" transform="translate(1758.756 1008.212)" fill="none" stroke="#1d2579" stroke-linecap="round" stroke-width="1"/>
    <g id="Group_428" data-name="Group 428" transform="translate(1523.496 816.843)">
      <g id="Group_427" data-name="Group 427" transform="translate(110.341 62.787)">
        <path id="Path_522" data-name="Path 522" d="M1584.124,1058.4a6.63,6.63,0,0,0,3.008,6.294c9.238,6.275,44.667,30.868,49.669,24.33,5.88-7.686-27.628-27.443-36.562-31.163-7.444-3.1-15.246-5.439-16.116.539" transform="translate(-1582.778 -1023.794)" fill="#edb39f"/>
        <path id="Path_523" data-name="Path 523" d="M1626.752,1068.82l19.017,11.911,5.667-12.527,10.786,3.7s-3.695,22.419-10.262,24.763-30.547-9.487-30.547-9.487l-2.906-11.968Z" transform="translate(-1597.998 -1029.764)" fill="#ee805f"/>
        <path id="Path_524" data-name="Path 524" d="M1673.827,1072.139a6.97,6.97,0,0,0,4.579-5.042c2.859-10.893,12.748-49.8,8.917-52.8-4.46-3.5-21.4,52.233-19.459,54.536,1.454,1.727,2.806,4.235,5.964,3.311" transform="translate(-1619.741 -1005.871)" fill="#ee805f"/>
        <path id="Path_525" data-name="Path 525" d="M1667.355,1061.6l14.287-36.69,6.964,1.945-4.8,25.921Z" transform="translate(-1619.584 -1010.631)" fill="#ee805f"/>
        <g id="Group_348" data-name="Group 348" transform="translate(0 28.64)">
          <g id="Group_347" data-name="Group 347" clip-path="url(#clip-path-11)">
            <rect id="Rectangle_1584" data-name="Rectangle 1584" width="41.341" height="42.037" transform="translate(-16.274 15.443) rotate(-49.682)" fill="#dbb928"/>
          </g>
        </g>
        <g id="Group_350" data-name="Group 350" transform="translate(60.74)">
          <path id="Path_527" data-name="Path 527" d="M1692.679,1013.921l-.769-.318-.013,0,0-.013-1.043-3.147a5.185,5.185,0,0,1-.183-2.5l1.517-3.436s1.075-.43.734,1.68a4.133,4.133,0,0,0,.572,2.027l.611-2.025,1.867-4.845a3.047,3.047,0,0,1,3.542-1.9,3.829,3.829,0,0,1,2.132,3.374l.427,3.478c-.095,1.837.175,3.277-.628,4.934l-2.568,4.32Z" transform="translate(-1690.593 -999.327)" fill="#edb39f"/>
        </g>
      </g>
      <g id="Group_352" data-name="Group 352">
        <g id="Group_351" data-name="Group 351" clip-path="url(#clip-path-12)">
          <rect id="Rectangle_1586" data-name="Rectangle 1586" width="352.536" height="90.945" fill="#24e096"/>
        </g>
      </g>
      <path id="Path_528" data-name="Path 528" d="M1610.113,973.276l.962-2.158a8.293,8.293,0,0,0,4.937,1.646c2.33,0,3.312-.834,3.312-1.945,0-3.228-8.891-1.112-8.891-6.669,0-2.415,1.923-4.468,6.028-4.468a9.465,9.465,0,0,1,4.98,1.324l-.876,2.16a8.3,8.3,0,0,0-4.124-1.176c-2.309,0-3.25.9-3.25,2.03,0,3.186,8.87,1.112,8.87,6.605,0,2.394-1.944,4.446-6.049,4.446a9.633,9.633,0,0,1-5.9-1.8" transform="translate(-1483.948 -919.021)" fill="#fff"/>
      <path id="Path_529" data-name="Path 529" d="M1640.316,960.066h2.778v12.61h7.824v2.352h-10.6Z" transform="translate(-1497.295 -919.19)" fill="#fff"/>
      <rect id="Rectangle_1588" data-name="Rectangle 1588" width="2.778" height="14.962" transform="translate(157.974 40.875)" fill="#fff"/>
      <path id="Path_530" data-name="Path 530" d="M1683.165,960.066h6.54c4.852,0,8.166,2.992,8.166,7.48s-3.314,7.482-8.166,7.482h-6.54Zm6.412,12.61c3.334,0,5.493-2.03,5.493-5.13s-2.16-5.13-5.493-5.13h-3.634v10.26Z" transform="translate(-1516.23 -919.19)" fill="#fff"/>
      <path id="Path_531" data-name="Path 531" d="M1729.88,972.7v2.33h-11.222V960.066h10.922v2.33h-8.144v3.89h7.224v2.286h-7.224V972.7Z" transform="translate(-1531.915 -919.19)" fill="#fff"/>
      <path id="Path_532" data-name="Path 532" d="M1757.96,975.028l-3.057-4.382a5.12,5.12,0,0,1-.577.022h-3.378v4.36h-2.778V960.066h6.156c3.932,0,6.37,2.008,6.37,5.322a4.785,4.785,0,0,1-3.186,4.724l3.442,4.916Zm-3.763-12.612h-3.248v5.964h3.248c2.438,0,3.7-1.112,3.7-2.992s-1.26-2.972-3.7-2.972" transform="translate(-1544.956 -919.19)" fill="#fff"/>
      <rect id="Rectangle_1589" data-name="Rectangle 1589" width="13.604" height="22.293" transform="translate(103.481 81.739)" fill="#ee805f"/>
      <g id="Group_355" data-name="Group 355" transform="translate(103.483 81.742)" style="mix-blend-mode: normal;isolation: isolate">
        <g id="Group_354" data-name="Group 354">
          <g id="Group_353" data-name="Group 353" clip-path="url(#clip-path-13)">
            <path id="Path_533" data-name="Path 533" d="M1569.467,1033.286v3.864c2.654.9,7.058,5.346,9.216,5.3a6.355,6.355,0,0,0,4.387-1.832v-5.292l-9.9-2.041Z" transform="translate(-1569.469 -1033.288)" fill="#de6b4d"/>
          </g>
        </g>
      </g>
      <path id="Path_534" data-name="Path 534" d="M1559.034,996.8c0,8.889,10.581,20.074,18.012,19.979,5.6-.072,8.9-11.089,8.9-19.979s-6.024-16.1-13.455-16.1-13.456,7.207-13.456,16.1" transform="translate(-1461.376 -928.311)" fill="#ee805f"/>
      <path id="Path_535" data-name="Path 535" d="M1549.135,1245.308c-.4,25.349,3.6,45.965,8.922,46.048s9.96-20.4,10.356-45.747-3.6-45.964-8.922-46.048-9.96,20.4-10.356,45.747" transform="translate(-1456.989 -1025.025)" fill="#edb39f"/>
      <path id="Path_536" data-name="Path 536" d="M1601.89,1244.878c2.443,25.234,8.721,45.273,14.02,44.76s7.614-21.385,5.171-46.618-8.723-45.273-14.022-44.76-7.614,21.385-5.169,46.618" transform="translate(-1479.883 -1024.446)" fill="#edb39f"/>
      <path id="Path_537" data-name="Path 537" d="M1536.438,1349.445c-8.947-14.056-39.719,65.835-43.567,83.231s6.562,1.993,20.7-22.321,26.385-55.38,22.865-60.91" transform="translate(-1431.781 -1090.531)" fill="#edb39f"/>
      <path id="Path_538" data-name="Path 538" d="M1615.283,1347.84c-12.983-10.444-22.065,74.667-20.131,92.378s6.855-.218,12.449-27.783,12.79-60.487,7.682-64.6" transform="translate(-1477.222 -1090.159)" fill="#edb39f"/>
      <path id="Path_539" data-name="Path 539" d="M1541.928,1240.357s.929,35.259-3.724,47.82-39.391,84.795-39.391,84.795l-13.626-5.777s20.339-67.756,35.457-84.736c0,0-11.509-83.588,9.886-86.645,14.654-2.094,11.4,44.543,11.4,44.543" transform="translate(-1428.742 -1023.339)" fill="#ee805f"/>
      <path id="Path_540" data-name="Path 540" d="M1614.368,1231.081s3.567,36.6,2.171,51.793-17.427,95.618-17.427,95.618l-14.39-2.528s4.082-59.757,12.766-90.926c0,0-17.456-86.834,2.3-91.018,13.181-2.791,14.577,37.061,14.577,37.061" transform="translate(-1472.727 -1022.514)" fill="#ee805f"/>
      <path id="Path_541" data-name="Path 541" d="M1584.678,1520.142l-.055,5.119,13.65,6.385,10.348-1.761-5.531-2.6s-3.606-2.137-3.881-4.339-14.531-2.807-14.531-2.807" transform="translate(-1472.684 -1166.692)" fill="#ee805f"/>
      <g id="Group_359" data-name="Group 359" transform="translate(110.263 355.142)">
        <g id="Group_358" data-name="Group 358" transform="translate(0)" clip-path="url(#clip-path-14)">
          <rect id="Rectangle_1592" data-name="Rectangle 1592" width="19.864" height="34.815" transform="translate(-2.753 15.966) rotate(-83.436)" fill="url(#linear-gradient)"/>
        </g>
      </g>
      <g id="Group_361" data-name="Group 361" transform="translate(55.324 343.855)">
        <path id="Path_543" data-name="Path 543" d="M1484.3,1502.95l-1.122,4.994,12.018,9.093,10.488.436-4.866-3.693s-3.082-2.843-2.892-5.054-13.625-5.777-13.625-5.777" transform="translate(-1483.178 -1502.95)" fill="#ee805f"/>
      </g>
      <g id="Group_363" data-name="Group 363" transform="translate(52.319 345.485)">
        <g id="Group_362" data-name="Group 362" clip-path="url(#clip-path-15)">
          <rect id="Rectangle_1594" data-name="Rectangle 1594" width="31.064" height="37.257" transform="translate(-6.742 19.795) rotate(-71.391)" fill="url(#linear-gradient-2)"/>
        </g>
      </g>
      <g id="Group_365" data-name="Group 365" transform="translate(88.25 90.793)">
        <path id="Path_545" data-name="Path 545" d="M1588.952,1106.428a137.68,137.68,0,0,0,2.124,15.344,165.649,165.649,0,0,1-26.482,1.611c-6.624-.182-13.391-.935-18.884-2.779,0,0,.909-7.014.221-19.729-.208-3.818-.74-8.507-1.364-13.442-.637-5.157-1.351-10.585-1.831-15.573v-.013c-.6-6.13-.831-11.624-.117-15.092,1.026-5.117,14.728-7.247,14.728-7.247s8.481,7.091,12.222,4.961c1.727-.974,1.4-4.792,1.4-4.792,5.767.871,8.183,2.39,9.819,4.208,5.572,6.144,12.793,20.469,12.793,29.4,0,10.572-5.787,11.917-4.63,23.139" transform="translate(-1542.176 -1049.508)" fill="#ffd500"/>
      </g>
      <g id="Group_367" data-name="Group 367" transform="translate(96.738 52.248)">
        <path id="Path_546" data-name="Path 546" d="M1559.179,988.207c-6.06,14.283,5.176,21.864,5.176,21.864s-.945-10.146,5.64-12.56a60.27,60.27,0,0,0,6.629-3.2,17.087,17.087,0,0,0,5.1-3.968c2.854.714,3.585,4.278,3.585,4.278,1.537-6.915-3.683-9.207-3.683-9.207-.648-2.771-5.15-4.974-10.069-4.973-4.787,0-9.968,2.086-12.377,7.764" transform="translate(-1557.385 -980.443)" fill="#151f2c"/>
      </g>
      <g id="Group_369" data-name="Group 369" transform="translate(88.831 98.604)">
        <path id="Path_547" data-name="Path 547" d="M1544.26,1065.422a6.629,6.629,0,0,0-.105,6.975c5.482,9.729,26.631,49.128,34.019,45.5,8.685-4.269-12.894-38.483-19.24-45.788-5.29-6.088-11.237-11.653-14.674-6.686" transform="translate(-1543.216 -1063.505)" fill="#edb39f"/>
        <path id="Path_548" data-name="Path 548" d="M1558.515,1104.247s13.911,23.991,18.682,27.909,23.207,6.688,23.207,6.688l2.872-11.485-16.539-6.871-13.713-24.615Z" transform="translate(-1549.977 -1077.808)" fill="#ee805f"/>
      </g>
      <g id="Group_371" data-name="Group 371" transform="translate(77.994 53.828)">
        <g id="Group_370" data-name="Group 370" transform="translate(0 0)" clip-path="url(#clip-path-16)">
          <rect id="Rectangle_1598" data-name="Rectangle 1598" width="21.398" height="43.316" transform="translate(-0.699 0)" fill="#151f2c"/>
        </g>
      </g>
      <g id="Group_373" data-name="Group 373" transform="translate(95.017 56.74)">
        <path id="Path_550" data-name="Path 550" d="M1554.3,997.34l2.023.253a20.7,20.7,0,0,1,3.011-8.459l-1.4-.643c-1.7,1.31-3.632,8.849-3.632,8.849" transform="translate(-1554.3 -988.491)" fill="#ffd500"/>
      </g>
      <g id="Group_375" data-name="Group 375" transform="translate(116.679 142.742)">
        <path id="Path_551" data-name="Path 551" d="M1593.291,1148.637a6.969,6.969,0,0,0,4.962,4.665c10.842,3.048,49.572,13.609,52.642,9.83,3.573-4.4-51.855-22.3-54.191-20.4-1.752,1.423-4.283,2.732-3.413,5.905" transform="translate(-1593.115 -1142.591)" fill="#ee805f"/>
        <path id="Path_552" data-name="Path 552" d="M1633.572,1163.774l27.36,5.442,1.744-6.835-26.233-10.093Z" transform="translate(-1610.993 -1146.877)" fill="#ee805f"/>
      </g>
      <g id="Group_377" data-name="Group 377" transform="translate(87.011 95.989)">
        <g id="Group_376" data-name="Group 376" transform="translate(0 0)" clip-path="url(#clip-path-17)">
          <rect id="Rectangle_1601" data-name="Rectangle 1601" width="42.013" height="42.121" transform="matrix(0.591, -0.807, 0.807, 0.591, -18.988, 19.431)" fill="#f4db61"/>
        </g>
      </g>
      <g id="Group_379" data-name="Group 379" transform="translate(57.203 161.888)">
        <g id="Group_378" data-name="Group 378" transform="translate(0 0)" clip-path="url(#clip-path-18)">
          <rect id="Rectangle_1602" data-name="Rectangle 1602" width="96.97" height="190.235" transform="translate(-4.31 0.09) rotate(-1.252)" fill="#384152"/>
        </g>
      </g>
      <g id="Group_381" data-name="Group 381" transform="translate(38.536 40.637)">
        <path id="Path_555" data-name="Path 555" d="M1683.6,1169.22l.24-.8,0-.012.013,0,3.029-1.349a5.188,5.188,0,0,1,2.468-.429l3.569,1.171s.534,1.027-1.6.9a4.135,4.135,0,0,0-1.961.77l2.076.407,5.005,1.379a3.046,3.046,0,0,1,2.245,3.336,3.828,3.828,0,0,1-3.146,2.455l-3.418.768c-1.837.087-3.244.5-4.972-.137l-4.552-2.128Z" transform="translate(-1554.515 -1051.103)" fill="#ee805f"/>
        <path id="Path_556" data-name="Path 556" d="M1934.975,971.416a.77.77,0,0,1-.544-1.314l4.423-4.424-4.726-4.726a.769.769,0,1,1,1.087-1.087l5.816,5.814-5.513,5.512a.761.761,0,0,1-.543.226" transform="translate(-1665.569 -959.638)" fill="#fff"/>
        <path id="Path_557" data-name="Path 557" d="M1459.155,971.416a.76.76,0,0,1-.544-.226l-5.514-5.512,5.814-5.814a.769.769,0,1,1,1.088,1.087l-4.725,4.726,4.424,4.424a.77.77,0,0,1-.543,1.314" transform="translate(-1453.097 -959.638)" fill="#fff"/>
      </g>
    </g>
    <g id="Group_429" data-name="Group 429" transform="translate(1809.886 588.114)">
      <g id="Group_383" data-name="Group 383" transform="translate(0 0)">
        <g id="Group_382" data-name="Group 382" clip-path="url(#clip-path-19)">
          <rect id="Rectangle_1604" data-name="Rectangle 1604" width="168.319" height="128.893" transform="translate(0)" fill="#fff"/>
        </g>
      </g>
      <g id="Group_431" data-name="Group 431">
        <path id="Path_558" data-name="Path 558" d="M2215.411,719.945l-24.957,9.145,24.957,9.068v9.369l-35.676-13.567v-9.744l35.676-13.564Z" transform="translate(-2158.053 -663.069)" fill="#1d2579"/>
        <path id="Path_559" data-name="Path 559" d="M2285.6,677.616h10.417l-24.733,70.6h-10.418Z" transform="translate(-2193.905 -648.47)" fill="#1d2579"/>
        <path id="Path_560" data-name="Path 560" d="M2375.382,724.217v9.744l-35.676,13.567v-9.369l24.958-9.069-24.958-9.145v-9.292Z" transform="translate(-2228.745 -663.07)" fill="#1d2579"/>
      </g>
      <g id="Group_430" data-name="Group 430">
        <path id="Path_561" data-name="Path 561" d="M2249.554,751.922a53.181,53.181,0,1,1,37.623-15.559v0a53.052,53.052,0,0,1-37.622,15.557m0-100.231a47.051,47.051,0,1,0,33.269,13.782,46.741,46.741,0,0,0-33.269-13.782" transform="translate(-2165.395 -634.293)" fill="#171c25"/>
        <rect id="Rectangle_1606" data-name="Rectangle 1606" width="100.255" height="6.158" transform="translate(46.535 97.713) rotate(-44.996)" fill="#171c25"/>
      </g>
    </g>
    <path id="Path_562" data-name="Path 562" d="M2981.459,992.673l-.354-8.531s12.762-20.754,2.441-26.191-20.088,3-20.088,12.429.753,11.743,5.082,12.3l-.866,7.676" transform="translate(-690.505 -190.626)" fill="#edb39f"/>
    <g id="Group_387" data-name="Group 387" transform="translate(2273.518 755.943)">
      <g id="Group_386" data-name="Group 386" clip-path="url(#clip-path-20)">
        <rect id="Rectangle_1608" data-name="Rectangle 1608" width="33.513" height="38.322" transform="translate(-2.303 0)" fill="url(#linear-gradient-3)"/>
      </g>
    </g>
    <g id="Group_389" data-name="Group 389" transform="translate(2217.854 802.903)">
      <path id="Path_564" data-name="Path 564" d="M2884.913,1128.136c-.113.746.688,1.194,2.219,1.368l.028.005a29.6,29.6,0,0,0,5.876-.076c3.031-.249,6.729-.755,10.773-1.446,18.615-3.155,44.353-9.913,45.115-11.894,1.094-2.877,2.943-4.754-2.967-7.83a4.7,4.7,0,0,0-3.365-.39c-5.818,1.474-26.16,6.722-41.031,11.845-3.1,1.064-5.971,2.125-8.408,3.137-4.812,2.006-8.015,3.861-8.241,5.28" transform="translate(-2873.644 -1059.949)" fill="#edb39f"/>
      <path id="Path_565" data-name="Path 565" d="M2929.747,1114.692l-33.188,10.645,1.773,7.867,35.17-6.517Z" transform="translate(-2878.795 -1063.029)" fill="#edb39f"/>
      <path id="Path_566" data-name="Path 566" d="M2864.761,1133.888a.851.851,0,0,0,.043.244l1.749,2.8a4.4,4.4,0,0,0,2.082,1.765l2.385.909a18.112,18.112,0,0,0,7.045.655l5.339-1.409,1.141-.289-.12-1.562-.391-4.782-.065-1.081-.014-.021-.408-.331-2.95-2.283a6.766,6.766,0,0,0-2.956-1.305l-4.832.365a2.892,2.892,0,0,0,1.836,1.581,6.3,6.3,0,0,1,2.1,1.614l-2.708-.136-6.7.172a2.694,2.694,0,0,0-2.581,3.093" transform="translate(-2864.73 -1068.557)" fill="#edb39f"/>
      <path id="Path_567" data-name="Path 567" d="M3000.333,1023.544c2.441,1.391,4.125-1.6,3.969,1.179-.7,12.495-3.742,54.314-12.947,54.216-10.82-.115-5.924-37-3.16-47.457,2.3-8.717,6.239-11.3,12.138-7.937" transform="translate(-2917.728 -1022.122)" fill="#edb39f"/>
    </g>
    <g id="Group_391" data-name="Group 391" transform="translate(2269.923 800.296)">
      <g id="Group_390" data-name="Group 390" transform="translate(0 0)" clip-path="url(#clip-path-21)">
        <rect id="Rectangle_1610" data-name="Rectangle 1610" width="71.259" height="45.391" transform="translate(-9.369 65.447) rotate(-81.854)" fill="url(#linear-gradient-4)"/>
      </g>
    </g>
    <g id="Group_396" data-name="Group 396" transform="translate(2232.425 837.176)">
      <path id="Path_569" data-name="Path 569" d="M2960.822,1125.736l-3.351-13.933a.561.561,0,0,0-.673-.415l-1.794.418a.561.561,0,0,0-.419.672l3.216,13.979a.562.562,0,0,0,.678.42l1.929-.464a.56.56,0,0,0,.414-.676" transform="translate(-2919.002 -1094.143)" fill="#fff"/>
      <g id="Group_394" data-name="Group 394" transform="translate(38.409)" opacity="0.5" style="mix-blend-mode: multiply;isolation: isolate">
        <g id="Group_393" data-name="Group 393">
          <g id="Group_392" data-name="Group 392" clip-path="url(#clip-path-22)">
            <path id="Path_570" data-name="Path 570" d="M2991.654,1080.5c-.162.956-.306,1.963-.477,2.991a2.345,2.345,0,0,1-.106.4c-.4,2.635-3.457,19.01-10.892,23.6-2.57,1.541-9.58,2.813-17.159,4.47-.3.054-.6.109-.908.188l-1.54-6.168-.917-7.448s4.746,9.416,11.02,8.16c6.2-1.242,14,.658,20.979-26.193" transform="translate(-2959.658 -1080.502)" fill="#c3d3dd"/>
          </g>
        </g>
      </g>
      <path id="Path_571" data-name="Path 571" d="M2926.979,1190.838c6.475.664,11.111,7.062,10.125,13.865a79.832,79.832,0,0,1-6.413,21.045c-9.557,21.358-15.091,48.75-24.228,50.125s-12.345-14.735-6.977-37.012c4.853-20.136,5.473-45.43,11.978-47.736,3.295-1.169,9.848-.868,15.513-.287" transform="translate(-2893.508 -1129.033)" fill="#edb39f"/>
      <path id="Path_572" data-name="Path 572" d="M2897.371,1332.36c17.6-10.694,10.108,72.417,3.925,94.541s-9.727,3.218-10.247-32.921-.6-57.412,6.322-61.62" transform="translate(-2890.839 -1191.381)" fill="#edb39f"/>
      <path id="Path_573" data-name="Path 573" d="M2978.809,1189.866c6.443-.929,12.495,4.151,13.191,10.989a79.843,79.843,0,0,1-1.107,21.973c-4.08,23.04-2.792,50.955-11.321,54.51s-15.556-11.293-15.761-34.207c-.185-20.711-5.731-45.4.019-49.216,2.912-1.934,9.342-3.235,14.978-4.048" transform="translate(-2921.945 -1128.781)" fill="#edb39f"/>
      <path id="Path_574" data-name="Path 574" d="M2977.051,1333.975c16.857-11.837,14.884,71.588,10.181,94.072s-9.492,3.856-12.406-32.169-4.407-57.246,2.225-61.9" transform="translate(-2926.861 -1192.007)" fill="#edb39f"/>
      <path id="Path_575" data-name="Path 575" d="M2905.29,1487.63l-1.078,11.171h-13.033l.2-12.151Z" transform="translate(-2890.989 -1259.98)" fill="#edb39f"/>
      <path id="Path_576" data-name="Path 576" d="M2991.826,1487.63l-.522,11.171H2978.27l.2-12.151Z" transform="translate(-2929.475 -1259.98)" fill="#edb39f"/>
    </g>
    <g id="Group_398" data-name="Group 398" transform="translate(2230.646 896.885)">
      <g id="Group_397" data-name="Group 397" transform="translate(0 0)" clip-path="url(#clip-path-23)">
        <rect id="Rectangle_1613" data-name="Rectangle 1613" width="75.91" height="170.23" transform="translate(-0.635)" fill="#384152"/>
      </g>
    </g>
    <g id="Group_408" data-name="Group 408" transform="translate(2245.838 798.781)">
      <g id="Group_407" data-name="Group 407" clip-path="url(#clip-path-24)">
        <rect id="Rectangle_1617" data-name="Rectangle 1617" width="65.615" height="107.864" fill="#24e096"/>
      </g>
    </g>
    <g id="Group_416" data-name="Group 416" transform="translate(2188.476 756.424)">
      <g id="Group_411" data-name="Group 411" transform="translate(57.5 60.824)" opacity="0.5" style="mix-blend-mode: multiply;isolation: isolate">
        <g id="Group_410" data-name="Group 410">
          <g id="Group_409" data-name="Group 409" clip-path="url(#clip-path-25)">
            <path id="Path_581" data-name="Path 581" d="M2922.456,1048.162c-.6,20.916-.681,58.68-7.332,76.811a72.679,72.679,0,0,0,7.412-22.2c1.864-12.5,3.526-23.721,3.046-36.162-.5-12.441,12.922-16.267,12.922-16.267Z" transform="translate(-2915.122 -1048.161)" fill="#c3d3dd"/>
          </g>
        </g>
      </g>
      <g id="Group_414" data-name="Group 414" transform="translate(57.283 137.636)" opacity="0.5" style="mix-blend-mode: multiply;isolation: isolate">
        <g id="Group_413" data-name="Group 413">
          <g id="Group_412" data-name="Group 412" clip-path="url(#clip-path-26)">
            <path id="Path_582" data-name="Path 582" d="M2914.729,1186.214a.2.2,0,0,1,.08-.04c.04-.12.1-.241.14-.381-.08.14-.14.281-.22.421" transform="translate(-2914.73 -1185.793)" fill="#c3d3dd"/>
          </g>
        </g>
      </g>
      <path id="Path_583" data-name="Path 583" d="M2819.814,950.958c-.745.122-.925,1.022-.618,2.533l0,.029a29.625,29.625,0,0,0,1.881,5.568c1.169,2.806,2.789,6.17,4.691,9.805,8.73,16.74,23.081,39.151,25.2,39.266,3.074.156,5.429,1.338,6.538-5.232a4.7,4.7,0,0,0-.665-3.322c-3.194-5.082-14.446-22.822-23.9-35.395-1.965-2.619-3.859-5.028-5.573-7.035-3.389-3.961-6.14-6.438-7.559-6.216" transform="translate(-2815.167 -944.376)" fill="#edb39f"/>
      <path id="Path_584" data-name="Path 584" d="M2814.783,939.531c-3.354,1.341-2.627,4.135-2.627,4.135.052,1.948,1.756,4.569,2.5,6.358a4.552,4.552,0,0,0,.382.717l2.4,3.733.55.875,1.271-.521,3.886-1.618.885-.347.013-.017.167-.429,1.109-3.08a5.936,5.936,0,0,0,.292-2.82L2824,942.582a2.535,2.535,0,0,0-.825,1.958,5.533,5.533,0,0,1-.78,2.189l-.617-2.3-.96-2.33a4.669,4.669,0,0,0-6.035-2.571" transform="translate(-2812.09 -939.174)" fill="#edb39f"/>
      <path id="Path_585" data-name="Path 585" d="M2850.206,990.248l-21.607-29.2-6.909,3.185,18.227,34.151Z" transform="translate(-2816.332 -948.84)" fill="#edb39f"/>
      <path id="Path_586" data-name="Path 586" d="M2929.5,1028.522c-.572,2.75,2.8,3.431.1,4.138-12.105,3.177-52.83,13.154-55.569,4.366-3.219-10.33,33.377-17.022,44.182-17.61,9-.491,12.672,2.459,11.287,9.106" transform="translate(-2839.372 -974.611)" fill="#edb39f"/>
    </g>
    <g id="Group_418" data-name="Group 418" transform="translate(2210.488 796.584)">
      <g id="Group_417" data-name="Group 417" transform="translate(0 0)" clip-path="url(#clip-path-27)">
        <rect id="Rectangle_1621" data-name="Rectangle 1621" width="72.744" height="28.569" transform="translate(0 0)" fill="#24e096"/>
      </g>
    </g>
    <g id="Group_420" data-name="Group 420" transform="translate(2209.217 795.146)">
      <path id="Path_588" data-name="Path 588" d="M2863.815,1011.566l-12.642,8.193a.473.473,0,0,1-.656-.142l-1.189-1.851a.473.473,0,0,1,.138-.651l12.49-8.214a.474.474,0,0,1,.645.12l1.341,1.872a.473.473,0,0,1-.127.673" transform="translate(-2849.254 -1008.823)" fill="#fff"/>
    </g>
    <g id="Group_422" data-name="Group 422" transform="translate(2212.089 1074.591)">
      <g id="Group_421" data-name="Group 421" clip-path="url(#clip-path-28)">
        <rect id="Rectangle_1623" data-name="Rectangle 1623" width="33.937" height="19.27" transform="translate(-0.139)" fill="url(#linear-gradient-5)"/>
      </g>
    </g>
    <g id="Group_424" data-name="Group 424" transform="translate(2270.945 1075.197)">
      <g id="Group_423" data-name="Group 423" clip-path="url(#clip-path-29)">
        <rect id="Rectangle_1624" data-name="Rectangle 1624" width="24.679" height="17.417" transform="translate(-1.24)" fill="url(#linear-gradient-6)"/>
      </g>
    </g>
  </g>
</svg>
