<svg id="Group_148" data-name="Group 148" xmlns="http://www.w3.org/2000/svg" xmlns:xlink="http://www.w3.org/1999/xlink" width="650" height="658.288" viewBox="0 0 650 658.288">
  <defs>
    <clipPath id="clip-path">
      <path id="Path_180" data-name="Path 180" d="M54.68,156.726C17.616,213.9.007,281.016,0,347.037v.125C.019,440.22,35.007,531.084,99.77,588.839c57.525,51.3,122.5,62.174,146.2,65.825C391.612,677.1,559.561,593.932,622.61,445.477c41.09-96.751,36.355-216.757-18.725-302.893A301.3,301.3,0,0,0,542.6,73.05C462.259,6.8,370.84,3.026,346.986,2.414c-2.65-.068-5.295-.1-7.951-.1C230.7,2.315,118.14,58.826,54.68,156.726" fill="#f5f9fb"/>
    </clipPath>
    <clipPath id="clip-path-2">
      <rect id="Rectangle_76" data-name="Rectangle 76" width="650" height="658.288" fill="none"/>
    </clipPath>
    <clipPath id="clip-path-3">
      <rect id="Rectangle_66" data-name="Rectangle 66" width="151.872" height="99.299" transform="translate(251.797)" fill="none"/>
    </clipPath>
    <clipPath id="clip-path-4">
      <rect id="Rectangle_67" data-name="Rectangle 67" width="155.029" height="107.903" transform="translate(217.471 78.362)" fill="none"/>
    </clipPath>
    <clipPath id="clip-path-5">
      <rect id="Rectangle_68" data-name="Rectangle 68" width="78.068" height="77.029" transform="translate(409.474 78.55)" fill="none"/>
    </clipPath>
    <clipPath id="clip-path-6">
      <rect id="Rectangle_69" data-name="Rectangle 69" width="95.268" height="32.999" transform="translate(371.418 169.96)" fill="none"/>
    </clipPath>
    <clipPath id="clip-path-7">
      <rect id="Rectangle_70" data-name="Rectangle 70" width="164.309" height="260.575" transform="translate(474.662 318.325)" fill="none"/>
    </clipPath>
    <clipPath id="clip-path-8">
      <rect id="Rectangle_71" data-name="Rectangle 71" width="99.517" height="469.56" transform="translate(161.184 103.9)" fill="none"/>
    </clipPath>
    <clipPath id="clip-path-9">
      <rect id="Rectangle_72" data-name="Rectangle 72" width="175.167" height="431.062" transform="translate(40.465 178.356)" fill="none"/>
    </clipPath>
    <clipPath id="clip-path-10">
      <rect id="Rectangle_74" data-name="Rectangle 74" width="156.798" height="347.417" transform="translate(368.175 240.895)" fill="none"/>
    </clipPath>
    <clipPath id="clip-path-11">
      <rect id="Rectangle_73" data-name="Rectangle 73" width="20.531" height="340.671" transform="translate(400.225 247.641)" fill="#c3d5d5"/>
    </clipPath>
    <clipPath id="clip-path-12">
      <rect id="Rectangle_75" data-name="Rectangle 75" width="126.493" height="266.918" transform="translate(261.417 315.167)" fill="none"/>
    </clipPath>
    <clipPath id="clip-path-14">
      <path id="Path_237" data-name="Path 237" d="M118.746,115.114,183.371,163.6l66.242-46.989-3.2-4.506-62.953,44.655-61.4-46.062Z" fill="none"/>
    </clipPath>
    <clipPath id="clip-path-15">
      <rect id="Rectangle_89" data-name="Rectangle 89" width="5.525" height="81.809" transform="translate(205.405 144.228) rotate(-29.435)" fill="none"/>
    </clipPath>
    <clipPath id="clip-path-16">
      <rect id="Rectangle_91" data-name="Rectangle 91" width="81.807" height="5.525" transform="matrix(0.483, -0.876, 0.876, 0.483, 117.093, 212.173)" fill="#fff"/>
    </clipPath>
    <clipPath id="clip-path-17">
      <path id="Path_238" data-name="Path 238" d="M192.237,584.674h0c-7.319-5.125-40.792-38.6-45.916-45.916-8.943-12.776-12.66-23.475-11.051-31.8.955-4.933,3.822-8.989,8.525-12.056l5.175-3.378a2.88,2.88,0,0,1,3.949.81l14.292,21.438a4.192,4.192,0,0,1-1.021,5.736l-2.408,1.562a14.12,14.12,0,0,0-1.968,22.141l25.97,25.97a14.122,14.122,0,0,0,22.143-1.967l1.563-2.408a4.186,4.186,0,0,1,5.736-1.019l21.436,14.29a2.874,2.874,0,0,1,.811,3.948L236.1,587.2c-3.067,4.7-7.123,7.57-12.056,8.525a20.68,20.68,0,0,1-3.94.365c-7.668,0-17.018-3.827-27.863-11.419M145.951,486.9l-5.175,3.377a23.962,23.962,0,0,0-10.93,15.636c-1.906,9.849,2.115,21.967,11.949,36.018,5.458,7.8,39.478,41.814,47.273,47.273h0c11.789,8.253,22.218,12.412,31.088,12.412a25.908,25.908,0,0,0,4.932-.46,23.964,23.964,0,0,0,15.636-10.929l3.377-5.177a8.419,8.419,0,0,0-2.373-11.566l-21.436-14.29a9.688,9.688,0,0,0-13.336,2.455l-1.663,2.559a8.595,8.595,0,0,1-13.5,1.173l-26.106-26.107-.071-.069a8.594,8.594,0,0,1,1.175-13.5l2.464-1.6.1-.067a9.693,9.693,0,0,0,2.453-13.333l-14.292-21.439a8.419,8.419,0,0,0-11.566-2.371" fill="none"/>
    </clipPath>
    <clipPath id="clip-path-18">
      <path id="Path_240" data-name="Path 240" d="M335.289,452.849a5.038,5.038,0,0,0,4.987,5.088l111.564.114c.087,0,.172,0,.257-.007a5.087,5.087,0,0,0-.244-10.161l-111.565-.113H340.2a5.017,5.017,0,0,0-4.911,5.08" fill="none"/>
    </clipPath>
    <clipPath id="clip-path-19">
      <path id="Path_242" data-name="Path 242" d="M290.56,344.364a5.132,5.132,0,0,0-2.42,6.759l46.943,103.223a4.923,4.923,0,0,0,6.623,2.482,5.128,5.128,0,0,0,2.42-6.758L297.184,346.847c-.036-.08-.073-.158-.113-.235a4.985,4.985,0,0,0-4.42-2.719,4.885,4.885,0,0,0-2.091.471" fill="none"/>
    </clipPath>
    <clipPath id="clip-path-20">
      <path id="Path_243" data-name="Path 243" d="M413.268,637.84a2.323,2.323,0,0,0,1.276,4c13.842,2,35.518.291,45.042-.632a5.108,5.108,0,0,0,4.6-5.391,113.265,113.265,0,0,0-1.362-11.859l-7.382-4.037c-22.686,2.262-36.47,12.6-42.177,17.922" fill="none"/>
    </clipPath>
    <linearGradient id="linear-gradient" x1="-17.447" y1="1.001" x2="-17.406" y2="1.001" gradientUnits="objectBoundingBox">
      <stop offset="0" stop-color="#09005d"/>
      <stop offset="1" stop-color="#1a0f91"/>
    </linearGradient>
    <clipPath id="clip-path-21">
      <path id="Path_244" data-name="Path 244" d="M451.339,618.788a5.169,5.169,0,0,0,3.436,6.426,21.426,21.426,0,0,0,3.933.761,3.932,3.932,0,0,0,4.038-2.44l4.815-11.8-12.588-5.1Z" fill="none"/>
    </clipPath>
    <linearGradient id="linear-gradient-2" x1="-20.823" y1="2.662" x2="-20.776" y2="2.662" gradientUnits="objectBoundingBox">
      <stop offset="0" stop-color="#febbba"/>
      <stop offset="1" stop-color="#ff928e"/>
    </linearGradient>
    <clipPath id="clip-path-22">
      <path id="Path_245" data-name="Path 245" d="M536.481,651.769a4.4,4.4,0,0,0,4.179,5.845H560.5a4.679,4.679,0,0,0,4.624-5.472c-1.263-7.146-4.908-18.758-15.246-18.788,0,0-9.641,8.068-13.4,18.415" fill="none"/>
    </clipPath>
    <linearGradient id="linear-gradient-3" x1="-21.931" y1="0.921" x2="-21.89" y2="0.921" xlink:href="#linear-gradient"/>
    <clipPath id="clip-path-23">
      <path id="Path_246" data-name="Path 246" d="M547.226,635.7a1.405,1.405,0,0,0,1.549,1.4c1.776-.239,4.219.237,7.222,1.31a1.822,1.822,0,0,0,2.382-1.242c1.5-5.7,3.445-14.316,3.445-14.316l-14.784-1.471Z" fill="none"/>
    </clipPath>
    <linearGradient id="linear-gradient-4" x1="-28.491" y1="2.174" x2="-28.439" y2="2.174" xlink:href="#linear-gradient-2"/>
    <clipPath id="clip-path-24">
      <path id="Path_247" data-name="Path 247" d="M510.546,428.888,451.9,607.8s11.248,7.366,16.608,7.059l69.657-143.785s12.189,88.6,6.283,152.2L564.4,624.8s32.441-162.542,7.869-218.215Z" fill="none"/>
    </clipPath>
    <clipPath id="clip-path-25">
      <path id="Path_248" data-name="Path 248" d="M535.441,450.334a.568.568,0,0,0-.492.634l2.276,18.064a.567.567,0,0,0,.563.5c.023,0,.048,0,.072,0a.569.569,0,0,0,.492-.635l-2.276-18.064a.569.569,0,0,0-.568-.5c-.022,0-.044,0-.067,0" fill="none"/>
    </clipPath>
    <linearGradient id="linear-gradient-5" x1="-29.902" y1="14.686" x2="-29.845" y2="14.686" xlink:href="#linear-gradient"/>
    <clipPath id="clip-path-26">
      <path id="Path_249" data-name="Path 249" d="M462.163,286.645,442.457,386.47l23.409,6.1,7.367-33.972,18.907,73.068a4.258,4.258,0,0,0,4.842,3.131l79.127-13.547a3.425,3.425,0,0,0,2.778-4.07c-12.279-58.224-38.544-107.651-38.544-107.651,6.721-33.855-40.793-38.074-40.793-38.074-34.637.626-37.387,15.191-37.387,15.191" fill="none"/>
    </clipPath>
    <clipPath id="clip-path-27">
      <path id="Path_250" data-name="Path 250" d="M466.111,323.879a.59.59,0,0,0-.451.7l6.6,30.286a.589.589,0,0,0,.575.463.6.6,0,0,0,.126-.013.589.589,0,0,0,.45-.7l-6.6-30.286a.588.588,0,0,0-.576-.463.6.6,0,0,0-.125.013" fill="none"/>
    </clipPath>
    <clipPath id="clip-path-28">
      <path id="Path_251" data-name="Path 251" d="M493.747,444.046a1.993,1.993,0,0,1-2.464,1.712l-5.5-1.37a11.3,11.3,0,0,0-8.171,1.063l-16.37,10.4h45.885l13.112-59.78c-3.389.247-13.666.651-20.789-2.732Z" fill="none"/>
    </clipPath>
    <linearGradient id="linear-gradient-6" x1="-7.818" y1="4.238" x2="-7.801" y2="4.238" xlink:href="#linear-gradient-2"/>
    <clipPath id="clip-path-29">
      <path id="Path_252" data-name="Path 252" d="M382.19,309.528c5.679,2.186,5.3,5.4,5.3,5.4l-25.084,10.087a9.12,9.12,0,0,0-5.329,5.832l-1.387,4.609a114.772,114.772,0,0,0,46.879-3.689l30.792,59.045a17.816,17.816,0,0,0,25.831,6.339l6.673-4.585-56.839-69.292c-1.932-4.266-5.577-9.933-12.072-13.143-11.357-5.613-19.115-9.152-19.115-9.152s-1.328,6.36,4.35,8.546" fill="none"/>
    </clipPath>
    <linearGradient id="linear-gradient-7" x1="-3.228" y1="3.496" x2="-3.219" y2="3.496" xlink:href="#linear-gradient-2"/>
    <clipPath id="clip-path-30">
      <path id="Path_253" data-name="Path 253" d="M469.023,263.281l7.364,23.445c9.444,3.421,22.385-6.7,22.385-6.7l-14.614-40.9a4.677,4.677,0,0,0-2.016-.48c-8.284,0-13.119,24.632-13.119,24.632" fill="none"/>
    </clipPath>
    <linearGradient id="linear-gradient-8" x1="-7.953" y1="7.334" x2="-7.935" y2="7.334" xlink:href="#linear-gradient-2"/>
    <clipPath id="clip-path-31">
      <path id="Path_254" data-name="Path 254" d="M440.542,224.44c0,.63,14.078,39.851,14.078,39.851l22.222-8.514-7.819-39.155s-3.317-.318-7.687-.318c-8.435,0-20.794,1.185-20.794,8.136" fill="none"/>
    </clipPath>
    <linearGradient id="linear-gradient-9" x1="-7.423" y1="7.447" x2="-7.406" y2="7.447" xlink:href="#linear-gradient-2"/>
    <clipPath id="clip-path-32">
      <path id="Path_255" data-name="Path 255" d="M458.969,208.123a2.947,2.947,0,0,1-3.653.975,2.331,2.331,0,0,0-2.611.468,2.9,2.9,0,0,1-4.244-.645c-1.84-2.708-5.181-5.411-10.84-3.581-10.04,3.249-9.56,14.825-5.88,21.118s14.366,2.153,19.424-2.018c3.846-3.17,9.7-1.273,12.289-.182a2.918,2.918,0,0,1,1.671,1.9l5.731,20.29a2.949,2.949,0,0,1,.111.793c0,1.655-.407,7.349-6.208,6.574-5.263-.7-10.076-1.265-13.137.176a2.943,2.943,0,0,0-1.519,3.659,127.282,127.282,0,0,0,8.005,18.066,2.937,2.937,0,0,0,3.778,1.209c4.174-1.9,12.865-6.149,19.055-11.207a2.946,2.946,0,0,0,1.042-2.828c-.974-5.191-3.875-20.977-4-25.5-.121-4.247,4.645-7.488,6.742-8.706a2.9,2.9,0,0,0,1.364-1.831c.658-2.733,1.217-8.919-6.673-10.282a2.95,2.95,0,0,1-2.393-3.508c.668-3.269.454-8.079-5.753-9.85a11.54,11.54,0,0,0-3.173-.466c-4.5,0-7.468,2.985-9.125,5.374" fill="none"/>
    </clipPath>
    <linearGradient id="linear-gradient-10" x1="-7.16" y1="6.089" x2="-7.143" y2="6.089" xlink:href="#linear-gradient"/>
    <clipPath id="clip-path-33">
      <path id="Path_256" data-name="Path 256" d="M477.98,230.029c-3.929,3.53,2.012,14.771,2.012,14.771s8.173,2,8.4-8.932c.114-5.6-2.541-7.863-5.5-7.863a7.546,7.546,0,0,0-4.909,2.024" fill="none"/>
    </clipPath>
    <linearGradient id="linear-gradient-11" x1="-20.008" y1="18.373" x2="-19.965" y2="18.373" xlink:href="#linear-gradient-2"/>
    <clipPath id="clip-path-34">
      <path id="Path_257" data-name="Path 257" d="M538,315.6,520.88,395.424c-2.575.226-16.324,1.139-23.582-4l14.987-70.082-3.128-5.895a.589.589,0,1,0-1.041.552l2.927,5.517-15.056,70.4.3.226c5.244,3.94,13.692,4.686,19.335,4.686a56.806,56.806,0,0,0,5.808-.274l.421-.046,17.3-80.666a.589.589,0,0,0-.452-.7.627.627,0,0,0-.128-.014.586.586,0,0,0-.572.466" fill="none"/>
    </clipPath>
  </defs>
  <g id="Group_54" data-name="Group 54">
    <g id="Group_53" data-name="Group 53" clip-path="url(#clip-path)">
      <rect id="Rectangle_65" data-name="Rectangle 65" width="944.877" height="943.834" transform="matrix(0.659, -0.753, 0.753, 0.659, -334.407, 384.491)" fill="#f5f9fb"/>
    </g>
  </g>
  <g id="Group_86" data-name="Group 86">
    <g id="Group_85" data-name="Group 85" clip-path="url(#clip-path-2)">
      <g id="Group_57" data-name="Group 57" opacity="0.3">
        <g id="Group_56" data-name="Group 56">
          <g id="Group_55" data-name="Group 55" clip-path="url(#clip-path-3)">
            <path id="Path_181" data-name="Path 181" d="M401.167,99.3a2.331,2.331,0,0,1-2.234-2.425c.1-2.5.1-5.042-.014-7.554a2.331,2.331,0,0,1,2.181-2.43l.045,0a2.332,2.332,0,0,1,2.433,2.227c.117,2.644.122,5.32.014,7.951a2.332,2.332,0,0,1-2.179,2.231,2.235,2.235,0,0,1-.246,0m-3.63-22.172c-.452-2.472-1.015-4.949-1.673-7.363a2.332,2.332,0,1,1,4.5-1.226c.692,2.54,1.285,5.147,1.762,7.749A2.332,2.332,0,0,1,400.251,79a2.374,2.374,0,0,1-.275.034,2.332,2.332,0,0,1-2.439-1.907m-5.714-18.943c-.989-2.3-2.09-4.592-3.274-6.8a2.332,2.332,0,1,1,4.111-2.2c1.247,2.329,2.407,4.739,3.448,7.165a2.331,2.331,0,1,1-4.285,1.839m-9.807-17.189c-1.48-2.027-3.067-4.012-4.713-5.9a2.332,2.332,0,0,1,3.516-3.063c1.734,1.991,3.4,4.082,4.962,6.214a2.332,2.332,0,1,1-3.765,2.752M368.624,26.417c-1.889-1.643-3.876-3.229-5.9-4.712a2.331,2.331,0,1,1,2.752-3.764c2.134,1.56,4.225,3.229,6.213,4.958a2.332,2.332,0,1,1-3.061,3.518M352.341,15.168c-2.209-1.187-4.5-2.293-6.8-3.288a2.332,2.332,0,0,1,1.85-4.281c2.423,1.047,4.831,2.212,7.156,3.461a2.332,2.332,0,0,1-2.207,4.108m-86.577-1.086a2.33,2.33,0,0,1,.96-3.154c2.328-1.241,4.741-2.4,7.173-3.436a2.331,2.331,0,0,1,1.832,4.288c-2.309.986-4.6,2.084-6.811,3.263a2.329,2.329,0,0,1-3.154-.961m68.216-6.27c-2.416-.665-4.891-1.234-7.355-1.689a2.331,2.331,0,1,1,.847-4.585c2.6.479,5.2,1.078,7.746,1.779a2.331,2.331,0,1,1-1.238,4.495M284.46,6.119a2.332,2.332,0,0,1,1.642-2.86c2.546-.688,5.156-1.275,7.756-1.747A2.332,2.332,0,1,1,294.69,6.1c-2.471.448-4.952,1.006-7.371,1.66a2.282,2.282,0,0,1-.463.076,2.331,2.331,0,0,1-2.4-1.718m29.98-1.374c-2.5-.108-5.043-.109-7.551,0a2.331,2.331,0,0,1-.248-4.656l.05,0c2.64-.113,5.315-.112,7.949,0a2.332,2.332,0,0,1,.05,4.657c-.082.005-.166.006-.25,0" fill="#91b3fa"/>
            <path id="Path_182" data-name="Path 182" d="M254.279,24.293a2.322,2.322,0,0,0,1.3-.5c.941-.748,1.914-1.488,2.891-2.2a2.331,2.331,0,1,0-2.749-3.766c-1.028.75-2.051,1.528-3.042,2.315a2.332,2.332,0,0,0,1.6,4.153" fill="#91b3fa"/>
          </g>
        </g>
      </g>
      <g id="Group_60" data-name="Group 60" opacity="0.3">
        <g id="Group_59" data-name="Group 59">
          <g id="Group_58" data-name="Group 58" clip-path="url(#clip-path-4)">
            <path id="Path_183" data-name="Path 183" d="M220.287,86.725a2.332,2.332,0,0,0,2.171-2.1c.114-1.2.256-2.411.421-3.609a2.332,2.332,0,0,0-4.62-.636c-.174,1.261-.323,2.54-.444,3.8a2.333,2.333,0,0,0,2.472,2.549" fill="#91b3fa"/>
            <path id="Path_184" data-name="Path 184" d="M311.751,186.265a2.332,2.332,0,1,1-.067-4.663c2.452-.035,4.94-.176,7.424-.417a2.332,2.332,0,0,1,.451,4.642q-1.614.158-3.22.259c-1.528.1-3.071.158-4.588.179m17.536-4.255a2.333,2.333,0,0,1,1.731-2.806c2.406-.571,4.813-1.248,7.156-2.016a2.331,2.331,0,1,1,1.452,4.431c-2.466.808-5,1.522-7.532,2.122a2.44,2.44,0,0,1-.393.059,2.333,2.333,0,0,1-2.414-1.79m-30.223,3.567c-2.574-.317-5.171-.749-7.717-1.285a2.332,2.332,0,0,1,.96-4.564c2.418.509,4.883.92,7.328,1.221a2.332,2.332,0,0,1-.135,4.641,2.365,2.365,0,0,1-.436-.013m49.222-9.807a2.331,2.331,0,0,1,1.073-3.118c2.218-1.083,4.416-2.274,6.534-3.539a2.332,2.332,0,0,1,2.392,4c-2.23,1.332-4.545,2.586-6.881,3.726a2.327,2.327,0,0,1-3.118-1.072m-69.154,5.061c-2.441-.875-4.877-1.868-7.244-2.95a2.332,2.332,0,0,1,1.939-4.241c2.248,1.028,4.562,1.971,6.88,2.8a2.332,2.332,0,1,1-1.575,4.389m-18.409-9c-2.195-1.391-4.357-2.891-6.426-4.458a2.332,2.332,0,0,1,2.816-3.717c1.966,1.489,4.02,2.914,6.106,4.237a2.331,2.331,0,1,1-2.5,3.938m-16.01-12.8c-1.841-1.837-3.625-3.772-5.3-5.751a2.332,2.332,0,0,1,3.558-3.015c1.593,1.881,3.288,3.719,5.038,5.465a2.332,2.332,0,1,1-3.294,3.3m-12.836-15.988c-1.394-2.2-2.711-4.475-3.914-6.777A2.331,2.331,0,0,1,232.1,134.1c1.142,2.186,2.392,4.351,3.717,6.436a2.331,2.331,0,1,1-3.936,2.5m-9.013-18.428c-.875-2.442-1.656-4.954-2.323-7.467a2.332,2.332,0,0,1,4.507-1.2c.633,2.387,1.376,4.773,2.206,7.093a2.331,2.331,0,1,1-4.39,1.571m-4.743-19.936c-.237-1.9-.419-3.825-.54-5.729-.043-.69-.079-1.377-.108-2.065a2.306,2.306,0,0,1,2.233-2.426,2.331,2.331,0,0,1,2.426,2.233q.042.978.1,1.963c.115,1.81.287,3.642.513,5.446a2.331,2.331,0,0,1-2.024,2.6c-.048.006-.1.011-.144.014a2.332,2.332,0,0,1-2.459-2.038" fill="#91b3fa"/>
            <path id="Path_185" data-name="Path 185" d="M367.459,166.333a2.318,2.318,0,0,0,1.309-.507c.985-.79,1.972-1.616,2.933-2.454a2.332,2.332,0,1,0-3.065-3.515c-.913.8-1.851,1.581-2.785,2.331a2.331,2.331,0,0,0,1.608,4.145" fill="#91b3fa"/>
          </g>
        </g>
      </g>
      <path id="Path_186" data-name="Path 186" d="M371.863,126.6a1.091,1.091,0,0,0,0-1.265l-7.681-10.813a57.8,57.8,0,0,0,4.243-18.231l11.655-6.313a1.09,1.09,0,0,0,.556-1.137l-2.6-15.695a1.089,1.089,0,0,0-.893-.9l-13.069-2.213a57.775,57.775,0,0,0-9.9-15.885l3.78-12.714a1.088,1.088,0,0,0-.411-1.2L344.6,30.988a1.087,1.087,0,0,0-1.265,0l-10.813,7.681a57.793,57.793,0,0,0-18.231-4.244l-6.313-11.655a1.09,1.09,0,0,0-1.137-.556l-15.7,2.6a1.09,1.09,0,0,0-.9.893L288.04,38.777a57.775,57.775,0,0,0-15.885,9.9L259.441,44.9a1.088,1.088,0,0,0-1.2.41l-9.258,12.939a1.089,1.089,0,0,0,0,1.265l7.681,10.813a57.766,57.766,0,0,0-4.243,18.231L240.767,94.87a1.09,1.09,0,0,0-.556,1.136l2.6,15.7a1.091,1.091,0,0,0,.893.9l13.069,2.212a57.78,57.78,0,0,0,9.9,15.886L262.9,143.41a1.088,1.088,0,0,0,.41,1.2l12.939,9.258a1.091,1.091,0,0,0,1.265,0l10.813-7.681a57.792,57.792,0,0,0,18.231,4.243l6.313,11.656a1.093,1.093,0,0,0,1.137.556l15.695-2.6a1.092,1.092,0,0,0,.9-.894l2.213-13.068a57.814,57.814,0,0,0,15.885-9.9l12.714,3.78a1.088,1.088,0,0,0,1.2-.411Z" fill="#c4d5d5"/>
      <path id="Path_187" data-name="Path 187" d="M309.1,108.362a15.979,15.979,0,1,1,2.348.024,16.01,16.01,0,0,1-2.348-.024m-6.6-25.295a12.261,12.261,0,1,0,8.938-2.861,12.565,12.565,0,0,0-1.819-.018,12.173,12.173,0,0,0-7.119,2.879" fill="#fff"/>
      <path id="Path_188" data-name="Path 188" d="M312.586,131.458A40.117,40.117,0,0,0,316.6,131q.631-.1,1.26-.23a39.5,39.5,0,0,0,6.06-1.716l.08-.03.227-.086c.147-.056.294-.114.441-.172a.932.932,0,0,0-.686-1.734,37.5,37.5,0,0,1-41.712-9.845,37.23,37.23,0,0,1-9.055-18.851,37.889,37.889,0,0,1-.438-3.83,37.458,37.458,0,0,1,74.341-8.426,37.776,37.776,0,0,1,.432,3.781,37.344,37.344,0,0,1-2.522,16.062.92.92,0,0,0-.063.4.932.932,0,0,0,1.8.282,39.209,39.209,0,0,0,2.649-16.862,39.767,39.767,0,0,0-.453-3.969,39.324,39.324,0,0,0-78.044,8.845,40.189,40.189,0,0,0,.46,4.02,39.329,39.329,0,0,0,41.21,32.819" fill="#fff"/>
      <g id="Group_63" data-name="Group 63" opacity="0.3">
        <g id="Group_62" data-name="Group 62">
          <g id="Group_61" data-name="Group 61" clip-path="url(#clip-path-5)">
            <path id="Path_189" data-name="Path 189" d="M484.712,155.576a1.438,1.438,0,0,0,1.313-1.12c.269-1.193.506-2.41.7-3.617a1.44,1.44,0,0,0-2.843-.465c-.188,1.15-.414,2.31-.671,3.448a1.441,1.441,0,0,0,1.088,1.722,1.462,1.462,0,0,0,.409.032" fill="#91b3fa"/>
            <path id="Path_190" data-name="Path 190" d="M486,144.594a1.441,1.441,0,0,1-1.383-1.495,59.984,59.984,0,0,0-.076-6.042q-.041-.633-.1-1.271a1.44,1.44,0,0,1,1.314-1.556,1.491,1.491,0,0,1,1.556,1.315q.057.666.1,1.33a62.535,62.535,0,0,1,.079,6.334,1.439,1.439,0,0,1-1.346,1.382c-.048,0-.1,0-.148,0M483.39,128.55a59.811,59.811,0,0,0-1.934-7.052,1.44,1.44,0,0,1,2.726-.931,62.6,62.6,0,0,1,2.027,7.392,1.44,1.44,0,1,1-2.819.591m-4.726-13.812a59.164,59.164,0,0,0-3.608-6.362,1.44,1.44,0,0,1,2.412-1.573,62.211,62.211,0,0,1,3.785,6.672,1.441,1.441,0,0,1-.663,1.926,1.46,1.46,0,0,1-.54.143,1.441,1.441,0,0,1-1.386-.806m-7.975-12.228a59.519,59.519,0,0,0-5.054-5.284,1.44,1.44,0,1,1,1.954-2.116,62.356,62.356,0,0,1,5.3,5.541,1.44,1.44,0,0,1-2.2,1.859M459.97,92.6a59.946,59.946,0,0,0-6.185-3.9,1.44,1.44,0,1,1,1.384-2.525,62.91,62.91,0,0,1,6.483,4.085A1.44,1.44,0,0,1,459.97,92.6m-12.8-7.009a59.131,59.131,0,0,0-6.943-2.269,1.44,1.44,0,0,1,.724-2.788,62.056,62.056,0,0,1,7.283,2.38,1.44,1.44,0,1,1-1.064,2.677m-14.119-3.664a59.1,59.1,0,0,0-7.294-.5,1.441,1.441,0,0,1,.018-2.882,62.511,62.511,0,0,1,7.649.521,1.44,1.44,0,0,1-.094,2.865,1.38,1.38,0,0,1-.279-.009m-23.535.147a1.439,1.439,0,0,1,1.058-1.74A62.729,62.729,0,0,1,417.12,79.1c.334-.046.668-.087,1-.126a1.426,1.426,0,0,1,1.6,1.265,1.441,1.441,0,0,1-1.265,1.6c-.314.035-.627.075-.946.119a59.491,59.491,0,0,0-6.251,1.172,1.386,1.386,0,0,1-.251.038,1.44,1.44,0,0,1-1.489-1.1" fill="#91b3fa"/>
          </g>
        </g>
      </g>
      <g id="Group_66" data-name="Group 66" opacity="0.3">
        <g id="Group_65" data-name="Group 65">
          <g id="Group_64" data-name="Group 64" clip-path="url(#clip-path-6)">
            <path id="Path_191" data-name="Path 191" d="M428.414,202.88a62.778,62.778,0,0,1-7.539-.075,1.441,1.441,0,0,1,.2-2.874,59.477,59.477,0,0,0,7.191.072,1.44,1.44,0,0,1,.163,2.876h-.019m5.834-2.008a1.438,1.438,0,0,1,1.174-1.662,60.422,60.422,0,0,0,7.006-1.644,1.44,1.44,0,0,1,.825,2.76,63.191,63.191,0,0,1-7.342,1.722,1.369,1.369,0,0,1-.154.018,1.44,1.44,0,0,1-1.509-1.194m-20.852.94a62.4,62.4,0,0,1-7.3-1.895,1.441,1.441,0,0,1,.891-2.74,59.6,59.6,0,0,0,6.962,1.81,1.44,1.44,0,0,1-.185,2.85,1.409,1.409,0,0,1-.37-.025m35.043-4.828a1.441,1.441,0,0,1,.741-1.9,59.3,59.3,0,0,0,6.4-3.285,1.44,1.44,0,1,1,1.469,2.477,61.918,61.918,0,0,1-6.713,3.446,1.465,1.465,0,0,1-.487.118,1.442,1.442,0,0,1-1.41-.859m-49.351.165a62.454,62.454,0,0,1-6.628-3.6,1.44,1.44,0,1,1,1.525-2.444,59.425,59.425,0,0,0,6.321,3.429,1.441,1.441,0,0,1-1.218,2.611m-12.775-7.961a63.155,63.155,0,0,1-5.576-5.078A1.44,1.44,0,0,1,382.8,182.1a60.317,60.317,0,0,0,5.32,4.843,1.44,1.44,0,0,1-1.808,2.243m-10.5-10.792a62.145,62.145,0,0,1-4.2-6.269,1.44,1.44,0,0,1,2.486-1.455,58.853,58.853,0,0,0,4,5.978,1.44,1.44,0,0,1-.274,2.018,1.418,1.418,0,0,1-.779.292,1.439,1.439,0,0,1-1.238-.564" fill="#91b3fa"/>
            <path id="Path_192" data-name="Path 192" d="M462.558,190.3a1.438,1.438,0,0,0,.789-.3c.975-.754,1.932-1.54,2.845-2.337a1.441,1.441,0,1,0-1.894-2.171c-.87.76-1.784,1.51-2.714,2.23a1.44,1.44,0,0,0,.974,2.576" fill="#91b3fa"/>
          </g>
        </g>
      </g>
      <path id="Path_193" data-name="Path 193" d="M466.38,163.151a.728.728,0,0,0,0-.847l-5.14-7.235a38.646,38.646,0,0,0,2.84-12.2l7.8-4.224a.729.729,0,0,0,.372-.761l-1.742-10.5a.729.729,0,0,0-.6-.6l-8.745-1.48a38.681,38.681,0,0,0-6.626-10.63l2.529-8.507a.728.728,0,0,0-.274-.8l-8.658-6.195a.728.728,0,0,0-.847,0l-7.235,5.14a38.646,38.646,0,0,0-12.2-2.84l-4.224-7.8a.728.728,0,0,0-.76-.372l-10.5,1.741a.73.73,0,0,0-.6.6l-1.48,8.745a38.681,38.681,0,0,0-10.63,6.626l-8.508-2.529a.727.727,0,0,0-.8.274l-6.195,8.658a.73.73,0,0,0,0,.847l5.141,7.235a38.647,38.647,0,0,0-2.84,12.2l-7.8,4.224a.729.729,0,0,0-.372.761l1.741,10.5a.73.73,0,0,0,.6.6l8.745,1.48a38.658,38.658,0,0,0,6.626,10.63l-2.529,8.507a.728.728,0,0,0,.274.8l8.658,6.195a.73.73,0,0,0,.847,0l7.235-5.141a38.64,38.64,0,0,0,12.2,2.84l4.224,7.8a.727.727,0,0,0,.76.372l10.5-1.741a.727.727,0,0,0,.6-.6l1.481-8.745a38.657,38.657,0,0,0,10.63-6.626l8.507,2.529a.729.729,0,0,0,.8-.274Z" fill="#c4d5d5"/>
      <path id="Path_194" data-name="Path 194" d="M424.367,151.136a10.854,10.854,0,1,1,1.614.016,11.02,11.02,0,0,1-1.614-.016m-7.084-11.52a8.013,8.013,0,1,0,8.65-7.321,8.126,8.126,0,0,0-1.177-.012,8.027,8.027,0,0,0-7.473,7.333" fill="#fff"/>
      <path id="Path_195" data-name="Path 195" d="M426.793,167.21a27.488,27.488,0,0,0,2.741-.314,27.2,27.2,0,0,0,5.334-1.45l.231-.091a1.44,1.44,0,0,0-1.06-2.678,24.273,24.273,0,0,1-4.975,1.377h0c-.093.016-.188.031-.28.045a24.01,24.01,0,0,1-11.823-1.111,24.4,24.4,0,0,1-5.8-3.007c-.014-.011-.029-.021-.044-.031l-.134-.1a24.1,24.1,0,0,1-9.812-15.753,24.642,24.642,0,0,1-.284-2.479,24.25,24.25,0,0,1,48.127-5.455,24.237,24.237,0,0,1-1.353,12.845,1.422,1.422,0,0,0-.1.619,1.44,1.44,0,0,0,2.777.437,27.131,27.131,0,1,0-52.329-8.269,27.862,27.862,0,0,0,.317,2.772,27.168,27.168,0,0,0,28.461,22.639" fill="#fff"/>
      <path id="Path_196" data-name="Path 196" d="M645.067,304.663a7.789,7.789,0,0,0-8.036-7.649L468.371,302.4a7.789,7.789,0,0,0-7.536,8.017l8.322,279.325a7.789,7.789,0,0,0,7.861,7.557l165.269-1.608A7.789,7.789,0,0,0,650,587.77Z" fill="#c4d5d5"/>
      <g id="Group_69" data-name="Group 69" opacity="0.43">
        <g id="Group_68" data-name="Group 68">
          <g id="Group_67" data-name="Group 67" clip-path="url(#clip-path-7)">
            <path id="Path_197" data-name="Path 197" d="M627.472,318.325H477.28c-1.46,0-2.633.78-2.618,2.165l.144,13.113a2.962,2.962,0,0,0,2.684,2.893l150.62.121a2.93,2.93,0,0,0,2.6-3.021l-.457-13.073c-.047-1.4-1.291-2.2-2.778-2.2" fill="#fff"/>
            <path id="Path_198" data-name="Path 198" d="M628.447,346.583,477.6,346.332a2.788,2.788,0,0,0-2.627,2.8l.145,13.4a2.813,2.813,0,0,0,2.694,2.738l151.276.418a2.681,2.681,0,0,0,2.618-2.748l-.461-13.522a3,3,0,0,0-2.8-2.83" fill="#fff"/>
            <path id="Path_199" data-name="Path 199" d="M629.465,376.791l-151.528-.515c-1.473-.005-2.661.675-2.645,2.085l.145,13.517a2.6,2.6,0,0,0,2.7,2.492l151.94.677a2.475,2.475,0,0,0,2.638-2.491l-.465-13.642c-.048-1.423-1.288-2.118-2.788-2.123" fill="#fff"/>
            <path id="Path_200" data-name="Path 200" d="M630.457,406.251l-152.193-.775a2.435,2.435,0,0,0-2.655,2.373l.148,13.637c.015,1.428,1.227,2.232,2.711,2.242l152.609.939c1.511.009,2.709-.788,2.66-2.23l-.47-13.763a2.637,2.637,0,0,0-2.81-2.423" fill="#fff"/>
            <path id="Path_201" data-name="Path 201" d="M631.458,435.97l-152.865-1.04a2.663,2.663,0,0,0-2.662,2.668l.148,13.756a3.07,3.07,0,0,0,2.732,3.013l153.308,1.216a2.885,2.885,0,0,0,2.645-3l-.473-13.885a2.9,2.9,0,0,0-2.833-2.73" fill="#fff"/>
            <path id="Path_202" data-name="Path 202" d="M632.469,465.952l-153.542-1.309a2.924,2.924,0,0,0-2.671,2.966l.15,13.879a2.831,2.831,0,0,0,2.74,2.763l153.99,1.488A2.656,2.656,0,0,0,635.8,483l-.477-14.009a3.2,3.2,0,0,0-2.856-3.041" fill="#fff"/>
            <path id="Path_203" data-name="Path 203" d="M633.523,497.247l-154.249-1.592c-1.5-.016-2.707.772-2.692,2.232l.152,14a2.614,2.614,0,0,0,2.75,2.509l154.676,1.765a2.449,2.449,0,0,0,2.688-2.469l-.482-14.136c-.05-1.473-1.316-2.294-2.843-2.31" fill="#fff"/>
            <path id="Path_204" data-name="Path 204" d="M634.551,527.773,479.612,525.9a2.545,2.545,0,0,0-2.7,2.533l.153,14.127c.016,1.479,1.248,2.229,2.759,2.249l155.37,2.047c1.539.02,2.761-.7,2.71-2.2l-.487-14.263a2.8,2.8,0,0,0-2.866-2.623" fill="#fff"/>
            <path id="Path_205" data-name="Path 205" d="M635.589,558.571l-155.635-2.155a2.792,2.792,0,0,0-2.709,2.837l.154,14.254a3.1,3.1,0,0,0,2.781,3.049L636.274,578.9a2.86,2.86,0,0,0,2.7-2.994l-.49-14.392a3.1,3.1,0,0,0-2.89-2.942" fill="#fff"/>
          </g>
        </g>
      </g>
      <g id="Group_72" data-name="Group 72" opacity="0.52">
        <g id="Group_71" data-name="Group 71">
          <g id="Group_70" data-name="Group 70" clip-path="url(#clip-path-8)">
            <path id="Path_206" data-name="Path 206" d="M166.22,104.471s-.206,1.878-.493,5.419-.668,8.735-1.042,15.355c-.4,6.618-.714,14.665-.979,23.895-.079,4.618-.23,9.529-.235,14.71q-.033,3.883-.066,7.964.015,4.079.03,8.343c-.005,2.841.039,5.742.1,8.7s.108,5.967.163,9.029q.151,4.591.308,9.335.078,2.372.158,4.778.112,2.4.229,4.843.238,4.877.482,9.882c.184,3.335.429,6.707.645,10.118.395,6.823.992,13.781,1.55,20.86.25,3.541.661,7.1.994,10.69.363,3.587.681,7.2,1.087,10.836q.641,5.442,1.287,10.948.322,2.751.648,5.517.38,2.757.76,5.526.765,5.539,1.535,11.118c.512,3.717,1.164,7.426,1.742,11.152.611,3.722,1.155,7.462,1.825,11.184s1.356,7.446,2.035,11.17l1,5.589c.34,1.862.747,3.71,1.117,5.564q1.135,5.559,2.268,11.1c.714,3.7,1.61,7.359,2.442,11.018l2.52,10.933c1.783,7.236,3.692,14.38,5.5,21.457q3.042,10.527,6,20.769,3.238,10.142,6.361,19.916,3.395,9.669,6.633,18.891c2.272,6.1,4.621,11.974,6.818,17.688.56,1.426,1.091,2.848,1.66,4.241q.888,2.073,1.76,4.11,1.743,4.074,3.421,7.991t3.281,7.665q1.732,3.691,3.381,7.207l6.242,13.314,5.917,11.5,2.629,5.108c.84,1.627,1.616,3.193,2.458,4.621l10.228,18.156.01.018a.514.514,0,0,1-.891.514s-3.857-6.542-10.605-17.991c-.866-1.42-1.669-2.976-2.536-4.594s-1.772-3.312-2.716-5.079q-2.832-5.3-6.113-11.438-3.046-6.242-6.468-13.256l-3.481-7.191q-1.646-3.746-3.366-7.66t-3.509-7.986q-.894-2.037-1.806-4.11c-.584-1.393-1.131-2.814-1.706-4.239-2.259-5.713-4.674-11.592-7.012-17.69q-3.335-9.213-6.839-18.9-3.183-9.783-6.493-19.961-3-10.258-6.089-20.831c-1.839-7.1-3.778-14.265-5.59-21.523l-2.565-10.967c-.847-3.67-1.758-7.337-2.486-11.052q-1.154-5.559-2.312-11.137c-.377-1.861-.791-3.715-1.138-5.582l-1.026-5.606q-1.012-5.608-2.024-11.215c-.661-3.737-1.2-7.493-1.8-11.229-.568-3.742-1.21-7.465-1.712-11.2s-1-7.453-1.5-11.159q-.373-2.781-.745-5.549-.318-2.775-.632-5.537-.632-5.523-1.256-10.988c-.4-3.644-.7-7.274-1.055-10.874-.323-3.6-.724-7.172-.963-10.726-.525-7.1-1.138-14.08-1.462-20.929-.183-3.422-.4-6.806-.548-10.152q-.2-5.021-.386-9.915-.093-2.445-.183-4.858-.057-2.412-.112-4.791-.109-4.755-.217-9.362-.039-4.605-.075-9.052c-.034-2.964-.048-5.871-.016-8.719-.007-11.392.326-21.833.677-31.08.414-9.247.855-17.3,1.363-23.929.467-6.629.982-11.826,1.345-15.368s.611-5.43.611-5.43v0a.515.515,0,0,1,1.022.123" fill="#fff"/>
          </g>
        </g>
      </g>
      <g id="Group_75" data-name="Group 75" opacity="0.52">
        <g id="Group_74" data-name="Group 74">
          <g id="Group_73" data-name="Group 73" clip-path="url(#clip-path-9)">
            <path id="Path_207" data-name="Path 207" d="M41.632,178.814s1.639,7.071,4.886,19.367c1.619,6.148,3.637,13.6,6.049,22.121,2.384,8.53,5.217,18.113,8.377,28.544,3.195,10.421,6.7,21.7,10.6,33.565,1.911,5.944,3.987,12.015,6.048,18.24,2.14,6.2,4.264,12.551,6.542,18.972,2.259,6.426,4.556,12.961,6.971,19.543,2.365,6.6,4.851,13.246,7.361,19.944q.938,2.513,1.88,5.035.967,2.513,1.937,5.034l3.889,10.11c2.627,6.743,5.335,13.486,8.047,20.226,2.787,6.711,5.509,13.447,8.335,20.11q2.134,4.99,4.256,9.959,1.065,2.481,2.125,4.956,1.089,2.461,2.172,4.915c2.912,6.531,5.722,13.045,8.666,19.406,2.925,6.369,5.733,12.7,8.673,18.84q2.175,4.62,4.314,9.16,1.061,2.273,2.108,4.524l2.144,4.451c2.861,5.9,5.593,11.7,8.373,17.284q2.089,4.188,4.123,8.258,2.005,4.082,3.951,8.035,4,7.848,7.711,15.141c2.442,4.869,4.92,9.463,7.237,13.854s4.444,8.593,6.55,12.487c4.219,7.782,7.9,14.567,10.928,20.154,3.085,5.559,5.507,9.927,7.16,12.9,1.638,2.987,2.511,4.581,2.511,4.581l.006.009a.591.591,0,0,1-1.023.591s-.946-1.553-2.718-4.465-4.338-7.208-7.619-12.662c-1.67-2.712-3.381-5.793-5.289-9.122l-6.152-10.79c-4.311-7.748-9.158-16.505-14.194-26.188q-3.78-7.263-7.858-15.105-1.983-3.943-4.029-8.017-2.021-4.085-4.1-8.289c-5.444-11.259-11.188-23.133-16.773-35.581-5.634-12.424-11.281-25.341-16.837-38.541-2.835-6.575-5.482-13.292-8.289-19.971-2.765-6.7-5.426-13.467-8.15-20.21q-3.964-10.164-7.919-20.3-1.934-5.078-3.858-10.132-.961-2.526-1.921-5.044l-1.865-5.045c-2.49-6.713-4.955-13.374-7.3-19.987-2.393-6.6-4.669-13.143-6.91-19.582-2.258-6.433-4.362-12.8-6.482-19.008-2.04-6.237-4.1-12.319-5.991-18.275-3.854-11.889-7.328-23.185-10.492-33.624-3.117-10.453-5.936-20.047-8.335-28.579-2.419-8.526-4.443-15.984-6.067-22.138-3.255-12.3-4.9-19.4-4.9-19.4a.591.591,0,1,1,1.15-.272Z" fill="#fff"/>
          </g>
        </g>
      </g>
      <path id="Path_208" data-name="Path 208" d="M541.983,222.64a6.488,6.488,0,0,0-7.048-6.317L354.528,231.95a6.58,6.58,0,0,0-6.033,6.465V601.076a6.447,6.447,0,0,0,6.7,6.219H544.108a6.267,6.267,0,0,0,6.488-6.435Z" fill="#b1c1c1"/>
      <g id="Group_81" data-name="Group 81" opacity="0.68">
        <g id="Group_80" data-name="Group 80">
          <g id="Group_79" data-name="Group 79" clip-path="url(#clip-path-10)">
            <path id="Path_209" data-name="Path 209" d="M384.227,249.836l-13.771.932c-1.509.1-2.282,1.493-2.282,3.114V584.69c0,1.655.336,3.621,1.862,3.621h14.37c1.535,0,2.8-1.659,2.795-3.32l-.207-332.235a2.784,2.784,0,0,0-2.767-2.92" fill="#c3d5d5"/>
            <g id="Group_78" data-name="Group 78" opacity="0.7">
              <g id="Group_77" data-name="Group 77">
                <g id="Group_76" data-name="Group 76" clip-path="url(#clip-path-11)">
                  <path id="Path_210" data-name="Path 210" d="M417.631,247.646l-14.4.944a3.322,3.322,0,0,0-3,3.15l.345,333.243a3.416,3.416,0,0,0,3.04,3.329H418.17c1.555,0,2.589-1.668,2.586-3.34L420.2,250.6c0-1.637-1.03-3.053-2.568-2.952" fill="#c3d5d5"/>
                </g>
              </g>
            </g>
            <path id="Path_211" data-name="Path 211" d="M451.471,245.427l-14.592.957c-1.549.1-2.442,1.491-2.438,3.132l.708,335.447c0,1.677.912,3.349,2.478,3.349h14.751a3.57,3.57,0,0,0,3.228-3.361l-.926-336.594a3.128,3.128,0,0,0-3.209-2.93" fill="#c3d5d5"/>
            <path id="Path_212" data-name="Path 212" d="M485.756,243.179l-14.784.969a3.044,3.044,0,0,0-2.711,3.17l1.073,337.626c0,1.687,1.173,3.368,2.759,3.368h14.949a3.38,3.38,0,0,0,3.019-3.381l-1.3-338.79a2.961,2.961,0,0,0-3.009-2.962" fill="#c3d5d5"/>
            <path id="Path_213" data-name="Path 213" d="M520.494,240.9l-14.98.982a3.292,3.292,0,0,0-2.99,3.208l1.446,339.832a3.412,3.412,0,0,0,3.049,3.389h15.149c1.617,0,2.813-1.7,2.8-3.4L523.3,243.9a2.806,2.806,0,0,0-2.8-3" fill="#c3d5d5"/>
          </g>
        </g>
      </g>
      <path id="Path_214" data-name="Path 214" d="M400.739,298.038a7.026,7.026,0,0,0-7.306-6.923l-143.9,5.77a4.527,4.527,0,0,0-4.345,4.632l7.3,307.626,145.5-1.775a7.025,7.025,0,0,0,6.94-7.123Z" fill="#c4d5d5"/>
      <g id="Group_84" data-name="Group 84" opacity="0.5">
        <g id="Group_83" data-name="Group 83">
          <g id="Group_82" data-name="Group 82" clip-path="url(#clip-path-12)">
            <path id="Path_215" data-name="Path 215" d="M284.847,354.737l-23.156.006-.274-39.576h23.207Z" fill="#fff"/>
            <path id="Path_216" data-name="Path 216" d="M318.086,354.663l-23.07.006-.2-39.5h23.12Z" fill="#fff"/>
            <path id="Path_217" data-name="Path 217" d="M353.039,354.586l-22.979.006-.124-39.425h23.029Z" fill="#fff"/>
            <path id="Path_218" data-name="Path 218" d="M387.91,354.6l-23.377-.04-.535-39.4H387.91Z" fill="#fff"/>
            <path id="Path_219" data-name="Path 219" d="M285.163,410.93l-23.084.124-.272-39.286,23.135-.073Z" fill="#fff"/>
            <path id="Path_220" data-name="Path 220" d="M318.3,410.752l-23,.123-.2-39.213,23.049-.073Z" fill="#fff"/>
            <path id="Path_221" data-name="Path 221" d="M353.144,410.566l-22.908.123-.123-39.137,22.958-.072Z" fill="#fff"/>
            <path id="Path_222" data-name="Path 222" d="M387.91,410.385l-23.307.122.194-39.062,23.113-.072Z" fill="#fff"/>
            <path id="Path_223" data-name="Path 223" d="M285.488,468.538l-23.01.2-.27-39.035,23.06-.148Z" fill="#fff"/>
            <path id="Path_224" data-name="Path 224" d="M318.518,468.255l-22.925.2-.2-38.963,22.975-.147Z" fill="#fff"/>
            <path id="Path_225" data-name="Path 225" d="M353.251,467.957l-22.835.2-.122-38.887,22.884-.147Z" fill="#fff"/>
            <path id="Path_226" data-name="Path 226" d="M387.91,467.667l-23.234.2.194-38.814,23.04-.145Z" fill="#fff"/>
            <path id="Path_227" data-name="Path 227" d="M285.806,524.859l-22.937.269-.262-37.864,22.986-.221Z" fill="#fff"/>
            <path id="Path_228" data-name="Path 228" d="M318.732,524.473l-22.853.268-.192-37.8,22.9-.22Z" fill="#fff"/>
            <path id="Path_229" data-name="Path 229" d="M353.356,524.067l-22.764.267-.118-37.722,22.811-.22Z" fill="#fff"/>
            <path id="Path_230" data-name="Path 230" d="M387.91,523.672l-23.163.266.2-37.651,22.968-.219Z" fill="#fff"/>
            <path id="Path_231" data-name="Path 231" d="M286.127,581.744l-22.864.341L263,544.461l22.912-.294Z" fill="#fff"/>
            <path id="Path_232" data-name="Path 232" d="M318.948,581.254l-22.78.34-.191-37.556,22.828-.292Z" fill="#fff"/>
            <path id="Path_233" data-name="Path 233" d="M353.462,580.739l-22.692.339-.117-37.484,22.739-.292Z" fill="#fff"/>
            <path id="Path_234" data-name="Path 234" d="M387.91,580.239l-23.091.338.195-37.415,22.9-.29Z" fill="#fff"/>
          </g>
        </g>
      </g>
    </g>
  </g>
  <g id="Group_88" data-name="Group 88">
    <rect id="Rectangle_78" data-name="Rectangle 78" width="227.456" height="160.255" rx="22" transform="translate(61.994 271.505)" fill="#24e096"/>
  </g>
  <g id="Group_92" data-name="Group 92">
    <g id="Group_91" data-name="Group 91" clip-path="url(#clip-path-2)">
      <path id="Path_235" data-name="Path 235" d="M135.758,410.658c-1.749,0-3.227-.021-4.4-.045a4.022,4.022,0,0,1-.984-7.9c10.394-2.913,21.728-7.864,30.073-11.873-39.8-3.244-47.745-23.684-49.28-33.035-3.875-23.579,16.59-50.259,45.618-59.475,29.623-9.4,59.628-6.012,76.455,8.631,8.941,7.782,18.639,22.683,14.067,49.5-8.554,50.173-86.8,54.193-111.551,54.193m-3.421-.99h0Zm-.828-6.277h0Zm57.5-19.62L176.4,390.8a276.927,276.927,0,0,1-25.26,12.169c30.726-1.853,82.709-10.533,89.047-47.718,3.217-18.874-.714-33.289-11.687-42.836-17.022-14.817-47.183-14.286-69.53-7.2-25.308,8.036-43.936,31.582-40.677,51.42,2.959,18.01,23.467,28.084,56.283,27.395Z" fill="#fff"/>
    </g>
  </g>
  <g id="Group_94" data-name="Group 94">
    <rect id="Rectangle_83" data-name="Rectangle 83" width="227.456" height="160.256" rx="22" transform="translate(64.769 83.073)" fill="#1d2579"/>
  </g>
  <g id="Group_98" data-name="Group 98">
    <g id="Rectangle_86" data-name="Rectangle 86" transform="translate(114.086 105.966)" fill="none" stroke="#fff" stroke-width="6">
      <rect width="139.07" height="114.657" stroke="none"/>
      <rect x="3" y="3" width="133.07" height="108.657" fill="none"/>
    </g>
  </g>
  <g id="Group_100" data-name="Group 100">
    <g id="Group_99" data-name="Group 99" transform="translate(0 -2)" clip-path="url(#clip-path-14)">
      <rect id="Rectangle_87" data-name="Rectangle 87" width="130.867" height="52.902" transform="translate(118.746 110.693)" fill="#fff"/>
    </g>
  </g>
  <g id="Group_102" data-name="Group 102">
    <g id="Group_101" data-name="Group 101" clip-path="url(#clip-path-15)">
      <rect id="Rectangle_88" data-name="Rectangle 88" width="45.016" height="73.963" transform="translate(205.405 141.513)" fill="#fff"/>
    </g>
  </g>
  <g id="Group_104" data-name="Group 104">
    <g id="Group_103" data-name="Group 103" transform="translate(0 1)" clip-path="url(#clip-path-16)">
      <rect id="Rectangle_90" data-name="Rectangle 90" width="44.351" height="74.3" transform="translate(117.086 140.537)" fill="#fff"/>
    </g>
  </g>
  <g id="Group_106" data-name="Group 106">
    <rect id="Rectangle_93" data-name="Rectangle 93" width="227.456" height="160.255" rx="22" transform="translate(61.994 464.338)" fill="#ffd500"/>
  </g>
  <g id="Group_110" data-name="Group 110">
    <g id="Group_109" data-name="Group 109" clip-path="url(#clip-path-17)">
      <rect id="Rectangle_96" data-name="Rectangle 96" width="118.664" height="116.069" transform="translate(127.94 485.544)" fill="#1d2579"/>
    </g>
  </g>
  <g id="Group_112" data-name="Group 112">
    <g id="Group_111" data-name="Group 111" clip-path="url(#clip-path-18)">
      <path id="Path_239" data-name="Path 239" d="M461.486,450.683,422.4,512.726l-91.755-57.589,39.087-62.044Z" fill="#1d2579"/>
    </g>
  </g>
  <g id="Group_114" data-name="Group 114">
    <g id="Group_113" data-name="Group 113" clip-path="url(#clip-path-19)">
      <path id="Path_241" data-name="Path 241" d="M287.9,336.569l71.521,9.128L344.365,465.334l-71.521-9.128Z" fill="#1d2579"/>
    </g>
  </g>
  <g id="Group_116" data-name="Group 116">
    <g id="Group_115" data-name="Group 115" clip-path="url(#clip-path-20)">
      <rect id="Rectangle_97" data-name="Rectangle 97" width="24.41" height="52.741" transform="matrix(0.009, -1, 1, 0.009, 411.609, 643.832)" fill="url(#linear-gradient)"/>
    </g>
  </g>
  <g id="Group_118" data-name="Group 118">
    <g id="Group_117" data-name="Group 117" clip-path="url(#clip-path-21)">
      <rect id="Rectangle_98" data-name="Rectangle 98" width="21.529" height="19.375" transform="translate(448.069 625.843) rotate(-82.711)" fill="url(#linear-gradient-2)"/>
    </g>
  </g>
  <g id="Group_120" data-name="Group 120">
    <g id="Group_119" data-name="Group 119" clip-path="url(#clip-path-22)">
      <rect id="Rectangle_99" data-name="Rectangle 99" width="24.544" height="30.41" transform="translate(535.219 657.612) rotate(-89.46)" fill="url(#linear-gradient-3)"/>
    </g>
  </g>
  <g id="Group_122" data-name="Group 122">
    <g id="Group_121" data-name="Group 121" clip-path="url(#clip-path-23)">
      <rect id="Rectangle_100" data-name="Rectangle 100" width="19.124" height="16.871" transform="matrix(0.127, -0.992, 0.992, 0.127, 544.852, 638.494)" fill="url(#linear-gradient-4)"/>
    </g>
  </g>
  <g id="Group_124" data-name="Group 124">
    <g id="Group_123" data-name="Group 123" clip-path="url(#clip-path-24)">
      <rect id="Rectangle_101" data-name="Rectangle 101" width="144.941" height="218.215" transform="translate(451.9 406.582)" fill="#384152"/>
    </g>
  </g>
  <g id="Group_126" data-name="Group 126">
    <g id="Group_125" data-name="Group 125" clip-path="url(#clip-path-25)">
      <rect id="Rectangle_102" data-name="Rectangle 102" width="17.652" height="13.982" transform="translate(525.834 463.056) rotate(-54.502)" fill="url(#linear-gradient-5)"/>
    </g>
  </g>
  <g id="Group_128" data-name="Group 128">
    <g id="Group_127" data-name="Group 127" clip-path="url(#clip-path-26)">
      <rect id="Rectangle_103" data-name="Rectangle 103" width="206.501" height="212.753" transform="matrix(0.814, -0.581, 0.581, 0.814, 365.023, 326.764)" fill="#24e096"/>
    </g>
  </g>
  <g id="Group_130" data-name="Group 130">
    <g id="Group_129" data-name="Group 129" clip-path="url(#clip-path-27)">
      <rect id="Rectangle_104" data-name="Rectangle 104" width="7.886" height="31.463" transform="translate(465.591 323.866)" fill="#1baf75"/>
    </g>
  </g>
  <g id="Group_132" data-name="Group 132">
    <g id="Group_131" data-name="Group 131" clip-path="url(#clip-path-28)">
      <rect id="Rectangle_105" data-name="Rectangle 105" width="58.997" height="62.512" transform="translate(461.237 393.337)" fill="url(#linear-gradient-6)"/>
    </g>
  </g>
  <g id="Group_134" data-name="Group 134">
    <g id="Group_133" data-name="Group 133" clip-path="url(#clip-path-29)">
      <rect id="Rectangle_106" data-name="Rectangle 106" width="110.175" height="102.202" transform="translate(355.691 300.982)" fill="url(#linear-gradient-7)"/>
    </g>
  </g>
  <g id="Group_136" data-name="Group 136">
    <g id="Group_135" data-name="Group 135" clip-path="url(#clip-path-30)">
      <rect id="Rectangle_107" data-name="Rectangle 107" width="57.248" height="57.643" transform="translate(443.282 263.738) rotate(-44.266)" fill="url(#linear-gradient-8)"/>
    </g>
  </g>
  <g id="Group_138" data-name="Group 138">
    <g id="Group_137" data-name="Group 137" clip-path="url(#clip-path-31)">
      <rect id="Rectangle_108" data-name="Rectangle 108" width="57.894" height="60.17" transform="translate(417.458 233.753) rotate(-37.086)" fill="url(#linear-gradient-9)"/>
    </g>
  </g>
  <g id="Group_140" data-name="Group 140">
    <g id="Group_139" data-name="Group 139" clip-path="url(#clip-path-32)">
      <rect id="Rectangle_109" data-name="Rectangle 109" width="59.722" height="74.811" transform="translate(427.581 202.748)" fill="url(#linear-gradient-10)"/>
    </g>
  </g>
  <g id="Group_142" data-name="Group 142">
    <g id="Group_141" data-name="Group 141" clip-path="url(#clip-path-33)">
      <rect id="Rectangle_110" data-name="Rectangle 110" width="23.468" height="23.547" transform="translate(464.656 237.162) rotate(-44.266)" fill="url(#linear-gradient-11)"/>
    </g>
  </g>
  <g id="Group_144" data-name="Group 144">
    <g id="Group_143" data-name="Group 143" clip-path="url(#clip-path-34)">
      <rect id="Rectangle_111" data-name="Rectangle 111" width="43.235" height="81.782" transform="translate(495.987 315.047)" fill="#1baf75"/>
    </g>
  </g>
  <g id="Group_146" data-name="Group 146">
    <g id="Group_145" data-name="Group 145" clip-path="url(#clip-path-2)">
      <path id="Path_258" data-name="Path 258" d="M420.957,467.509c.452,1.535,43.658,134.27,54.612,167.921,1.263,3.878-2.263,7.686-7.108,7.686-3.379,0-6.324-1.907-7.142-4.624L413.357,479.2Z" fill="#7d97f4"/>
      <path id="Path_259" data-name="Path 259" d="M397.3,467.509c-.452,1.535-43.658,134.27-54.612,167.921-1.263,3.878,2.263,7.686,7.108,7.686,3.379,0,6.324-1.907,7.142-4.624L404.9,479.2Z" fill="#7d97f4"/>
      <path id="Path_260" data-name="Path 260" d="M395.5,462.21h26.909v21.61a5.591,5.591,0,0,1-5.557,5.623h-3.691v48.539a4.207,4.207,0,1,1-8.413,0V489.443h-1.873a7.419,7.419,0,0,1-7.375-7.463Z" fill="#7d97f4"/>
      <path id="Path_261" data-name="Path 261" d="M504.616,457.02H316.333c-2.631,0-4.929,1.438-5.587,3.5l-2.629,8.226c-.946,2.96,1.835,5.842,5.621,5.824l193.2-.9c3.745-.018,6.478-2.867,5.563-5.8l-2.287-7.329c-.646-2.071-2.951-3.522-5.6-3.522" fill="#7d97f4"/>
    </g>
  </g>
</svg>
