<svg xmlns="http://www.w3.org/2000/svg" width="24" height="24" viewBox="0 0 24 24">
  <g id="Google_Pay-Logo.wine" transform="translate(0 0)">
    <path id="Path_433" data-name="Path 433" d="M83.754,61.445A14.019,14.019,0,0,0,83.543,59H72v4.622H78.61a5.549,5.549,0,0,1-2.445,3.647v3h3.947A11.618,11.618,0,0,0,83.754,61.445Z" transform="translate(-59.754 -49.171)" fill="#4285f4"/>
    <path id="Path_434" data-name="Path 434" d="M18.606,95.488a11.858,11.858,0,0,0,8.115-2.9l-3.947-3a7.451,7.451,0,0,1-4.168,1.147,7.308,7.308,0,0,1-6.873-4.953H7.667v3.092a12.272,12.272,0,0,0,10.939,6.611Z" transform="translate(-6.363 -71.488)" fill="#34a853"/>
    <path id="Path_435" data-name="Path 435" d="M5.37,47.36a7.054,7.054,0,0,1,0-4.593V39.675H1.3a11.786,11.786,0,0,0,0,10.776Z" transform="translate(0 -33.063)" fill="#fbbc04"/>
    <path id="Path_436" data-name="Path 436" d="M18.607,4.751a6.722,6.722,0,0,1,4.7,1.8L26.8,3.126A11.9,11.9,0,0,0,18.607,0,12.272,12.272,0,0,0,7.668,6.612L11.734,9.7A7.308,7.308,0,0,1,18.607,4.751Z" transform="translate(-6.364 0)" fill="#ea4335"/>
  </g>
</svg>
