<svg xmlns="http://www.w3.org/2000/svg" width="60" height="44" viewBox="0 0 60 44">
  <g id="Layer_2" transform="translate(-3.4 -11.7)">
    <g id="Group_44" data-name="Group 44" transform="translate(3.4 11.7)">
      <path id="Path_35" data-name="Path 35" d="M52.688,11.7l-27,6.878H9.829v3.275H3.4V37.139H9.829v3.275h3.857L16.579,55.7H24.4L21.508,40.415H25.58l26.894,6.878V37.139H56.01V21.854H52.474V11.7ZM9.829,34.956H5.543V24.037H9.829ZM21.937,53.516H18.4l-2.464-13.1h3.536ZM24.83,38.231H11.865V20.762H24.723V38.231ZM50.545,21.854h0V37.139h0v7.315l-23.573-6V20.544l23.573-6Zm3.429,2.184V34.956H52.581V24.037Z" transform="translate(-3.4 -11.7)"/>
      <rect id="Rectangle_43" data-name="Rectangle 43" width="4.8" height="2" transform="translate(55.01 16.778)"/>
      <rect id="Rectangle_44" data-name="Rectangle 44" width="5" height="2" transform="translate(54.619 10.126) rotate(-24.13)"/>
      <rect id="Rectangle_45" data-name="Rectangle 45" width="2" height="5" transform="translate(54.53 25.415) rotate(-65.87)"/>
    </g>
  </g>
</svg>
