<svg id="Group_4499" data-name="Group 4499" xmlns="http://www.w3.org/2000/svg" xmlns:xlink="http://www.w3.org/1999/xlink" width="220" height="168" viewBox="0 0 220 168">
  <defs>
    <clipPath id="clip-path">
      <rect id="Rectangle_3417" data-name="Rectangle 3417" width="220" height="168" fill="none"/>
    </clipPath>
  </defs>
  <g id="Group_4498" data-name="Group 4498" clip-path="url(#clip-path)">
    <path id="Path_4542" data-name="Path 4542" d="M592.573,424.518h0a12.512,12.512,0,0,1-17.688,0l-26.772-26.759A12.5,12.5,0,0,1,565.8,380.08l26.772,26.759a12.5,12.5,0,0,1,0,17.679" transform="translate(-376.237 -260.179)" fill="#24e096"/>
    <path id="Path_4543" data-name="Path 4543" d="M529.557,361.515h0a6.238,6.238,0,0,1-8.82,0l-11.907-11.9a6.235,6.235,0,0,1,8.82-8.815l11.906,11.9a6.231,6.231,0,0,1,0,8.815" transform="translate(-350.361 -234.298)" fill="#c5c5c5"/>
    <path id="Path_4544" data-name="Path 4544" d="M278.659,164.386h47.679a12.046,12.046,0,0,1,12.049,12.043v53.85l-21.608,3.6s-13.278.49-13.964.49-18.374-8.227-18.619-8.472-15.239-20.373-15.239-20.52-3.283-22.577-3.283-22.724S276.8,164.092,276.8,164.092Z" transform="translate(-183.592 -113.42)" fill="#24e096"/>
    <path id="Path_4545" data-name="Path 4545" d="M307.375,218H277.387a6.34,6.34,0,1,1,0-12.681h29.988a6.34,6.34,0,1,1,0,12.681" transform="translate(-187.302 -141.917)" fill="#fff"/>
    <path id="Path_4546" data-name="Path 4546" d="M323.413,279.7H277.387a6.34,6.34,0,1,1,0-12.681h46.027a6.34,6.34,0,1,1,0,12.681" transform="translate(-187.302 -184.561)" fill="#fff"/>
    <path id="Path_4547" data-name="Path 4547" d="M314.124,341.393h-3.992a6.342,6.342,0,0,1-6.344-6.34v-6.34h10.335a6.34,6.34,0,1,1,0,12.681" transform="translate(-209.931 -227.205)" fill="#fff"/>
    <path id="Path_4548" data-name="Path 4548" d="M164.226,235.372H114.187a12.355,12.355,0,0,1-12.358-12.352V196.85A12.355,12.355,0,0,1,114.187,184.5h43.173l-2.777,24.942Z" transform="translate(-70.368 -127.525)" fill="#24e096"/>
    <path id="Path_4549" data-name="Path 4549" d="M222.82,221.943H207.788a3.281,3.281,0,1,1,0-6.563H222.82a3.281,3.281,0,1,1,0,6.563" transform="translate(-141.321 -148.87)" fill="#fff"/>
    <path id="Path_4550" data-name="Path 4550" d="M222.82,262.807H207.788a3.281,3.281,0,1,1,0-6.563H222.82a3.281,3.281,0,1,1,0,6.563" transform="translate(-141.321 -177.115)" fill="#fff"/>
    <path id="Path_4551" data-name="Path 4551" d="M228.123,303.671H207.788a3.281,3.281,0,1,1,0-6.563h20.335a3.281,3.281,0,1,1,0,6.563" transform="translate(-141.321 -205.36)" fill="#fff"/>
    <path id="Path_4552" data-name="Path 4552" d="M141.55,215.085a9.277,9.277,0,1,1-9.277-9.272,9.274,9.274,0,0,1,9.277,9.272" transform="translate(-84.995 -142.257)" fill="#fff"/>
    <path id="Path_4553" data-name="Path 4553" d="M113.889,12.352V37.689a41.285,41.285,0,0,0-13.529,9.032,42.14,42.14,0,0,0-3.476,3.937H12.358A12.356,12.356,0,0,1,0,38.307V12.352A12.356,12.356,0,0,1,12.358,0H101.53a12.356,12.356,0,0,1,12.358,12.352" fill="#ebebeb"/>
    <path id="Path_4554" data-name="Path 4554" d="M39.025,30.587a9.5,9.5,0,1,1-9.5-9.5,9.5,9.5,0,0,1,9.5,9.5" transform="translate(-13.833 -14.576)" fill="#c5c5c5"/>
    <path id="Path_4555" data-name="Path 4555" d="M161.867,37.241h-56.8a3.263,3.263,0,1,1,0-6.527h56.8a3.263,3.263,0,1,1,0,6.527" transform="translate(-70.353 -21.229)" fill="#c5c5c5"/>
    <path id="Path_4556" data-name="Path 4556" d="M174.465,77.986H105.072a3.263,3.263,0,1,1,0-6.527h69.393a3.263,3.263,0,1,1,0,6.527" transform="translate(-70.353 -49.392)" fill="#c5c5c5"/>
    <path id="Path_4557" data-name="Path 4557" d="M146.055,118.732H105.073a3.263,3.263,0,1,1,0-6.527h40.982a3.263,3.263,0,1,1,0,6.527" transform="translate(-70.353 -77.556)" fill="#c5c5c5"/>
    <path id="Path_4558" data-name="Path 4558" d="M101.532,420.348H12.36A12.355,12.355,0,0,1,0,408V382.04A12.355,12.355,0,0,1,12.36,369.688h89.171A12.355,12.355,0,0,1,113.89,382.04V408a12.355,12.355,0,0,1-12.358,12.352" transform="translate(-0.001 -255.527)" fill="#ebebeb"/>
    <path id="Path_4559" data-name="Path 4559" d="M39.025,400.274a9.5,9.5,0,1,1-9.5-9.5,9.5,9.5,0,0,1,9.5,9.5" transform="translate(-13.833 -270.103)" fill="#c5c5c5"/>
    <path id="Path_4560" data-name="Path 4560" d="M161.867,406.928h-56.8a3.263,3.263,0,1,1,0-6.527h56.8a3.263,3.263,0,1,1,0,6.527" transform="translate(-70.353 -276.756)" fill="#c5c5c5"/>
    <path id="Path_4561" data-name="Path 4561" d="M174.465,447.674H105.072a3.263,3.263,0,1,1,0-6.527h69.393a3.263,3.263,0,1,1,0,6.527" transform="translate(-70.353 -304.92)" fill="#c5c5c5"/>
    <path id="Path_4562" data-name="Path 4562" d="M146.055,488.419H105.073a3.263,3.263,0,1,1,0-6.527h40.982a3.263,3.263,0,1,1,0,6.527" transform="translate(-70.353 -333.083)" fill="#c5c5c5"/>
    <path id="Path_4563" data-name="Path 4563" d="M306.253,82.06A50.637,50.637,0,1,0,356.916,132.7,50.622,50.622,0,0,0,306.253,82.06m29.271,79.893a41.389,41.389,0,0,1-62.017-54.575,42.137,42.137,0,0,1,3.476-3.937,41.385,41.385,0,1,1,58.542,58.512" transform="translate(-176.623 -56.72)" fill="#1d2579"/>
  </g>
</svg>
