<svg xmlns="http://www.w3.org/2000/svg" xmlns:xlink="http://www.w3.org/1999/xlink" width="769.211" height="769.772" viewBox="0 0 769.211 769.772">
  <defs>
    <clipPath id="clip-path">
      <path id="Path_2482" data-name="Path 2482" d="M319.051.7C238.9,1.94,155.332,50.763,136.555,133.046c-7.756,33.991,3.975,69.353,2.225,104.173-3.693,73.41-64.173,129.275-99.572,193.693C10.589,483-.821,543.786,4.458,602.823A309.954,309.954,0,0,0,21.753,681c4.552,12.521,11.85,24.187,16.21,36.628,3.943,11.249.211,17.177,11,22.3,12.22,5.806,34.664,4.073,48.216,5.561q23.329,2.557,46.685,4.853,48.32,4.75,96.744,8.379,193.672,14.517,388.138,11.069c35.145-.625,74.776-2.79,101.442-28.748,31.877-31.028,40.784-94.576,42.112-136.456,1.559-49.15-11.751-103.555-36.008-147.044-32.144-57.63-97.931-96.261-112.534-160.611-13.96-61.514,2.844-125.124-29.612-179.211C560.766,62.1,504.9,69.474,450.047,49.6,422.578,39.653,376.4.684,320.885.684q-.916,0-1.834.014" transform="translate(-3.207 -0.684)" fill="none"/>
    </clipPath>
    <clipPath id="clip-path-2">
      <rect id="Rectangle_3203" data-name="Rectangle 3203" width="620.851" height="17.541" fill="none"/>
    </clipPath>
    <clipPath id="clip-path-3">
      <path id="Path_2629" data-name="Path 2629" d="M178.776,687.1v-586.3a16.9,16.9,0,0,1,16.882-16.882H476.681a16.9,16.9,0,0,1,16.88,16.882V687.1a16.9,16.9,0,0,1-16.88,16.88H195.657a16.9,16.9,0,0,1-16.882-16.88M195.657,76.319a24.516,24.516,0,0,0-24.488,24.488V687.1a24.516,24.516,0,0,0,24.488,24.489H476.681A24.515,24.515,0,0,0,501.168,687.1v-586.3a24.515,24.515,0,0,0-24.487-24.488Z" transform="translate(-171.169 -76.319)" fill="none"/>
    </clipPath>
    <clipPath id="clip-path-4">
      <path id="Path_2680" data-name="Path 2680" d="M242.115,254.171a100.175,100.175,0,0,0,156.458,0c-17.75-25.359-46.182-41.792-78.23-41.792s-60.479,16.433-78.228,41.792" transform="translate(-242.115 -212.379)" fill="none"/>
    </clipPath>
    <clipPath id="clip-path-5">
      <rect id="Rectangle_3202" data-name="Rectangle 3202" width="322.392" height="627.665" fill="none"/>
    </clipPath>
  </defs>
  <g id="Sign_In" data-name="Sign In" transform="translate(0 0)">
    <g id="Group_3982" data-name="Group 3982" transform="translate(0 0)" clip-path="url(#clip-path)">
      <path id="Path_2463" data-name="Path 2463" d="M672.109,4.127,400.531,0H672.109Z" transform="translate(98.538 -0.859)" fill="#f0eefa"/>
      <path id="Path_2464" data-name="Path 2464" d="M773.552,27.852,4.386,16.163,4.631,0H501.975L773.552,4.127Z" transform="translate(-2.906 -0.859)" fill="#f0effb"/>
      <path id="Path_2465" data-name="Path 2465" d="M773.626,48.282,4.1,36.587l.36-23.72,769.166,11.69Z" transform="translate(-2.979 2.436)" fill="#f1f0fb"/>
      <path id="Path_2466" data-name="Path 2466" d="M773.7,67.171,3.812,55.471l.36-23.72L773.7,43.446Z" transform="translate(-3.053 7.272)" fill="#f2f1fb"/>
      <path id="Path_2467" data-name="Path 2467" d="M773.773,86.06,3.525,74.355l.36-23.72,769.887,11.7Z" transform="translate(-3.126 12.107)" fill="#f3f2fb"/>
      <path id="Path_2468" data-name="Path 2468" d="M773.846,104.95,3.238,93.238,3.6,69.518,773.846,81.225Z" transform="translate(-3.2 16.943)" fill="#f4f3fc"/>
      <path id="Path_2469" data-name="Path 2469" d="M773.92,123.839,2.951,112.122l.36-23.72L773.92,100.114Z" transform="translate(-3.273 21.779)" fill="#f5f4fc"/>
      <path id="Path_2470" data-name="Path 2470" d="M773.993,142.728,2.664,131.006l.36-23.72L773.993,119Z" transform="translate(-3.347 26.614)" fill="#f6f5fc"/>
      <path id="Path_2471" data-name="Path 2471" d="M774.067,161.617,2.377,149.889l.36-23.72,771.329,11.723Z" transform="translate(-3.42 31.45)" fill="#f7f6fd"/>
      <path id="Path_2472" data-name="Path 2472" d="M774.14,180.507,2.09,168.774l.36-23.72,771.69,11.728Z" transform="translate(-3.494 36.286)" fill="#f8f7fd"/>
      <path id="Path_2473" data-name="Path 2473" d="M774.214,199.4,1.8,187.657l.361-23.719,772.05,11.733Z" transform="translate(-3.567 41.122)" fill="#f9f8fd"/>
      <path id="Path_2474" data-name="Path 2474" d="M774.287,218.285,1.516,206.541l.36-23.72L774.287,194.56Z" transform="translate(-3.641 45.957)" fill="#faf9fd"/>
      <path id="Path_2475" data-name="Path 2475" d="M774.361,237.174,1.229,225.425l.36-23.72L774.361,213.45Z" transform="translate(-3.714 50.793)" fill="#fafafe"/>
      <path id="Path_2476" data-name="Path 2476" d="M774.434,256.064.942,244.308l.36-23.719,773.132,11.749Z" transform="translate(-3.788 55.629)" fill="#fbfbfe"/>
      <path id="Path_2477" data-name="Path 2477" d="M774.508,274.953.655,263.192l.36-23.72,773.492,11.756Z" transform="translate(-3.861 60.464)" fill="#fcfcfe"/>
      <path id="Path_2478" data-name="Path 2478" d="M774.581,293.842.368,282.076l.361-23.72,773.853,11.761Z" transform="translate(-3.935 65.3)" fill="#fdfdfe"/>
      <path id="Path_2479" data-name="Path 2479" d="M774.655,312.731.081,300.959l.36-23.718,774.213,11.766Z" transform="translate(-4.008 70.136)" fill="#fefeff"/>
      <path id="Path_2480" data-name="Path 2480" d="M774.675,331.621,0,319.847V302.814l.1-6.69L774.675,307.9Z" transform="translate(-4.029 74.971)" fill="#fff"/>
      <path id="Path_2481" data-name="Path 2481" d="M774.675,640.262l-.78,51.346H0v-376.6l774.675,11.773Z" transform="translate(-4.029 79.808)" fill="#fff"/>
    </g>
    <g id="Group_4000" data-name="Group 4000" transform="translate(133.955 721.99)" opacity="0.172">
      <g id="Group_3999" data-name="Group 3999" transform="translate(0 0)" clip-path="url(#clip-path-2)">
        <path id="Path_2838" data-name="Path 2838" d="M730.7,584.252c0,4.843-138.982,8.77-310.426,8.77s-310.426-3.927-310.426-8.77,138.982-8.77,310.426-8.77,310.426,3.926,310.426,8.77" transform="translate(-109.853 -575.482)" fill="#6e7684"/>
      </g>
    </g>
    <path id="Path_2483" data-name="Path 2483" d="M111.569,489.72S104.207,496.427,90,512.751q-5.313-6.7-10.241-14l-40.586-60.2,57.067-3.893c70.831-4.832,131.312,26.477,171.073,88.561l40.161,62.708-81-2.922c-51.022-1.838-95.628-23.345-129.692-62.138Z" transform="translate(6.001 110.322)" fill="#f8f4df"/>
    <path id="Path_2484" data-name="Path 2484" d="M277.287,566.253a.45.45,0,0,1-.217-.055L50.848,443.788a.458.458,0,1,1,.436-.806L277.506,565.39a.459.459,0,0,1-.219.863" transform="translate(8.93 112.564)" fill="#fff"/>
    <path id="Path_2485" data-name="Path 2485" d="M204.739,498.824s-5.661,8.195-19.935,24.461q7.352,4.369,15.248,8.274l65.092,32.162-3.785-57.075c-4.7-70.841-43.823-126.585-110.672-157.673l-67.523-31.4,13.741,79.885c8.656,50.313,35.943,91.638,78.947,120.2Z" transform="translate(17.268 80.463)" fill="#cef5e6"/>
    <path id="Path_2486" data-name="Path 2486" d="M251.881,545.509a.456.456,0,0,1-.371-.188L99.908,337.529a.459.459,0,0,1,.741-.541l151.6,207.791a.458.458,0,0,1-.369.73" transform="translate(21.533 85.387)" fill="#fff"/>
    <path id="Path_2487" data-name="Path 2487" d="M434.869,222.083h0a3.922,3.922,0,0,1-3.923-3.923V178.225a3.923,3.923,0,0,1,7.845,0V218.16a3.922,3.922,0,0,1-3.923,3.923" transform="translate(106.326 43.775)" fill="#382a73"/>
    <path id="Path_2488" data-name="Path 2488" d="M434.869,297.772h0a3.922,3.922,0,0,1-3.923-3.923V227.18a3.923,3.923,0,0,1,7.845,0v66.67a3.922,3.922,0,0,1-3.923,3.923" transform="translate(106.326 56.312)" fill="#382a73"/>
    <path id="Path_2489" data-name="Path 2489" d="M475.905,707.012H194.882A20.685,20.685,0,0,1,174.2,686.329v-586.3a20.685,20.685,0,0,1,20.684-20.684H475.905a20.684,20.684,0,0,1,20.684,20.684v586.3a20.684,20.684,0,0,1-20.684,20.684" transform="translate(40.579 19.46)" fill="#e6e8f4"/>
    <g id="Group_3986" data-name="Group 3986" transform="translate(210.973 95.003)" clip-path="url(#clip-path-3)">
      <path id="Path_2490" data-name="Path 2490" d="M177.226,575.705l11.072.4H177.226Z" transform="translate(-169.618 51.562)" fill="#7c6ed8"/>
      <path id="Path_2491" data-name="Path 2491" d="M177.226,568.312,446.834,578H188.3l-11.072-.4Z" transform="translate(-169.618 49.669)" fill="#7c6ed8"/>
      <path id="Path_2492" data-name="Path 2492" d="M177.226,560.92,492.01,572.226v7.663H446.834l-269.608-9.683Z" transform="translate(-169.618 47.776)" fill="#7d6fd9"/>
      <path id="Path_2493" data-name="Path 2493" d="M177.226,553.527,492.01,564.833v9.286L177.226,562.813Z" transform="translate(-169.618 45.883)" fill="#7d70d9"/>
      <path id="Path_2494" data-name="Path 2494" d="M177.226,546.134,492.01,557.44v9.286L177.226,555.42Z" transform="translate(-169.618 43.99)" fill="#7e71da"/>
      <path id="Path_2495" data-name="Path 2495" d="M177.226,538.742,492.01,550.048v9.286L177.226,548.028Z" transform="translate(-169.618 42.097)" fill="#7e72da"/>
      <path id="Path_2496" data-name="Path 2496" d="M177.226,531.349,492.01,542.655v9.286L177.226,540.635Z" transform="translate(-169.618 40.204)" fill="#7f73db"/>
      <path id="Path_2497" data-name="Path 2497" d="M177.226,523.956,492.01,535.262v9.286L177.226,533.242Z" transform="translate(-169.618 38.311)" fill="#7f74db"/>
      <path id="Path_2498" data-name="Path 2498" d="M177.226,516.564,492.01,527.87v9.286L177.226,525.85Z" transform="translate(-169.618 36.417)" fill="#8075dc"/>
      <path id="Path_2499" data-name="Path 2499" d="M177.226,509.171,492.01,520.477v9.286L177.226,518.457Z" transform="translate(-169.618 34.524)" fill="#8076dc"/>
      <path id="Path_2500" data-name="Path 2500" d="M177.226,501.778,492.01,513.084v9.286L177.226,511.064Z" transform="translate(-169.618 32.631)" fill="#8177dd"/>
      <path id="Path_2501" data-name="Path 2501" d="M177.226,494.385,492.01,505.691v9.286L177.226,503.672Z" transform="translate(-169.618 30.738)" fill="#8178dd"/>
      <path id="Path_2502" data-name="Path 2502" d="M177.226,486.993,492.01,498.3v9.286L177.226,496.279Z" transform="translate(-169.618 28.845)" fill="#8279de"/>
      <path id="Path_2503" data-name="Path 2503" d="M177.226,479.6,492.01,490.906v9.286L177.226,488.886Z" transform="translate(-169.618 26.952)" fill="#827ade"/>
      <path id="Path_2504" data-name="Path 2504" d="M177.226,472.207,492.01,483.513V492.8L177.226,481.494Z" transform="translate(-169.618 25.059)" fill="#837bdf"/>
      <path id="Path_2505" data-name="Path 2505" d="M177.226,464.815,492.01,476.121v9.286L177.226,474.1Z" transform="translate(-169.618 23.166)" fill="#847cdf"/>
      <path id="Path_2506" data-name="Path 2506" d="M177.226,457.422,492.01,468.728v9.286L177.226,466.708Z" transform="translate(-169.618 21.273)" fill="#847de0"/>
      <path id="Path_2507" data-name="Path 2507" d="M177.226,450.029,492.01,461.335v9.286L177.226,459.316Z" transform="translate(-169.618 19.38)" fill="#857ee0"/>
      <path id="Path_2508" data-name="Path 2508" d="M177.226,442.637,492.01,453.943v9.286L177.226,451.923Z" transform="translate(-169.618 17.486)" fill="#857fe1"/>
      <path id="Path_2509" data-name="Path 2509" d="M177.226,435.244,492.01,446.55v9.286L177.226,444.53Z" transform="translate(-169.618 15.593)" fill="#8680e1"/>
      <path id="Path_2510" data-name="Path 2510" d="M177.226,427.851,492.01,439.157v9.286L177.226,437.138Z" transform="translate(-169.618 13.7)" fill="#8681e2"/>
      <path id="Path_2511" data-name="Path 2511" d="M177.226,420.459,492.01,431.765v9.286L177.226,429.745Z" transform="translate(-169.618 11.807)" fill="#8782e2"/>
      <path id="Path_2512" data-name="Path 2512" d="M177.226,413.066,492.01,424.372v9.286L177.226,422.352Z" transform="translate(-169.618 9.914)" fill="#8783e3"/>
      <path id="Path_2513" data-name="Path 2513" d="M177.226,405.673,492.01,416.979v9.286L177.226,414.959Z" transform="translate(-169.618 8.021)" fill="#8884e3"/>
      <path id="Path_2514" data-name="Path 2514" d="M177.226,398.281,492.01,409.587v9.286L177.226,407.567Z" transform="translate(-169.618 6.128)" fill="#8885e4"/>
      <path id="Path_2515" data-name="Path 2515" d="M177.226,390.888,492.01,402.194v9.286L177.226,400.174Z" transform="translate(-169.618 4.235)" fill="#8986e4"/>
      <path id="Path_2516" data-name="Path 2516" d="M177.226,383.5,492.01,394.8v9.286L177.226,392.781Z" transform="translate(-169.618 2.342)" fill="#8987e5"/>
      <path id="Path_2517" data-name="Path 2517" d="M177.226,376.1,492.01,387.409v9.286L177.226,385.389Z" transform="translate(-169.618 0.449)" fill="#8a88e5"/>
      <path id="Path_2518" data-name="Path 2518" d="M177.226,368.71,492.01,380.016V389.3L177.226,378Z" transform="translate(-169.618 -1.444)" fill="#8b89e6"/>
      <path id="Path_2519" data-name="Path 2519" d="M177.226,361.317,492.01,372.623v9.286L177.226,370.6Z" transform="translate(-169.618 -3.338)" fill="#8b8ae6"/>
      <path id="Path_2520" data-name="Path 2520" d="M177.226,353.925,492.01,365.231v9.286L177.226,363.211Z" transform="translate(-169.618 -5.231)" fill="#8c8be7"/>
      <path id="Path_2521" data-name="Path 2521" d="M177.226,346.532,492.01,357.838v9.286L177.226,355.818Z" transform="translate(-169.618 -7.124)" fill="#8c8ce7"/>
      <path id="Path_2522" data-name="Path 2522" d="M177.226,339.139,492.01,350.445v9.286L177.226,348.425Z" transform="translate(-169.618 -9.017)" fill="#8d8de8"/>
      <path id="Path_2523" data-name="Path 2523" d="M177.226,331.747,492.01,343.052v9.286L177.226,341.033Z" transform="translate(-169.618 -10.91)" fill="#8d8ee8"/>
      <path id="Path_2524" data-name="Path 2524" d="M177.226,324.354,492.01,335.66v9.286L177.226,333.64Z" transform="translate(-169.618 -12.803)" fill="#8e8fe9"/>
      <path id="Path_2525" data-name="Path 2525" d="M177.226,316.961,492.01,328.267v9.286L177.226,326.247Z" transform="translate(-169.618 -14.696)" fill="#8e90e9"/>
      <path id="Path_2526" data-name="Path 2526" d="M177.226,309.568,492.01,320.874v9.286L177.226,318.855Z" transform="translate(-169.618 -16.589)" fill="#8f91ea"/>
      <path id="Path_2527" data-name="Path 2527" d="M177.226,302.176,492.01,313.482v9.286L177.226,311.462Z" transform="translate(-169.618 -18.482)" fill="#8f92ea"/>
      <path id="Path_2528" data-name="Path 2528" d="M177.226,294.783,492.01,306.089v9.286L177.226,304.069Z" transform="translate(-169.618 -20.375)" fill="#9093eb"/>
      <path id="Path_2529" data-name="Path 2529" d="M177.226,287.39,492.01,298.7v9.286L177.226,296.677Z" transform="translate(-169.618 -22.269)" fill="#9094eb"/>
      <path id="Path_2530" data-name="Path 2530" d="M177.226,280,492.01,291.3v9.286L177.226,289.284Z" transform="translate(-169.618 -24.162)" fill="#9196ec"/>
      <path id="Path_2531" data-name="Path 2531" d="M177.226,272.605,492.01,283.911V293.2L177.226,281.891Z" transform="translate(-169.618 -26.055)" fill="#9297ec"/>
      <path id="Path_2532" data-name="Path 2532" d="M177.226,265.212,492.01,276.518V285.8L177.226,274.5Z" transform="translate(-169.618 -27.948)" fill="#9298ed"/>
      <path id="Path_2533" data-name="Path 2533" d="M177.226,257.82,492.01,269.126v9.286L177.226,267.106Z" transform="translate(-169.618 -29.841)" fill="#9399ed"/>
      <path id="Path_2534" data-name="Path 2534" d="M177.226,250.427,492.01,261.733v9.286L177.226,259.713Z" transform="translate(-169.618 -31.734)" fill="#939aee"/>
      <path id="Path_2535" data-name="Path 2535" d="M177.226,243.034,492.01,254.34v9.286L177.226,252.32Z" transform="translate(-169.618 -33.627)" fill="#949bee"/>
      <path id="Path_2536" data-name="Path 2536" d="M177.226,235.642,492.01,246.948v9.286L177.226,244.928Z" transform="translate(-169.618 -35.52)" fill="#949cef"/>
      <path id="Path_2537" data-name="Path 2537" d="M177.226,228.249,492.01,239.555v9.286L177.226,237.535Z" transform="translate(-169.618 -37.413)" fill="#959def"/>
      <path id="Path_2538" data-name="Path 2538" d="M177.226,220.856,492.01,232.162v9.286L177.226,230.142Z" transform="translate(-169.618 -39.306)" fill="#959ef0"/>
      <path id="Path_2539" data-name="Path 2539" d="M177.226,213.464,492.01,224.77v9.286L177.226,222.75Z" transform="translate(-169.618 -41.199)" fill="#969ff0"/>
      <path id="Path_2540" data-name="Path 2540" d="M177.226,206.071,492.01,217.377v9.286L177.226,215.357Z" transform="translate(-169.618 -43.093)" fill="#96a0f1"/>
      <path id="Path_2541" data-name="Path 2541" d="M177.226,198.678,492.01,209.984v9.286L177.226,207.964Z" transform="translate(-169.618 -44.986)" fill="#97a1f1"/>
      <path id="Path_2542" data-name="Path 2542" d="M177.226,191.286,492.01,202.592v9.286L177.226,200.572Z" transform="translate(-169.618 -46.879)" fill="#97a2f2"/>
      <path id="Path_2543" data-name="Path 2543" d="M177.226,183.893,492.01,195.2v9.286L177.226,193.179Z" transform="translate(-169.618 -48.772)" fill="#98a3f2"/>
      <path id="Path_2544" data-name="Path 2544" d="M177.226,176.5,492.01,187.806v9.286L177.226,185.786Z" transform="translate(-169.618 -50.665)" fill="#99a4f3"/>
      <path id="Path_2545" data-name="Path 2545" d="M177.226,169.107,492.01,180.413V189.7L177.226,178.394Z" transform="translate(-169.618 -52.558)" fill="#99a5f3"/>
      <path id="Path_2546" data-name="Path 2546" d="M177.226,161.715,492.01,173.021v9.286L177.226,171Z" transform="translate(-169.618 -54.451)" fill="#9aa6f4"/>
      <path id="Path_2547" data-name="Path 2547" d="M177.226,154.322,492.01,165.628v9.286L177.226,163.608Z" transform="translate(-169.618 -56.344)" fill="#9aa7f4"/>
      <path id="Path_2548" data-name="Path 2548" d="M177.226,146.93,492.01,158.235v9.286L177.226,156.216Z" transform="translate(-169.618 -58.237)" fill="#9ba8f5"/>
      <path id="Path_2549" data-name="Path 2549" d="M177.226,139.537,492.01,150.843v9.286L177.226,148.823Z" transform="translate(-169.618 -60.13)" fill="#9ba9f5"/>
      <path id="Path_2550" data-name="Path 2550" d="M177.226,132.144,492.01,143.45v9.286L177.226,141.43Z" transform="translate(-169.618 -62.023)" fill="#9caaf6"/>
      <path id="Path_2551" data-name="Path 2551" d="M177.226,124.751,492.01,136.057v9.286L177.226,134.038Z" transform="translate(-169.618 -63.917)" fill="#9cabf6"/>
      <path id="Path_2552" data-name="Path 2552" d="M177.226,117.359,492.01,128.665v9.286L177.226,126.645Z" transform="translate(-169.618 -65.81)" fill="#9dacf7"/>
      <path id="Path_2553" data-name="Path 2553" d="M177.226,109.966,492.01,121.272v9.286L177.226,119.252Z" transform="translate(-169.618 -67.703)" fill="#9dadf7"/>
      <path id="Path_2554" data-name="Path 2554" d="M177.226,102.573,492.01,113.879v9.286L177.226,111.86Z" transform="translate(-169.618 -69.596)" fill="#9eaef8"/>
      <path id="Path_2555" data-name="Path 2555" d="M177.226,95.181,492.01,106.487v9.286L177.226,104.467Z" transform="translate(-169.618 -71.489)" fill="#9eaff8"/>
      <path id="Path_2556" data-name="Path 2556" d="M177.226,87.788,492.01,99.094v9.286L177.226,97.074Z" transform="translate(-169.618 -73.382)" fill="#9fb0f9"/>
      <path id="Path_2557" data-name="Path 2557" d="M246.46,82.375l245.55,8.819v9.286L177.226,89.174v-6.8Z" transform="translate(-169.618 -74.768)" fill="#a0b1f9"/>
      <path id="Path_2558" data-name="Path 2558" d="M477.9,91.194l-245.55-8.819H477.9Z" transform="translate(-155.503 -74.768)" fill="#a0b2fa"/>
      <path id="Path_2559" data-name="Path 2559" d="M171.169,575.488l230.485,8.279H171.169Z" transform="translate(-171.169 51.506)" fill="#7c6ed8"/>
      <path id="Path_2560" data-name="Path 2560" d="M171.169,568.095l330,11.852v5.711H401.654l-230.485-8.278Z" transform="translate(-171.169 49.613)" fill="#7c6ed8"/>
      <path id="Path_2561" data-name="Path 2561" d="M171.169,560.7l330,11.852v9.286l-330-11.852Z" transform="translate(-171.169 47.72)" fill="#7d6fd9"/>
      <path id="Path_2562" data-name="Path 2562" d="M171.169,553.31l330,11.852v9.286l-330-11.852Z" transform="translate(-171.169 45.827)" fill="#7d70d9"/>
      <path id="Path_2563" data-name="Path 2563" d="M171.169,545.917l330,11.852v9.286l-330-11.852Z" transform="translate(-171.169 43.934)" fill="#7e71da"/>
      <path id="Path_2564" data-name="Path 2564" d="M171.169,538.524l330,11.852v9.286l-330-11.852Z" transform="translate(-171.169 42.041)" fill="#7e72da"/>
      <path id="Path_2565" data-name="Path 2565" d="M171.169,531.131l330,11.852v9.286l-330-11.852Z" transform="translate(-171.169 40.148)" fill="#7f73db"/>
      <path id="Path_2566" data-name="Path 2566" d="M171.169,523.739l330,11.852v9.286l-330-11.852Z" transform="translate(-171.169 38.255)" fill="#7f74db"/>
      <path id="Path_2567" data-name="Path 2567" d="M171.169,516.346l330,11.852v9.286l-330-11.852Z" transform="translate(-171.169 36.362)" fill="#8075dc"/>
      <path id="Path_2568" data-name="Path 2568" d="M171.169,508.953l330,11.852v9.286l-330-11.852Z" transform="translate(-171.169 34.469)" fill="#8076dc"/>
      <path id="Path_2569" data-name="Path 2569" d="M171.169,501.561l330,11.852V522.7l-330-11.852Z" transform="translate(-171.169 32.576)" fill="#8177dd"/>
      <path id="Path_2570" data-name="Path 2570" d="M171.169,494.168l330,11.852v9.286l-330-11.852Z" transform="translate(-171.169 30.682)" fill="#8178dd"/>
      <path id="Path_2571" data-name="Path 2571" d="M171.169,486.775l330,11.852v9.286l-330-11.852Z" transform="translate(-171.169 28.789)" fill="#8279de"/>
      <path id="Path_2572" data-name="Path 2572" d="M171.169,479.383l330,11.852v9.286l-330-11.852Z" transform="translate(-171.169 26.896)" fill="#827ade"/>
      <path id="Path_2573" data-name="Path 2573" d="M171.169,471.99l330,11.852v9.286l-330-11.852Z" transform="translate(-171.169 25.003)" fill="#837bdf"/>
      <path id="Path_2574" data-name="Path 2574" d="M171.169,464.6l330,11.852v9.286l-330-11.852Z" transform="translate(-171.169 23.11)" fill="#847cdf"/>
      <path id="Path_2575" data-name="Path 2575" d="M171.169,457.2l330,11.852v9.286l-330-11.852Z" transform="translate(-171.169 21.217)" fill="#847de0"/>
      <path id="Path_2576" data-name="Path 2576" d="M171.169,449.812l330,11.852v9.286l-330-11.852Z" transform="translate(-171.169 19.324)" fill="#857ee0"/>
      <path id="Path_2577" data-name="Path 2577" d="M171.169,442.419l330,11.852v9.286l-330-11.852Z" transform="translate(-171.169 17.431)" fill="#857fe1"/>
      <path id="Path_2578" data-name="Path 2578" d="M171.169,435.027l330,11.852v9.286l-330-11.852Z" transform="translate(-171.169 15.538)" fill="#8680e1"/>
      <path id="Path_2579" data-name="Path 2579" d="M171.169,427.634l330,11.852v9.286l-330-11.852Z" transform="translate(-171.169 13.645)" fill="#8681e2"/>
      <path id="Path_2580" data-name="Path 2580" d="M171.169,420.241l330,11.852v9.286l-330-11.852Z" transform="translate(-171.169 11.752)" fill="#8782e2"/>
      <path id="Path_2581" data-name="Path 2581" d="M171.169,412.849l330,11.852v9.286l-330-11.852Z" transform="translate(-171.169 9.858)" fill="#8783e3"/>
      <path id="Path_2582" data-name="Path 2582" d="M171.169,405.456l330,11.852v9.286l-330-11.852Z" transform="translate(-171.169 7.965)" fill="#8884e3"/>
      <path id="Path_2583" data-name="Path 2583" d="M171.169,398.063l330,11.852V419.2l-330-11.852Z" transform="translate(-171.169 6.072)" fill="#8885e4"/>
      <path id="Path_2584" data-name="Path 2584" d="M171.169,390.67l330,11.852v9.286l-330-11.852Z" transform="translate(-171.169 4.179)" fill="#8986e4"/>
      <path id="Path_2585" data-name="Path 2585" d="M171.169,383.278l330,11.852v9.286l-330-11.852Z" transform="translate(-171.169 2.286)" fill="#8987e5"/>
      <path id="Path_2586" data-name="Path 2586" d="M171.169,375.885l330,11.852v9.286l-330-11.852Z" transform="translate(-171.169 0.393)" fill="#8a88e5"/>
      <path id="Path_2587" data-name="Path 2587" d="M171.169,368.492l330,11.852v9.286l-330-11.852Z" transform="translate(-171.169 -1.5)" fill="#8b89e6"/>
      <path id="Path_2588" data-name="Path 2588" d="M171.169,361.1l330,11.852v9.286l-330-11.852Z" transform="translate(-171.169 -3.393)" fill="#8b8ae6"/>
      <path id="Path_2589" data-name="Path 2589" d="M171.169,353.707l330,11.852v9.286l-330-11.852Z" transform="translate(-171.169 -5.286)" fill="#8c8be7"/>
      <path id="Path_2590" data-name="Path 2590" d="M171.169,346.314l330,11.852v9.286l-330-11.852Z" transform="translate(-171.169 -7.179)" fill="#8c8ce7"/>
      <path id="Path_2591" data-name="Path 2591" d="M171.169,338.922l330,11.852v9.286l-330-11.852Z" transform="translate(-171.169 -9.073)" fill="#8d8de8"/>
      <path id="Path_2592" data-name="Path 2592" d="M171.169,331.529l330,11.852v9.286l-330-11.852Z" transform="translate(-171.169 -10.966)" fill="#8d8ee8"/>
      <path id="Path_2593" data-name="Path 2593" d="M171.169,324.136l330,11.852v9.286l-330-11.852Z" transform="translate(-171.169 -12.859)" fill="#8e8fe9"/>
      <path id="Path_2594" data-name="Path 2594" d="M171.169,316.744l330,11.852v9.286l-330-11.852Z" transform="translate(-171.169 -14.752)" fill="#8e90e9"/>
      <path id="Path_2595" data-name="Path 2595" d="M171.169,309.351l330,11.852v9.286l-330-11.852Z" transform="translate(-171.169 -16.645)" fill="#8f91ea"/>
      <path id="Path_2596" data-name="Path 2596" d="M171.169,301.958l330,11.852V323.1l-330-11.852Z" transform="translate(-171.169 -18.538)" fill="#8f92ea"/>
      <path id="Path_2597" data-name="Path 2597" d="M171.169,294.566l330,11.852V315.7l-330-11.852Z" transform="translate(-171.169 -20.431)" fill="#9093eb"/>
      <path id="Path_2598" data-name="Path 2598" d="M171.169,287.173l330,11.852v9.286l-330-11.852Z" transform="translate(-171.169 -22.324)" fill="#9094eb"/>
      <path id="Path_2599" data-name="Path 2599" d="M171.169,279.78l330,11.852v9.286l-330-11.852Z" transform="translate(-171.169 -24.217)" fill="#9196ec"/>
      <path id="Path_2600" data-name="Path 2600" d="M171.169,272.387l330,11.852v9.286l-330-11.852Z" transform="translate(-171.169 -26.11)" fill="#9297ec"/>
      <path id="Path_2601" data-name="Path 2601" d="M171.169,264.995l330,11.852v9.286l-330-11.852Z" transform="translate(-171.169 -28.003)" fill="#9298ed"/>
      <path id="Path_2602" data-name="Path 2602" d="M171.169,257.6l330,11.852v9.286l-330-11.852Z" transform="translate(-171.169 -29.897)" fill="#9399ed"/>
      <path id="Path_2603" data-name="Path 2603" d="M171.169,250.21l330,11.852v9.286l-330-11.852Z" transform="translate(-171.169 -31.79)" fill="#939aee"/>
      <path id="Path_2604" data-name="Path 2604" d="M171.169,242.817l330,11.852v9.286l-330-11.852Z" transform="translate(-171.169 -33.683)" fill="#949bee"/>
      <path id="Path_2605" data-name="Path 2605" d="M171.169,235.424l330,11.852v9.286l-330-11.852Z" transform="translate(-171.169 -35.576)" fill="#949cef"/>
      <path id="Path_2606" data-name="Path 2606" d="M171.169,228.031l330,11.852v9.286l-330-11.852Z" transform="translate(-171.169 -37.469)" fill="#959def"/>
      <path id="Path_2607" data-name="Path 2607" d="M171.169,220.639l330,11.852v9.286l-330-11.852Z" transform="translate(-171.169 -39.362)" fill="#959ef0"/>
      <path id="Path_2608" data-name="Path 2608" d="M171.169,213.246l330,11.852v9.286l-330-11.852Z" transform="translate(-171.169 -41.255)" fill="#969ff0"/>
      <path id="Path_2609" data-name="Path 2609" d="M171.169,205.853l330,11.852v9.286l-330-11.852Z" transform="translate(-171.169 -43.148)" fill="#96a0f1"/>
      <path id="Path_2610" data-name="Path 2610" d="M171.169,198.461l330,11.852V219.6l-330-11.852Z" transform="translate(-171.169 -45.041)" fill="#97a1f1"/>
      <path id="Path_2611" data-name="Path 2611" d="M171.169,191.068l330,11.852v9.286l-330-11.852Z" transform="translate(-171.169 -46.934)" fill="#97a2f2"/>
      <path id="Path_2612" data-name="Path 2612" d="M171.169,183.675l330,11.852v9.286l-330-11.852Z" transform="translate(-171.169 -48.828)" fill="#98a3f2"/>
      <path id="Path_2613" data-name="Path 2613" d="M171.169,176.283l330,11.852v9.286l-330-11.852Z" transform="translate(-171.169 -50.721)" fill="#99a4f3"/>
      <path id="Path_2614" data-name="Path 2614" d="M171.169,168.89l330,11.852v9.286l-330-11.852Z" transform="translate(-171.169 -52.614)" fill="#99a5f3"/>
      <path id="Path_2615" data-name="Path 2615" d="M171.169,161.5l330,11.852v9.286l-330-11.852Z" transform="translate(-171.169 -54.507)" fill="#9aa6f4"/>
      <path id="Path_2616" data-name="Path 2616" d="M171.169,154.1l330,11.852v9.286l-330-11.852Z" transform="translate(-171.169 -56.4)" fill="#9aa7f4"/>
      <path id="Path_2617" data-name="Path 2617" d="M171.169,146.712l330,11.852v9.286L171.169,156Z" transform="translate(-171.169 -58.293)" fill="#9ba8f5"/>
      <path id="Path_2618" data-name="Path 2618" d="M171.169,139.319l330,11.852v9.286l-330-11.852Z" transform="translate(-171.169 -60.186)" fill="#9ba9f5"/>
      <path id="Path_2619" data-name="Path 2619" d="M171.169,131.927l330,11.852v9.286l-330-11.852Z" transform="translate(-171.169 -62.079)" fill="#9caaf6"/>
      <path id="Path_2620" data-name="Path 2620" d="M171.169,124.534l330,11.852v9.286l-330-11.852Z" transform="translate(-171.169 -63.972)" fill="#9cabf6"/>
      <path id="Path_2621" data-name="Path 2621" d="M171.169,117.141l330,11.852v9.286l-330-11.852Z" transform="translate(-171.169 -65.865)" fill="#9dacf7"/>
      <path id="Path_2622" data-name="Path 2622" d="M171.169,109.749l330,11.852v9.286l-330-11.852Z" transform="translate(-171.169 -67.758)" fill="#9dadf7"/>
      <path id="Path_2623" data-name="Path 2623" d="M171.169,102.356l330,11.852v9.286l-330-11.852Z" transform="translate(-171.169 -69.652)" fill="#9eaef8"/>
      <path id="Path_2624" data-name="Path 2624" d="M171.169,94.963l330,11.852V116.1l-330-11.852Z" transform="translate(-171.169 -71.545)" fill="#9eaff8"/>
      <path id="Path_2625" data-name="Path 2625" d="M171.169,87.57l330,11.852v9.286l-330-11.852Z" transform="translate(-171.169 -73.438)" fill="#9fb0f9"/>
      <path id="Path_2626" data-name="Path 2626" d="M171.169,80.178l330,11.852v9.286l-330-11.852Z" transform="translate(-171.169 -75.331)" fill="#a0b1f9"/>
      <path id="Path_2627" data-name="Path 2627" d="M294.741,76.319l206.427,7.415v9.285l-330-11.852V76.319Z" transform="translate(-171.169 -76.319)" fill="#a0b2fa"/>
      <path id="Path_2628" data-name="Path 2628" d="M475.976,83.733,269.548,76.318H475.976Z" transform="translate(-145.976 -76.319)" fill="#a1b3fa"/>
    </g>
    <g id="Group_4048" data-name="Group 4048" transform="translate(210.741 94.772)">
      <path id="Path_2630" data-name="Path 2630" d="M476.727,711.868H195.7a24.747,24.747,0,0,1-24.72-24.718v-586.3A24.747,24.747,0,0,1,195.7,76.135H476.727a24.747,24.747,0,0,1,24.72,24.718v586.3a24.747,24.747,0,0,1-24.72,24.718M195.7,76.6a24.284,24.284,0,0,0-24.257,24.257v586.3A24.285,24.285,0,0,0,195.7,711.407H476.727a24.285,24.285,0,0,0,24.257-24.257v-586.3A24.284,24.284,0,0,0,476.727,76.6ZM476.727,704.261H195.7a17.131,17.131,0,0,1-17.112-17.112v-586.3A17.13,17.13,0,0,1,195.7,83.742H476.727a17.13,17.13,0,0,1,17.112,17.112v586.3a17.131,17.131,0,0,1-17.112,17.112M195.7,84.2a16.67,16.67,0,0,0-16.651,16.651v586.3A16.67,16.67,0,0,0,195.7,703.8H476.727a16.67,16.67,0,0,0,16.651-16.651v-586.3A16.67,16.67,0,0,0,476.727,84.2Z" transform="translate(-170.985 -76.135)" fill="#efefef"/>
      <path id="Path_2631" data-name="Path 2631" d="M424.984,216.263A100.167,100.167,0,1,1,324.817,116.1,100.167,100.167,0,0,1,424.984,216.263" transform="translate(-157.243 -65.902)" fill="#fff"/>
    </g>
    <g id="Group_3990" data-name="Group 3990" transform="translate(300.086 265.905)" clip-path="url(#clip-path-4)">
      <path id="Union_6" data-name="Union 6" d="M-7325.63-339.542l194.8-3.344v2.043l-194.8,3.344Zm0-2.043,194.8-3.344v2.043l-194.8,3.344Zm0-2.043,194.8-3.344v2.043l-194.8,3.344Zm0-2.043,194.8-3.344v2.043l-194.8,3.344Zm0-2.043,194.8-3.344v2.043l-194.8,3.342Zm0-2.043,194.8-3.344v2.043l-194.8,3.342Zm0-2.043,194.8-3.344v2.043l-194.8,3.342Zm0-2.044,194.8-3.342v2.043l-194.8,3.342Zm0-2.043,194.8-3.342v2.043l-194.8,3.342Zm0-2.043,194.8-3.342v2.043l-194.8,3.342Zm0-2.043,194.8-3.342v2.043l-194.8,3.342Zm0-2.043,194.8-3.342v2.041l-194.8,3.344Zm0-2.043,194.8-3.342v2.041l-194.8,3.344Zm0-2.043,194.8-3.342v2.041l-194.8,3.344Zm0-2.043,194.8-3.344v2.043l-194.8,3.344Zm0-2.043,194.8-3.344v2.043l-194.8,3.344Zm0-2.043,194.8-3.344v2.043l-194.8,3.344Zm0-2.043,194.8-3.344v2.043l-194.8,3.344Zm0-2.043,194.8-3.344v2.043l-194.8,3.344Zm0-2.043,194.8-3.344v2.043l-194.8,3.344Zm0-2.043,194.8-3.344v2.043l-194.8,3.344Zm0-2.043,194.8-3.344v2.043l-194.8,3.344Zm0-2.043,194.8-3.344v2.043l-194.8,3.344Zm0-2.043,194.8-3.344v2.043l-194.8,3.344Zm0-2.043,194.8-3.344v2.043l-194.8,3.344Zm0-2.043,194.8-3.344v2.043l-194.8,3.344Zm0-2.043,194.8-3.344v2.043l-194.8,3.344Zm0-2.043,194.8-3.344v2.043l-194.8,3.344Zm0-2.043,194.8-3.344v2.043l-194.8,3.344Zm0-2.043,194.8-3.344v2.043l-194.8,3.342Zm0-2.043,194.8-3.344v2.043l-194.8,3.342Zm0-2.044,194.8-3.342v2.043l-194.8,3.342Zm0-2.043,194.8-3.342v2.043l-194.8,3.342Zm0-2.043,194.8-3.342v2.043l-194.8,3.342Zm0-2.043,194.8-3.342v2.043l-194.8,3.342Zm0-2.043,194.8-3.342v2.043l-194.8,3.342Zm0-2.043,194.8-3.342v2.043l-194.8,3.342Zm0-2.043,194.8-3.342v2.041l-194.8,3.344Zm0-2.043,194.8-3.342v2.041l-194.8,3.344Zm0-2.041v-2.044l11.079-.189h118.878l.107,0h64.731v.932l-194.8,3.344Zm0-2.234h11.079l-11.079.189Z" transform="translate(7306.461 421.438)" fill="#c6d1e3"/>
    </g>
    <path id="Path_2712" data-name="Path 2712" d="M279.774,189.233a29.773,29.773,0,1,0,29.773-29.773,29.772,29.772,0,0,0-29.773,29.773" transform="translate(67.615 39.975)" fill="#c6d1e3"/>
    <g id="Group_4054" data-name="Group 4054" transform="translate(312.907 523.964)">
      <path id="Union_4" data-name="Union 4" d="M-7211.42-635.754l-1.4-43.742h2.748v23.78l-.382-11.89.38,11.89v19.962Zm-1.985,0-1.4-43.742h1.983l1.4,43.742Zm-1.983,0-1.4-43.742h1.983l1.4,43.742Zm-1.983,0h-1.985l-1.4-43.742h3.969l1.4,43.742Zm-3.969,0h-3.969l-1.4-43.742h5.952l1.4,43.742Zm-5.953,0-1.4-43.742h1.983l1.4,43.742Zm-1.983,0-1.4-43.742h1.985l1.4,43.742Zm-1.985,0-1.4-43.742h1.984l1.4,43.742Zm-1.983,0-1.4-43.742h1.983l1.4,43.742Zm-1.984,0h-1.985l-1.4-43.742h3.969l1.4,43.742Zm-3.969,0-1.4-43.742h1.983l1.4,43.742Zm-1.983,0h-1.985l-1.4-43.742h3.967l1.4,43.742Zm-3.969,0-1.4-43.742h1.984l1.4,43.742Zm-1.985,0-1.4-43.742h1.983l1.4,43.742Zm-1.984,0-1.4-43.742h1.983l1.4,43.742Zm-1.983,0-1.4-43.742h1.983l1.4,43.742Zm-1.983,0h-1.985l-1.4-43.742h3.969l1.4,43.742Zm-3.969,0-1.4-43.742h1.983l1.4,43.742Zm-1.983,0h-1.985l-1.4-43.742h3.969l1.4,43.742Zm-3.969,0h-1.985l-1.4-43.742h3.967l1.4,43.742Zm-3.969,0-1.4-43.742h1.984l1.4,43.742Zm-1.984,0-1.4-43.742h1.984l1.4,43.742Zm-1.985,0-1.4-43.742h1.983l1.4,43.742Zm-1.983,0-1.4-43.742h1.983l1.4,43.742Zm-1.983,0-1.4-43.742h1.983l1.4,43.742Zm-1.983,0h-1.985l-1.4-43.742h3.969l1.4,43.742Zm-3.969,0h-3.969l-1.4-43.742h5.952l1.4,43.742Zm-5.952,0h-1.985l-1.4-43.742h3.969l1.4,43.742Zm-3.969,0-1.4-43.742h1.984l1.4,43.742Zm-1.984,0-1.4-43.742h1.985l1.4,43.742Zm-1.985,0-1.4-43.742h1.983l1.4,43.742Zm-1.983,0-1.4-43.742h1.983l1.4,43.742Zm-1.983,0h-3.969l-1.4-43.742h5.951l1.4,43.742Zm-5.953,0h-1.985l-1.4-43.742h3.967l1.4,43.742Zm-3.969,0-1.4-43.742h1.983l1.4,43.742Zm-1.983,0h-1.985l-1.4-43.742h3.969l1.4,43.742Zm-3.969,0L-7316-679.5h1.983l1.4,43.742Zm-1.984,0h-1.985l-1.4-43.742H-7316l1.4,43.742Zm-3.969,0-1.4-43.742h1.983l1.4,43.742Zm-1.983,0h-1.985l-1.4-43.742h3.969l1.4,43.742Zm-3.969,0h-3.969l-1.4-43.742h5.952l1.4,43.742Zm-5.953,0-1.4-43.742h1.983l1.4,43.742Zm-1.985,0v0h-4.011V-679.5h4.593l1.4,43.742Z" transform="translate(7338.451 679.497)" fill="#1d2579"/>
    </g>
    <path id="Path_2778" data-name="Path 2778" d="M464.484,358.139H200.449A11.079,11.079,0,0,1,189.37,347.06V321.21a11.078,11.078,0,0,1,11.079-11.077H464.484a11.078,11.078,0,0,1,11.079,11.077v25.85a11.079,11.079,0,0,1-11.079,11.079" transform="translate(44.464 78.559)" fill="#fff"/>
    <path id="Path_2779" data-name="Path 2779" d="M464.484,407.383H200.449A11.079,11.079,0,0,1,189.37,396.3V370.456a11.078,11.078,0,0,1,11.079-11.079H464.484a11.078,11.078,0,0,1,11.079,11.079V396.3a11.079,11.079,0,0,1-11.079,11.079" transform="translate(44.464 91.169)" fill="#fff"/>
    <path id="Path_2780" data-name="Path 2780" d="M215.892,380.172a6.463,6.463,0,1,1-6.463-6.462,6.463,6.463,0,0,1,6.463,6.462" transform="translate(47.946 94.839)" fill="#5c49d8"/>
    <path id="Path_2781" data-name="Path 2781" d="M235,380.172a6.463,6.463,0,1,1-6.462-6.462A6.462,6.462,0,0,1,235,380.172" transform="translate(52.84 94.839)" fill="#5c49d8"/>
    <path id="Path_2782" data-name="Path 2782" d="M254.112,380.172a6.463,6.463,0,1,1-6.462-6.462,6.462,6.462,0,0,1,6.462,6.462" transform="translate(57.734 94.839)" fill="#5c49d8"/>
    <path id="Path_2783" data-name="Path 2783" d="M273.221,380.172a6.463,6.463,0,1,1-6.462-6.462,6.463,6.463,0,0,1,6.462,6.462" transform="translate(62.627 94.839)" fill="#5c49d8"/>
    <path id="Path_2784" data-name="Path 2784" d="M292.331,380.172a6.463,6.463,0,1,1-6.463-6.462,6.463,6.463,0,0,1,6.463,6.462" transform="translate(67.521 94.839)" fill="#5c49d8"/>
    <path id="Path_2785" data-name="Path 2785" d="M311.441,380.172a6.463,6.463,0,1,1-6.464-6.462,6.463,6.463,0,0,1,6.464,6.462" transform="translate(72.414 94.839)" fill="#5c49d8"/>
    <path id="Path_2786" data-name="Path 2786" d="M330.55,380.172a6.463,6.463,0,1,1-6.463-6.462,6.463,6.463,0,0,1,6.463,6.462" transform="translate(77.308 94.839)" fill="#5c49d8"/>
    <path id="Path_2787" data-name="Path 2787" d="M326.215,335.911H208.506a5.539,5.539,0,1,1,0-11.079H326.215a5.539,5.539,0,0,1,0,11.079" transform="translate(47.946 82.323)" fill="#5c49d8"/>
    <path id="Path_2788" data-name="Path 2788" d="M386.78,335.911H321.7a5.539,5.539,0,0,1,0-11.079H386.78a5.539,5.539,0,0,1,0,11.079" transform="translate(76.931 82.323)" fill="#5c49d8"/>
    <g id="Group_3997" data-name="Group 3997" transform="translate(214.776 98.807)" opacity="0.2">
      <g id="Group_3996" data-name="Group 3996" transform="translate(0 0)" clip-path="url(#clip-path-5)">
        <path id="Path_2789" data-name="Path 2789" d="M496.589,238.422,174.2,560.814v84.778a20.685,20.685,0,0,0,20.685,20.685H280.2L496.589,449.888Z" transform="translate(-174.197 -38.612)" fill="#fff"/>
        <path id="Path_2790" data-name="Path 2790" d="M496.589,238.422,174.2,560.814v84.778a20.685,20.685,0,0,0,20.685,20.685H280.2L496.589,449.888Z" transform="translate(-174.197 -38.612)" fill="#fff"/>
        <path id="Path_2791" data-name="Path 2791" d="M475.905,79.347H352.533L174.2,257.682V419.337L496.385,97.149a20.685,20.685,0,0,0-20.48-17.8" transform="translate(-174.197 -79.347)" fill="#fff"/>
        <path id="Path_2792" data-name="Path 2792" d="M475.905,79.347H352.533L174.2,257.682V419.337L496.385,97.149a20.685,20.685,0,0,0-20.48-17.8" transform="translate(-174.197 -79.347)" fill="#fff"/>
      </g>
    </g>
    <path id="Path_2793" data-name="Path 2793" d="M366.258,529.706c3.614.985,18.288-.7,34.283-4.278,6.726,7.819,22.529,19.772,56.6,20.637,50.944,1.3,47.56-3.239,47.56-3.239,7-3.969,17.245-25.419,26.518-48.167,6.809,6.245,25.588,23.127,32.03,25.423,7.923,2.831,23.21,3.4,28.868-7.922s-3.96-30-3.96-30-11.891-30-27.174-56.04c-6.025-10.272-10.561-15.7-13.837-18.507a10.834,10.834,0,0,0-4.786-3.124l-39.432-13.376L440.234,396a10.719,10.719,0,0,0-6.368,2.745h0c-3.916,1.207-10.646,5.214-21.75,16.61-21.512,22.079-49.251,69.629-53.211,87.179s1.129,25.471,7.358,27.169" transform="translate(87.519 99.295)" fill="#fff"/>
    <path id="Path_2794" data-name="Path 2794" d="M478.345,518.017a.412.412,0,0,1-.323-.668c5.621-7.084,13.017-21.824,21.981-43.812l.222-.549.437.4c5.387,4.94,18.812,17.037,27.119,22.655a.412.412,0,1,1-.461.683c-8.136-5.5-21.12-17.153-26.778-22.331-8.893,21.756-16.252,36.378-21.875,43.465a.409.409,0,0,1-.323.156" transform="translate(118.359 120.262)" fill="#5c49d8"/>
    <path id="Path_2795" data-name="Path 2795" d="M556.306,513.475a.411.411,0,0,1-.33-.657,16.184,16.184,0,0,0,1.452-2.373c5.5-11-3.864-29.447-3.959-29.632-.134-.337-12.072-30.309-27.164-56.02-5.184-8.838-9.81-15.029-13.748-18.4a10.514,10.514,0,0,0-4.644-3.045l-16.085-5.456a.412.412,0,0,1,.265-.781l16.079,5.455a11.222,11.222,0,0,1,4.96,3.241c3.968,3.393,8.653,9.654,13.885,18.571,15.123,25.766,27.084,55.795,27.2,56.1.38.735,9.634,18.964,3.947,30.342a16.869,16.869,0,0,1-1.527,2.495.41.41,0,0,1-.332.167" transform="translate(121.845 100.826)" fill="#171c25"/>
    <path id="Path_2796" data-name="Path 2796" d="M507.733,557.212c1.7,0,7.926-1.7,33.4-3.4s40.757,2.265,40.757,2.265,8.491,3.4,8.491,11.888-5.095,14.152-10.756,15.284-36.794,3.4-45.852,2.265-28.3-5.661-33.4-10.756,7.359-17.549,7.359-17.549" transform="translate(123.792 140.852)" fill="#382a73"/>
    <path id="Path_2797" data-name="Path 2797" d="M492.624,473.607H470.547a3.936,3.936,0,0,1-3.977-5.424l15.5-49.91a8.182,8.182,0,0,1,7.346-5.425h22.077a3.936,3.936,0,0,1,3.977,5.425l-15.5,49.91a8.181,8.181,0,0,1-7.346,5.424" transform="translate(115.386 104.862)" fill="#382a73"/>
    <path id="Path_2798" data-name="Path 2798" d="M420.806,513.537l67.93,3.4s47.55-20.944,63.4-23.775,26.04-1.7,33.4,9.059,4.528,30-8.492,41.889-43.587,26.6-43.587,26.6-46.985,18.68-63.967,22.077-19.247,3.4-19.247,3.4-5.661,2.265-7.926-24.907S431,553.164,431,553.164s-10.189-41.325-10.189-39.627" transform="translate(103.73 125.088)" fill="#24e096"/>
    <path id="Path_2799" data-name="Path 2799" d="M427.051,596.605s-35.663-14.152-49.248-37.361-14.152-39.06-10.191-50.381,26.04-14.152,26.04-14.152,10.756-1.7,34.531,9.058,91.7,50.946,91.7,50.946l11.887,7.359s3.4,7.925-5.095,19.247-18.114,10.189-18.114,10.189l-50.381-15.85-10.756,5.661-6.793,13.586Z" transform="translate(89.56 125.8)" fill="#24e096"/>
    <path id="Path_2800" data-name="Path 2800" d="M450.022,562.119s-11.322-3.433-30.568-3.433-36.229,1.144-40.758,5.149-7.358,10.869-4.528,16.017,8.408,11.3,26.04,11.442c21.554.17,29.436.572,45.852-5.721s13.021-17.733,13.021-17.733Z" transform="translate(91.497 142.207)" fill="#382a73"/>
    <path id="Path_2801" data-name="Path 2801" d="M441.938,558.236l-12.266,3.02s-2.452,7.17,1.51,12.831a65.384,65.384,0,0,0,6.228,7.925l16.982-3.963a45.273,45.273,0,0,1-9.624-10.189c-4.528-6.793-2.83-9.623-2.83-9.623" transform="translate(105.808 142.092)" fill="#fcc5b6"/>
    <path id="Path_2802" data-name="Path 2802" d="M497.685,546.068l25.473,13.586s4.529,6.793,1.7,12.454a24.655,24.655,0,0,1-6.793,8.491l-28.3-7.359s4.529-2.263,7.926-11.888,0-15.284,0-15.284" transform="translate(121.387 138.976)" fill="#fcc5b6"/>
    <path id="Path_2803" data-name="Path 2803" d="M517.091,456.532l-4.174-20.65-13.3-6.3-17.049-.305a1.34,1.34,0,0,0-1.226,1.934,5.824,5.824,0,0,0,5.234,3.239l7.711-.021,8.374,2.663-12.547,1.674-7.906,4.876a4.024,4.024,0,0,0-1.455,5.284l1.907,3.654.672,5.837,2.914,3.2a6.868,6.868,0,0,0,6.108,2.17l2.073-.314,4.552,6.636c3.028,2.262,9.251,6.145,12.876,5.076a9.756,9.756,0,0,0,6.583-12.165Z" transform="translate(118.964 109.07)" fill="#fcb19c"/>
    <path id="Path_2804" data-name="Path 2804" d="M448.791,458.171l10.08-12.811,8.829-7.494a9.22,9.22,0,0,1,2.1-1.34l10.43-4.81.023.188a10.048,10.048,0,0,1-4.477,9.31l-6.641,4.562,15.451-2.933,11.864-5.9a5.535,5.535,0,0,1,6.115.2,7.293,7.293,0,0,1,2.834,5.983l-.082,4.973a12.488,12.488,0,0,1-4.328,9.034L489.6,467.192a12.685,12.685,0,0,1-4.357,2.523l-31.467,9.236a6.581,6.581,0,0,1-7.151-2.41,12.64,12.64,0,0,1-.422-14.387Z" transform="translate(109.711 109.693)" fill="#fcc5b6"/>
    <path id="Path_2805" data-name="Path 2805" d="M469.151,450.614a.412.412,0,0,1-.1-.813l9.1-2.182a18.777,18.777,0,0,0,5.623-2.325l11.9-8.265a.412.412,0,0,1,.47.677l-11.921,8.276a19.583,19.583,0,0,1-5.886,2.438l-9.1,2.182a.43.43,0,0,1-.1.011" transform="translate(116.004 111.035)" fill="#1a1a1a"/>
    <path id="Path_2806" data-name="Path 2806" d="M470.932,456.62a.412.412,0,0,1-.113-.809l7.913-2.271a18.754,18.754,0,0,0,4.742-2.14l13.087-9.6a.412.412,0,1,1,.487.664l-13.111,9.616a19.642,19.642,0,0,1-4.975,2.252l-7.917,2.271a.389.389,0,0,1-.113.016" transform="translate(116.46 112.255)" fill="#1a1a1a"/>
    <path id="Path_2807" data-name="Path 2807" d="M472.391,462.183a.412.412,0,0,1-.133-.8l7.49-2.572a18.74,18.74,0,0,0,5.7-3.243l11.587-9.61a.412.412,0,1,1,.526.634l-11.587,9.61a19.6,19.6,0,0,1-5.958,3.388l-7.5,2.574a.412.412,0,0,1-.133.023" transform="translate(116.834 113.315)" fill="#1a1a1a"/>
    <path id="Path_2808" data-name="Path 2808" d="M455.462,381.776l-6.557,17.071a18.02,18.02,0,0,0-1.1,8.357,17.039,17.039,0,0,0,18.38,15.18,9.673,9.673,0,0,0,7.894-5.429l12.929-26.734Z" transform="translate(110.619 96.905)" fill="#fcc5b6"/>
    <path id="Path_2809" data-name="Path 2809" d="M490.084,577.176a.392.392,0,0,1-.078-.008c-26.356-5.047-95.643-39.316-96.34-39.661a.412.412,0,0,1,.367-.739c.7.344,69.881,34.563,96.128,39.59a.412.412,0,0,1-.077.816" transform="translate(96.721 136.584)" fill="#fff"/>
    <path id="Path_2810" data-name="Path 2810" d="M509.479,553.752a.415.415,0,0,1-.2-.05l-76.421-41.89a.412.412,0,0,1,.4-.722l76.42,41.889a.412.412,0,0,1-.2.774" transform="translate(106.762 130.006)" fill="#fff"/>
    <path id="Path_2811" data-name="Path 2811" d="M475.872,537.545a.412.412,0,0,1-.177-.784l46.418-22.078a.412.412,0,0,1,.354.745L476.049,537.5a.407.407,0,0,1-.177.04" transform="translate(117.725 130.929)" fill="#fff"/>
    <path id="Path_2812" data-name="Path 2812" d="M461.451,521.82a.412.412,0,0,1-.138-.8c7.808-2.789,19.641-8.972,19.759-9.034a.412.412,0,0,1,.383.73c-.119.063-12,6.273-19.866,9.08a.405.405,0,0,1-.138.024" transform="translate(114.032 130.237)" fill="#fff"/>
    <path id="Path_2813" data-name="Path 2813" d="M378.076,467.542a.412.412,0,0,1-.084-.815c.4-.084,40.458-8.489,62.28-12.456l12.454-2.263,8.565-.008a.413.413,0,0,1,0,.825H452.8l-12.38,2.257c-21.809,3.965-61.855,12.367-62.257,12.451a.494.494,0,0,1-.085.009" transform="translate(92.682 114.887)" fill="#1a1a1a"/>
    <path id="Path_2814" data-name="Path 2814" d="M405.567,499.49a.412.412,0,0,1-.1-.813c20.047-4.876,47.215-18.25,49.064-19.167l5.6-8.4a.412.412,0,0,1,.686.457L455.1,480.15l-.1.049c-.284.142-28.586,14.231-49.336,19.279a.433.433,0,0,1-.1.011" transform="translate(99.722 119.734)" fill="#1a1a1a"/>
    <path id="Path_2815" data-name="Path 2815" d="M403.314,463.98a.412.412,0,0,1-.324-.667l18.68-23.775a.412.412,0,0,1,.648.509l-18.68,23.775a.41.41,0,0,1-.324.158" transform="translate(99.145 111.656)" fill="#1a1a1a"/>
    <path id="Path_2816" data-name="Path 2816" d="M543.059,464.816a.407.407,0,0,1-.224-.067,87.349,87.349,0,0,0-21.345-10.123h-9.565a.412.412,0,1,1,0-.824l9.733.015a87.846,87.846,0,0,1,21.625,10.241.412.412,0,0,1-.225.757" transform="translate(126.958 115.349)" fill="#1a1a1a"/>
    <path id="Path_2817" data-name="Path 2817" d="M500.554,476.534a.413.413,0,0,1-.406-.344L498.45,466a.412.412,0,1,1,.813-.134l1.7,10.189a.409.409,0,0,1-.407.48" transform="translate(123.611 118.349)" fill="#1a1a1a"/>
    <path id="Path_2818" data-name="Path 2818" d="M497.958,382.737a38.393,38.393,0,0,0,3.2-8.658l1.225-4.359a14.7,14.7,0,0,0,.805-5.248,6.528,6.528,0,0,0-2.755-4.818,5.3,5.3,0,0,0-5.443-.285,9.528,9.528,0,0,0-2.952,3.237l-3.425,5.186a20.767,20.767,0,0,0-2.884,5.5c-.945,3.26-.235,6.764.793,10a9.846,9.846,0,0,0,1.829,3.684c3.511,3.924,7.858-1.147,9.605-4.233" transform="translate(120.242 91.008)" fill="#171c25"/>
    <path id="Path_2819" data-name="Path 2819" d="M510.607,356.482c-2.09-4.425-6.969-6.813-11.7-8.023A42.146,42.146,0,0,0,470.46,351.3a23.347,23.347,0,0,0-8.251,6.126c-4.185,5.218-4.764,12.479-7.859,18.375a5.728,5.728,0,0,0-2.405-.917,7.427,7.427,0,0,0-6.277,2.5,11.507,11.507,0,0,0-2.709,6.37,10.485,10.485,0,0,0,1.777,7.756c2.315,2.943,6.346,3.778,10.034,4.416-1.556,6.621.78,13.724,4.484,19.22a28.324,28.324,0,0,0,18.492,12.033c6.934,1.363,13.139-1.431,17.232-7.1,3.592-4.977,5.155-11.092,6.645-17.047q4.831-19.3,9.661-38.611a12.189,12.189,0,0,0-.676-7.941" transform="translate(109.376 88.046)" fill="#fcc5b6"/>
    <path id="Path_2820" data-name="Path 2820" d="M469.254,371.234a9.88,9.88,0,0,0-2.4-.075c-.708.1-1.249.393-1.19.82.078.566,1.127,1.148,2.152,1.557a35.361,35.361,0,0,0,7.812,1.88,7.531,7.531,0,0,0,3.477,0c.677-.3.682-.914.082-1.466a5.034,5.034,0,0,0-1.784-.8,42.1,42.1,0,0,0-8.152-1.918" transform="translate(115.217 94.174)" fill="#171c25"/>
    <path id="Path_2821" data-name="Path 2821" d="M492.705,375.513a9.383,9.383,0,0,1,2.167,1.041c.585.42.928.951.677,1.329-.333.5-1.535.565-2.636.477a33.4,33.4,0,0,1-7.82-1.844A7.186,7.186,0,0,1,482,374.9c-.466-.594-.183-1.183.608-1.427a4.758,4.758,0,0,1,1.956.074,39.731,39.731,0,0,1,8.141,1.965" transform="translate(119.343 94.758)" fill="#171c25"/>
    <path id="Path_2822" data-name="Path 2822" d="M470.384,380.344c-.3,1.275-1.171,2.162-1.937,1.98s-1.139-1.364-.835-2.64,1.171-2.16,1.937-1.978,1.138,1.364.835,2.639" transform="translate(115.689 95.856)" fill="#1a1a1a"/>
    <path id="Path_2823" data-name="Path 2823" d="M486.233,384.267c-.3,1.275-1.171,2.162-1.936,1.98s-1.139-1.364-.835-2.64,1.171-2.16,1.936-1.978,1.139,1.364.835,2.639" transform="translate(119.748 96.861)" fill="#1a1a1a"/>
    <path id="Path_2824" data-name="Path 2824" d="M476.94,399.379a.5.5,0,0,1-.085-.008,12.955,12.955,0,0,1-9.478-7.937.453.453,0,0,1,.847-.324,12.031,12.031,0,0,0,8.8,7.371.453.453,0,0,1-.084.9" transform="translate(115.648 99.221)"/>
    <path id="Path_2825" data-name="Path 2825" d="M472.255,415.662a.5.5,0,0,1-.1-.011,26.616,26.616,0,0,1-20.641-25.959.453.453,0,0,1,.907,0,25.71,25.71,0,0,0,19.942,25.076.453.453,0,0,1-.1.894" transform="translate(111.592 98.816)"/>
    <path id="Path_2826" data-name="Path 2826" d="M453.726,383.912a1.416,1.416,0,0,0,.678-.268c2.31-1.638,4.253-4.59,6.068-6.743,2.032-2.41,5.283-2.623,7.325-5.024,1.019-1.2.785-4.616,1.844-5.777.457-.5,2.317-3.08,2.963-3.08,8.118.8,15.044,4.341,22.912,6.488,3.932,1.071,8.543,1.019,12.88,1.751,1.9.322,4.117,1.544,5.564.1a26.015,26.015,0,0,0,3.355-3.978,14.061,14.061,0,0,0,2.213-5.23c.872-4.787-1.321-9.541-3.457-13.914-1.662-3.4-5.446-7.8-8.855-9.448-3.188-1.541-7.05-.986-10.315-2.36-2.425-1.021-4.408-3.062-6.983-3.6-2.807-.59-5.611.727-8.309,1.7a36.385,36.385,0,0,1-13.486,2.127,60.328,60.328,0,0,0-7.765-.2,9.672,9.672,0,0,0-6.822,3.257c-1.924,2.481-1.887,5.921-2.992,8.86-1.2,3.187-3.708,5.69-5.357,8.669-1.927,3.477-.354,8-1.02,11.916a11.321,11.321,0,0,0-.058,5.279c.725,2.3,2.806,3.874,4.769,5.283,1.359.976.452,1.438,1.813,2.414.931.668,1.969,1.889,3.033,1.78" transform="translate(109.622 84.333)" fill="#171c25"/>
    <path id="Path_2827" data-name="Path 2827" d="M480.4,381.414a7.389,7.389,0,0,0,.83,1.84,19.934,19.934,0,0,1,1.932,5.1,2.5,2.5,0,0,1,.056,1.23,2.364,2.364,0,0,1-1.132,1.232,17.584,17.584,0,0,1-4.806,1.781,1.49,1.49,0,0,1-1.262-.054,1.223,1.223,0,0,1-.3-1.21c.316-2.007,1.315-3.854,1.677-5.853.3-1.64.156-3.345.482-4.98a3.112,3.112,0,0,1,.618-1.46,1.553,1.553,0,0,1,1.488-.54.936.936,0,0,1,.74,1.168,2.534,2.534,0,0,0-.329,1.741" transform="translate(117.783 96.058)" fill="#fcc5b6"/>
    <path id="Path_2828" data-name="Path 2828" d="M476.826,393.669a.453.453,0,0,1-.186-.867l4.706-2.111a2.329,2.329,0,0,0,1.22-2.956l-2.447-6.383a3.186,3.186,0,0,1,.372-2.988.453.453,0,0,1,.741.523,2.287,2.287,0,0,0-.268,2.142l2.448,6.383a3.236,3.236,0,0,1-1.694,4.107l-4.706,2.11a.443.443,0,0,1-.186.04" transform="translate(117.959 95.982)"/>
    <path id="Path_2829" data-name="Path 2829" d="M454.285,370.127a4.236,4.236,0,0,1,3.051,4.979,5.237,5.237,0,0,1-1.2,3.184,4.656,4.656,0,0,1-2.834,1.3,7.15,7.15,0,0,1-5.233-1.442,3.586,3.586,0,0,1-1.418-2.025,4.78,4.78,0,0,1,.461-2.569c.337-.889-1.1-2.118-.762-3.007.219-.574,2.163-1.011,2.839-1.171a9.57,9.57,0,0,1,5.1.749" transform="translate(110.257 93.699)" fill="#fcc5b6"/>
    <path id="Path_2830" data-name="Path 2830" d="M447.927,380.49a.442.442,0,0,1-.121-.016.453.453,0,0,1-.317-.556,8.169,8.169,0,0,1,5.779-5.665.454.454,0,0,1,.224.879,7.246,7.246,0,0,0-5.129,5.026.453.453,0,0,1-.437.333" transform="translate(110.559 94.975)"/>
    <path id="Path_2831" data-name="Path 2831" d="M465.559,425.916a22.744,22.744,0,0,1-10.835-2.682,23.361,23.361,0,0,1-11.92-20.4.431.431,0,0,1,.418-.406.412.412,0,0,1,.406.418,21.995,21.995,0,0,0,34.242,18.609.412.412,0,0,1,.458.685,23.018,23.018,0,0,1-12.769,3.778" transform="translate(109.362 102.193)" fill="#1a1a1a"/>
    <path id="Path_2832" data-name="Path 2832" d="M378.862,515.894a.422.422,0,0,1-.195-.049.412.412,0,0,1-.168-.558,89.745,89.745,0,0,1,9.21-13.855.412.412,0,1,1,.642.518,88.912,88.912,0,0,0-9.124,13.726.413.413,0,0,1-.364.217" transform="translate(92.883 127.507)" fill="#fff"/>
    <path id="Path_2833" data-name="Path 2833" d="M554.816,505.267a.388.388,0,0,1-.139-.025l-9.769-3.517a.412.412,0,1,1,.279-.775l9.769,3.517a.412.412,0,0,1-.139.8" transform="translate(135.439 127.416)" fill="#fff"/>
    <path id="Path_2834" data-name="Path 2834" d="M403.45,577.053a.485.485,0,0,1-.482-.469l-.275-9.068a.485.485,0,0,1,.436-.5l28.027-2.747a.491.491,0,0,1,.529.433.484.484,0,0,1-.435.528l-27.578,2.7.247,8.129,27.539-1.08a.483.483,0,1,1,.039.965l-28.028,1.1h-.019" transform="translate(99.091 143.638)" fill="#fff"/>
    <path id="Path_2835" data-name="Path 2835" d="M382.56,583.644a.485.485,0,0,1-.417-.237,18.458,18.458,0,0,1,.987-19.742.483.483,0,0,1,.78.57,17.461,17.461,0,0,0-.935,18.68.485.485,0,0,1-.416.729" transform="translate(93.216 143.432)" fill="#fff"/>
    <path id="Path_2836" data-name="Path 2836" d="M542.652,570.769c-6.9,0-14.8-.068-18.643-.343a.484.484,0,1,1,.068-.965c6.975.5,27.367.314,30.8.28l-.25-9.215-31.137-.541a.483.483,0,0,1,.008-.966h.009l31.6.549a.483.483,0,0,1,.474.471l.275,10.167a.48.48,0,0,1-.477.495c-.117,0-5.944.068-12.722.068" transform="translate(129.902 142.293)" fill="#fff"/>
    <path id="Path_2837" data-name="Path 2837" d="M564.855,575.147a.484.484,0,0,1-.4-.751,13.472,13.472,0,0,0-.176-14.871.483.483,0,1,1,.793-.554,14.461,14.461,0,0,1,.188,15.96.484.484,0,0,1-.4.216" transform="translate(140.447 142.227)" fill="#fff"/>
  </g>
</svg>
