<svg xmlns="http://www.w3.org/2000/svg" xmlns:xlink="http://www.w3.org/1999/xlink" width="676" height="609.958" viewBox="0 0 676 609.958">
  <defs>
    <clipPath id="clip-path">
      <rect id="Rectangle_1857" data-name="Rectangle 1857" width="18.076" height="13.524" fill="none"/>
    </clipPath>
    <clipPath id="clip-path-2">
      <rect id="Rectangle_1858" data-name="Rectangle 1858" width="16.763" height="35.292" fill="none"/>
    </clipPath>
    <clipPath id="clip-path-3">
      <rect id="Rectangle_1859" data-name="Rectangle 1859" width="16.239" height="9.908" fill="none"/>
    </clipPath>
    <clipPath id="clip-path-4">
      <rect id="Rectangle_1860" data-name="Rectangle 1860" width="7.184" height="5.113" fill="none"/>
    </clipPath>
    <clipPath id="clip-path-5">
      <rect id="Rectangle_1861" data-name="Rectangle 1861" width="32.952" height="3.349" fill="none"/>
    </clipPath>
    <clipPath id="clip-path-6">
      <rect id="Rectangle_1862" data-name="Rectangle 1862" width="6.876" height="6.634" fill="none"/>
    </clipPath>
    <clipPath id="clip-path-7">
      <rect id="Rectangle_1863" data-name="Rectangle 1863" width="32.214" height="7.625" fill="none"/>
    </clipPath>
    <clipPath id="clip-path-8">
      <rect id="Rectangle_1865" data-name="Rectangle 1865" width="278.195" height="111.686" fill="none"/>
    </clipPath>
  </defs>
  <g id="Group_488" data-name="Group 488" transform="translate(0 -0.042)">
    <rect id="Rectangle_1854" data-name="Rectangle 1854" width="129.619" height="192.221" transform="matrix(0.328, -0.945, 0.945, 0.328, 58.116, 347.082)" fill="#f5f9fb"/>
    <g id="Group_486" data-name="Group 486">
      <path id="Path_908" data-name="Path 908" d="M278.349,278.874a13.3,13.3,0,0,1-2.257,1.043l-6.595,2.677-24.389,9.552-80.892,30.976-.667.255-.382-.606-.922-1.464c-18.165-29-34.6-55.248-46.621-74.438-5.82-9.449-10.563-17.15-13.959-22.664L97.945,218a13.763,13.763,0,0,1-1.2-2.228,13.757,13.757,0,0,1,1.494,2.04l4,6.035,14.428,22.368,47.054,74.165.922,1.463-1.046-.351L244.674,291l24.586-9.034,6.709-2.372a13.363,13.363,0,0,1,2.381-.717" transform="translate(3.87 8.811)" fill="#e0e0e0"/>
      <path id="Path_909" data-name="Path 909" d="M55.881,335.518c-.246-.415,19.236-12.462,43.509-26.9s44.158-25.82,44.4-25.4-19.232,12.459-43.514,26.907-44.154,25.817-44.4,25.4" transform="translate(2.235 11.565)" fill="#e0e0e0"/>
      <path id="Path_910" data-name="Path 910" d="M198.969,301.89c.456-.156,8.166,21.2,17.22,47.7s16.025,48.114,15.57,48.27-8.165-21.2-17.221-47.7-16.024-48.11-15.569-48.266" transform="translate(7.958 12.328)" fill="#e0e0e0"/>
      <rect id="Rectangle_1855" data-name="Rectangle 1855" width="182.242" height="122.918" transform="translate(456.816 223.238) rotate(-9.617)" fill="#f5f9fb"/>
      <path id="Path_911" data-name="Path 911" d="M618.939,185.2a12.639,12.639,0,0,1-1.4,1.9l-4.261,5.235-15.915,19.074L544.256,274.09l-.437.515-.594-.329-1.434-.8L469.112,232.9l-21.933-12.462-5.922-3.462a12.987,12.987,0,0,1-2.011-1.305,13.028,13.028,0,0,1,2.173,1.014l6.073,3.19,22.187,12,72.914,40.153,1.434.8-1.03.186,53.482-62.359c6.8-7.814,12.345-14.177,16.313-18.735l4.495-5.036a12.651,12.651,0,0,1,1.651-1.682" transform="translate(17.57 7.563)" fill="#ebebeb"/>
      <path id="Path_912" data-name="Path 912" d="M458.98,334.222c-.394-.232,10.305-19.14,23.9-42.226s24.93-41.621,25.323-41.389-10.3,19.135-23.9,42.229-24.928,41.618-25.321,41.386" transform="translate(18.358 10.234)" fill="#ebebeb"/>
      <path id="Path_913" data-name="Path 913" d="M563.492,239.419c.308-.338,16.453,13.892,36.056,31.78s35.253,32.67,34.945,33.008-16.45-13.89-36.06-31.784-35.249-32.666-34.941-33" transform="translate(22.539 9.777)" fill="#ebebeb"/>
      <rect id="Rectangle_1856" data-name="Rectangle 1856" width="88.475" height="131.215" transform="matrix(0.366, -0.931, 0.931, 0.366, 424.493, 82.38)" fill="#f5f9fb"/>
      <path id="Path_914" data-name="Path 914" d="M561.414,49.158a9.106,9.106,0,0,1-1.568.649l-4.571,1.643-16.9,5.84L482.348,76.185l-.462.155-.243-.424-.59-1.024c-11.59-20.283-22.077-38.638-29.745-52.058l-8.9-15.845-2.366-4.337a9.47,9.47,0,0,1-.755-1.553,9.386,9.386,0,0,1,.963,1.433l2.559,4.226,9.225,15.655L482.086,74.3l.589,1.023-.7-.267L538.111,56.5l17.019-5.483,4.642-1.433a9.169,9.169,0,0,1,1.643-.423" transform="translate(17.571 0.045)" fill="#e0e0e0"/>
      <path id="Path_915" data-name="Path 915" d="M408.168,81.553c-.157-.289,13.464-7.969,30.418-17.149s30.832-16.391,30.988-16.1-13.461,7.966-30.421,17.15-30.829,16.389-30.985,16.1" transform="translate(16.327 1.972)" fill="#e0e0e0"/>
      <path id="Path_916" data-name="Path 916" d="M506.635,62.661c.315-.094,4.985,14.687,10.43,33.01s9.6,33.26,9.288,33.354-4.985-14.684-10.431-33.013-9.6-33.257-9.287-33.35" transform="translate(20.265 2.559)" fill="#e0e0e0"/>
      <path id="Path_917" data-name="Path 917" d="M676,585.171c0,.17-151.34.307-337.983.307C151.308,585.478,0,585.341,0,585.171s151.308-.307,338.017-.307c186.644,0,337.983.137,337.983.307" transform="translate(0 23.884)" fill="#dbdee5"/>
      <path id="Path_918" data-name="Path 918" d="M32.716,277.449,49.6,271.463l-7.247-9.685a36.157,36.157,0,0,1-.519-6.482,9.792,9.792,0,0,1,.56-3.28,14.96,14.96,0,0,1,1.759-3.755,1.287,1.287,0,0,0-1.143-2.148c-1.12.3-3.4,2.984-4.4,6.973s-3.736-1.88-4.768-4-4.536-8.532-5.44-8.731c-1.324-.291-1.88,1.074-.8,3.168,1.094,2.12,3.88,8.6,2.735,9.095-1.128.484-6.24-10.384-6.24-10.384s-.718-2.5-2.06-1.976c-2.421.946,3.863,12.1,4.487,13.146.434.728-.791,1.306-1.216.5-.436-.83-4.846-10.959-7.322-10.02-1.9.72,5.085,9.223,4.833,11.832s-4.64-6.985-6.426-6.223c-.666.284-1.122.589,2.193,5.735a85.706,85.706,0,0,0,5.321,6.954h0Z" transform="translate(0.637 9.808)" fill="#ffbe9d"/>
      <path id="Path_919" data-name="Path 919" d="M183.872,297.421s-8.32-19.461-14.07-28.914c-5.412-8.9-12.58-10.343-16.4-10.612a26.218,26.218,0,0,0-4.866-1l-31.246-.266a29.565,29.565,0,0,0-18.647,6.842C97.2,264.659,86.4,277.189,72.08,295.04L47.014,267.934,32.07,276.778s16.23,56.082,36.6,52.231c12.067-2.282,21.5-10.69,21.5-10.69l15.858-12.792.367,2.119c.321,2.586,1.125,6.764,1.732,9.3,1.917,8.011,2.983,18.564-1.136,25.556,0,0-5.651,4.325-1.155,9.084h58.787s8.328-5.65.726-11.935l-4.764-11.938,3.079-14.564,1.153-5.832,5.17,8.875s10.244,12.9,20.892,11.311c12.8-1.908,20.223-25.243,8.666-56.1l-13.917,4.237Z" transform="translate(1.283 10.48)" fill="#ffd500"/>
      <g id="Group_460" data-name="Group 460" transform="translate(33.353 278.413)" opacity="0.4">
        <g id="Group_459" data-name="Group 459">
          <g id="Group_458" data-name="Group 458" clip-path="url(#clip-path)">
            <path id="Path_920" data-name="Path 920" d="M32.07,276.334l1.476,4.681,16.6-10.138-3.132-3.387Z" transform="translate(-32.07 -267.49)"/>
          </g>
        </g>
      </g>
      <g id="Group_463" data-name="Group 463" transform="translate(107.641 317.687)" opacity="0.2">
        <g id="Group_462" data-name="Group 462">
          <g id="Group_461" data-name="Group 461" clip-path="url(#clip-path-2)">
            <path id="Path_921" data-name="Path 921" d="M104.133,340.515a18.575,18.575,0,0,0,12.38-7.629,19.39,19.39,0,0,0,3.513-14.447c-.287-1.772-.933-3.652-2.452-4.6-1.854-1.163-4.384-.564-6.315-1.594-1.575-.84-2.417-2.565-3.507-3.978s-2.618-3.615-4.253-2.9c0,0,1.974,10.388,2.836,15.012.866,4.656,1.141,11.265-.48,16.126a20.8,20.8,0,0,1-1.722,4.015" transform="translate(-103.501 -305.223)"/>
          </g>
        </g>
      </g>
      <path id="Path_922" data-name="Path 922" d="M68.274,303.111c-.185-.028.112-2.252.872-4.874a29.325,29.325,0,0,1,1.487-4.7c.185.029-.112,2.252-.872,4.875a29.091,29.091,0,0,1-1.487,4.7" transform="translate(2.729 11.987)" fill="#263238"/>
      <path id="Path_923" data-name="Path 923" d="M71.9,300.521c-.173.035-.628-1.5-1.017-3.436s-.565-3.528-.391-3.563.628,1.5,1.017,3.436.564,3.528.391,3.563" transform="translate(2.817 11.986)" fill="#263238"/>
      <path id="Path_924" data-name="Path 924" d="M180.473,234.233l-21.344,34.616,16.8,4.675,18.634-28.759Z" transform="translate(6.365 9.565)" fill="#455a64"/>
      <path id="Path_925" data-name="Path 925" d="M178.692,263.366l.73,5.059,2.976,3.836.3,3.143,10.708-3.26-4.326-15.291a31.606,31.606,0,0,0,.417-6.261l-2.941,3.911-.811-6.374-6.038-4.857a1.464,1.464,0,0,0-1.9,2.218l4.845,4.275.313,5.278-3.5-3.264a2.549,2.549,0,0,0-1.237-.634l-4.869-.974a1.271,1.271,0,0,0-.623,2.461L177.16,254l4.482,4.527-4.378-1.67-5.956.834a1.156,1.156,0,0,0,.224,2.3l3.787-.21,2.224.7-5.123,1.357a1.035,1.035,0,0,0,.35,2.032Z" transform="translate(6.813 9.923)" fill="#ffbe9d"/>
      <g id="Group_466" data-name="Group 466" transform="translate(186.452 281.88)" opacity="0.4">
        <g id="Group_465" data-name="Group 465">
          <g id="Group_464" data-name="Group 464" clip-path="url(#clip-path-3)">
            <path id="Path_926" data-name="Path 926" d="M179.738,275.059l-.457,5.671,16.238-4.483-1.864-5.425Z" transform="translate(-179.281 -270.821)"/>
          </g>
        </g>
      </g>
      <path id="Path_927" data-name="Path 927" d="M159.181,268.9s-1.433-1.951-1.323-2.283,20.313-33.609,20.313-33.609l2.354,1.275Z" transform="translate(6.314 9.515)" fill="#263238"/>
      <path id="Path_928" data-name="Path 928" d="M184.8,242.6a.738.738,0,1,1-.042.045" transform="translate(7.384 9.899)" fill="#263238"/>
      <path id="Path_929" data-name="Path 929" d="M175.455,283.863a2.916,2.916,0,0,1-.616.832,5.423,5.423,0,0,1-2.626,1.367,11.689,11.689,0,0,1-4.686-.005c-1.79-.251-3.854-.768-6.049-.272a16.53,16.53,0,0,0-6.387,3.559c-2.109,1.623-4.335,3.624-7.335,4.569a12.009,12.009,0,0,1-4.722.372,20.471,20.471,0,0,1-4.731-1.315c-3.094-1.217-6.061-2.927-9.311-4.108a18.675,18.675,0,0,0-4.942-1.1,18.389,18.389,0,0,0-4.906.415c-3.193.66-6.187,1.775-9.176,2.407A23.16,23.16,0,0,1,94.2,288.4a23.656,23.656,0,0,1-8.209-7.056,16.664,16.664,0,0,1-1.964-3.466c.075-.041.641,1.275,2.164,3.317a24.11,24.11,0,0,0,8.215,6.8,22.859,22.859,0,0,0,15.439,2.01c2.932-.635,5.917-1.762,9.175-2.446a18.952,18.952,0,0,1,5.07-.436,19.17,19.17,0,0,1,5.12,1.132c3.321,1.209,6.292,2.928,9.326,4.128a20.04,20.04,0,0,0,4.578,1.291,11.435,11.435,0,0,0,4.474-.33c2.836-.87,5.049-2.806,7.179-4.424a16.814,16.814,0,0,1,6.619-3.583c2.333-.49,4.431.084,6.2.361a11.686,11.686,0,0,0,4.575.115,5.509,5.509,0,0,0,2.592-1.218c.494-.444.675-.758.7-.737" transform="translate(3.361 11.348)" fill="#fafafa"/>
      <path id="Path_930" data-name="Path 930" d="M178.382,305.643c-.177.005-.392-2.339-.483-5.235s-.02-5.25.157-5.255.392,2.338.482,5.235.021,5.25-.156,5.255" transform="translate(7.114 12.053)" fill="#263238"/>
      <path id="Path_931" data-name="Path 931" d="M142.988,513.782c.518,2.047,12.546,69.556,12.546,69.556l18.428-1.381-3.369-68.93Z" transform="translate(5.719 20.95)" fill="#ffbe9d"/>
      <path id="Path_932" data-name="Path 932" d="M174.065,580.357l-.058-1.941-19.639.41.119,6.4,1.214.05c5.4.177,27.478.548,31.061-.537,4-1.212-12.7-4.38-12.7-4.38" transform="translate(6.175 23.62)" fill="#e8505b"/>
      <g id="Group_469" data-name="Group 469" transform="translate(160.562 603.471)" opacity="0.3">
        <g id="Group_468" data-name="Group 468">
          <g id="Group_467" data-name="Group 467" clip-path="url(#clip-path-4)">
            <path id="Path_933" data-name="Path 933" d="M161.57,584.892a6.284,6.284,0,0,0-2.584-3.832,6.949,6.949,0,0,0-4.6-1.235l.113,5.083Z" transform="translate(-154.386 -579.794)"/>
          </g>
        </g>
      </g>
      <g id="Group_472" data-name="Group 472" transform="translate(160.66 605.795)" opacity="0.3">
        <g id="Group_471" data-name="Group 471">
          <g id="Group_470" data-name="Group 470" clip-path="url(#clip-path-5)">
            <path id="Path_934" data-name="Path 934" d="M182.222,582.027s5.858,1.453,5.152,2.36-23.029,1.313-32.893.69l.022-.407,26.043-.269s.539-2.309,1.676-2.374" transform="translate(-154.481 -582.027)"/>
          </g>
        </g>
      </g>
      <path id="Path_935" data-name="Path 935" d="M154.207,584.583a2.029,2.029,0,0,0,.337.028l.966.036,3.557.077c3,.046,7.154.058,11.737-.022s8.731-.238,11.73-.389l3.551-.2.964-.071a2.018,2.018,0,0,0,.336-.04,1.972,1.972,0,0,0-.338-.005l-.967.029-3.553.132c-3,.111-7.146.244-11.728.325s-8.728.093-11.731.087l-3.556-.008-.967.005a1.929,1.929,0,0,0-.338.017" transform="translate(6.168 23.848)" fill="#263238"/>
      <path id="Path_936" data-name="Path 936" d="M179.546,584.693a7.124,7.124,0,0,1,.628-1.59,7.619,7.619,0,0,1,1.184-1.287,2.586,2.586,0,0,0-1.388,1.176,2.305,2.305,0,0,0-.423,1.7" transform="translate(7.18 23.759)" fill="#263238"/>
      <path id="Path_937" data-name="Path 937" d="M173.939,582.124c.056.031.324-.286.6-.709s.453-.792.4-.824-.324.286-.6.71-.454.792-.4.823" transform="translate(6.957 23.709)" fill="#263238"/>
      <path id="Path_938" data-name="Path 938" d="M172.4,581.385c.045.045.349-.153.679-.44s.563-.557.518-.6-.348.152-.679.44-.563.557-.518.6" transform="translate(6.896 23.699)" fill="#263238"/>
      <path id="Path_939" data-name="Path 939" d="M171.4,579.717a2.442,2.442,0,0,0,1.022.1,2.476,2.476,0,0,0,1.021-.118,2.445,2.445,0,0,0-1.023-.1,2.471,2.471,0,0,0-1.02.118" transform="translate(6.856 23.669)" fill="#263238"/>
      <path id="Path_940" data-name="Path 940" d="M171.044,578.555a3.068,3.068,0,0,0,2.317.12,6.77,6.77,0,0,0-1.159-.052,6.652,6.652,0,0,0-1.159-.068" transform="translate(6.842 23.625)" fill="#263238"/>
      <path id="Path_941" data-name="Path 941" d="M174.542,580.594a3.882,3.882,0,0,0,1.256-.03,7.957,7.957,0,0,0,1.331-.3,3.8,3.8,0,0,0,.759-.308.638.638,0,0,0,.3-.368.448.448,0,0,0-.2-.464,2.4,2.4,0,0,0-2.835.68,2,2,0,0,0-.392.788c-.046.2-.04.314-.026.315a3.22,3.22,0,0,1,.55-1.007,2.274,2.274,0,0,1,1.059-.668,2.085,2.085,0,0,1,1.5.068c.2.134.13.354-.089.481a3.887,3.887,0,0,1-.7.294,9.211,9.211,0,0,1-1.288.336c-.749.138-1.228.148-1.227.184" transform="translate(6.981 23.641)" fill="#263238"/>
      <path id="Path_942" data-name="Path 942" d="M174.922,580.666a1.09,1.09,0,0,0,.127-.814,1.856,1.856,0,0,0-.363-.848,1.278,1.278,0,0,0-1.06-.577.464.464,0,0,0-.374.546,1.227,1.227,0,0,0,.225.518,3.6,3.6,0,0,0,.609.7,1.836,1.836,0,0,0,.73.461c.021-.029-.255-.206-.609-.569a4.089,4.089,0,0,1-.543-.692c-.177-.244-.3-.686.009-.744a1.139,1.139,0,0,1,.838.481,1.9,1.9,0,0,1,.372.754,4,4,0,0,1,.038.788" transform="translate(6.93 23.621)" fill="#263238"/>
      <path id="Path_943" data-name="Path 943" d="M154.484,579.777c.005.041.558-.059,1.445.021a6.606,6.606,0,0,1,3.178,1.151,5.918,5.918,0,0,1,2.027,2.553c.316.775.357,1.3.4,1.293a.975.975,0,0,0-.007-.367,4.482,4.482,0,0,0-.235-.977,5.648,5.648,0,0,0-2.04-2.676,6.335,6.335,0,0,0-3.31-1.131,5.5,5.5,0,0,0-1.074.045,1.193,1.193,0,0,0-.383.089" transform="translate(6.179 23.67)" fill="#263238"/>
      <path id="Path_944" data-name="Path 944" d="M163.622,582.948a17.244,17.244,0,0,0,5.715-.054c-.008-.064-1.284.032-2.858.045s-2.851-.054-2.857.009" transform="translate(6.545 23.802)" fill="#263238"/>
      <path id="Path_945" data-name="Path 945" d="M159.937,583.007c-.047.046.11.25.246.52s.213.51.281.5.094-.289-.067-.6-.419-.469-.461-.425" transform="translate(6.397 23.808)" fill="#263238"/>
      <path id="Path_946" data-name="Path 946" d="M158.512,581.425c-.046.044.085.231.291.417s.411.3.457.26-.084-.231-.291-.418-.411-.3-.457-.259" transform="translate(6.34 23.743)" fill="#263238"/>
      <path id="Path_947" data-name="Path 947" d="M156.509,580.731c.016.061.275.054.564.144s.5.227.55.185-.119-.29-.478-.4-.656.01-.635.067" transform="translate(6.26 23.711)" fill="#263238"/>
      <path id="Path_948" data-name="Path 948" d="M155.087,580.409c-.023.057.093.149.256.2s.314.054.336,0-.092-.148-.255-.2-.314-.054-.337,0" transform="translate(6.203 23.7)" fill="#263238"/>
      <path id="Path_949" data-name="Path 949" d="M98.205,508.338c-.095,2.11-7.758,67.855-7.758,67.855l18.042,4,16.637-66.975Z" transform="translate(3.618 20.759)" fill="#ffbe9d"/>
      <path id="Path_950" data-name="Path 950" d="M109.354,579.3l.406-1.9-19.172-4.281-1.407,6.243,1.167.337c5.2,1.459,26.557,7.078,30.3,6.877,4.17-.224-11.288-7.278-11.288-7.278" transform="translate(3.567 23.404)" fill="#e8505b"/>
      <g id="Group_475" data-name="Group 475" transform="translate(92.823 597.551)" opacity="0.3">
        <g id="Group_474" data-name="Group 474">
          <g id="Group_473" data-name="Group 473" clip-path="url(#clip-path-6)">
            <path id="Path_951" data-name="Path 951" d="M96.124,580.74a6.286,6.286,0,0,0-1.6-4.337,6.954,6.954,0,0,0-4.174-2.3l-1.1,4.965Z" transform="translate(-89.253 -574.106)"/>
          </g>
        </g>
      </g>
      <g id="Group_478" data-name="Group 478" transform="translate(92.747 602.375)" opacity="0.3">
        <g id="Group_477" data-name="Group 477">
          <g id="Group_476" data-name="Group 476" clip-path="url(#clip-path-7)">
            <path id="Path_952" data-name="Path 952" d="M116.849,582.777s5.344,2.807,4.443,3.519-22.678-4.211-32.112-7.166l.119-.389,25.358,5.943s1.072-2.114,2.192-1.907" transform="translate(-89.18 -578.741)"/>
          </g>
        </g>
      </g>
      <path id="Path_953" data-name="Path 953" d="M89.008,578.665a1.967,1.967,0,0,0,.32.107l.931.265,3.435.923c2.907.76,6.935,1.76,11.406,2.775s8.537,1.849,11.486,2.417l3.5.649.954.161a1.781,1.781,0,0,0,.335.041,1.953,1.953,0,0,0-.328-.084l-.945-.2L116.615,585c-2.94-.607-7-1.466-11.468-2.478s-8.5-1.99-11.414-2.71l-3.452-.855-.941-.226a1.889,1.889,0,0,0-.332-.065" transform="translate(3.56 23.631)" fill="#263238"/>
      <path id="Path_954" data-name="Path 954" d="M113.614,584.809a7.062,7.062,0,0,1,.989-1.395,7.6,7.6,0,0,1,1.455-.969,2.581,2.581,0,0,0-1.628.812,2.3,2.3,0,0,0-.816,1.552" transform="translate(4.544 23.785)" fill="#263238"/>
      <path id="Path_955" data-name="Path 955" d="M108.767,580.987c.047.044.384-.2.752-.545s.63-.661.582-.706-.383.2-.752.546-.629.661-.582.7" transform="translate(4.351 23.674)" fill="#263238"/>
      <path id="Path_956" data-name="Path 956" d="M107.444,579.9c.033.054.375-.066.764-.265s.679-.408.646-.461-.375.065-.764.265-.679.407-.646.461" transform="translate(4.297 23.651)" fill="#263238"/>
      <path id="Path_957" data-name="Path 957" d="M106.862,578.05a4.774,4.774,0,1,0,1.019.128,2.455,2.455,0,0,0-1.019-.128" transform="translate(4.274 23.604)" fill="#263238"/>
      <path id="Path_958" data-name="Path 958" d="M106.792,576.84a3.072,3.072,0,0,0,2.222.668,6.914,6.914,0,0,0-1.114-.327,6.7,6.7,0,0,0-1.109-.341" transform="translate(4.271 23.556)" fill="#263238"/>
      <path id="Path_959" data-name="Path 959" d="M109.719,579.633a3.891,3.891,0,0,0,1.227.27,7.788,7.788,0,0,0,1.364.027,3.8,3.8,0,0,0,.81-.118.637.637,0,0,0,.382-.286.447.447,0,0,0-.084-.5,2.406,2.406,0,0,0-2.915-.016,2.008,2.008,0,0,0-.569.671c-.093.184-.113.3-.1.3a3.2,3.2,0,0,1,.774-.847,2.272,2.272,0,0,1,1.188-.4,2.078,2.078,0,0,1,1.44.423c.164.178.042.374-.2.445a3.87,3.87,0,0,1-.75.119,9.055,9.055,0,0,1-1.329.02c-.761-.045-1.229-.149-1.237-.113" transform="translate(4.389 23.625)" fill="#263238"/>
      <path id="Path_960" data-name="Path 960" d="M110.059,579.811a1.087,1.087,0,0,0,.317-.761,1.839,1.839,0,0,0-.151-.91,1.281,1.281,0,0,0-.891-.813.464.464,0,0,0-.494.442,1.239,1.239,0,0,0,.095.557,3.611,3.611,0,0,0,.426.821,1.841,1.841,0,0,0,.6.621c.028-.023-.2-.26-.457-.7a4.157,4.157,0,0,1-.362-.8c-.114-.28-.134-.739.185-.721.313.042.563.4.7.667a1.852,1.852,0,0,1,.182.82,3.878,3.878,0,0,1-.15.774" transform="translate(4.354 23.576)" fill="#263238"/>
      <path id="Path_961" data-name="Path 961" d="M90.417,574.081c-.005.041.557.075,1.4.364a6.612,6.612,0,0,1,2.813,1.876,5.923,5.923,0,0,1,1.362,2.963c.123.828.037,1.346.081,1.35a.963.963,0,0,0,.08-.358,4.5,4.5,0,0,0,0-1.005,5.661,5.661,0,0,0-1.346-3.086,6.347,6.347,0,0,0-2.945-1.887,5.54,5.54,0,0,0-1.055-.212,1.185,1.185,0,0,0-.393,0" transform="translate(3.617 23.443)" fill="#263238"/>
      <path id="Path_962" data-name="Path 962" d="M98.537,579.337a17.255,17.255,0,0,0,5.563,1.309c.007-.063-1.253-.275-2.785-.637s-2.757-.733-2.778-.672" transform="translate(3.941 23.658)" fill="#263238"/>
      <path id="Path_963" data-name="Path 963" d="M94.945,578.52c-.056.033.048.269.115.564s.086.546.153.557.16-.258.078-.6-.3-.556-.346-.522" transform="translate(3.797 23.625)" fill="#263238"/>
      <path id="Path_964" data-name="Path 964" d="M93.938,576.645c-.055.031.027.245.183.475s.328.393.382.361-.027-.244-.183-.475-.327-.392-.382-.361" transform="translate(3.757 23.548)" fill="#263238"/>
      <path id="Path_965" data-name="Path 965" d="M92.157,575.493c0,.064.254.119.514.274s.432.339.49.31-.046-.31-.37-.5-.641-.146-.633-.086" transform="translate(3.686 23.499)" fill="#263238"/>
      <path id="Path_966" data-name="Path 966" d="M90.852,574.842c-.035.05.054.167.2.259s.292.128.328.077-.054-.166-.2-.259-.292-.127-.328-.077" transform="translate(3.634 23.474)" fill="#263238"/>
      <path id="Path_967" data-name="Path 967" d="M166.129,228.483c-.49-1.4-1.675-2.461-2.252-3.829-.862-2.048-.23-4.375.005-6.584s-.226-4.894-2.252-5.807a20.878,20.878,0,0,1-2.594-.865c-1.575-.98-1.491-3.233-1.637-5.083a10.212,10.212,0,0,0-.926-3.52l.331-.1a5.245,5.245,0,0,1,6.03,2.988,3.091,3.091,0,0,1-.2,2.963,1.94,1.94,0,0,1-2.29.738,1.6,1.6,0,0,1-.836-1.793,1.134,1.134,0,0,1,1.289-.724,1.27,1.27,0,0,1,.913.509c.135.211.148.359.182.354.012,0,.054-.153-.057-.422a1.364,1.364,0,0,0-.993-.711,1.669,1.669,0,0,0-.916.065,1.319,1.319,0,0,0-.788.8,2.022,2.022,0,0,0,.977,2.363,2.456,2.456,0,0,0,2.981-.82,3.67,3.67,0,0,0,.349-3.551,5.845,5.845,0,0,0-6.2-3.529,3.878,3.878,0,0,0,.361-3.136,4.406,4.406,0,0,0-2.721-2.732,5.805,5.805,0,0,0-3.457-.187,8.625,8.625,0,0,0-2.724,1.205c-.764.5-1.354,1.047-1.928,1.415a3.455,3.455,0,0,1-1.591.613,2.652,2.652,0,0,1-1.429-.3c-.043,0,.367.568,1.443.566a3.567,3.567,0,0,0,1.779-.552c.632-.361,1.249-.886,1.987-1.329a6.466,6.466,0,0,1,5.687-.836,3.784,3.784,0,0,1,2.3,2.331,3.059,3.059,0,0,1-.813,3.152,6.933,6.933,0,0,0-2.553-2.619c-2.357-1.331-5.843-.684-7.039,1.747l-19.352-6.648a9.427,9.427,0,0,0-8.89-1.79c-.132-.023-.26-.049-.4-.063a6.27,6.27,0,0,0-3.269.541,10.719,10.719,0,0,0-3.291,2.877,7.2,7.2,0,0,1-1.856,1.54,3.374,3.374,0,0,1-.37.152,17.741,17.741,0,0,1-2.585.091c-1.629-.374-3.312-1.309-5.32-1.514a8.387,8.387,0,0,0-3.355.241,6.419,6.419,0,0,0-2.991,1.892,5.163,5.163,0,0,0-1.294,3.445,9.475,9.475,0,0,0,.423,2.678,9.284,9.284,0,0,0-.57,3.656c.086,1.64.557,3.358.576,4.972a4.615,4.615,0,0,1-1.584.809c-1.021.322-2.115.477-3.151.876a7.31,7.31,0,0,0-4.181,4.43,5.179,5.179,0,0,0,.523,4.876,7.454,7.454,0,0,0,1.364,6.249c.943,1.145,2.23,2,3.033,3.246,1.272,1.978,1.091,4.51,1.411,6.839s1.67,4.96,4.014,5.114c1.89.123,3.586-1.463,5.474-1.309,2.648.218,3.73,3.392,5.261,5.564a9.425,9.425,0,0,0,8.783,3.827c2.407-.328,4.79-1.6,7.145-1,2.96.753,4.738,4.225,7.762,4.659,2.251.323,4.334-1.173,6-2.718s3.369-3.3,5.607-3.706c2.693-.484,5.286,1.146,8,1.518a9.035,9.035,0,0,0,8.912-4.475c1.489-2.7,1.485-6.017,2.878-8.772.932-1.844,2.436-3.328,3.593-5.04s1.977-3.881,1.3-5.832m-77.606-8.711a1.589,1.589,0,0,0-.665-.032,4.411,4.411,0,0,0,.528.131c-.121.088-.245.172-.361.265a7.147,7.147,0,0,0-2.285,3.515,5.007,5.007,0,0,1-.118-4.016,6.737,6.737,0,0,1,3.862-4.016c.947-.36,2.023-.507,3.12-.841a5.477,5.477,0,0,0,1.347-.6,4.769,4.769,0,0,1-.557,1.828c-1.012,1.814-3.158,2.559-4.871,3.764m13.21-21.717a10.2,10.2,0,0,0-7.291,5.588,7.535,7.535,0,0,1-.184-1.613,4.478,4.478,0,0,1,1.115-3,6.479,6.479,0,0,1,5.753-1.942,13.1,13.1,0,0,1,3.174.815,15.245,15.245,0,0,0-2.567.152m9.706-.819a6.705,6.705,0,0,1-.726.259,10.971,10.971,0,0,0,.984-.984,10.581,10.581,0,0,1,3.1-2.858,6.063,6.063,0,0,1,2.857-.622,8.463,8.463,0,0,0-1.456.73c-1.657,1.062-2.966,2.653-4.754,3.475" transform="translate(3.389 7.857)" fill="#151f2c"/>
      <path id="Path_968" data-name="Path 968" d="M152.291,237.371c.922-5.816.631-15.351.14-23.146a12.341,12.341,0,0,0-13.61-11.513l-20.273,2.145a4.112,4.112,0,0,0-3.676,4.173l2.089,49.841c-2.807.008-4.688.011-4.688.011v9.026a18.682,18.682,0,1,0,37.363,0V260.1s-4.856-1.587-7.805-1.426c-.166.008-.418.018-.726.026.021-4.571.374-8.145.374-8.145s8.956-1.488,10.812-13.183" transform="translate(4.491 8.275)" fill="#ee805f"/>
      <path id="Path_974" data-name="Path 974" d="M140.958,248.837a29.709,29.709,0,0,1-15.649-4.178s3.8,8.033,15.492,6.939Z" transform="translate(5.012 9.991)" fill="#de6b4d"/>
      <path id="Path_979" data-name="Path 979" d="M156.838,204.209c-.8-3.114-3.16-6-6.318-6.588-2.06-.382-4.179.229-6.27.094-1.724-.111-2.352-1.485-3.994-2.025-2.738-.9-4.841-3.943-10.749-3.307-1.577.17-3.607,2-5.053,4.081-2.263-.976-5.248.074-6.88.789-3.381,1.48-5.5,5.29-6.162,9.16s-.123,7.85.423,11.743q.374,2.667.748,5.333a9.354,9.354,0,0,0,.941,3.4l-2.69,25.035c5.348,1.993,12.039-1.687,13.225-7.273,1.044-4.92-1.692-9.936-1.258-14.947.258-2.983,1.943-5.764,1.931-8.758a11.544,11.544,0,0,0-.416-2.914h0c4.754-3.859,5.964-6.967,5.765-10.583a9.073,9.073,0,0,0,4.948,1.64c2.5.031,5.1-.94,7.446-.056,1.688.637,2.883,2.115,4.165,3.383s2.948,2.44,4.734,2.189a12.238,12.238,0,0,0,2.455-.864,2.972,2.972,0,0,1,2.522,0c.781-3.119,1.283-6.418.486-9.532" transform="translate(4.433 7.853)" fill="#151f2c"/>
      <path id="Path_983" data-name="Path 983" d="M76.132,517.567s7.881,15.337,28.461,7.887c0,0,20.142,10.956,39.407-1.315,0,0,24.951,3.348,38.524-3.226L165.066,370.245l-2.21-23.141H107.81s-16.354,7.45-18.981,43.821-8.319,86.327-8.319,86.327Z" transform="translate(3.045 14.175)" fill="#384152"/>
      <path id="Path_984" data-name="Path 984" d="M140.447,524.579a2.541,2.541,0,0,1-.061-.454c-.03-.331-.07-.773-.12-1.336-.094-1.21-.228-2.937-.4-5.144-.34-4.467-.77-10.936-1.242-18.933-.951-15.993-1.97-38.106-2.5-62.547s-.466-46.589-.209-62.607c.126-8.01.275-14.491.42-18.968.075-2.212.134-3.942.176-5.155.025-.565.046-1.009.06-1.341a2.543,2.543,0,0,1,.043-.456,2.522,2.522,0,0,1,.021.458v1.342c-.015,1.214-.034,2.945-.06,5.157-.054,4.513-.13,10.985-.225,18.968-.146,16.016-.137,38.148.388,62.589s1.485,46.541,2.324,62.537c.44,7.972.8,14.434,1.046,18.941.122,2.21.217,3.939.284,5.151.025.564.044,1.009.058,1.341a2.6,2.6,0,0,1,0,.458" transform="translate(5.429 14.196)" fill="#455a64"/>
      <path id="Path_985" data-name="Path 985" d="M144.957,476.242c-.015-.028.116-.159.43-.243a2.014,2.014,0,0,1,1.34.17,2.288,2.288,0,0,1,1.267,1.594,2.285,2.285,0,0,1-3.631,2.067,2.287,2.287,0,0,1-.721-1.9,2.007,2.007,0,0,1,.539-1.239c.232-.227.412-.273.427-.246a2.812,2.812,0,0,0-.532,1.5,1.921,1.921,0,0,0,.65,1.452,1.761,1.761,0,0,0,2.709-1.543,1.919,1.919,0,0,0-.914-1.3,2.818,2.818,0,0,0-1.563-.31" transform="translate(5.745 19.436)" fill="#455a64"/>
      <path id="Path_986" data-name="Path 986" d="M143.781,433.23c-.015-.028.116-.159.43-.243a2.014,2.014,0,0,1,1.339.17,2.288,2.288,0,0,1,1.267,1.594,2.285,2.285,0,0,1-3.631,2.067,2.287,2.287,0,0,1-.721-1.9,2.007,2.007,0,0,1,.539-1.239c.232-.227.411-.273.427-.246a2.812,2.812,0,0,0-.532,1.5,1.921,1.921,0,0,0,.65,1.452,1.761,1.761,0,0,0,2.709-1.543,1.92,1.92,0,0,0-.914-1.3,2.819,2.819,0,0,0-1.563-.31" transform="translate(5.698 17.68)" fill="#455a64"/>
      <path id="Path_987" data-name="Path 987" d="M143.091,395.217c-.015-.027.116-.159.43-.241a2.006,2.006,0,0,1,1.34.169,2.29,2.29,0,0,1,1.267,1.594,2.285,2.285,0,0,1-3.631,2.067,2.286,2.286,0,0,1-.721-1.9,2.007,2.007,0,0,1,.539-1.239c.232-.227.412-.273.427-.246a2.816,2.816,0,0,0-.532,1.5,1.921,1.921,0,0,0,.65,1.452,1.761,1.761,0,0,0,2.709-1.543,1.92,1.92,0,0,0-.914-1.3,2.819,2.819,0,0,0-1.563-.31" transform="translate(5.67 16.127)" fill="#455a64"/>
      <path id="Path_988" data-name="Path 988" d="M141.737,354.544c-.015-.028.117-.159.43-.243a2.014,2.014,0,0,1,1.34.17,2.288,2.288,0,0,1,1.267,1.594,2.285,2.285,0,0,1-3.631,2.067,2.287,2.287,0,0,1-.721-1.9,2.007,2.007,0,0,1,.539-1.239c.232-.227.412-.273.427-.246a2.816,2.816,0,0,0-.533,1.5,1.921,1.921,0,0,0,.65,1.452,1.761,1.761,0,0,0,2.709-1.543,1.92,1.92,0,0,0-.914-1.3,2.819,2.819,0,0,0-1.563-.31" transform="translate(5.616 14.466)" fill="#455a64"/>
      <path id="Path_989" data-name="Path 989" d="M210.806,190.594,489,188.572l7.753,189.29-288.059-2.673Z" transform="translate(8.348 7.701)" fill="#22df96"/>
      <path id="Path_990" data-name="Path 990" d="M210.725,194.83,342.387,88.209a15.111,15.111,0,0,1,19.1.06L488.92,192.808" transform="translate(8.429 3.465)" fill="#1baf75"/>
      <path id="Path_992" data-name="Path 992" d="M208.7,372.086c-.347-.326,21.924-24.662,49.738-54.35s50.653-53.5,51-53.174-21.919,24.656-49.742,54.355-50.648,53.5-51,53.17" transform="translate(8.348 10.804)" fill="#171c25"/>
      <path id="Path_993" data-name="Path 993" d="M489.352,374.658c-.356.316-22.045-23.528-48.438-53.251S393.4,267.321,393.759,267s22.04,23.524,48.442,53.258,47.506,54.08,47.15,54.4" transform="translate(15.75 10.903)" fill="#171c25"/>
      <g id="Group_484" data-name="Group 484" transform="translate(219.154 196.273)" opacity="0.5">
        <g id="Group_483" data-name="Group 483">
          <g id="Group_482" data-name="Group 482" clip-path="url(#clip-path-8)">
            <path id="Path_994" data-name="Path 994" d="M488.919,188.572,349.225,300.257l-138.5-109.664" transform="translate(-210.725 -188.572)"/>
          </g>
        </g>
      </g>
      <path id="Path_995" data-name="Path 995" d="M224.212,203.976l-.434-86.957,243.6-2.882,2.746,91.493-121.43,96.206Z" transform="translate(8.951 4.661)" fill="#fff"/>
      <path id="Path_996" data-name="Path 996" d="M224.22,203.988s.788.589,2.285,1.752l6.608,5.152,25.138,19.676,90.6,71.081h-.311l121.4-96.246-.115.248c-.525-17.456-1.075-35.766-1.636-54.4-.375-12.543-.747-24.939-1.111-37.092l.309.3-243.6,2.774.194-.2c.1,27.359.172,49.084.224,63.979.015,7.446.026,13.183.034,17.07,0,1.935,0,3.408,0,4.406s-.018,1.5-.018,1.5-.019-.5-.032-1.478-.026-2.46-.047-4.386c-.031-3.88-.077-9.609-.136-17.044-.1-14.911-.238-36.658-.416-64.048v-.2l.2,0,243.594-2.991.3,0,.009.3c.365,12.153.737,24.549,1.115,37.092.557,18.635,1.105,36.946,1.629,54.4l0,.153-.12.095L348.853,302.045l-.156.124-.156-.124-90.532-71.32L232.98,210.963l-6.545-5.189c-1.474-1.174-2.215-1.786-2.215-1.786" transform="translate(8.943 4.649)" fill="#171c25"/>
      <path id="Path_997" data-name="Path 997" d="M427.388,156.2c0,.17-37.253.534-83.2.813-45.961.279-83.207.367-83.208.2s37.245-.533,83.205-.813c45.945-.279,83.2-.367,83.2-.2" transform="translate(10.439 6.375)" fill="#171c25"/>
      <path id="Path_998" data-name="Path 998" d="M427.388,179.8c0,.17-37.253.534-83.2.813-45.961.279-83.207.367-83.208.2s37.245-.533,83.205-.813c45.945-.279,83.2-.367,83.2-.2" transform="translate(10.439 7.339)" fill="#171c25"/>
      <path id="Path_999" data-name="Path 999" d="M427.388,207c0,.17-37.253.534-83.2.813-45.961.279-83.207.367-83.208.2s37.245-.533,83.205-.813c45.945-.279,83.2-.367,83.2-.2" transform="translate(10.439 8.45)" fill="#171c25"/>
      <path id="Path_1000" data-name="Path 1000" d="M427.094,234.2c0,.17-35.54.524-79.374.79s-79.383.345-79.384.175,35.533-.524,79.381-.79c43.833-.266,79.376-.345,79.377-.175" transform="translate(10.733 9.56)" fill="#171c25"/>
      <path id="Path_1001" data-name="Path 1001" d="M394.723,258.078a5.956,5.956,0,0,1-.976.069l-2.8.076-10.292.17-33.953.487c-13.263.222-25.272.3-33.963.307l-10.294-.025-2.8-.04a5.874,5.874,0,0,1-.977-.055,5.671,5.671,0,0,1,.975-.069l2.8-.076,10.291-.17,33.958-.487c13.259-.222,25.267-.3,33.959-.307l10.293.025,2.8.04a5.876,5.876,0,0,1,.977.055" transform="translate(11.947 10.534)" fill="#171c25"/>
      <path id="Path_1002" data-name="Path 1002" d="M362.241,281.032c0,.17-7.944.307-17.739.307s-17.74-.137-17.74-.307,7.941-.307,17.74-.307,17.739.137,17.739.307" transform="translate(13.07 11.464)" fill="#263238"/>
      <path id="Path_1003" data-name="Path 1003" d="M470.274,235.353a29.425,29.425,0,1,1-29.425-29.448,29.436,29.436,0,0,1,29.425,29.448" transform="translate(16.457 8.408)" fill="#263238"/>
      <path id="Path_1005" data-name="Path 1005" d="M436.322,221.025V245.51h-4.543V224.838h-5.173v-3.813Z" transform="translate(25.351 9.026)" fill="#fff"/>
      <path id="Path_1006" data-name="Path 1006" d="M56.087,149.976,83,149.966l-3.637-4.183,0-10.021a9.805,9.805,0,1,0-19.61.006l0,9.536Z" transform="translate(2.243 5.143)" fill="#ffd503"/>
      <path id="Path_1007" data-name="Path 1007" d="M65.408,147.817a4.157,4.157,0,1,0,8.123-1.4" transform="translate(2.616 5.979)" fill="#ffd503"/>
      <rect id="Rectangle_1866" data-name="Rectangle 1866" width="2.64" height="5.615" transform="translate(70.643 127.017)" fill="#ffd503"/>
      <path id="Path_1008" data-name="Path 1008" d="M109.857,132.662a4.694,4.694,0,0,1-.188-.7c-.114-.506-.27-1.195-.471-2.08a24.984,24.984,0,0,0-.956-3.32c-.23-.641-.394-1.366-.721-2.08l-1-2.3a40.772,40.772,0,0,0-7.133-10.55,39.7,39.7,0,0,0-38.234-11.2c-.892.189-1.753.533-2.643.794a18.372,18.372,0,0,0-2.632.964,37.638,37.638,0,0,0-9.98,5.978A39.668,39.668,0,0,0,32.577,129.5a38.734,38.734,0,0,0-.772,13.7,38.006,38.006,0,0,0,4.041,13.546l.684,1.284.089.17-.053.174c-2.174,7.141-4.307,14.145-6.372,20.931l-.56-.506L46.484,170l.209-.108.19.146a39.641,39.641,0,0,0,17.739,7.713,39.384,39.384,0,0,0,31.208-8.57A40.6,40.6,0,0,0,104.7,158.8a39.368,39.368,0,0,0,5.465-18.919q.012-1.749.02-3.106-.115-1.324-.2-2.257c-.047-.581-.084-1.039-.112-1.384a2.584,2.584,0,0,1-.016-.474,2.463,2.463,0,0,1,.082.464c.044.344.1.8.176,1.38q.108.935.262,2.263.019,1.365.042,3.124a39.12,39.12,0,0,1-5.313,19.175,40.9,40.9,0,0,1-8.915,10.586A39.862,39.862,0,0,1,64.526,178.5a40.285,40.285,0,0,1-18.09-7.81l.4.037L30,179.544l-.849.444.289-.95C31.5,172.25,33.629,165.246,35.8,158.1l.037.343-.7-1.311a38.839,38.839,0,0,1-4.128-13.849,39.561,39.561,0,0,1,.8-14,40.366,40.366,0,0,1,13.624-21.732A38.258,38.258,0,0,1,55.613,101.5a19,19,0,0,1,2.681-.97c.9-.263,1.782-.608,2.689-.8A39.725,39.725,0,0,1,106.8,122.044q.515,1.232.976,2.328c.316.724.471,1.457.691,2.108a23.5,23.5,0,0,1,.887,3.36l.394,2.1a4.887,4.887,0,0,1,.107.719" transform="translate(1.166 4.025)" fill="#263238"/>
    </g>
  </g>
</svg>
