<svg xmlns="http://www.w3.org/2000/svg" width="1400" height="850" viewBox="0 0 1400 850">
  <g id="Group_436" data-name="Group 436" transform="translate(0 0)">
    <rect id="Rectangle_1625" data-name="Rectangle 1625" width="182.502" height="559.057" transform="translate(1.078 290.943)" fill="#f2f5f5"/>
    <rect id="Rectangle_1627" data-name="Rectangle 1627" width="154.813" height="43.585" transform="translate(10.875 380.416)" fill="#e8ebeb"/>
    <rect id="Rectangle_1628" data-name="Rectangle 1628" width="8.67" height="33.357" transform="translate(15.195 385.896)" fill="#f5f5f5"/>
    <g id="Group_435" data-name="Group 435">
      <path id="Path_591" data-name="Path 591" d="M34.091,392.912a2.762,2.762,0,1,1-2.762-2.755,2.758,2.758,0,0,1,2.762,2.755" transform="translate(0.069)" fill="#fafafa"/>
      <path id="Path_592" data-name="Path 592" d="M34.091,404.7a2.762,2.762,0,1,1-2.762-2.755,2.758,2.758,0,0,1,2.762,2.755" transform="translate(0.069)" fill="#fafafa"/>
      <rect id="Rectangle_1629" data-name="Rectangle 1629" width="8.54" height="25.623" transform="translate(45.199 390.157)" fill="#f5f5f5"/>
      <rect id="Rectangle_1630" data-name="Rectangle 1630" width="8.54" height="25.623" transform="translate(57.534 390.157)" fill="#f5f5f5"/>
      <rect id="Rectangle_1631" data-name="Rectangle 1631" width="8.54" height="25.623" transform="translate(69.869 390.157)" fill="#f5f5f5"/>
      <rect id="Rectangle_1632" data-name="Rectangle 1632" width="8.54" height="25.623" transform="translate(82.204 390.157)" fill="#f5f5f5"/>
      <rect id="Rectangle_1633" data-name="Rectangle 1633" width="8.54" height="25.623" transform="translate(94.539 390.157)" fill="#f5f5f5"/>
      <rect id="Rectangle_1634" data-name="Rectangle 1634" width="8.54" height="25.623" transform="translate(106.874 390.157)" fill="#f5f5f5"/>
      <rect id="Rectangle_1635" data-name="Rectangle 1635" width="8.54" height="25.623" transform="translate(119.209 390.157)" fill="#f5f5f5"/>
      <rect id="Rectangle_1636" data-name="Rectangle 1636" width="8.54" height="25.623" transform="translate(131.544 390.157)" fill="#f5f5f5"/>
      <rect id="Rectangle_1637" data-name="Rectangle 1637" width="8.54" height="25.623" transform="translate(143.879 390.157)" fill="#f5f5f5"/>
      <rect id="Rectangle_1638" data-name="Rectangle 1638" width="8.54" height="25.623" transform="translate(156.214 390.157)" fill="#f5f5f5"/>
      <rect id="Rectangle_1639" data-name="Rectangle 1639" width="155.189" height="43.584" transform="translate(10.901 450.227)" fill="#e8ebeb"/>
      <rect id="Rectangle_1640" data-name="Rectangle 1640" width="8.691" height="33.357" transform="translate(15.232 455.707)" fill="#f5f5f5"/>
      <path id="Path_593" data-name="Path 593" d="M34.091,462.723a2.762,2.762,0,1,1-2.762-2.755,2.758,2.758,0,0,1,2.762,2.755" transform="translate(0.069)" fill="#fafafa"/>
      <path id="Path_594" data-name="Path 594" d="M34.091,474.509a2.762,2.762,0,1,1-2.762-2.754,2.758,2.758,0,0,1,2.762,2.754" transform="translate(0.069)" fill="#fafafa"/>
      <rect id="Rectangle_1641" data-name="Rectangle 1641" width="8.54" height="25.623" transform="translate(45.199 459.968)" fill="#f5f5f5"/>
      <rect id="Rectangle_1642" data-name="Rectangle 1642" width="8.54" height="25.623" transform="translate(57.534 459.968)" fill="#f5f5f5"/>
      <rect id="Rectangle_1643" data-name="Rectangle 1643" width="8.54" height="25.623" transform="translate(69.869 459.968)" fill="#f5f5f5"/>
      <rect id="Rectangle_1644" data-name="Rectangle 1644" width="8.54" height="25.623" transform="translate(82.204 459.968)" fill="#f5f5f5"/>
      <rect id="Rectangle_1645" data-name="Rectangle 1645" width="8.54" height="25.623" transform="translate(94.539 459.968)" fill="#f5f5f5"/>
      <rect id="Rectangle_1646" data-name="Rectangle 1646" width="8.54" height="25.623" transform="translate(106.874 459.968)" fill="#f5f5f5"/>
      <rect id="Rectangle_1647" data-name="Rectangle 1647" width="8.54" height="25.623" transform="translate(119.209 459.968)" fill="#f5f5f5"/>
      <rect id="Rectangle_1648" data-name="Rectangle 1648" width="8.54" height="25.623" transform="translate(131.544 459.968)" fill="#f5f5f5"/>
      <rect id="Rectangle_1649" data-name="Rectangle 1649" width="8.54" height="25.623" transform="translate(143.879 459.968)" fill="#f5f5f5"/>
      <rect id="Rectangle_1650" data-name="Rectangle 1650" width="8.54" height="25.623" transform="translate(156.214 459.968)" fill="#f5f5f5"/>
      <rect id="Rectangle_1651" data-name="Rectangle 1651" width="155.189" height="43.585" transform="translate(10.901 520.038)" fill="#e8ebeb"/>
      <rect id="Rectangle_1652" data-name="Rectangle 1652" width="8.691" height="33.357" transform="translate(15.232 525.518)" fill="#f5f5f5"/>
      <path id="Path_595" data-name="Path 595" d="M34.091,532.534a2.762,2.762,0,1,1-2.762-2.755,2.758,2.758,0,0,1,2.762,2.755" transform="translate(0.069)" fill="#fafafa"/>
      <path id="Path_596" data-name="Path 596" d="M34.091,544.32a2.762,2.762,0,1,1-2.762-2.755,2.758,2.758,0,0,1,2.762,2.755" transform="translate(0.069)" fill="#fafafa"/>
      <rect id="Rectangle_1653" data-name="Rectangle 1653" width="8.54" height="25.623" transform="translate(45.199 529.779)" fill="#f5f5f5"/>
      <rect id="Rectangle_1654" data-name="Rectangle 1654" width="8.54" height="25.623" transform="translate(57.534 529.779)" fill="#f5f5f5"/>
      <rect id="Rectangle_1655" data-name="Rectangle 1655" width="8.54" height="25.623" transform="translate(69.869 529.779)" fill="#f5f5f5"/>
      <rect id="Rectangle_1656" data-name="Rectangle 1656" width="8.54" height="25.623" transform="translate(82.204 529.779)" fill="#f5f5f5"/>
      <rect id="Rectangle_1657" data-name="Rectangle 1657" width="8.54" height="25.623" transform="translate(94.539 529.779)" fill="#f5f5f5"/>
      <rect id="Rectangle_1658" data-name="Rectangle 1658" width="8.54" height="25.623" transform="translate(106.874 529.779)" fill="#f5f5f5"/>
      <rect id="Rectangle_1659" data-name="Rectangle 1659" width="8.54" height="25.623" transform="translate(119.209 529.779)" fill="#f5f5f5"/>
      <rect id="Rectangle_1660" data-name="Rectangle 1660" width="8.54" height="25.623" transform="translate(131.544 529.779)" fill="#f5f5f5"/>
      <rect id="Rectangle_1661" data-name="Rectangle 1661" width="8.54" height="25.623" transform="translate(143.879 529.779)" fill="#f5f5f5"/>
      <rect id="Rectangle_1662" data-name="Rectangle 1662" width="8.54" height="25.623" transform="translate(156.214 529.779)" fill="#f5f5f5"/>
      <rect id="Rectangle_1663" data-name="Rectangle 1663" width="155.189" height="43.585" transform="translate(10.901 589.849)" fill="#e8ebeb"/>
      <rect id="Rectangle_1664" data-name="Rectangle 1664" width="8.691" height="33.357" transform="translate(15.232 595.328)" fill="#f5f5f5"/>
      <path id="Path_597" data-name="Path 597" d="M34.091,602.345a2.762,2.762,0,1,1-2.762-2.755,2.758,2.758,0,0,1,2.762,2.755" transform="translate(0.069)" fill="#fafafa"/>
      <path id="Path_598" data-name="Path 598" d="M34.091,614.131a2.762,2.762,0,1,1-2.762-2.755,2.758,2.758,0,0,1,2.762,2.755" transform="translate(0.069)" fill="#fafafa"/>
      <rect id="Rectangle_1665" data-name="Rectangle 1665" width="8.54" height="25.623" transform="translate(45.199 599.59)" fill="#f5f5f5"/>
      <rect id="Rectangle_1666" data-name="Rectangle 1666" width="8.54" height="25.623" transform="translate(57.534 599.59)" fill="#f5f5f5"/>
      <rect id="Rectangle_1667" data-name="Rectangle 1667" width="8.54" height="25.623" transform="translate(69.869 599.59)" fill="#f5f5f5"/>
      <rect id="Rectangle_1668" data-name="Rectangle 1668" width="8.54" height="25.623" transform="translate(82.204 599.59)" fill="#f5f5f5"/>
      <rect id="Rectangle_1669" data-name="Rectangle 1669" width="8.54" height="25.623" transform="translate(94.539 599.59)" fill="#f5f5f5"/>
      <rect id="Rectangle_1670" data-name="Rectangle 1670" width="8.54" height="25.623" transform="translate(106.874 599.59)" fill="#f5f5f5"/>
      <rect id="Rectangle_1671" data-name="Rectangle 1671" width="8.54" height="25.623" transform="translate(119.209 599.59)" fill="#f5f5f5"/>
      <rect id="Rectangle_1672" data-name="Rectangle 1672" width="8.54" height="25.623" transform="translate(131.544 599.59)" fill="#f5f5f5"/>
      <rect id="Rectangle_1673" data-name="Rectangle 1673" width="8.54" height="25.623" transform="translate(143.879 599.59)" fill="#f5f5f5"/>
      <rect id="Rectangle_1674" data-name="Rectangle 1674" width="8.54" height="25.623" transform="translate(156.214 599.59)" fill="#f5f5f5"/>
      <rect id="Rectangle_1675" data-name="Rectangle 1675" width="155.189" height="43.585" transform="translate(10.901 659.66)" fill="#e8ebeb"/>
      <rect id="Rectangle_1676" data-name="Rectangle 1676" width="8.691" height="33.357" transform="translate(15.232 665.139)" fill="#f5f5f5"/>
      <path id="Path_599" data-name="Path 599" d="M34.091,672.156A2.762,2.762,0,1,1,31.33,669.4a2.758,2.758,0,0,1,2.762,2.755" transform="translate(0.069)" fill="#fafafa"/>
      <path id="Path_600" data-name="Path 600" d="M34.091,683.942a2.762,2.762,0,1,1-2.762-2.755,2.758,2.758,0,0,1,2.762,2.755" transform="translate(0.069)" fill="#fafafa"/>
      <rect id="Rectangle_1677" data-name="Rectangle 1677" width="8.54" height="25.623" transform="translate(45.199 669.401)" fill="#f5f5f5"/>
      <rect id="Rectangle_1678" data-name="Rectangle 1678" width="8.54" height="25.623" transform="translate(57.534 669.401)" fill="#f5f5f5"/>
      <rect id="Rectangle_1679" data-name="Rectangle 1679" width="8.54" height="25.623" transform="translate(69.869 669.401)" fill="#f5f5f5"/>
      <rect id="Rectangle_1680" data-name="Rectangle 1680" width="8.54" height="25.623" transform="translate(82.204 669.401)" fill="#f5f5f5"/>
      <rect id="Rectangle_1681" data-name="Rectangle 1681" width="8.54" height="25.623" transform="translate(94.539 669.401)" fill="#f5f5f5"/>
      <rect id="Rectangle_1682" data-name="Rectangle 1682" width="8.54" height="25.623" transform="translate(106.874 669.401)" fill="#f5f5f5"/>
      <rect id="Rectangle_1683" data-name="Rectangle 1683" width="8.54" height="25.623" transform="translate(119.209 669.401)" fill="#f5f5f5"/>
      <rect id="Rectangle_1684" data-name="Rectangle 1684" width="8.54" height="25.623" transform="translate(131.544 669.401)" fill="#f5f5f5"/>
      <rect id="Rectangle_1685" data-name="Rectangle 1685" width="8.54" height="25.623" transform="translate(143.879 669.401)" fill="#f5f5f5"/>
      <rect id="Rectangle_1686" data-name="Rectangle 1686" width="8.54" height="25.623" transform="translate(156.214 669.401)" fill="#f5f5f5"/>
      <rect id="Rectangle_1687" data-name="Rectangle 1687" width="155.189" height="43.585" transform="translate(10.901 729.471)" fill="#e8ebeb"/>
      <rect id="Rectangle_1688" data-name="Rectangle 1688" width="8.691" height="33.357" transform="translate(15.232 734.95)" fill="#f5f5f5"/>
      <path id="Path_601" data-name="Path 601" d="M34.091,741.967a2.762,2.762,0,1,1-2.762-2.755,2.758,2.758,0,0,1,2.762,2.755" transform="translate(0.069)" fill="#fafafa"/>
      <path id="Path_602" data-name="Path 602" d="M34.091,753.753A2.762,2.762,0,1,1,31.33,751a2.758,2.758,0,0,1,2.762,2.755" transform="translate(0.069)" fill="#fafafa"/>
      <rect id="Rectangle_1689" data-name="Rectangle 1689" width="8.54" height="25.623" transform="translate(45.199 739.211)" fill="#f5f5f5"/>
      <rect id="Rectangle_1690" data-name="Rectangle 1690" width="8.54" height="25.623" transform="translate(57.534 739.211)" fill="#f5f5f5"/>
      <rect id="Rectangle_1691" data-name="Rectangle 1691" width="8.54" height="25.623" transform="translate(69.869 739.211)" fill="#f5f5f5"/>
      <rect id="Rectangle_1692" data-name="Rectangle 1692" width="8.54" height="25.623" transform="translate(82.204 739.211)" fill="#f5f5f5"/>
      <rect id="Rectangle_1693" data-name="Rectangle 1693" width="8.54" height="25.623" transform="translate(94.539 739.211)" fill="#f5f5f5"/>
      <rect id="Rectangle_1694" data-name="Rectangle 1694" width="8.54" height="25.623" transform="translate(106.874 739.211)" fill="#f5f5f5"/>
      <rect id="Rectangle_1695" data-name="Rectangle 1695" width="8.54" height="25.623" transform="translate(119.209 739.211)" fill="#f5f5f5"/>
      <rect id="Rectangle_1696" data-name="Rectangle 1696" width="8.54" height="25.623" transform="translate(131.544 739.211)" fill="#f5f5f5"/>
      <rect id="Rectangle_1697" data-name="Rectangle 1697" width="8.54" height="25.623" transform="translate(143.879 739.211)" fill="#f5f5f5"/>
      <rect id="Rectangle_1698" data-name="Rectangle 1698" width="8.54" height="25.623" transform="translate(156.214 739.211)" fill="#f5f5f5"/>
      <rect id="Rectangle_1699" data-name="Rectangle 1699" width="155.189" height="43.585" transform="translate(10.901 799.282)" fill="#e8ebeb"/>
      <rect id="Rectangle_1700" data-name="Rectangle 1700" width="8.691" height="33.357" transform="translate(15.232 804.761)" fill="#f5f5f5"/>
      <path id="Path_603" data-name="Path 603" d="M34.091,811.777a2.762,2.762,0,1,1-2.762-2.755,2.758,2.758,0,0,1,2.762,2.755" transform="translate(0.069)" fill="#fafafa"/>
      <path id="Path_604" data-name="Path 604" d="M34.091,823.564a2.762,2.762,0,1,1-2.762-2.755,2.758,2.758,0,0,1,2.762,2.755" transform="translate(0.069)" fill="#fafafa"/>
      <rect id="Rectangle_1701" data-name="Rectangle 1701" width="8.54" height="25.623" transform="translate(45.199 809.022)" fill="#f5f5f5"/>
      <rect id="Rectangle_1702" data-name="Rectangle 1702" width="8.54" height="25.623" transform="translate(57.534 809.022)" fill="#f5f5f5"/>
      <rect id="Rectangle_1703" data-name="Rectangle 1703" width="8.54" height="25.623" transform="translate(69.869 809.022)" fill="#f5f5f5"/>
      <rect id="Rectangle_1704" data-name="Rectangle 1704" width="8.54" height="25.623" transform="translate(82.204 809.022)" fill="#f5f5f5"/>
      <rect id="Rectangle_1705" data-name="Rectangle 1705" width="8.54" height="25.623" transform="translate(94.539 809.022)" fill="#f5f5f5"/>
      <rect id="Rectangle_1706" data-name="Rectangle 1706" width="8.54" height="25.623" transform="translate(106.874 809.022)" fill="#f5f5f5"/>
      <rect id="Rectangle_1707" data-name="Rectangle 1707" width="8.54" height="25.623" transform="translate(119.209 809.022)" fill="#f5f5f5"/>
      <rect id="Rectangle_1708" data-name="Rectangle 1708" width="8.54" height="25.623" transform="translate(131.544 809.022)" fill="#f5f5f5"/>
      <rect id="Rectangle_1709" data-name="Rectangle 1709" width="8.54" height="25.623" transform="translate(143.879 809.022)" fill="#f5f5f5"/>
      <rect id="Rectangle_1710" data-name="Rectangle 1710" width="8.54" height="25.623" transform="translate(156.214 809.022)" fill="#f5f5f5"/>
      <path id="Path_605" data-name="Path 605" d="M106.872,380.416a5.8,5.8,0,0,1-.17-1.345c-.066-.885-.12-2.192-.165-3.873s-.081-3.736-.2-6.113a38.665,38.665,0,0,0-1.07-7.943,28.406,28.406,0,0,0-4.144-8.7,19.289,19.289,0,0,0-8.486-6.8,41.239,41.239,0,0,0-12.044-2.437l-13.365-1.154c-18.318-1.585-34.926-2.605-46.965-2.834-6.019-.135-10.89-.1-14.259-.093l-3.878.033A6.139,6.139,0,0,1,.77,339.1a6.241,6.241,0,0,1,1.347-.162l3.876-.243c3.369-.145,8.249-.3,14.282-.264,12.066.026,28.72.924,47.049,2.51L80.7,342.113a41.736,41.736,0,0,1,12.342,2.577,20.143,20.143,0,0,1,8.846,7.216,28.8,28.8,0,0,1,4.152,9.03,38.006,38.006,0,0,1,.93,8.124c.057,2.4.026,4.454.007,6.135-.018,1.583-.033,2.865-.045,3.869a6.523,6.523,0,0,1-.056,1.352" transform="translate(0.002)" fill="#e8ebeb"/>
      <path id="Path_606" data-name="Path 606" d="M59.8,380.416a5.4,5.4,0,0,1-.105-1.271c-.014-.955-.031-2.162-.053-3.644-.015-1.579-.016-3.513-.191-5.735a17.626,17.626,0,0,0-1.911-7.16c-1.348-2.374-3.994-4.147-6.994-5.356a19.291,19.291,0,0,0-10.192-1.029,17.256,17.256,0,0,0-5.258,1.784,9.993,9.993,0,0,0-4.075,3.847,5.453,5.453,0,0,0,.015,5.4,7.268,7.268,0,0,0,4.609,3.456,5.861,5.861,0,0,0,5.387-1.554,7.964,7.964,0,0,0,2.425-5.129,7.78,7.78,0,0,0-1.613-5.25,11.527,11.527,0,0,0-4.083-3.6,15.229,15.229,0,0,0-5.111-1.316c-1.749-.259-3.451-.489-5.1-.674-3.3-.372-6.388-.586-9.212-.7-5.65-.226-10.237-.145-13.406-.151l-3.652-.016A5.448,5.448,0,0,1,0,352.238a5.541,5.541,0,0,1,1.27-.144l3.647-.194c3.168-.128,7.758-.331,13.443-.206,2.842.068,5.955.238,9.284.572,1.665.167,3.382.38,5.147.624.886.139,1.761.249,2.694.419a10.489,10.489,0,0,1,2.747.953,12.516,12.516,0,0,1,4.487,3.9,8.853,8.853,0,0,1,1.833,5.951,9.039,9.039,0,0,1-2.754,5.854,6.987,6.987,0,0,1-6.4,1.838,8.358,8.358,0,0,1-5.338-4.009,6.568,6.568,0,0,1-.009-6.463,11.014,11.014,0,0,1,4.53-4.269,18.193,18.193,0,0,1,5.6-1.864,20.113,20.113,0,0,1,10.708,1.184c3.115,1.3,5.9,3.2,7.341,5.828a17.924,17.924,0,0,1,1.846,7.508c.118,2.263.054,4.2,0,5.785-.065,1.481-.117,2.686-.158,3.64a5.445,5.445,0,0,1-.121,1.269" fill="#e8ebeb"/>
      <path id="Path_607" data-name="Path 607" d="M119.54,380.416a7.346,7.346,0,0,1-.328-1.44c-.172-.95-.441-2.347-.829-4.136a80.827,80.827,0,0,0-4.588-14.753c-2.535-5.961-6.572-12.882-13.5-18.054a25.468,25.468,0,0,0-12.352-4.687,129.147,129.147,0,0,0-14.544-.778c-20.053-.378-38.233-.306-51.384-.829-6.575-.232-11.891-.547-15.561-.813l-4.22-.363a7.292,7.292,0,0,1-1.467-.2,7.474,7.474,0,0,1,1.481-.021l4.231.153c3.674.132,8.988.326,15.558.457,13.14.319,31.3.122,51.385.5a126.371,126.371,0,0,1,14.68.812,26.384,26.384,0,0,1,12.817,4.949,39.19,39.19,0,0,1,8.548,9.027,52.207,52.207,0,0,1,5.06,9.546,73.989,73.989,0,0,1,4.283,14.975c.324,1.81.523,3.223.625,4.186a7.291,7.291,0,0,1,.1,1.474" transform="translate(0.002)" fill="#e8ebeb"/>
      <rect id="Rectangle_1711" data-name="Rectangle 1711" width="150.921" height="21.855" transform="translate(13.036 297.895)" fill="#e8ebeb"/>
      <rect id="Rectangle_1712" data-name="Rectangle 1712" width="82.167" height="10.927" transform="translate(46.228 308.823)" fill="#f2f5f5"/>
      <rect id="Rectangle_1713" data-name="Rectangle 1713" width="226.92" height="693.438" transform="translate(222.391 155.43)" fill="#f2f5f5"/>
      <rect id="Rectangle_1714" data-name="Rectangle 1714" width="179.342" height="693.438" transform="translate(448.607 155.43)" fill="#f2f5f5"/>
      <rect id="Rectangle_1715" data-name="Rectangle 1715" width="192.492" height="54.061" transform="translate(234.573 266.411)" fill="#e8ebeb"/>
      <rect id="Rectangle_1716" data-name="Rectangle 1716" width="10.78" height="41.375" transform="translate(239.944 273.208)" fill="#f5f5f5"/>
      <path id="Path_608" data-name="Path 608" d="M262.8,281.911a3.426,3.426,0,1,1-3.426-3.417,3.422,3.422,0,0,1,3.426,3.417" transform="translate(0.622)" fill="#fafafa"/>
      <path id="Path_609" data-name="Path 609" d="M262.8,296.53a3.426,3.426,0,1,1-3.426-3.418,3.422,3.422,0,0,1,3.426,3.418" transform="translate(0.622)" fill="#fafafa"/>
      <rect id="Rectangle_1717" data-name="Rectangle 1717" width="10.592" height="31.782" transform="translate(277.116 278.494)" fill="#f5f5f5"/>
      <rect id="Rectangle_1718" data-name="Rectangle 1718" width="10.593" height="31.782" transform="translate(292.414 278.494)" fill="#f5f5f5"/>
      <rect id="Rectangle_1719" data-name="Rectangle 1719" width="10.593" height="31.782" transform="translate(307.714 278.494)" fill="#f5f5f5"/>
      <rect id="Rectangle_1720" data-name="Rectangle 1720" width="10.593" height="31.782" transform="translate(323.014 278.494)" fill="#f5f5f5"/>
      <rect id="Rectangle_1721" data-name="Rectangle 1721" width="10.592" height="31.782" transform="translate(338.314 278.494)" fill="#f5f5f5"/>
      <rect id="Rectangle_1722" data-name="Rectangle 1722" width="10.592" height="31.782" transform="translate(353.614 278.494)" fill="#f5f5f5"/>
      <rect id="Rectangle_1723" data-name="Rectangle 1723" width="10.592" height="31.782" transform="translate(368.914 278.494)" fill="#f5f5f5"/>
      <rect id="Rectangle_1724" data-name="Rectangle 1724" width="10.592" height="31.782" transform="translate(384.213 278.494)" fill="#f5f5f5"/>
      <rect id="Rectangle_1725" data-name="Rectangle 1725" width="10.592" height="31.782" transform="translate(399.513 278.494)" fill="#f5f5f5"/>
      <rect id="Rectangle_1726" data-name="Rectangle 1726" width="10.593" height="31.782" transform="translate(414.812 278.494)" fill="#f5f5f5"/>
      <rect id="Rectangle_1727" data-name="Rectangle 1727" width="192.492" height="54.061" transform="translate(234.573 353.003)" fill="#e8ebeb"/>
      <rect id="Rectangle_1728" data-name="Rectangle 1728" width="10.78" height="41.375" transform="translate(239.944 359.799)" fill="#f5f5f5"/>
      <path id="Path_610" data-name="Path 610" d="M262.8,368.5a3.426,3.426,0,1,1-3.426-3.417A3.422,3.422,0,0,1,262.8,368.5" transform="translate(0.622)" fill="#fafafa"/>
      <path id="Path_611" data-name="Path 611" d="M262.8,383.121a3.426,3.426,0,1,1-3.426-3.417,3.423,3.423,0,0,1,3.426,3.417" transform="translate(0.622)" fill="#fafafa"/>
      <rect id="Rectangle_1729" data-name="Rectangle 1729" width="10.592" height="31.782" transform="translate(277.116 365.084)" fill="#f5f5f5"/>
      <rect id="Rectangle_1730" data-name="Rectangle 1730" width="10.593" height="31.782" transform="translate(292.414 365.084)" fill="#f5f5f5"/>
      <rect id="Rectangle_1731" data-name="Rectangle 1731" width="10.593" height="31.782" transform="translate(307.714 365.084)" fill="#f5f5f5"/>
      <rect id="Rectangle_1732" data-name="Rectangle 1732" width="10.593" height="31.782" transform="translate(323.014 365.084)" fill="#f5f5f5"/>
      <rect id="Rectangle_1733" data-name="Rectangle 1733" width="10.592" height="31.782" transform="translate(338.314 365.084)" fill="#f5f5f5"/>
      <rect id="Rectangle_1734" data-name="Rectangle 1734" width="10.592" height="31.782" transform="translate(353.614 365.084)" fill="#f5f5f5"/>
      <rect id="Rectangle_1735" data-name="Rectangle 1735" width="10.592" height="31.782" transform="translate(368.914 365.084)" fill="#f5f5f5"/>
      <rect id="Rectangle_1736" data-name="Rectangle 1736" width="10.592" height="31.782" transform="translate(384.213 365.084)" fill="#f5f5f5"/>
      <rect id="Rectangle_1737" data-name="Rectangle 1737" width="10.592" height="31.782" transform="translate(399.513 365.084)" fill="#f5f5f5"/>
      <rect id="Rectangle_1738" data-name="Rectangle 1738" width="10.593" height="31.782" transform="translate(414.812 365.084)" fill="#f5f5f5"/>
      <rect id="Rectangle_1739" data-name="Rectangle 1739" width="192.492" height="54.061" transform="translate(234.573 439.594)" fill="#e8ebeb"/>
      <rect id="Rectangle_1740" data-name="Rectangle 1740" width="10.78" height="41.375" transform="translate(239.944 446.39)" fill="#f5f5f5"/>
      <path id="Path_612" data-name="Path 612" d="M262.8,455.093a3.426,3.426,0,1,1-3.426-3.417,3.422,3.422,0,0,1,3.426,3.417" transform="translate(0.622)" fill="#fafafa"/>
      <path id="Path_613" data-name="Path 613" d="M262.8,469.713a3.426,3.426,0,1,1-3.426-3.418,3.422,3.422,0,0,1,3.426,3.418" transform="translate(0.622)" fill="#fafafa"/>
      <rect id="Rectangle_1741" data-name="Rectangle 1741" width="10.592" height="31.782" transform="translate(277.116 451.676)" fill="#f5f5f5"/>
      <rect id="Rectangle_1742" data-name="Rectangle 1742" width="10.593" height="31.782" transform="translate(292.414 451.676)" fill="#f5f5f5"/>
      <rect id="Rectangle_1743" data-name="Rectangle 1743" width="10.593" height="31.782" transform="translate(307.714 451.676)" fill="#f5f5f5"/>
      <rect id="Rectangle_1744" data-name="Rectangle 1744" width="10.593" height="31.782" transform="translate(323.014 451.676)" fill="#f5f5f5"/>
      <rect id="Rectangle_1745" data-name="Rectangle 1745" width="10.592" height="31.782" transform="translate(338.314 451.676)" fill="#f5f5f5"/>
      <rect id="Rectangle_1746" data-name="Rectangle 1746" width="10.592" height="31.782" transform="translate(353.614 451.676)" fill="#f5f5f5"/>
      <rect id="Rectangle_1747" data-name="Rectangle 1747" width="10.592" height="31.782" transform="translate(368.914 451.676)" fill="#f5f5f5"/>
      <rect id="Rectangle_1748" data-name="Rectangle 1748" width="10.592" height="31.782" transform="translate(384.213 451.676)" fill="#f5f5f5"/>
      <rect id="Rectangle_1749" data-name="Rectangle 1749" width="10.592" height="31.782" transform="translate(399.513 451.676)" fill="#f5f5f5"/>
      <rect id="Rectangle_1750" data-name="Rectangle 1750" width="10.593" height="31.782" transform="translate(414.812 451.676)" fill="#f5f5f5"/>
      <rect id="Rectangle_1751" data-name="Rectangle 1751" width="192.492" height="54.061" transform="translate(234.573 526.185)" fill="#e8ebeb"/>
      <rect id="Rectangle_1752" data-name="Rectangle 1752" width="10.78" height="41.375" transform="translate(239.944 532.981)" fill="#f5f5f5"/>
      <path id="Path_614" data-name="Path 614" d="M262.8,541.684a3.426,3.426,0,1,1-3.426-3.417,3.422,3.422,0,0,1,3.426,3.417" transform="translate(0.622)" fill="#fafafa"/>
      <path id="Path_615" data-name="Path 615" d="M262.8,556.3a3.426,3.426,0,1,1-3.426-3.417A3.422,3.422,0,0,1,262.8,556.3" transform="translate(0.622)" fill="#fafafa"/>
      <rect id="Rectangle_1753" data-name="Rectangle 1753" width="10.592" height="31.782" transform="translate(277.116 538.267)" fill="#f5f5f5"/>
      <rect id="Rectangle_1754" data-name="Rectangle 1754" width="10.593" height="31.782" transform="translate(292.414 538.267)" fill="#f5f5f5"/>
      <rect id="Rectangle_1755" data-name="Rectangle 1755" width="10.593" height="31.782" transform="translate(307.714 538.267)" fill="#f5f5f5"/>
      <rect id="Rectangle_1756" data-name="Rectangle 1756" width="10.593" height="31.782" transform="translate(323.014 538.267)" fill="#f5f5f5"/>
      <rect id="Rectangle_1757" data-name="Rectangle 1757" width="10.592" height="31.782" transform="translate(338.314 538.267)" fill="#f5f5f5"/>
      <rect id="Rectangle_1758" data-name="Rectangle 1758" width="10.592" height="31.782" transform="translate(353.614 538.267)" fill="#f5f5f5"/>
      <rect id="Rectangle_1759" data-name="Rectangle 1759" width="10.592" height="31.782" transform="translate(368.914 538.267)" fill="#f5f5f5"/>
      <rect id="Rectangle_1760" data-name="Rectangle 1760" width="10.592" height="31.782" transform="translate(384.213 538.267)" fill="#f5f5f5"/>
      <rect id="Rectangle_1761" data-name="Rectangle 1761" width="10.592" height="31.782" transform="translate(399.513 538.267)" fill="#f5f5f5"/>
      <rect id="Rectangle_1762" data-name="Rectangle 1762" width="10.593" height="31.782" transform="translate(414.812 538.267)" fill="#f5f5f5"/>
      <rect id="Rectangle_1763" data-name="Rectangle 1763" width="192.492" height="54.061" transform="translate(234.573 612.776)" fill="#e8ebeb"/>
      <rect id="Rectangle_1764" data-name="Rectangle 1764" width="10.78" height="41.375" transform="translate(239.944 619.572)" fill="#f5f5f5"/>
      <path id="Path_616" data-name="Path 616" d="M262.8,628.275a3.426,3.426,0,1,1-3.426-3.416,3.423,3.423,0,0,1,3.426,3.416" transform="translate(0.622)" fill="#fafafa"/>
      <path id="Path_617" data-name="Path 617" d="M262.8,642.9a3.426,3.426,0,1,1-3.426-3.418A3.422,3.422,0,0,1,262.8,642.9" transform="translate(0.622)" fill="#fafafa"/>
      <rect id="Rectangle_1765" data-name="Rectangle 1765" width="10.592" height="31.782" transform="translate(277.116 624.858)" fill="#f5f5f5"/>
      <rect id="Rectangle_1766" data-name="Rectangle 1766" width="10.593" height="31.782" transform="translate(292.414 624.858)" fill="#f5f5f5"/>
      <rect id="Rectangle_1767" data-name="Rectangle 1767" width="10.593" height="31.782" transform="translate(307.714 624.858)" fill="#f5f5f5"/>
      <rect id="Rectangle_1768" data-name="Rectangle 1768" width="10.593" height="31.782" transform="translate(323.014 624.858)" fill="#f5f5f5"/>
      <rect id="Rectangle_1769" data-name="Rectangle 1769" width="10.592" height="31.782" transform="translate(338.314 624.858)" fill="#f5f5f5"/>
      <rect id="Rectangle_1770" data-name="Rectangle 1770" width="10.592" height="31.782" transform="translate(353.614 624.858)" fill="#f5f5f5"/>
      <rect id="Rectangle_1771" data-name="Rectangle 1771" width="10.592" height="31.782" transform="translate(368.914 624.858)" fill="#f5f5f5"/>
      <rect id="Rectangle_1772" data-name="Rectangle 1772" width="10.592" height="31.782" transform="translate(384.213 624.858)" fill="#f5f5f5"/>
      <rect id="Rectangle_1773" data-name="Rectangle 1773" width="10.592" height="31.782" transform="translate(399.513 624.858)" fill="#f5f5f5"/>
      <rect id="Rectangle_1774" data-name="Rectangle 1774" width="10.593" height="31.782" transform="translate(414.812 624.858)" fill="#f5f5f5"/>
      <rect id="Rectangle_1775" data-name="Rectangle 1775" width="192.492" height="54.061" transform="translate(234.573 699.367)" fill="#e8ebeb"/>
      <rect id="Rectangle_1776" data-name="Rectangle 1776" width="10.78" height="41.375" transform="translate(239.944 706.164)" fill="#f5f5f5"/>
      <path id="Path_618" data-name="Path 618" d="M262.8,714.867a3.426,3.426,0,1,1-3.426-3.417,3.422,3.422,0,0,1,3.426,3.417" transform="translate(0.622)" fill="#fafafa"/>
      <path id="Path_619" data-name="Path 619" d="M262.8,729.486a3.426,3.426,0,1,1-3.426-3.417,3.422,3.422,0,0,1,3.426,3.417" transform="translate(0.622)" fill="#fafafa"/>
      <rect id="Rectangle_1777" data-name="Rectangle 1777" width="10.592" height="31.782" transform="translate(277.116 711.449)" fill="#f5f5f5"/>
      <rect id="Rectangle_1778" data-name="Rectangle 1778" width="10.593" height="31.782" transform="translate(292.414 711.449)" fill="#f5f5f5"/>
      <rect id="Rectangle_1779" data-name="Rectangle 1779" width="10.593" height="31.782" transform="translate(307.714 711.449)" fill="#f5f5f5"/>
      <rect id="Rectangle_1780" data-name="Rectangle 1780" width="10.593" height="31.782" transform="translate(323.014 711.449)" fill="#f5f5f5"/>
      <rect id="Rectangle_1781" data-name="Rectangle 1781" width="10.592" height="31.782" transform="translate(338.314 711.449)" fill="#f5f5f5"/>
      <rect id="Rectangle_1782" data-name="Rectangle 1782" width="10.592" height="31.782" transform="translate(353.614 711.449)" fill="#f5f5f5"/>
      <rect id="Rectangle_1783" data-name="Rectangle 1783" width="10.592" height="31.782" transform="translate(368.914 711.449)" fill="#f5f5f5"/>
      <rect id="Rectangle_1784" data-name="Rectangle 1784" width="10.592" height="31.782" transform="translate(384.213 711.449)" fill="#f5f5f5"/>
      <rect id="Rectangle_1785" data-name="Rectangle 1785" width="10.592" height="31.782" transform="translate(399.513 711.449)" fill="#f5f5f5"/>
      <rect id="Rectangle_1786" data-name="Rectangle 1786" width="10.593" height="31.782" transform="translate(414.812 711.449)" fill="#f5f5f5"/>
      <rect id="Rectangle_1787" data-name="Rectangle 1787" width="192.492" height="54.061" transform="translate(234.573 785.958)" fill="#e8ebeb"/>
      <rect id="Rectangle_1788" data-name="Rectangle 1788" width="10.78" height="41.375" transform="translate(239.944 792.755)" fill="#f5f5f5"/>
      <path id="Path_620" data-name="Path 620" d="M262.8,801.458a3.426,3.426,0,1,1-3.426-3.417,3.422,3.422,0,0,1,3.426,3.417" transform="translate(0.622)" fill="#fafafa"/>
      <path id="Path_621" data-name="Path 621" d="M262.8,816.077a3.426,3.426,0,1,1-3.426-3.417,3.423,3.423,0,0,1,3.426,3.417" transform="translate(0.622)" fill="#fafafa"/>
      <rect id="Rectangle_1789" data-name="Rectangle 1789" width="10.592" height="31.782" transform="translate(277.116 798.04)" fill="#f5f5f5"/>
      <rect id="Rectangle_1790" data-name="Rectangle 1790" width="10.593" height="31.782" transform="translate(292.414 798.04)" fill="#f5f5f5"/>
      <rect id="Rectangle_1791" data-name="Rectangle 1791" width="10.593" height="31.782" transform="translate(307.714 798.04)" fill="#f5f5f5"/>
      <rect id="Rectangle_1792" data-name="Rectangle 1792" width="10.593" height="31.782" transform="translate(323.014 798.04)" fill="#f5f5f5"/>
      <rect id="Rectangle_1793" data-name="Rectangle 1793" width="10.592" height="31.782" transform="translate(338.314 798.04)" fill="#f5f5f5"/>
      <rect id="Rectangle_1794" data-name="Rectangle 1794" width="10.592" height="31.782" transform="translate(353.614 798.04)" fill="#f5f5f5"/>
      <rect id="Rectangle_1795" data-name="Rectangle 1795" width="10.592" height="31.782" transform="translate(368.914 798.04)" fill="#f5f5f5"/>
      <rect id="Rectangle_1796" data-name="Rectangle 1796" width="10.592" height="31.782" transform="translate(384.213 798.04)" fill="#f5f5f5"/>
      <rect id="Rectangle_1797" data-name="Rectangle 1797" width="10.592" height="31.782" transform="translate(399.513 798.04)" fill="#f5f5f5"/>
      <rect id="Rectangle_1798" data-name="Rectangle 1798" width="10.593" height="31.782" transform="translate(414.812 798.04)" fill="#f5f5f5"/>
      <path id="Path_622" data-name="Path 622" d="M353.076,266.411a7.207,7.207,0,0,1-.21-1.668c-.083-1.1-.15-2.718-.207-4.8s-.1-4.634-.245-7.583a48.117,48.117,0,0,0-1.327-9.851,35.239,35.239,0,0,0-5.14-10.789,23.931,23.931,0,0,0-10.526-8.436c-4.475-1.855-9.615-2.547-14.939-3.022L303.9,218.827c-22.722-1.966-43.322-3.231-58.254-3.516-7.466-.167-13.509-.127-17.686-.114l-4.812.04a7.652,7.652,0,0,1-1.682-.079,7.724,7.724,0,0,1,1.671-.2l4.808-.3c4.178-.18,10.232-.37,17.714-.328,14.966.033,35.623,1.146,58.358,3.113l16.586,1.46c5.353.5,10.632,1.222,15.308,3.2a24.984,24.984,0,0,1,10.973,8.95,35.723,35.723,0,0,1,5.15,11.2,47.127,47.127,0,0,1,1.154,10.078c.07,2.971.032,5.525.008,7.609-.022,1.964-.041,3.554-.055,4.8a8,8,0,0,1-.07,1.677" transform="translate(0.538)" fill="#e8ebeb"/>
      <path id="Path_623" data-name="Path 623" d="M294.685,266.411a6.7,6.7,0,0,1-.13-1.577c-.017-1.185-.039-2.681-.066-4.519-.019-1.959-.02-4.358-.239-7.114a21.819,21.819,0,0,0-2.37-8.881c-1.672-2.945-4.952-5.143-8.674-6.643a23.93,23.93,0,0,0-12.643-1.277,21.451,21.451,0,0,0-6.521,2.213,12.391,12.391,0,0,0-5.053,4.771,6.763,6.763,0,0,0,.018,6.705,9.011,9.011,0,0,0,5.717,4.287,7.271,7.271,0,0,0,6.682-1.928,9.872,9.872,0,0,0,3.007-6.361,9.645,9.645,0,0,0-2-6.512,14.3,14.3,0,0,0-5.063-4.465c-1.941-1.086-4.143-1.266-6.34-1.631-2.17-.322-4.281-.607-6.328-.837-4.093-.461-7.923-.727-11.426-.874-7.008-.28-12.7-.179-16.629-.186l-4.529-.02a6.776,6.776,0,0,1-1.582-.1,6.82,6.82,0,0,1,1.575-.179l4.523-.24c3.93-.159,9.622-.411,16.674-.256,3.525.085,7.387.295,11.517.71,2.065.206,4.194.471,6.383.774,1.1.173,2.185.309,3.342.519a13.046,13.046,0,0,1,3.406,1.182,15.539,15.539,0,0,1,5.565,4.84,10.985,10.985,0,0,1,2.274,7.382,11.211,11.211,0,0,1-3.415,7.261,8.664,8.664,0,0,1-7.943,2.279,10.366,10.366,0,0,1-6.622-4.972,8.151,8.151,0,0,1-.011-8.017,13.668,13.668,0,0,1,5.62-5.295,22.587,22.587,0,0,1,6.947-2.311,24.955,24.955,0,0,1,13.283,1.468c3.862,1.608,7.316,3.974,9.1,7.229a22.233,22.233,0,0,1,2.29,9.312c.147,2.808.067,5.214,0,7.177-.079,1.836-.144,3.33-.2,4.514a6.776,6.776,0,0,1-.15,1.574" transform="translate(0.536)" fill="#e8ebeb"/>
      <path id="Path_624" data-name="Path 624" d="M368.788,266.411a9.015,9.015,0,0,1-.406-1.786c-.215-1.178-.548-2.912-1.029-5.13a100.427,100.427,0,0,0-5.691-18.3c-3.145-7.393-8.152-15.978-16.743-22.393-4.184-3.26-9.58-5.045-15.321-5.814-5.741-.83-11.823-.79-18.041-.964-24.872-.469-47.422-.38-63.733-1.028-8.156-.289-14.75-.679-19.3-1.01l-5.236-.449a9.263,9.263,0,0,1-1.818-.254,9.043,9.043,0,0,1,1.836-.026l5.248.189c4.557.164,11.148.4,19.3.567,16.3.4,38.827.151,63.736.62,6.209.176,12.32.14,18.207,1.007,5.848.793,11.555,2.7,15.9,6.139a48.608,48.608,0,0,1,10.6,11.2,64.813,64.813,0,0,1,6.275,11.84,91.739,91.739,0,0,1,5.314,18.574c.4,2.245.65,4,.774,5.193a9,9,0,0,1,.128,1.828" transform="translate(0.538)" fill="#e8ebeb"/>
      <rect id="Rectangle_1799" data-name="Rectangle 1799" width="187.197" height="27.108" transform="translate(237.22 164.054)" fill="#e8ebeb"/>
      <rect id="Rectangle_1800" data-name="Rectangle 1800" width="101.918" height="13.554" transform="translate(278.39 177.608)" fill="#f2f5f5"/>
      <path id="Path_625" data-name="Path 625" d="M817.164,124.911l123.779-18.866c10.375,67.738-36.963,131.995-104.865,142.345S703.762,211.518,693.386,143.779s36.962-132,104.865-142.345A125.5,125.5,0,0,1,830.913.756Z" transform="translate(1.681)" fill="#f2f5f5"/>
      <path id="Path_626" data-name="Path 626" d="M856.961,1.151,841.933,96.869l94.184-17.645S922.269,25.581,856.961,1.151" transform="translate(2.045)" fill="#e8ebeb"/>
      <path id="Path_627" data-name="Path 627" d="M37.865,97.531A67.464,67.464,0,1,1,106.4,164.048,67.62,67.62,0,0,1,37.865,97.531m99.708-1.6a32.257,32.257,0,1,0-31.735,32.843,32.327,32.327,0,0,0,31.735-32.843" transform="translate(0.092)" fill="#f5f5f5"/>
      <path id="Path_628" data-name="Path 628" d="M37.866,97.531a67.619,67.619,0,0,1,66.371-68.688l.566,35.278a32.327,32.327,0,0,0,1.036,64.646l.565,35.279A67.606,67.606,0,0,1,37.866,97.531" transform="translate(0.092)" fill="#e8ebeb"/>
      <path id="Path_629" data-name="Path 629" d="M98.034,23.417c43.514-.7,78.229,32.989,78.927,76.6l-41.184.662c-.334-20.851-16.238-33.979-37.045-33.644Z" transform="translate(0.238)" fill="#e8ebeb"/>
      <path id="Path_630" data-name="Path 630" d="M1133.6,743.011a67.464,67.464,0,1,1,68.539,66.517,67.621,67.621,0,0,1-68.539-66.517m99.709-1.6a32.257,32.257,0,1,0-31.735,32.843,32.327,32.327,0,0,0,31.735-32.843" transform="translate(2.754)" fill="#f2f5f5"/>
      <path id="Path_631" data-name="Path 631" d="M1133.6,743.012a67.619,67.619,0,0,1,66.371-68.688l.566,35.278a32.327,32.327,0,0,0,1.036,64.646l.565,35.279a67.607,67.607,0,0,1-68.538-66.515" transform="translate(2.754)" fill="#e8ebeb"/>
      <path id="Path_632" data-name="Path 632" d="M1193.773,668.9c43.515-.7,78.228,32.989,78.927,76.6l-41.184.663c-.335-20.851-16.239-33.979-37.045-33.644Z" transform="translate(2.9)" fill="#e8ebeb"/>
      <rect id="Rectangle_1801" data-name="Rectangle 1801" width="280.707" height="319.587" transform="translate(1078.869 78.316)" fill="#fff"/>
      <path id="Path_633" data-name="Path 633" d="M1356.963,397.9s-.017-.521-.026-1.52-.015-2.493-.027-4.44c-.012-3.923-.03-9.711-.054-17.249-.028-15.088-.069-37.168-.121-65.207-.056-56.034-.136-135.873-.232-231.171l.461.46-280.679.061h-.028l.522-.521c-.03,117.826-.058,227.7-.081,319.587l-.441-.441,203.6.227,56.926.115,15,.05c3.4.017,5.177.049,5.177.049s-1.712.033-5.08.049l-14.92.051-56.826.114-203.881.227h-.442V397.9c-.023-91.885-.051-201.761-.08-319.587v-.521h.551l280.679.061h.462v.46c-.1,95.42-.177,175.362-.233,231.468-.052,27.994-.093,50.038-.121,65.1-.024,7.5-.042,13.257-.055,17.159q-.016,2.889-.026,4.391c-.008.981-.026,1.467-.026,1.467" transform="translate(2.613)" fill="#171d24"/>
      <path id="Path_634" data-name="Path 634" d="M1332.747,241.5c-.092.191-3.108-1.554-9.026-3.422a58.164,58.164,0,0,0-25.887-1.916,56.673,56.673,0,0,0-17.072,5.473c-5.79,2.9-11.307,7.187-16.788,12.045-5.505,4.846-10.969,10.348-17.273,15.434-6.3,5.005-13.537,9.74-22.045,11.9a33.436,33.436,0,0,1-12.871.774,41.792,41.792,0,0,1-11.927-3.674c-7.394-3.476-13.716-8.043-19.979-11.852-6.217-3.884-12.468-6.966-18.791-8.4a55.934,55.934,0,0,0-17.874-1.368,57.685,57.685,0,0,0-24.674,8.014c-5.294,3.228-7.792,5.656-7.933,5.486a12.4,12.4,0,0,1,1.792-1.759,42.933,42.933,0,0,1,5.744-4.359,56.412,56.412,0,0,1,43.317-7.557c6.529,1.409,13.054,4.565,19.341,8.44,6.346,3.81,12.671,8.316,19.846,11.655,7.1,3.413,15.458,4.931,23.54,2.748,8.085-2.047,15.14-6.615,21.34-11.51,6.2-4.972,11.693-10.44,17.278-15.3,5.565-4.867,11.239-9.215,17.24-12.138a57.3,57.3,0,0,1,43.91-2.848,46,46,0,0,1,6.629,2.846,12.415,12.415,0,0,1,2.163,1.283" transform="translate(2.698)" fill="#ff725e"/>
      <rect id="Rectangle_1802" data-name="Rectangle 1802" width="23.864" height="64.386" transform="translate(1156.133 284.425)" fill="#22df96"/>
      <rect id="Rectangle_1803" data-name="Rectangle 1803" width="23.865" height="64.386" transform="translate(1257.398 284.425)" fill="#1d2679"/>
      <rect id="Rectangle_1804" data-name="Rectangle 1804" width="23.865" height="102.197" transform="translate(1291.154 246.614)" fill="#22df96"/>
      <rect id="Rectangle_1805" data-name="Rectangle 1805" width="23.865" height="21.669" transform="translate(1125.249 328.542)" fill="#1d2679"/>
      <rect id="Rectangle_1806" data-name="Rectangle 1806" width="23.865" height="35.312" transform="translate(1189.887 313.499)" fill="#1d2679"/>
      <rect id="Rectangle_1807" data-name="Rectangle 1807" width="23.865" height="43.417" transform="translate(1223.644 305.394)" fill="#22df96"/>
      <path id="Path_635" data-name="Path 635" d="M1178.158,356.4c0,.528-5.773.956-12.892.956s-12.894-.428-12.894-.956,5.772-.956,12.894-.956,12.892.427,12.892.956" transform="translate(2.8)" fill="#171d24"/>
      <path id="Path_636" data-name="Path 636" d="M1148.534,356.4c0,.528-5.774.956-12.893.956s-12.894-.428-12.894-.956,5.772-.956,12.894-.956,12.893.427,12.893.956" transform="translate(2.728)" fill="#171d24"/>
      <path id="Path_637" data-name="Path 637" d="M1316.594,356.4c0,.528-6.526.956-14.574.956s-14.575-.428-14.575-.956,6.524-.956,14.575-.956,14.574.427,14.574.956" transform="translate(3.128)" fill="#171d24"/>
      <path id="Path_638" data-name="Path 638" d="M1281.227,356.4c0,.528-6.527.956-14.575.956s-14.575-.428-14.575-.956,6.525-.956,14.575-.956,14.575.427,14.575.956" transform="translate(3.042)" fill="#171d24"/>
      <path id="Path_639" data-name="Path 639" d="M1244.546,356.4c0,.529-5.774.958-12.893.958s-12.893-.429-12.893-.958,5.772-.957,12.893-.957,12.893.429,12.893.957" transform="translate(2.961)" fill="#171d24"/>
      <path id="Path_640" data-name="Path 640" d="M1209.755,356.4c0,.529-5.774.958-12.893.958s-12.894-.429-12.894-.958,5.773-.957,12.894-.957,12.893.429,12.893.957" transform="translate(2.876)" fill="#171d24"/>
      <rect id="Rectangle_1808" data-name="Rectangle 1808" width="195.034" height="80.799" transform="translate(1124.688 124.907)" fill="#f2f5f5"/>
      <path id="Path_641" data-name="Path 641" d="M1162.427,150.444a9.092,9.092,0,1,1-9.092-9.07,9.081,9.081,0,0,1,9.092,9.07" transform="translate(2.78)" fill="#1d2679"/>
      <rect id="Rectangle_1809" data-name="Rectangle 1809" width="63.353" height="3.509" transform="translate(1174.298 144.179)" fill="#1d2679"/>
      <rect id="Rectangle_1810" data-name="Rectangle 1810" width="123.24" height="3.509" transform="translate(1174.298 152.153)" fill="#1d2679"/>
      <path id="Path_642" data-name="Path 642" d="M1162.427,178.329a9.092,9.092,0,1,1-9.092-9.07,9.081,9.081,0,0,1,9.092,9.07" transform="translate(2.78)" fill="#22df96"/>
      <rect id="Rectangle_1811" data-name="Rectangle 1811" width="32.351" height="3.509" transform="translate(1174.298 172.064)" fill="#22df96"/>
      <rect id="Rectangle_1812" data-name="Rectangle 1812" width="123.24" height="3.509" transform="translate(1174.298 180.037)" fill="#22df96"/>
      <rect id="Rectangle_1813" data-name="Rectangle 1813" width="235.343" height="168.484" transform="translate(1228.956 714.345) rotate(-89.508)" fill="#fff"/>
      <path id="Path_643" data-name="Path 643" d="M1225.978,714.345s-.016-.357-.019-1.087c0-.757,0-1.842,0-3.264.012-2.917.029-7.2.051-12.753.066-11.206.162-27.553.284-48.235.3-41.507.722-100.385,1.221-170l0-.489.491,0,168.453,1.394h.019l.54.005-.005.538c-.8,88.116-1.534,169.62-2.128,235.33l0,.438-.437-.005-122.741-1.28-33.881-.4-8.852-.125c-1.994-.033-3-.073-3-.073s1.066-.023,3.089-.021l8.934.027,33.981.18,122.472.821-.441.433c.537-65.711,1.2-147.216,1.925-235.332l.534.543h-.019L1228,479.5l.494-.485c-.7,69.479-1.287,128.245-1.7,169.673-.234,20.728-.421,37.112-.547,48.343-.074,5.6-.131,9.911-.17,12.85-.024,1.445-.043,2.549-.057,3.318-.015.748-.038,1.143-.038,1.143" transform="translate(2.979)" fill="#171d24"/>
      <path id="Path_644" data-name="Path 644" d="M1249.443,536.348c.005-.542,27.9-.742,62.306-.447s62.3.973,62.295,1.515-27.9.741-62.312.446-62.294-.973-62.289-1.514" transform="translate(3.035)" fill="#171d24"/>
      <path id="Path_645" data-name="Path 645" d="M1249.3,552.965c.005-.542,27.9-.742,62.306-.447s62.3.973,62.3,1.514-27.9.742-62.313.447-62.293-.973-62.289-1.514" transform="translate(3.035)" fill="#171d24"/>
      <path id="Path_646" data-name="Path 646" d="M1249.157,569.583c.005-.542,27.9-.742,62.306-.447s62.3.973,62.3,1.515-27.9.741-62.313.446-62.293-.973-62.289-1.514" transform="translate(3.035)" fill="#171d24"/>
      <path id="Path_647" data-name="Path 647" d="M1249.014,586.2c.005-.542,27.9-.742,62.306-.447s62.3.973,62.3,1.515-27.9.741-62.312.446-62.294-.973-62.289-1.514" transform="translate(3.034)" fill="#171d24"/>
      <path id="Path_648" data-name="Path 648" d="M1248.872,602.818c.005-.542,27.9-.741,62.306-.447s62.3.973,62.3,1.515-27.9.741-62.312.446-62.294-.973-62.289-1.514" transform="translate(3.034)" fill="#171d24"/>
      <rect id="Rectangle_1814" data-name="Rectangle 1814" width="20.051" height="62.471" transform="translate(1276.466 622.109)" fill="#1d2679"/>
      <rect id="Rectangle_1815" data-name="Rectangle 1815" width="20.051" height="48.201" transform="translate(1306.403 636.379)" fill="#ffd503"/>
      <rect id="Rectangle_1816" data-name="Rectangle 1816" width="20.051" height="28.624" transform="translate(1334.118 655.956)" fill="#22df96"/>
      <path id="Path_649" data-name="Path 649" d="M1078.345,438.8a3.585,3.585,0,0,1,.724-.055l2.124-.054,8.168-.1,30.038-.172,99.1-.157,88.56.122h.524l0,.415c-.1,12.6-.173,22.891-.229,30.121-.059,3.511-.106,6.275-.139,8.246-.031.89-.056,1.6-.075,2.151a2.733,2.733,0,0,1-.077.734,2.608,2.608,0,0,1-.078-.734c-.019-.551-.044-1.261-.074-2.151-.034-1.971-.081-4.735-.14-8.246-.055-7.23-.133-17.521-.228-30.121l.52.416-88.56.122-99.1-.157-30.038-.171-8.168-.1-2.124-.054a3.58,3.58,0,0,1-.724-.055" transform="translate(2.62)" fill="#171d24"/>
      <path id="Path_650" data-name="Path 650" d="M1075.894,132.123a6.484,6.484,0,0,1-1.3.1l-3.746.093-13.9.162-46.892.179.533-.538c.032,3.5.066,7.165.1,10.9.173,21.15.206,40.3.1,54.157-.061,6.93-.151,12.538-.285,16.414-.07,1.938-.146,3.441-.23,4.462a8.349,8.349,0,0,1-.221,1.545s.079-8.562-.03-22.422c-.107-13.958-.254-33.05-.415-54.148-.03-3.732-.06-7.4-.089-10.9l-.005-.54.54,0,46.892.179,13.9.162,3.746.093a6.484,6.484,0,0,1,1.3.1" transform="translate(2.453)" fill="#171d24"/>
      <path id="Path_651" data-name="Path 651" d="M1081.065,132.123a5.319,5.319,0,1,1-5.319-5.306,5.312,5.312,0,0,1,5.319,5.306" transform="translate(2.601)" fill="#263238"/>
      <path id="Path_652" data-name="Path 652" d="M1311.942,480.048a5.319,5.319,0,1,1-5.319-5.306,5.312,5.312,0,0,1,5.319,5.306" transform="translate(3.161)" fill="#171d24"/>
      <path id="Path_653" data-name="Path 653" d="M1070.843,214.492h-719.6A22.435,22.435,0,0,0,328.776,236.9V743.94a22.436,22.436,0,0,0,22.462,22.41H627.422s17.569,54.194-36.892,82.234H848.774S787.285,827.555,803.1,766.35h267.75a22.436,22.436,0,0,0,22.461-22.408V236.9a22.436,22.436,0,0,0-22.463-22.408" transform="translate(0.799)" fill="#1d2679"/>
      <path id="Path_654" data-name="Path 654" d="M719.758,713.024c9.789,13.956-5.531,29.24-19.525,19.477a4.987,4.987,0,0,1-1.2-1.2c-9.763-13.953,5.539-29.217,19.523-19.474a4.9,4.9,0,0,1,1.2,1.2" transform="translate(1.691)" fill="#fff"/>
      <path id="Path_655" data-name="Path 655" d="M1080.887,673.59H341.137V233.479a9.71,9.71,0,0,1,9.722-9.7h720.308a9.71,9.71,0,0,1,9.721,9.7Z" transform="translate(0.829)" fill="#fff"/>
      <path id="Path_656" data-name="Path 656" d="M1080.887,261.157H341.137V232.935a9.165,9.165,0,0,1,9.176-9.154h723.039a7.525,7.525,0,0,1,7.534,7.516Z" transform="translate(0.829)" fill="#e8ebeb"/>
      <path id="Path_657" data-name="Path 657" d="M369.846,243.253a5.2,5.2,0,1,1-5.2-5.184,5.19,5.19,0,0,1,5.2,5.184" transform="translate(0.873)" fill="#fff"/>
      <path id="Path_658" data-name="Path 658" d="M385.3,243.253a5.2,5.2,0,1,1-5.2-5.184,5.19,5.19,0,0,1,5.2,5.184" transform="translate(0.911)" fill="#fff"/>
      <path id="Path_659" data-name="Path 659" d="M400,243.253a5.2,5.2,0,1,1-5.2-5.184,5.19,5.19,0,0,1,5.2,5.184" transform="translate(0.947)" fill="#fff"/>
      <path id="Path_660" data-name="Path 660" d="M941.813,766.421c0,.238-102.4.431-228.689.431-126.331,0-228.71-.193-228.71-.431s102.379-.431,228.71-.431c126.288,0,228.689.193,228.689.431" transform="translate(1.177)" fill="#263238"/>
      <path id="Path_661" data-name="Path 661" d="M579.385,515.946l-206.291.593.408,141.294,171.015-.491,23.191-.067,12.084-.034Z" transform="translate(0.906)" fill="#f2f5f5"/>
      <path id="Path_662" data-name="Path 662" d="M388.932,642.678c-.25,0-.52-23.966-.605-53.527s.047-53.534.3-53.535.519,23.962.6,53.532-.047,53.53-.3,53.53" transform="translate(0.943)" fill="#171d24"/>
      <path id="Path_663" data-name="Path 663" d="M567.912,627.42c0,.248-40.231.565-89.851.708-49.635.143-89.861.057-89.862-.192s40.223-.565,89.86-.708c49.618-.142,89.852-.056,89.853.192" transform="translate(0.943)" fill="#ebebeb"/>
      <path id="Path_664" data-name="Path 664" d="M567.867,611.712c0,.248-40.232.565-89.851.708-49.635.142-89.861.056-89.862-.192s40.224-.565,89.86-.708c49.618-.142,89.852-.056,89.853.192" transform="translate(0.943)" fill="#ebebeb"/>
      <path id="Path_665" data-name="Path 665" d="M567.823,596.005c0,.249-40.232.566-89.851.708-49.636.143-89.861.057-89.862-.192s40.223-.565,89.86-.707c49.618-.143,89.852-.057,89.853.191" transform="translate(0.943)" fill="#ebebeb"/>
      <path id="Path_666" data-name="Path 666" d="M567.778,580.3c0,.249-40.232.566-89.851.708-49.635.143-89.861.057-89.862-.192s40.223-.565,89.86-.707c49.618-.143,89.852-.057,89.853.191" transform="translate(0.943)" fill="#ebebeb"/>
      <path id="Path_667" data-name="Path 667" d="M567.732,564.59c0,.249-40.233.565-89.851.708-49.636.143-89.861.057-89.862-.192s40.223-.565,89.859-.708c49.619-.142,89.853-.056,89.854.192" transform="translate(0.943)" fill="#ebebeb"/>
      <path id="Path_668" data-name="Path 668" d="M567.686,548.882c0,.249-40.231.565-89.851.708-49.635.143-89.861.057-89.862-.192s40.223-.565,89.86-.708c49.618-.142,89.852-.056,89.853.192" transform="translate(0.943)" fill="#ebebeb"/>
      <path id="Path_669" data-name="Path 669" d="M567.641,533.175c0,.249-40.231.565-89.851.708-49.635.142-89.861.057-89.862-.192s40.224-.565,89.86-.708c49.618-.142,89.852-.056,89.853.192" transform="translate(0.942)" fill="#ebebeb"/>
      <rect id="Rectangle_1817" data-name="Rectangle 1817" width="12.885" height="24.478" transform="translate(401.274 618.167) rotate(-0.165)" fill="#1d2679"/>
      <rect id="Rectangle_1818" data-name="Rectangle 1818" width="12.885" height="24.478" transform="translate(494.866 617.898) rotate(-0.165)" fill="#1d2679"/>
      <rect id="Rectangle_1819" data-name="Rectangle 1819" width="12.885" height="42.481" transform="translate(426.496 600.092) rotate(-0.165)" fill="#22df96"/>
      <rect id="Rectangle_1820" data-name="Rectangle 1820" width="12.886" height="53.532" transform="translate(473.684 588.906) rotate(-0.165)" fill="#22df96"/>
      <rect id="Rectangle_1821" data-name="Rectangle 1821" width="12.886" height="86.055" transform="translate(450.279 556.449) rotate(-0.165)" fill="#1d2679"/>
      <rect id="Rectangle_1822" data-name="Rectangle 1822" width="12.886" height="70.139" transform="translate(519.705 572.166) rotate(-0.165)" fill="#22df96"/>
      <path id="Path_670" data-name="Path 670" d="M547.207,642.224c0,.248-35.363.552-78.976.677-43.629.125-78.986.025-78.986-.223s35.355-.552,78.983-.677c43.614-.125,78.978-.025,78.979.223" transform="translate(0.946)" fill="#171d24"/>
      <path id="Path_671" data-name="Path 671" d="M371.221,294.649v207.5H821.164v-207.5Z" transform="translate(0.902)" fill="#f2f5f5"/>
      <path id="Path_672" data-name="Path 672" d="M402.8,437.978v6.552h-.677v-5.953h-1.548v-.6Z" transform="translate(0.973)" fill="#171d24"/>
      <path id="Path_673" data-name="Path 673" d="M404.368,441.255c0-2.087,1.1-3.333,2.617-3.333s2.626,1.246,2.626,3.333-1.108,3.331-2.626,3.331-2.617-1.244-2.617-3.331m4.551,0c0-1.751-.788-2.715-1.934-2.715s-1.934.964-1.934,2.715.791,2.713,1.934,2.713,1.934-.964,1.934-2.713" transform="translate(0.982)" fill="#171d24"/>
      <path id="Path_674" data-name="Path 674" d="M405.469,403.2v.6h-4.607v-.477l2.73-2.669c.741-.728.882-1.169.882-1.618,0-.758-.535-1.226-1.538-1.226a2.228,2.228,0,0,0-1.792.731l-.478-.412a2.95,2.95,0,0,1,2.325-.937c1.333,0,2.177.674,2.177,1.77a2.692,2.692,0,0,1-1.079,2.049l-2.231,2.19Z" transform="translate(0.973)" fill="#171d24"/>
      <path id="Path_675" data-name="Path 675" d="M406.27,400.522c0-2.087,1.1-3.333,2.617-3.333s2.626,1.246,2.626,3.333-1.108,3.331-2.626,3.331-2.617-1.244-2.617-3.331m4.55,0c0-1.751-.787-2.715-1.933-2.715s-1.933.964-1.933,2.715.789,2.714,1.933,2.714,1.933-.965,1.933-2.714" transform="translate(0.987)" fill="#171d24"/>
      <path id="Path_676" data-name="Path 676" d="M405.327,361.18c0,1.1-.8,1.938-2.383,1.938a3.42,3.42,0,0,1-2.366-.843l.33-.533a2.878,2.878,0,0,0,2.036.757c1.089,0,1.689-.5,1.689-1.319,0-.785-.555-1.3-1.775-1.3h-.469v-.5l1.82-2.274h-3.358v-.6h4.222v.477l-1.858,2.33c1.408.075,2.112.815,2.112,1.863" transform="translate(0.973)" fill="#171d24"/>
      <path id="Path_677" data-name="Path 677" d="M406.27,359.786c0-2.087,1.1-3.332,2.617-3.332s2.626,1.245,2.626,3.332-1.108,3.332-2.626,3.332-2.617-1.245-2.617-3.332m4.55,0c0-1.75-.787-2.714-1.933-2.714s-1.933.964-1.933,2.714.789,2.713,1.933,2.713,1.933-.964,1.933-2.713" transform="translate(0.987)" fill="#171d24"/>
      <path id="Path_678" data-name="Path 678" d="M431.719,462.749c0-2.087,1.1-3.333,2.617-3.333s2.626,1.246,2.626,3.333-1.108,3.331-2.626,3.331-2.617-1.244-2.617-3.331m4.55,0c0-1.751-.787-2.715-1.933-2.715s-1.934.964-1.934,2.715.79,2.713,1.934,2.713,1.933-.964,1.933-2.713" transform="translate(1.049)" fill="#171d24"/>
      <path id="Path_679" data-name="Path 679" d="M480.215,459.472v6.552h-.678v-5.953h-1.547v-.6Z" transform="translate(1.161)" fill="#171d24"/>
      <path id="Path_680" data-name="Path 680" d="M531.333,465.425v.6h-4.607v-.477l2.73-2.668c.742-.729.882-1.17.882-1.618,0-.759-.535-1.227-1.538-1.227a2.226,2.226,0,0,0-1.791.731l-.479-.412a2.953,2.953,0,0,1,2.326-.937c1.332,0,2.176.674,2.176,1.77a2.692,2.692,0,0,1-1.079,2.05l-2.232,2.189Z" transform="translate(1.279)" fill="#171d24"/>
      <path id="Path_681" data-name="Path 681" d="M579.644,464.142c0,1.1-.8,1.937-2.384,1.937a3.416,3.416,0,0,1-2.366-.842l.331-.533a2.877,2.877,0,0,0,2.035.758c1.089,0,1.689-.505,1.689-1.32,0-.785-.554-1.3-1.774-1.3h-.469v-.5l1.82-2.274h-3.358v-.6h4.221v.477l-1.859,2.331c1.409.074,2.113.814,2.113,1.862" transform="translate(1.397)" fill="#171d24"/>
      <path id="Path_682" data-name="Path 682" d="M629.333,464.3H628.02v1.722h-.675V464.3h-3.7v-.487l3.48-4.343h.751l-3.359,4.231h2.852v-1.516h.656V463.7h1.313Z" transform="translate(1.515)" fill="#171d24"/>
      <path id="Path_683" data-name="Path 683" d="M676.661,464.1c0,1.115-.78,1.984-2.383,1.984a3.392,3.392,0,0,1-2.356-.842l.33-.533a2.845,2.845,0,0,0,2.017.757c1.115,0,1.708-.542,1.708-1.337,0-.842-.527-1.366-2.2-1.366h-1.4l.34-3.286h3.593v.6h-3l-.225,2.088h.844c1.979,0,2.73.776,2.73,1.936" transform="translate(1.632)" fill="#171d24"/>
      <path id="Path_684" data-name="Path 684" d="M725.592,464.068a2.044,2.044,0,0,1-2.241,2.011c-1.746,0-2.694-1.207-2.694-3.275,0-2.227,1.22-3.388,3-3.388a3.039,3.039,0,0,1,1.558.355l-.273.543a2.308,2.308,0,0,0-1.275-.309c-1.417,0-2.328.908-2.328,2.687,0,.149.01.337.029.534a2.1,2.1,0,0,1,2.007-1.124,1.989,1.989,0,0,1,2.215,1.966m-.668.018c0-.86-.637-1.413-1.651-1.413a1.519,1.519,0,0,0-1.688,1.432c0,.721.6,1.4,1.736,1.4a1.435,1.435,0,0,0,1.6-1.423" transform="translate(1.751)" fill="#171d24"/>
      <path id="Path_685" data-name="Path 685" d="M773.744,459.472v.477L771,466.024h-.732l2.7-5.953h-3.377V461.3h-.668v-1.826Z" transform="translate(1.868)" fill="#171d24"/>
      <path id="Path_686" data-name="Path 686" d="M774.906,441.571c0,.352-76.012.636-169.757.636-93.777,0-169.773-.284-169.773-.636s76-.636,169.773-.636c93.745,0,169.757.285,169.757.636" transform="translate(1.058)" fill="#171d24"/>
      <path id="Path_687" data-name="Path 687" d="M774.906,400.627c0,.352-76.012.636-169.757.636-93.777,0-169.773-.284-169.773-.636s76-.636,169.773-.636c93.745,0,169.757.285,169.757.636" transform="translate(1.058)" fill="#171d24"/>
      <path id="Path_688" data-name="Path 688" d="M774.906,359.683c0,.351-76.012.636-169.757.636-93.777,0-169.773-.285-169.773-.636s76-.636,169.773-.636c93.745,0,169.757.285,169.757.636" transform="translate(1.058)" fill="#171d24"/>
      <path id="Path_689" data-name="Path 689" d="M435.386,440.972a2.18,2.18,0,1,1-2.18-2.175,2.178,2.178,0,0,1,2.18,2.175" transform="translate(1.047)" fill="#22df96"/>
      <path id="Path_690" data-name="Path 690" d="M484.083,440.972a2.18,2.18,0,1,1-2.18-2.175,2.178,2.178,0,0,1,2.18,2.175" transform="translate(1.166)" fill="#22df96"/>
      <path id="Path_691" data-name="Path 691" d="M532.781,440.972a2.181,2.181,0,1,1-2.18-2.175,2.178,2.178,0,0,1,2.18,2.175" transform="translate(1.284)" fill="#22df96"/>
      <path id="Path_692" data-name="Path 692" d="M581.479,440.972a2.18,2.18,0,1,1-2.18-2.175,2.178,2.178,0,0,1,2.18,2.175" transform="translate(1.402)" fill="#22df96"/>
      <path id="Path_693" data-name="Path 693" d="M630.177,440.972A2.181,2.181,0,1,1,628,438.8a2.178,2.178,0,0,1,2.18,2.175" transform="translate(1.521)" fill="#22df96"/>
      <path id="Path_694" data-name="Path 694" d="M727.572,440.972a2.181,2.181,0,1,1-2.18-2.175,2.178,2.178,0,0,1,2.18,2.175" transform="translate(1.757)" fill="#22df96"/>
      <path id="Path_695" data-name="Path 695" d="M678.874,440.972a2.18,2.18,0,1,1-2.18-2.175,2.178,2.178,0,0,1,2.18,2.175" transform="translate(1.639)" fill="#22df96"/>
      <path id="Path_696" data-name="Path 696" d="M776.268,440.972a2.18,2.18,0,1,1-2.18-2.175,2.178,2.178,0,0,1,2.18,2.175" transform="translate(1.875)" fill="#22df96"/>
      <path id="Path_697" data-name="Path 697" d="M457.574,441.571a1.432,1.432,0,1,1-1.432-1.428,1.43,1.43,0,0,1,1.432,1.428" transform="translate(1.105)" fill="#e0e0e0"/>
      <path id="Path_698" data-name="Path 698" d="M506.455,441.571a1.432,1.432,0,1,1-1.431-1.428,1.43,1.43,0,0,1,1.431,1.428" transform="translate(1.223)" fill="#e0e0e0"/>
      <path id="Path_699" data-name="Path 699" d="M555.335,441.571a1.432,1.432,0,1,1-1.431-1.428,1.429,1.429,0,0,1,1.431,1.428" transform="translate(1.342)" fill="#e0e0e0"/>
      <path id="Path_700" data-name="Path 700" d="M604.216,441.571a1.432,1.432,0,1,1-1.431-1.428,1.429,1.429,0,0,1,1.431,1.428" transform="translate(1.461)" fill="#e0e0e0"/>
      <path id="Path_701" data-name="Path 701" d="M653.1,441.571a1.432,1.432,0,1,1-1.432-1.428,1.429,1.429,0,0,1,1.432,1.428" transform="translate(1.58)" fill="#e0e0e0"/>
      <path id="Path_702" data-name="Path 702" d="M701.978,441.571a1.431,1.431,0,1,1-1.431-1.428,1.429,1.429,0,0,1,1.431,1.428" transform="translate(1.698)" fill="#e0e0e0"/>
      <path id="Path_703" data-name="Path 703" d="M750.86,441.571a1.432,1.432,0,1,1-1.432-1.428,1.43,1.43,0,0,1,1.432,1.428" transform="translate(1.817)" fill="#e0e0e0"/>
      <path id="Path_704" data-name="Path 704" d="M487.258,423.471a5.347,5.347,0,1,1-5.348-5.335,5.341,5.341,0,0,1,5.348,5.335" transform="translate(1.158)" fill="#22df96"/>
      <path id="Path_705" data-name="Path 705" d="M529.745,398.4a5.347,5.347,0,1,1-5.348-5.335,5.341,5.341,0,0,1,5.348,5.335" transform="translate(1.261)" fill="#22df96"/>
      <path id="Path_706" data-name="Path 706" d="M582.478,400.627a5.347,5.347,0,1,1-5.348-5.334,5.342,5.342,0,0,1,5.348,5.334" transform="translate(1.389)" fill="#22df96"/>
      <path id="Path_707" data-name="Path 707" d="M633.961,355.05a5.347,5.347,0,1,1-5.348-5.335,5.341,5.341,0,0,1,5.348,5.335" transform="translate(1.514)" fill="#22df96"/>
      <path id="Path_708" data-name="Path 708" d="M682.048,384.037A5.347,5.347,0,1,1,676.7,378.7a5.341,5.341,0,0,1,5.348,5.335" transform="translate(1.631)" fill="#22df96"/>
      <path id="Path_709" data-name="Path 709" d="M730.746,391.754a5.347,5.347,0,1,1-5.348-5.335,5.341,5.341,0,0,1,5.348,5.335" transform="translate(1.749)" fill="#22df96"/>
      <path id="Path_710" data-name="Path 710" d="M777.072,423.471a7.927,7.927,0,0,1-1.254,0,26.041,26.041,0,0,1-3.649-.486,27.621,27.621,0,0,1-12.7-6.018,26.273,26.273,0,0,1-6.238-8.094,59.276,59.276,0,0,0-6.534-10.09c-2.754-3.238-6.308-6.552-11.035-7.68a14.115,14.115,0,0,0-7.3.259,19.647,19.647,0,0,0-6.774,3.826c-4.158,3.467-7.22,8.394-11.259,12.866A22.3,22.3,0,0,1,703,413.739a14.81,14.81,0,0,1-9.638.791c-3.341-.893-5.883-3.684-7.335-6.722a46.51,46.51,0,0,1-3.165-9.722,56.016,56.016,0,0,0-2.91-9.868,7.746,7.746,0,0,0-3.124-3.736,10.187,10.187,0,0,0-4.934-.956c-3.52.182-7.06,1.2-10.732,1.89a31.259,31.259,0,0,1-5.662.644,12.821,12.821,0,0,1-5.757-1.118,11.72,11.72,0,0,1-4.57-3.816,28.538,28.538,0,0,1-2.8-5.182c-1.548-3.6-2.578-7.383-3.98-11.015a26.669,26.669,0,0,0-2.582-5.158,9.417,9.417,0,0,0-4.237-3.519c-.445-.129-.881-.293-1.333-.4l-1.408-.131a5.1,5.1,0,0,0-2.611.533,10.8,10.8,0,0,0-3.909,4.071,49.807,49.807,0,0,0-4.533,11.2c-1.166,3.927-2.145,7.948-3.089,12-1.561,6.716-2.953,13.413-4.685,19.969a99.706,99.706,0,0,1-3,9.677c-1.222,3.126-2.615,6.278-5.07,8.787a7.058,7.058,0,0,1-4.819,2.131,9.816,9.816,0,0,1-4.934-1.493,23.411,23.411,0,0,1-6.934-7c-3.7-5.334-6.074-11.276-8.374-16.958-2.34-5.624-4.981-11.191-9.35-15.006a17.53,17.53,0,0,0-15.693-3.82,26.476,26.476,0,0,0-7.468,3.279,50.952,50.952,0,0,0-6.521,4.7,86.953,86.953,0,0,0-10.883,10.92l-.022.027-.009.009a117.247,117.247,0,0,1-16.124,13.364,78.74,78.74,0,0,1-16.514,8.927c-5.511,2.035-11.057,3.238-16.167,2.686a56.832,56.832,0,0,1-13.466-3.25,126.915,126.915,0,0,1-17.488-7.978c-1.936-1.059-3.392-1.906-4.362-2.5s-1.442-.935-1.442-.935.523.26,1.518.8l4.427,2.364a135.867,135.867,0,0,0,17.538,7.7,56.759,56.759,0,0,0,13.332,3.1c4.963.5,10.405-.711,15.819-2.751a78.24,78.24,0,0,0,16.28-8.921A117.067,117.067,0,0,0,526.2,398.049l-.03.034a87.563,87.563,0,0,1,10.988-11.11,51.917,51.917,0,0,1,6.638-4.82,27.529,27.529,0,0,1,7.765-3.429,18.664,18.664,0,0,1,16.733,4.026c4.635,4.041,7.326,9.771,9.7,15.426,2.322,5.71,4.666,11.526,8.277,16.718a22.263,22.263,0,0,0,6.549,6.627,8.574,8.574,0,0,0,4.318,1.317,5.8,5.8,0,0,0,3.93-1.785c2.183-2.223,3.582-5.277,4.761-8.332a98.829,98.829,0,0,0,2.958-9.552c1.717-6.509,3.108-13.2,4.672-19.931.945-4.068,1.93-8.109,3.109-12.081a50.792,50.792,0,0,1,4.672-11.494,11.967,11.967,0,0,1,4.426-4.54,6.392,6.392,0,0,1,3.229-.662l1.594.153c.52.122,1.031.307,1.546.462a10.683,10.683,0,0,1,4.821,3.984,27.824,27.824,0,0,1,2.714,5.419c1.425,3.712,2.45,7.483,3.952,10.983,1.48,3.452,3.389,6.952,6.739,8.376,3.265,1.575,7.128,1.019,10.685.4,3.61-.67,7.176-1.7,10.915-1.887a11.312,11.312,0,0,1,5.535,1.111,8.873,8.873,0,0,1,3.6,4.265,56.525,56.525,0,0,1,2.96,10.1,45.712,45.712,0,0,0,3.051,9.5c1.389,2.9,3.661,5.376,6.655,6.193a13.792,13.792,0,0,0,8.928-.711,21.329,21.329,0,0,0,7.014-5.417c3.983-4.359,7.088-9.318,11.406-12.892a20.491,20.491,0,0,1,7.109-3.957,14.936,14.936,0,0,1,7.735-.227c5,1.237,8.616,4.7,11.4,8.014a59.3,59.3,0,0,1,6.524,10.265,25.914,25.914,0,0,0,6.024,8,27.915,27.915,0,0,0,12.423,6.14,31.009,31.009,0,0,0,3.606.607c.821.1,1.244.107,1.244.133" transform="translate(1.072)" fill="#22df96"/>
      <path id="Path_711" data-name="Path 711" d="M487.951,331.625c0,.352-18.952.636-42.324.636s-42.328-.284-42.328-.636,18.947-.636,42.328-.636,42.324.285,42.324.636" transform="translate(0.98)" fill="#171d24"/>
      <path id="Path_712" data-name="Path 712" d="M837.987,295.981V498.86h216.4V295.981Z" transform="translate(2.036)" fill="#f2f5f5"/>
      <path id="Path_713" data-name="Path 713" d="M945.129,318.973a66.609,66.609,0,1,0,66.771,66.61,66.69,66.69,0,0,0-66.771-66.61m1.007,106.522a40.917,40.917,0,1,1,41.016-40.917,40.967,40.967,0,0,1-41.016,40.917" transform="translate(2.134)" fill="#1d2679"/>
      <path id="Path_714" data-name="Path 714" d="M945.988,319c0,7.087,0,16.644-.007,24.661a40.919,40.919,0,0,1,39.082,53.324l24.2,6.547A66.562,66.562,0,0,0,945.988,319" transform="translate(2.298)" fill="#22df96"/>
      <path id="Path_715" data-name="Path 715" d="M946,425.495a41.2,41.2,0,0,1-8.677-.926c-1.031,5.937-2.981,17.439-4.512,26.5a66.773,66.773,0,0,0,76.48-47.534l-24.2-6.547A41.02,41.02,0,0,1,946,425.495" transform="translate(2.266)" fill="#ff725e"/>
      <path id="Path_716" data-name="Path 716" d="M946,425.495a41.2,41.2,0,0,1-8.677-.926c-1.031,5.937-2.981,17.439-4.512,26.5a66.773,66.773,0,0,0,76.48-47.534l-24.2-6.547A41.02,41.02,0,0,1,946,425.495" transform="translate(2.266)" fill="#ffd503"/>
      <path id="Path_717" data-name="Path 717" d="M937.167,387.89H934.7v3.179h-3.424V387.89H923.1v-2.357l7.153-9.6h3.685l-6.633,9.1h4.075V382.2H934.7v2.833h2.472Z" transform="translate(2.243)" fill="#263238"/>
      <path id="Path_718" data-name="Path 718" d="M938.167,383.5c0-4.995,2.775-7.828,6.5-7.828,3.75,0,6.5,2.833,6.5,7.828s-2.753,7.829-6.5,7.829c-3.729,0-6.5-2.833-6.5-7.829m9.473,0c0-3.437-1.214-4.865-2.969-4.865-1.734,0-2.948,1.428-2.948,4.865s1.214,4.867,2.948,4.867c1.755,0,2.969-1.428,2.969-4.867" transform="translate(2.279)" fill="#263238"/>
      <path id="Path_719" data-name="Path 719" d="M952.587,379.932c0-2.552,1.562-4.174,3.771-4.174s3.75,1.6,3.75,4.174-1.538,4.174-3.75,4.174-3.771-1.622-3.771-4.174m5.355,0c0-1.623-.63-2.4-1.584-2.4-.932,0-1.582.8-1.582,2.4s.65,2.4,1.582,2.4c.954,0,1.584-.778,1.584-2.4m7.457-4h2.578l-10.361,15.138h-2.579Zm-2.493,11.137c0-2.552,1.561-4.173,3.75-4.173,2.211,0,3.772,1.621,3.772,4.173s-1.561,4.173-3.772,4.173c-2.189,0-3.75-1.622-3.75-4.173m5.333,0c0-1.6-.63-2.4-1.583-2.4-.933,0-1.583.778-1.583,2.4s.65,2.4,1.583,2.4c.953,0,1.583-.8,1.583-2.4" transform="translate(2.314)" fill="#263238"/>
      <path id="Path_720" data-name="Path 720" d="M1000.352,469c0,.35-24.739.633-55.248.633s-55.254-.283-55.254-.633,24.733-.631,55.254-.631,55.248.282,55.248.631" transform="translate(2.162)" fill="#171d24"/>
      <path id="Path_721" data-name="Path 721" d="M975.685,479.118c0,.349-13.721.632-30.643.632s-30.645-.283-30.645-.632,13.718-.632,30.645-.632,30.643.283,30.643.632" transform="translate(2.221)" fill="#171d24"/>
      <rect id="Rectangle_1823" data-name="Rectangle 1823" width="434.342" height="142.35" transform="translate(597.094 512.356)" fill="#f2f5f5"/>
      <path id="Path_722" data-name="Path 722" d="M993.188,546.027c0,.253-73.814.459-164.846.459-91.065,0-164.862-.206-164.862-.459s73.8-.459,164.862-.459c91.032,0,164.846.206,164.846.459" transform="translate(1.612)" fill="#ebebeb"/>
      <path id="Path_723" data-name="Path 723" d="M993.188,562.87c0,.253-73.814.459-164.846.459-91.065,0-164.862-.206-164.862-.459s73.8-.459,164.862-.459c91.032,0,164.846.206,164.846.459" transform="translate(1.612)" fill="#ebebeb"/>
      <path id="Path_724" data-name="Path 724" d="M993.188,579.714c0,.254-73.814.459-164.846.459-91.065,0-164.862-.2-164.862-.459s73.8-.459,164.862-.459c91.032,0,164.846.206,164.846.459" transform="translate(1.612)" fill="#ebebeb"/>
      <path id="Path_725" data-name="Path 725" d="M993.188,596.557c0,.253-73.814.459-164.846.459-91.065,0-164.862-.206-164.862-.459s73.8-.459,164.862-.459c91.032,0,164.846.206,164.846.459" transform="translate(1.612)" fill="#ebebeb"/>
      <path id="Path_726" data-name="Path 726" d="M993.188,613.4c0,.253-73.814.459-164.846.459-91.065,0-164.862-.206-164.862-.459s73.8-.459,164.862-.459c91.032,0,164.846.206,164.846.459" transform="translate(1.612)" fill="#ebebeb"/>
      <path id="Path_727" data-name="Path 727" d="M964.484,593.784s-.228.26-.718.742a8.884,8.884,0,0,1-2.772,1.52,14.79,14.79,0,0,1-12.034-1.911,19.868,19.868,0,0,1-5.664-6.177,94.569,94.569,0,0,1-4.315-8.586,26.8,26.8,0,0,0-6.453-8.961,14.876,14.876,0,0,0-5.6-2.955,17.066,17.066,0,0,0-6.895-.33,27.924,27.924,0,0,0-13.155,6.03c-3.927,3.066-7.38,6.842-11.605,10.264a28.344,28.344,0,0,1-15.925,6.771,16.391,16.391,0,0,1-9.117-2.1,19.968,19.968,0,0,1-6.35-6.33c-3.278-4.894-4.938-10.586-9.2-15.051a15.16,15.16,0,0,0-7.983-4.778,12.4,12.4,0,0,0-9.375,1.948,18.824,18.824,0,0,0-6.163,7.093,40.245,40.245,0,0,0-2.918,8.869,49.341,49.341,0,0,1-2.891,9.207,19.059,19.059,0,0,1-6.557,7.889,26.29,26.29,0,0,1-10.057,4.343,27.574,27.574,0,0,1-11.095.14,26.747,26.747,0,0,1-9.8-4.183c-2.894-1.864-5.517-3.933-8.265-5.789a25.943,25.943,0,0,0-8.908-4.194,14.671,14.671,0,0,0-9.538,1.07,21.557,21.557,0,0,0-7.116,5.727,53.115,53.115,0,0,0-4.811,7.295,55.443,55.443,0,0,1-4.762,7.227,21.338,21.338,0,0,1-6.841,5.613,15.69,15.69,0,0,1-8.928,1.807,13.459,13.459,0,0,1-7.751-3.742,18.463,18.463,0,0,1-4.276-6.427,42.72,42.72,0,0,1-1.951-6.892c-.953-4.518-1.885-8.915-4.585-12.411a16.1,16.1,0,0,0-10.6-6.816,13.492,13.492,0,0,0-6.1.656,16.605,16.605,0,0,0-4.9,2.793c-5.565,4.609-8.244,10.178-12.371,13.4-3.909,3.348-8.131,4.893-11.066,4.811a10.5,10.5,0,0,1-3.226-.495c-.683-.251-1.017-.4-1.017-.4a12.745,12.745,0,0,0,4.24.71c2.865.02,6.963-1.539,10.778-4.88,4.023-3.2,6.608-8.758,12.257-13.522a17.144,17.144,0,0,1,5.066-2.926,14.206,14.206,0,0,1,6.443-.725,16.817,16.817,0,0,1,11.132,7.045,20.6,20.6,0,0,1,3.077,5.986c.7,2.147,1.176,4.382,1.678,6.64a42.5,42.5,0,0,0,1.949,6.782,17.783,17.783,0,0,0,4.125,6.158,12.535,12.535,0,0,0,7.219,3.476,14.652,14.652,0,0,0,8.331-1.723,20.419,20.419,0,0,0,6.536-5.4,54.86,54.86,0,0,0,4.671-7.132,53.74,53.74,0,0,1,4.874-7.416,22.472,22.472,0,0,1,7.439-5.993,15.846,15.846,0,0,1,10.271-1.164,26.975,26.975,0,0,1,9.3,4.348c2.79,1.881,5.414,3.946,8.253,5.77a25.625,25.625,0,0,0,9.4,4.02,26.365,26.365,0,0,0,10.611-.139,25.17,25.17,0,0,0,9.63-4.159,18.139,18.139,0,0,0,6.252-7.526,48.72,48.72,0,0,0,2.842-9.054,40.914,40.914,0,0,1,2.992-9.05,19.76,19.76,0,0,1,6.49-7.437,13.575,13.575,0,0,1,10.237-2.1,16.165,16.165,0,0,1,8.541,5.092c4.416,4.669,6.074,10.435,9.26,15.182a19.078,19.078,0,0,0,6.038,6.066,15.322,15.322,0,0,0,8.526,1.981,27.449,27.449,0,0,0,15.382-6.523c4.171-3.353,7.649-7.127,11.654-10.231a28.733,28.733,0,0,1,13.581-6.145,17.9,17.9,0,0,1,7.233.382A15.542,15.542,0,0,1,933,569.993a27.119,27.119,0,0,1,6.53,9.182c1.467,3.113,2.681,6.048,4.214,8.579a19.512,19.512,0,0,0,5.468,6.1,14.583,14.583,0,0,0,11.708,2.022,9.055,9.055,0,0,0,3.564-2.089" transform="translate(1.605)" fill="#1d2679"/>
      <path id="Path_728" data-name="Path 728" d="M985.348,589.853s-.382.038-1.143.068c-.379-.012-.844-.1-1.4-.165a13.52,13.52,0,0,1-1.839-.574c-2.743-1.019-6.156-3.5-9.816-7.153q-1.374-1.374-2.809-2.966a35.066,35.066,0,0,0-3.045-3.25,17.372,17.372,0,0,0-9.7-3.823,14.484,14.484,0,0,0-11.2,3.725c-3.174,2.7-5.56,6.3-8.681,9.711a24.489,24.489,0,0,1-5.558,4.67,18.874,18.874,0,0,1-7.6,2.461c-5.573.564-11.307-.761-16.736-2.709-5.47-1.966-10.7-4.674-16.584-6.407a34.938,34.938,0,0,0-9.153-1.588,22.585,22.585,0,0,0-9.241,1.746c-5.891,2.439-10.494,6.888-16.039,10.521a34.657,34.657,0,0,1-9.286,4.4,39.827,39.827,0,0,1-10.64,1.593,43.943,43.943,0,0,1-21.121-5.062,48.4,48.4,0,0,1-16.025-13.8c-4.3-5.565-6.652-11.884-9.754-17.648a35.619,35.619,0,0,0-5.672-8.029,24.585,24.585,0,0,0-8.356-5.581,16.488,16.488,0,0,0-18.437,3.835,23.839,23.839,0,0,0-5.007,7.511,53.36,53.36,0,0,0-2.587,8.305c-.688,2.787-1.305,5.569-2.188,8.27a33.532,33.532,0,0,1-3.588,7.7,37.188,37.188,0,0,1-12.1,11.814,38.817,38.817,0,0,1-15.787,5.524,38.012,38.012,0,0,1-15.61-1.563c-9.557-2.97-16.3-9.4-18.821-15.968-1.3-3.275-1.958-6.432-2.9-9.243a20.063,20.063,0,0,0-3.756-7.219c-3.457-3.771-8.035-5.072-10.885-4.828a9.208,9.208,0,0,0-4.129,1.3,7.418,7.418,0,0,1,4.111-1.482c2.924-.307,7.63.959,11.228,4.792a20.349,20.349,0,0,1,3.918,7.319c.974,2.829,1.662,5.98,2.969,9.194,2.522,6.414,9.147,12.657,18.518,15.528a37.2,37.2,0,0,0,15.242,1.471,37.9,37.9,0,0,0,15.388-5.442,36.347,36.347,0,0,0,11.792-11.58c3.054-4.687,4.333-10.17,5.639-15.763a53.959,53.959,0,0,1,2.608-8.429,24.672,24.672,0,0,1,5.175-7.785,17.612,17.612,0,0,1,19.631-4.082,25.608,25.608,0,0,1,8.727,5.812,36.42,36.42,0,0,1,5.829,8.229c3.149,5.856,5.469,12.084,9.688,17.537A47.464,47.464,0,0,0,814.3,594.273a42.813,42.813,0,0,0,20.555,4.942,38.616,38.616,0,0,0,10.321-1.535,33.553,33.553,0,0,0,9.011-4.26c5.454-3.549,10.093-8.044,16.229-10.584a23.671,23.671,0,0,1,9.685-1.81,36,36,0,0,1,9.435,1.652c5.984,1.78,11.249,4.525,16.617,6.467,5.349,1.941,10.955,3.235,16.3,2.709a18.019,18.019,0,0,0,7.265-2.321,23.849,23.849,0,0,0,5.411-4.513c3.1-3.341,5.513-6.954,8.8-9.722a15.171,15.171,0,0,1,11.726-3.819,17.869,17.869,0,0,1,10.005,4.023,34.631,34.631,0,0,1,3.055,3.319q1.409,1.593,2.758,2.975c3.591,3.671,6.927,6.164,9.591,7.218a9.643,9.643,0,0,0,4.3.839" transform="translate(1.599)" fill="#22df96"/>
      <path id="Path_729" data-name="Path 729" d="M640.922,546.864c0,.253-1.952.459-4.36.459s-4.361-.206-4.361-.459,1.952-.459,4.361-.459,4.36.206,4.36.459" transform="translate(1.536)" fill="#e0e0e0"/>
      <path id="Path_730" data-name="Path 730" d="M640.922,562.87c0,.253-1.952.459-4.36.459s-4.361-.206-4.361-.459,1.952-.459,4.361-.459,4.36.206,4.36.459" transform="translate(1.536)" fill="#e0e0e0"/>
      <path id="Path_731" data-name="Path 731" d="M640.922,578.877c0,.253-1.952.459-4.36.459s-4.361-.206-4.361-.459,1.952-.459,4.361-.459,4.36.206,4.36.459" transform="translate(1.536)" fill="#e0e0e0"/>
      <path id="Path_732" data-name="Path 732" d="M640.922,594.884c0,.253-1.952.459-4.36.459s-4.361-.206-4.361-.459,1.952-.459,4.361-.459,4.36.206,4.36.459" transform="translate(1.536)" fill="#e0e0e0"/>
      <path id="Path_733" data-name="Path 733" d="M640.922,610.89c0,.253-1.952.459-4.36.459s-4.361-.206-4.361-.459,1.952-.459,4.361-.459,4.36.206,4.36.459" transform="translate(1.536)" fill="#e0e0e0"/>
      <path id="Path_734" data-name="Path 734" d="M680.92,631.464c0,.253-3.9.459-8.719.459s-8.72-.206-8.72-.459,3.9-.459,8.72-.459,8.719.206,8.719.459" transform="translate(1.612)" fill="#e0e0e0"/>
      <path id="Path_735" data-name="Path 735" d="M757.61,631.464c0,.253-3.9.459-8.719.459s-8.72-.206-8.72-.459,3.9-.459,8.72-.459,8.719.206,8.719.459" transform="translate(1.798)" fill="#e0e0e0"/>
      <path id="Path_736" data-name="Path 736" d="M834.3,631.464c0,.253-3.9.459-8.719.459s-8.72-.206-8.72-.459,3.9-.459,8.72-.459,8.719.206,8.719.459" transform="translate(1.985)" fill="#e0e0e0"/>
      <path id="Path_737" data-name="Path 737" d="M910.99,631.464c0,.253-3.9.459-8.719.459s-8.72-.206-8.72-.459,3.9-.459,8.72-.459,8.719.206,8.719.459" transform="translate(2.171)" fill="#e0e0e0"/>
      <path id="Path_738" data-name="Path 738" d="M987.68,631.464c0,.253-3.9.459-8.719.459s-8.72-.206-8.72-.459,3.9-.459,8.72-.459,8.719.206,8.719.459" transform="translate(2.357)" fill="#e0e0e0"/>
      <path id="Path_739" data-name="Path 739" d="M204.715,471.31l39.741-95.65c1.813-4.365-.461-7.9-5.081-7.9h-8c-3.262,0-5.486-1.793-5.7-4.592l-.265-3.517c-.212-2.8-2.439-4.591-5.7-4.591H181.72a13.317,13.317,0,0,0-8.8,3.882l-3.084,2.981a13.3,13.3,0,0,1-8.789,3.883h-48.39a13.5,13.5,0,0,0-11.556,7.9l-39.4,97.6Z" transform="translate(0.15)" fill="#ff725e"/>
      <path id="Path_740" data-name="Path 740" d="M204.715,471.31l39.741-95.65c1.813-4.365-.461-7.9-5.081-7.9h-8c-3.262,0-5.486-1.793-5.7-4.592l-.265-3.517c-.212-2.8-2.439-4.591-5.7-4.591H181.72a13.317,13.317,0,0,0-8.8,3.882l-3.084,2.981a13.3,13.3,0,0,1-8.789,3.883h-48.39a13.5,13.5,0,0,0-11.556,7.9l-39.4,97.6Z" transform="translate(0.15)" fill="#16c17b"/>
      <path id="Path_741" data-name="Path 741" d="M211.246,438.826l14.988-57.81c.986-3.806-1.512-7.625-4.99-7.625H103.762a5.354,5.354,0,0,0-5,4.306L76.942,464.709c-.958,3.821.572,6.113,4.055,6.069l118.2.036a5.357,5.357,0,0,0,4.938-4.27Z" transform="translate(0.186)" fill="#e0e0e0"/>
      <path id="Path_742" data-name="Path 742" d="M203.114,468.694l6.384-91.038a5.588,5.588,0,0,0-5.583-5.973H82.19v97.011Z" transform="translate(0.2)" fill="#ebebeb"/>
      <path id="Path_743" data-name="Path 743" d="M204.545,470.777l-14.481-93.853a6.738,6.738,0,0,0-6.619-5.241H60.305a6.641,6.641,0,0,0-6.217,9.25l26.589,85.889Z" transform="translate(0.13)" fill="#fafafa"/>
      <path id="Path_744" data-name="Path 744" d="M204.783,471.268l-29.864-87.9a8.838,8.838,0,0,0-8.306-6.111H39.666A6.191,6.191,0,0,0,34,385.469L61.773,471.31Z" transform="translate(0.082)" fill="#22df96"/>
      <path id="Path_745" data-name="Path 745" d="M1408.076,848.33c0,.3-313.426.538-699.967.538-386.675,0-700.033-.241-700.033-.538s313.359-.538,700.033-.538c386.541,0,699.967.241,699.967.538" transform="translate(-8.076)" fill="#dbdee5"/>
    </g>
  </g>
</svg>
