<svg xmlns="http://www.w3.org/2000/svg" width="16" height="12" viewBox="0 0 16 12">
  <g id="Icon_feather-download" data-name="Icon feather-download" transform="translate(-4 -5.451)">
    <path id="Path_3969" data-name="Path 3969" d="M17.856,28.325H6.144A2.215,2.215,0,0,1,4,26.05V22.5h.943v3.55a1.241,1.241,0,0,0,1.2,1.275H17.856a1.241,1.241,0,0,0,1.2-1.275V22.5H20v3.55A2.215,2.215,0,0,1,17.856,28.325Z" transform="translate(0 -10.874)" fill="#6e7684"/>
    <path id="Path_3970" data-name="Path 3970" d="M14.45,19.938a.426.426,0,0,1-.318-.146l-3.986-4.438.635-.707L14.45,18.73l3.668-4.084.635.707-3.986,4.438A.426.426,0,0,1,14.45,19.938Z" transform="translate(-2.45 -5.978)" fill="#6e7684"/>
    <path id="Path_3971" data-name="Path 3971" d="M18.5,12.142h-1V4.5h1Z" transform="translate(-6 0.951)" fill="#6e7684"/>
  </g>
</svg>
