<svg xmlns="http://www.w3.org/2000/svg" width="16" height="12" viewBox="0 0 16 12">
  <path id="Icon_material-email" data-name="Icon material-email" d="M4.515,5.5H16.485A1.944,1.944,0,0,1,18.5,7.359v8.281A1.944,1.944,0,0,1,16.485,17.5H4.515A1.944,1.944,0,0,1,2.5,15.641l.007-8.282A1.94,1.94,0,0,1,4.515,5.5ZM16.485,16.542a.942.942,0,0,0,.977-.9V7.359a.942.942,0,0,0-.977-.9H4.515a.938.938,0,0,0-.969.9l-.007,8.282a.942.942,0,0,0,.977.9ZM14.527,7.948l.676.728-4.7,3.718L5.8,8.675l.676-.727,4.02,3.183Z" transform="translate(-2.5 -5.5)" fill="#6e7684"/>
</svg>
