<svg xmlns="http://www.w3.org/2000/svg" width="200" height="42" viewBox="0 0 200 42"><defs><style>.a{fill:#24e096;}</style></defs><g transform="translate(0 0)"><path class="a" d="M-238.371,3500.993l-4.929,5.111,3.477,6.565-7.343-1.26-3.343,7.727-14.2-17.839Zm.909,11.069-1.367-1.077,1.763.534.18-.247-.729-.677.956.371a9.368,9.368,0,0,1,6.237,8.705,9.125,9.125,0,0,1-3.047,6.771,8.966,8.966,0,0,0,1.264-4.6,9.565,9.565,0,0,0-6.164-8.787l-.45-1.049,1.071.453.3-.389-.016-.015Zm-6.234-2.7-2.286-3.861-13.423-3.012Z" transform="translate(430.422 -3500.993)"/><g transform="translate(0 17.062)"><g transform="translate(73.379)"><path d="M-385.956,3536.7l-4.422-8.626h-.1v12.876h-3.5v-19.084h4.5l5.014,10.279h.1l5.142-10.279h4.294v19.084h-3.5v-12.876h-.1l-4.4,8.626Z" transform="translate(393.978 -3521.871)"/><path d="M-357.671,3529.611a4.787,4.787,0,0,1,4.294,2.086h.1a8.549,8.549,0,0,1-.051-1.17v-.508h3.291V3543.2h-3.291v-.611c0-.586.026-.942.051-1.222h-.1a4.92,4.92,0,0,1-4.448,2.24c-3.806,0-6.479-2.876-6.479-7S-361.476,3529.611-357.671,3529.611Zm4.216,6.948a3.59,3.59,0,0,0-3.625-3.843,3.585,3.585,0,0,0-3.6,3.843,3.614,3.614,0,0,0,3.6,3.893A3.619,3.619,0,0,0-353.455,3536.559Z" transform="translate(385.5 -3524.115)"/><path d="M-334.9,3530.186v3.128h-2.828v10.052h-3.6v-13.18Z" transform="translate(378.935 -3524.281)"/><path d="M-329.329,3521.871h3.6v10.991a4.97,4.97,0,0,0,.617.026,3.424,3.424,0,0,0,3.6-3.664c0-.408,0-.764-.052-1.451h3.446a12.666,12.666,0,0,1,.077,1.5,6.279,6.279,0,0,1-2.829,5.6l3.6,6.082h-4.036l-2.854-5.09c-.257.025-.54.025-.823.025-.232,0-.489,0-.746-.025v5.09h-3.6Z" transform="translate(375.507 -3521.871)"/><path d="M-304.366,3543.607a6.8,6.8,0,0,1-7.147-7,6.777,6.777,0,0,1,7.1-7c3.909,0,6.531,2.927,6.531,7a5.345,5.345,0,0,1-.1,1.12h-9.8a3.262,3.262,0,0,0,3.446,2.723A3.849,3.849,0,0,0-301,3538.9l2.082,2.162A6.483,6.483,0,0,1-304.366,3543.607Zm-3.419-8.143h6.376a3.024,3.024,0,0,0-3.085-2.748A3.2,3.2,0,0,0-307.785,3535.464Z" transform="translate(370.416 -3524.115)"/><path d="M-289.176,3531.867h-1.259v-3.053h1.259v-3.36h3.6v3.36h3.086v3.053h-3.086v7.024h2.7v3.1h-6.3Z" transform="translate(364.394 -3522.909)"/><path d="M-276.816,3523.957a2.1,2.1,0,0,1,2.134-2.086,2.1,2.1,0,0,1,2.134,2.086,2.1,2.1,0,0,1-2.134,2.086A2.1,2.1,0,0,1-276.816,3523.957Zm.36,17v-13.181h3.6v13.181Z" transform="translate(360.503 -3521.871)"/><path d="M-256.959,3530.186v13.18h-3.6v-10.128h-4.113v10.128h-3.6v-13.18Z" transform="translate(358.062 -3524.281)"/><path d="M-243.083,3529.611a4.958,4.958,0,0,1,4.4,2.139h.1a9.583,9.583,0,0,1-.052-1.12v-.611h3.291v19.034h-9.9v-3.105h6.326v-3.562a5.74,5.74,0,0,1,.076-1.145h-.1a4.448,4.448,0,0,1-3.986,1.883,6.412,6.412,0,0,1-6.505-6.743C-249.434,3532.386-246.76,3529.611-243.083,3529.611Zm-2.726,6.744a3.439,3.439,0,0,0,3.523,3.639,3.454,3.454,0,0,0,3.523-3.639,3.44,3.44,0,0,0-3.523-3.639A3.44,3.44,0,0,0-245.809,3536.355Z" transform="translate(352.68 -3524.115)"/></g><path d="M-496.708,3521.871h11.39v3.154h-7.739v4.758h7.1v3.079h-7.1v4.911h7.739v3.181h-11.39Z" transform="translate(496.708 -3521.871)"/><path d="M-442.289,3529.611A4.786,4.786,0,0,1-438,3531.7h.1a8.544,8.544,0,0,1-.051-1.17v-.508h3.291V3543.2h-3.291v-.611c0-.586.026-.942.051-1.222h-.1a4.919,4.919,0,0,1-4.447,2.24c-3.806,0-6.479-2.876-6.479-7S-446.094,3529.611-442.289,3529.611Zm4.217,6.948a3.59,3.59,0,0,0-3.625-3.843,3.585,3.585,0,0,0-3.6,3.843,3.614,3.614,0,0,0,3.6,3.893A3.619,3.619,0,0,0-438.072,3536.559Z" transform="translate(483.055 -3524.115)"/><path d="M-426.449,3523.957a2.1,2.1,0,0,1,2.134-2.086,2.1,2.1,0,0,1,2.134,2.086,2.1,2.1,0,0,1-2.134,2.086A2.1,2.1,0,0,1-426.449,3523.957Zm.36,17v-13.181h3.6v13.181Z" transform="translate(476.634 -3521.871)"/><path d="M-417.9,3521.871h3.6v15.979h2.777v3.1H-417.9Z" transform="translate(474.193 -3521.871)"/><path d="M-459.306,3530.31v13.242h-3.579v-10.173H-466.7v10.173h-3.679v-8.627a1.1,1.1,0,0,0-.007-.156v-1.39h-3.8v10.173h-3.579V3530.31Z" transform="translate(491.295 -3524.318)"/></g></g></svg>