<svg xmlns="http://www.w3.org/2000/svg" width="60" height="60" viewBox="0 0 60 60">
  <g id="_4229880_games_rocket_icon" data-name="4229880_games_rocket_icon" transform="translate(-7.493 -6.475)">
    <path id="Path_32" data-name="Path 32" d="M147.474,65.2a6.118,6.118,0,1,0,8.652,0A6.13,6.13,0,0,0,147.474,65.2Zm6.815,6.815a3.52,3.52,0,1,1,0-4.978A3.551,3.551,0,0,1,154.289,72.017Z" transform="translate(-104.344 -43.132)"/>
    <path id="Path_33" data-name="Path 33" d="M119.248,7.174a2.383,2.383,0,0,0-1.837-.692l-.692.053c-.16.027-3.913.586-5.351.905-1.384.293-2.769.639-4.126,1.065-1.038.319-2.769.958-3.7,1.3-.426.16-.825.319-1.251.506l-2.449,1.091-.373.186A50.257,50.257,0,0,0,74.817,39.439L73.3,43.565l4.765,4.792L82.857,53.1l4.126-1.517a50.074,50.074,0,0,0,27.846-24.651l1.251-2.8c.186-.4.346-.825.506-1.251.346-.932.985-2.636,1.3-3.7.4-1.358.772-2.742,1.065-4.126.293-1.358.852-4.978.878-5.218l.08-.825A2.27,2.27,0,0,0,119.248,7.174Zm-1.97,2.369c0,.027-.559,3.7-.852,4.978-.293,1.331-.612,2.636-1.012,3.913-.293.985-.905,2.636-1.251,3.541-.133.373-.293.745-.453,1.091l-1.038,2.343-.186.373A47.619,47.619,0,0,1,86.052,49.155l-2.582.958-3.62-3.594L76.255,42.9l.958-2.582A47.661,47.661,0,0,1,100.56,13.882l2.715-1.225c.346-.16.719-.319,1.091-.453.905-.346,2.556-.932,3.541-1.251,1.278-.373,2.609-.719,3.913-1.012,1.278-.266,4.685-.8,5.165-.879l.266-.027Z" transform="translate(-52.435)"/>
    <path id="Path_34" data-name="Path 34" d="M19.608,161.952c-5.537.586-8.892,5.99-10.063,10.436a7.841,7.841,0,0,1-1.464,3.408c-.213.24-.559.426-.586.772a1.459,1.459,0,0,0,.479,1.012,2.5,2.5,0,0,0,2.582.213,7.05,7.05,0,0,0,2.5-1.73c.319-.293.639-.586.932-.825a1.444,1.444,0,0,1,1.118-.346.838.838,0,0,1,.506.532,2.874,2.874,0,0,1-.4,2.715,8.2,8.2,0,0,1-1.384,1.3,6.446,6.446,0,0,0-2.742,3.967c-.08.719-.053,1.571.825,1.73a3.227,3.227,0,0,0,2.1-.692c1.331-.8,2.982-.825,4.446-1.225a22.9,22.9,0,0,0,3.727-1.3,15.714,15.714,0,0,0,5.244-3.674,10.487,10.487,0,0,0,2.582-5.138,9.49,9.49,0,0,0-2.476-8.2A9.617,9.617,0,0,0,19.608,161.952Zm7.853,10.755a7.842,7.842,0,0,1-1.943,3.86c-1.943,2.13-5.3,3.78-9.264,4.552l-.293.053a.1.1,0,0,0-.08.027,8.023,8.023,0,0,0,1.411-1.438,5.519,5.519,0,0,0,.692-5.3,3.927,3.927,0,0,0-.8-1.2,3.3,3.3,0,0,0-1.411-.825,3.916,3.916,0,0,0-3.328.745,4.9,4.9,0,0,0-.586.453c.053-.213.106-.4.16-.612.958-3.647,3.594-8.066,7.827-8.519a7.129,7.129,0,0,1,7.614,8.2Z" transform="translate(0 -118.688)"/>
  </g>
</svg>
