<svg xmlns="http://www.w3.org/2000/svg" width="165.994" height="166" viewBox="0 0 165.994 166">
  <path id="Subtraction_1" data-name="Subtraction 1" d="M-1907,166a83.613,83.613,0,0,1-16.727-1.686,82.585,82.585,0,0,1-15.58-4.836,83.013,83.013,0,0,1-14.1-7.652,83.6,83.6,0,0,1-12.284-10.135,83.6,83.6,0,0,1-10.135-12.284,83.023,83.023,0,0,1-7.653-14.1,82.587,82.587,0,0,1-4.836-15.58A83.618,83.618,0,0,1-1990,83a83.618,83.618,0,0,1,1.686-16.727,82.586,82.586,0,0,1,4.836-15.58,83.022,83.022,0,0,1,7.653-14.1A83.6,83.6,0,0,1-1965.69,24.31a83.6,83.6,0,0,1,12.284-10.135,83.012,83.012,0,0,1,14.1-7.652,82.585,82.585,0,0,1,15.58-4.836A83.613,83.613,0,0,1-1907,0a83.627,83.627,0,0,1,16.61,1.662,82.585,82.585,0,0,1,15.481,4.769,83,83,0,0,1,14.026,7.549,83.6,83.6,0,0,1,12.245,10,83.621,83.621,0,0,1,10.136,12.13,83.044,83.044,0,0,1,7.7,13.93,82.582,82.582,0,0,1,4.941,15.4A83.491,83.491,0,0,1-1824.006,82h-24a58.449,58.449,0,0,0-4.915-22.593,59.129,59.129,0,0,0-5.5-9.853,59.6,59.6,0,0,0-7.211-8.581,59.563,59.563,0,0,0-8.7-7.078,59.064,59.064,0,0,0-9.948-5.342A58.506,58.506,0,0,0-1907,24a59.066,59.066,0,0,0-59,59,59.067,59.067,0,0,0,59,59,58.506,58.506,0,0,0,22.726-4.552,59.061,59.061,0,0,0,9.948-5.342,59.56,59.56,0,0,0,8.7-7.078,59.6,59.6,0,0,0,7.211-8.581,59.124,59.124,0,0,0,5.5-9.853A58.453,58.453,0,0,0-1848.008,84h24a83.488,83.488,0,0,1-1.853,16.552,82.582,82.582,0,0,1-4.941,15.4,83.044,83.044,0,0,1-7.7,13.93,83.621,83.621,0,0,1-10.136,12.13,83.6,83.6,0,0,1-12.245,10,83,83,0,0,1-14.026,7.549,82.585,82.585,0,0,1-15.481,4.769A83.627,83.627,0,0,1-1907,166Z" transform="translate(1990)" fill="#63cdcc"/>
</svg>
